<svg width="44" height="44" viewBox="0 0 44 44" fill="none" xmlns="http://www.w3.org/2000/svg">
<path d="M7.14871 26.3963L12.381 25.4681C13.0647 25.3462 13.6836 25.0235 14.1718 24.5353C14.9481 23.759 15.2961 22.6496 15.103 21.5686L14.7933 19.8289C16.7954 19.4342 19.2548 19.2193 21.8041 19.219C24.3531 19.219 26.8123 19.4342 28.8141 19.8291L28.5049 21.5684C28.3464 22.4541 28.5423 23.3474 29.0565 24.0831C29.5705 24.8181 30.3408 25.3098 31.2271 25.4681L36.4589 26.3967C37.5524 26.5903 38.6628 26.2489 39.4291 25.4825C39.6947 25.2169 39.9083 24.9096 40.0647 24.5702C40.2423 24.1845 40.377 23.7945 40.4726 23.3757L40.5985 22.6509C40.6221 22.462 40.6305 22.2725 40.6305 22.0831C40.6307 21.0456 40.3424 20.0209 39.7739 19.0368C37.3369 14.8267 30.1149 11.9974 21.8038 11.9974C14.8244 11.9974 8.46409 14.0221 5.20489 17.2803L5.20466 17.2806C4.64656 17.8386 4.18551 18.4297 3.83403 19.0375C3.26526 20.0213 2.97692 21.0461 2.97692 22.0843C2.97692 22.2728 2.98574 22.4617 3.01407 22.6832L3.14198 23.4105C3.2295 23.791 3.36438 24.1808 3.54268 24.5699C4.15997 25.912 5.64297 26.6632 7.14871 26.3963Z" fill="white"/>
</svg>
