<svg width="23" height="20" viewBox="0 0 23 20" fill="none" xmlns="http://www.w3.org/2000/svg">
<path d="M16.1808 4.75907C16.1808 6.92445 13.2818 10.7833 12.0087 12.3379C11.7034 12.7543 11.1402 12.7543 10.8348 12.3379C9.56177 10.7833 6.6627 6.92445 6.6627 4.75907C6.6627 2.13087 8.79239 0 11.4218 0C14.0512 0 16.1808 2.13087 16.1808 4.75907ZM11.4218 6.02816C12.2982 6.02816 13.0081 5.31826 13.0081 4.4418C13.0081 3.56573 12.2982 2.85544 11.4218 2.85544C10.5453 2.85544 9.83541 3.56573 9.83541 4.4418C9.83541 5.31826 10.5453 6.02816 11.4218 6.02816ZM16.8788 7.13068C16.8987 7.08309 16.9185 7.0355 16.9383 6.98394L21.5388 5.14376C22.1654 4.89391 22.8435 5.35396 22.8435 6.02816V16.7678C22.8435 17.1565 22.6056 17.5055 22.2447 17.6522L16.4981 19.9484V7.94765C16.6369 7.674 16.7638 7.40432 16.8788 7.13068ZM5.9647 7.13068C6.07971 7.40432 6.20662 7.674 6.34543 7.94765V17.9179L1.30518 19.9365C0.680151 20.1507 0 19.7264 0 19.0522V8.31251C0 7.92386 0.236962 7.53916 0.598453 7.42812L5.45707 5.48483C5.55225 6.04799 5.74658 6.60718 5.9647 7.13068ZM13.0002 13.1311C13.5515 12.4767 14.416 11.3544 15.229 10.113V20L7.61451 17.8227V10.113C8.42752 11.3544 9.29209 12.4767 9.84335 13.1311C10.6564 14.182 12.1872 14.182 13.0002 13.1311Z" fill="url(#paint0_linear_1_13185)"/>
<defs>
<linearGradient id="paint0_linear_1_13185" x1="11.4218" y1="0" x2="11.4218" y2="20" gradientUnits="userSpaceOnUse">
<stop stop-color="#C19444"/>
<stop offset="1" stop-color="#C49B2F"/>
</linearGradient>
</defs>
</svg>
