<svg width="322" height="340" viewBox="0 0 322 340" fill="none" xmlns="http://www.w3.org/2000/svg">
<path d="M321.177 136.224C321.177 81.6564 290.607 66.2334 199.849 20.4386C188.727 14.8272 176.655 8.7415 163.577 2.04616L160.85 0.646118L158.124 2.04616C145.056 8.7415 132.996 14.8159 121.874 20.4273C31.1042 66.2221 0.523193 81.6451 0.523193 136.224V142.185H25.5152V312.008L27.2462 313.747C28.2871 314.797 53.1886 339.354 102.03 339.354C121.252 339.354 141.029 334.239 160.85 324.145C180.672 334.239 200.448 339.354 219.67 339.354C268.5 339.354 293.413 314.797 294.454 313.747L296.174 312.008V142.185H321.166V136.224H321.177ZM284.226 306.882C278.174 311.884 256.406 327.431 219.682 327.431C201.523 327.431 182.674 322.294 163.679 312.155L160.861 310.653L158.044 312.155C139.026 322.282 120.189 327.431 102.041 327.431C65.283 327.431 43.5154 311.872 37.4852 306.882V142.185H50.5186V299.001L53.2339 300.762C67.0253 309.727 83.5321 314.469 100.967 314.469C115.901 314.469 131.287 310.98 144.309 304.635L151.663 301.056L146.018 295.151C142.115 291.064 138.291 287.191 134.614 283.465C115.573 264.158 100.537 248.893 96.5655 227.52C94.1444 214.525 97.7987 201.676 106.352 193.151C119.306 180.212 137.125 181.579 157.23 196.945L160.861 199.723L164.493 196.945C184.598 181.579 202.406 180.212 215.36 193.151C223.913 201.676 227.567 214.525 225.157 227.52C221.175 248.905 206.139 264.158 187.109 283.465C183.432 287.191 179.62 291.064 175.705 295.151L169.686 301.451L177.742 304.782C212.226 319.053 244.289 317.744 268.659 300.65L271.193 298.866V142.185H284.226V306.882ZM223.811 184.717C215.722 176.645 205.732 172.377 194.927 172.377C184.111 172.377 172.673 176.565 160.85 184.819C149.027 176.554 137.578 172.377 126.762 172.377C115.957 172.377 105.967 176.645 97.8779 184.717C86.5415 196.019 81.654 212.842 84.7992 229.699C89.4379 254.663 106.42 271.892 126.072 291.843C127.791 293.593 129.545 295.365 131.333 297.195C121.773 300.672 111.239 302.546 100.955 302.546C86.9828 302.546 73.7344 299.069 62.4659 292.453V130.263H37.6888C39.895 102.375 59.8751 92.6422 145.837 50.8217L160.85 43.5167L175.841 50.8217C261.814 92.6535 281.805 102.375 284 130.274H259.223V292.599C240.544 304.454 216.74 305.787 190.628 296.924C192.314 295.207 193.977 293.514 195.617 291.854C215.269 271.904 232.251 254.685 236.89 229.722C240.035 212.831 235.136 196.019 223.811 184.717ZM296.174 130.263H295.993C293.719 94.889 269.304 83.0113 181.079 40.0843L160.839 30.2276L140.587 40.0956C52.3854 83 27.9703 94.889 25.6963 130.263H25.5152H12.6289C14.903 87.7646 42.9158 73.6401 127.271 31.0857C137.623 25.8581 148.801 20.2241 160.85 14.0707C172.899 20.2354 184.089 25.8694 194.452 31.097C278.785 73.6513 306.797 87.7759 309.071 130.274H296.174V130.263Z" fill="#F8F4E9"/>
<path d="M160.851 83.2252C137.239 83.2252 118.028 102.397 118.028 125.971C118.028 149.535 137.239 168.707 160.851 168.707C184.462 168.707 203.673 149.535 203.673 125.971C203.673 102.397 184.462 83.2252 160.851 83.2252ZM160.851 156.772C143.835 156.772 129.975 142.953 129.975 125.971C129.975 108.979 143.823 95.1594 160.851 95.1594C177.878 95.1594 191.714 108.979 191.714 125.971C191.714 142.953 177.866 156.772 160.851 156.772Z" fill="#F8F4E9"/>
<path d="M160.851 105.209C149.379 105.209 140.045 114.524 140.045 125.972C140.045 137.421 149.379 146.725 160.851 146.725C172.323 146.725 181.646 137.41 181.646 125.972C181.646 114.524 172.312 105.209 160.851 105.209ZM160.851 134.79C155.975 134.79 152.004 130.827 152.004 125.972C152.004 121.106 155.975 117.143 160.851 117.143C165.727 117.143 169.687 121.106 169.687 125.972C169.687 130.827 165.727 134.79 160.851 134.79Z" fill="#F8F4E9"/>
<path d="M200.38 253.376C216.536 233.617 218.686 212.82 205.754 201.631C202.349 198.684 198.197 197.193 193.422 197.193C181.237 197.193 167.65 207.355 160.85 213.192C154.05 207.355 140.463 197.193 128.278 197.193C123.503 197.193 119.351 198.684 115.946 201.631C103.014 212.82 105.164 233.606 121.32 253.376C130.665 264.813 139.128 272.942 153.157 286.412L160.85 293.807L168.543 286.412C182.572 272.942 191.035 264.813 200.38 253.376ZM160.85 277.255C147.047 264 139.343 256.571 130.574 245.845C118.819 231.449 116.081 217.302 123.764 210.663C124.963 209.624 126.411 209.139 128.278 209.139C136.763 209.139 150.181 219.199 156.653 225.533L160.85 229.643L165.047 225.522C169.381 221.265 183.885 209.128 193.422 209.128C195.289 209.128 196.726 209.613 197.925 210.652C205.618 217.302 202.88 231.438 191.114 245.834C182.357 256.56 174.641 264 160.85 277.255Z" fill="#F8F4E9"/>
</svg>
