<svg width="86" height="25" viewBox="0 0 86 25" fill="none" xmlns="http://www.w3.org/2000/svg">
<path d="M0.833511 14.1673C1.29356 14.1673 1.66664 13.7942 1.66664 13.3341V11.6671C1.66664 11.2071 1.29356 10.834 0.833511 10.834C0.373077 10.834 0 11.2071 0 11.6671V13.3341C0 13.7942 0.373077 14.1673 0.833511 14.1673Z" fill="#C19444"/>
<path d="M4.16664 14.1668V10.8335C4.16664 10.3731 3.79356 10 3.33313 10C2.87308 10 2.5 10.3731 2.5 10.8335V14.1668C2.5 14.6272 2.87308 15.0003 3.33313 15.0003C3.79356 15.0003 4.16664 14.6272 4.16664 14.1668Z" fill="#C19444"/>
<path d="M14.1666 14.1668V10.8335C14.1666 10.3731 13.7936 10 13.3335 10C12.8731 10 12.5 10.3731 12.5 10.8335V14.1668C12.5 14.6272 12.8731 15.0003 13.3335 15.0003C13.7936 15.0003 14.1666 14.6272 14.1666 14.1668Z" fill="#C19444"/>
<path d="M7.50014 15.8331V9.16652C7.50014 8.70609 7.12706 8.33301 6.66663 8.33301C6.20657 8.33301 5.8335 8.70609 5.8335 9.16652V15.8331C5.8335 16.2935 6.20657 16.6666 6.66663 16.6666C7.12706 16.6666 7.50014 16.2935 7.50014 15.8331Z" fill="#C19444"/>
<path d="M10.8331 15.8331V9.16652C10.8331 8.70609 10.4601 8.33301 9.99963 8.33301C9.53958 8.33301 9.1665 8.70609 9.1665 9.16652V15.8331C9.1665 16.2935 9.53958 16.6666 9.99963 16.6666C10.4601 16.6666 10.8331 16.2935 10.8331 15.8331Z" fill="#C19444"/>
<path d="M17.5001 17.4994V7.49953C17.5001 7.03909 17.1271 6.66602 16.667 6.66602C16.2066 6.66602 15.8335 7.03909 15.8335 7.49953V17.4994C15.8335 17.9598 16.2066 18.3329 16.667 18.3329C17.1271 18.3329 17.5001 17.9598 17.5001 17.4994Z" fill="#C19444"/>
<path d="M20.8331 19.1666V5.83351C20.8331 5.37308 20.4601 5 20 5C19.5396 5 19.1665 5.37308 19.1665 5.83351V19.1666C19.1665 19.6271 19.5396 20.0002 20 20.0002C20.4601 20.0002 20.8331 19.6271 20.8331 19.1666Z" fill="#C19444"/>
<path d="M24.1666 24.1665V0.833511C24.1666 0.373077 23.7936 0 23.3335 0C22.8731 0 22.5 0.373077 22.5 0.833511V24.1665C22.5 24.6269 22.8731 25 23.3335 25C23.7936 25 24.1666 24.6269 24.1666 24.1665Z" fill="#C19444"/>
<path d="M49.1666 10.834C48.7066 10.834 48.3335 11.2071 48.3335 11.6671V13.3341C48.3335 13.7942 48.7066 14.1673 49.1666 14.1673C49.6271 14.1673 50.0001 13.7942 50.0001 13.3341V11.6671C50.0001 11.2071 49.6271 10.834 49.1666 10.834Z" fill="#C19444"/>
<path d="M47.4996 14.1668V10.8335C47.4996 10.3731 47.1266 10 46.6665 10C46.2061 10 45.833 10.3731 45.833 10.8335V14.1668C45.833 14.6272 46.2061 15.0003 46.6665 15.0003C47.1266 15.0003 47.4996 14.6272 47.4996 14.1668Z" fill="#C19444"/>
<path d="M37.5001 14.1668V10.8335C37.5001 10.3731 37.1271 10 36.6666 10C36.2066 10 35.8335 10.3731 35.8335 10.8335V14.1668C35.8335 14.6272 36.2066 15.0003 36.6666 15.0003C37.1271 15.0003 37.5001 14.6272 37.5001 14.1668Z" fill="#C19444"/>
<path d="M44.1666 15.8331V9.16652C44.1666 8.70609 43.7936 8.33301 43.3335 8.33301C42.8731 8.33301 42.5 8.70609 42.5 9.16652V15.8331C42.5 16.2935 42.8731 16.6666 43.3335 16.6666C43.7936 16.6666 44.1666 16.2935 44.1666 15.8331Z" fill="#C19444"/>
<path d="M40.8331 15.8331V9.16652C40.8331 8.70609 40.4601 8.33301 40 8.33301C39.5396 8.33301 39.1665 8.70609 39.1665 9.16652V15.8331C39.1665 16.2935 39.5396 16.6666 40 16.6666C40.4601 16.6666 40.8331 16.2935 40.8331 15.8331Z" fill="#C19444"/>
<path d="M34.1666 17.4994V7.49953C34.1666 7.03909 33.7936 6.66602 33.3331 6.66602C32.8731 6.66602 32.5 7.03909 32.5 7.49953V17.4994C32.5 17.9598 32.8731 18.3329 33.3331 18.3329C33.7936 18.3329 34.1666 17.9598 34.1666 17.4994Z" fill="#C19444"/>
<path d="M30.8336 19.1666V5.83351C30.8336 5.37308 30.4606 5 30.0001 5C29.5401 5 29.167 5.37308 29.167 5.83351V19.1666C29.167 19.6271 29.5401 20.0002 30.0001 20.0002C30.4606 20.0002 30.8336 19.6271 30.8336 19.1666Z" fill="#C19444"/>
<path d="M27.5001 24.1665V0.833511C27.5001 0.373077 27.1271 0 26.6666 0C26.2066 0 25.8335 0.373077 25.8335 0.833511V24.1665C25.8335 24.6269 26.2066 25 26.6666 25C27.1271 25 27.5001 24.6269 27.5001 24.1665Z" fill="#C19444"/>
<path d="M52.6666 17.4994V7.49953C52.6666 7.03909 52.2936 6.66602 51.8335 6.66602C51.3731 6.66602 51 7.03909 51 7.49953V17.4994C51 17.9598 51.3731 18.3329 51.8335 18.3329C52.2936 18.3329 52.6666 17.9598 52.6666 17.4994Z" fill="#C19444"/>
<path d="M56.0001 19.1666V5.83351C56.0001 5.37308 55.6271 5 55.167 5C54.7066 5 54.3335 5.37308 54.3335 5.83351V19.1666C54.3335 19.6271 54.7066 20.0002 55.167 20.0002C55.6271 20.0002 56.0001 19.6271 56.0001 19.1666Z" fill="#C19444"/>
<path d="M59.3331 24.1665V0.833511C59.3331 0.373077 58.9601 0 58.5 0C58.0396 0 57.6665 0.373077 57.6665 0.833511V24.1665C57.6665 24.6269 58.0396 25 58.5 25C58.9601 25 59.3331 24.6269 59.3331 24.1665Z" fill="#C19444"/>
<path d="M84.3331 10.834C83.8731 10.834 83.5 11.2071 83.5 11.6671V13.3341C83.5 13.7942 83.8731 14.1673 84.3331 14.1673C84.7936 14.1673 85.1666 13.7942 85.1666 13.3341V11.6671C85.1666 11.2071 84.7936 10.834 84.3331 10.834Z" fill="#C19444"/>
<path d="M82.6666 14.1668V10.8335C82.6666 10.3731 82.2936 10 81.8335 10C81.3731 10 81 10.3731 81 10.8335V14.1668C81 14.6272 81.3731 15.0003 81.8335 15.0003C82.2936 15.0003 82.6666 14.6272 82.6666 14.1668Z" fill="#C19444"/>
<path d="M72.6666 14.1668V10.8335C72.6666 10.3731 72.2936 10 71.8331 10C71.3731 10 71 10.3731 71 10.8335V14.1668C71 14.6272 71.3731 15.0003 71.8331 15.0003C72.2936 15.0003 72.6666 14.6272 72.6666 14.1668Z" fill="#C19444"/>
<path d="M79.3331 15.8331V9.16652C79.3331 8.70609 78.9601 8.33301 78.5 8.33301C78.0396 8.33301 77.6665 8.70609 77.6665 9.16652V15.8331C77.6665 16.2935 78.0396 16.6666 78.5 16.6666C78.9601 16.6666 79.3331 16.2935 79.3331 15.8331Z" fill="#C19444"/>
<path d="M76.0001 15.8331V9.16652C76.0001 8.70609 75.6271 8.33301 75.167 8.33301C74.7066 8.33301 74.3335 8.70609 74.3335 9.16652V15.8331C74.3335 16.2935 74.7066 16.6666 75.167 16.6666C75.6271 16.6666 76.0001 16.2935 76.0001 15.8331Z" fill="#C19444"/>
<path d="M69.3336 17.4994V7.49953C69.3336 7.03909 68.9606 6.66602 68.5001 6.66602C68.0401 6.66602 67.667 7.03909 67.667 7.49953V17.4994C67.667 17.9598 68.0401 18.3329 68.5001 18.3329C68.9606 18.3329 69.3336 17.9598 69.3336 17.4994Z" fill="#C19444"/>
<path d="M66.0001 19.1666V5.83351C66.0001 5.37308 65.6271 5 65.1666 5C64.7066 5 64.3335 5.37308 64.3335 5.83351V19.1666C64.3335 19.6271 64.7066 20.0002 65.1666 20.0002C65.6271 20.0002 66.0001 19.6271 66.0001 19.1666Z" fill="#C19444"/>
<path d="M62.6666 24.1665V0.833511C62.6666 0.373077 62.2936 0 61.8331 0C61.3731 0 61 0.373077 61 0.833511V24.1665C61 24.6269 61.3731 25 61.8331 25C62.2936 25 62.6666 24.6269 62.6666 24.1665Z" fill="#C19444"/>
</svg>
