<svg width="248" height="248" viewBox="0 0 248 248" fill="none" xmlns="http://www.w3.org/2000/svg">
<path d="M247.995 0.00307363V82.6677H165.33V0.00307363H247.995ZM154.997 0.00307363V13.7793H141.221V27.5555H127.445V0H155L154.997 0.00307363ZM127.442 27.5586V41.3348H113.666V27.5586H127.442ZM106.775 0.00307363V34.4467H92.9983V0.00307363H106.775ZM82.6646 0.00307363V82.6677H0V0.00307363H82.6646ZM234.216 13.7793H179.105V68.8902H234.216V13.7793ZM68.8872 13.7793H13.7762V68.8902H68.8872V13.7793ZM154.996 34.4467V58.5566H117.107V44.7804H141.217V34.4467H154.996ZM110.219 41.3348V55.111H96.4427V41.3348H110.219ZM154.996 72.3328V86.109H141.22V72.3328H154.996ZM141.22 86.109V99.8852H127.444V134.329H113.668V72.3303H127.444V86.1065L141.22 86.109ZM106.776 72.3328V86.109H93.0002V72.3328H106.776ZM179.108 93.0001V106.776H165.332V93.0001H179.108ZM165.332 106.776V120.553H179.108V134.329H151.552V106.773L165.332 106.776ZM93.0002 93.0001V106.776H79.224V93.0001H93.0002ZM247.996 96.4455V110.222H210.107V120.555H220.441V134.332H185.997V120.555H196.331V96.4455H247.996ZM55.1122 96.4455V110.222H68.8884V123.998H24.1111V130.886H13.7774V144.662H0.00122945V96.4424H13.7774V110.219H20.6655V96.4424L55.1122 96.4455ZM148.11 103.334V117.11H134.334V103.334H148.11ZM106.778 110.222V141.22H120.554V154.996H106.778V144.662H79.2252V123.995H93.0014V110.219L106.778 110.222ZM247.997 120.555V154.999H234.221V144.665H223.887V130.889H234.221V120.555H247.997ZM65.4459 134.332V168.775H79.2221V154.999H92.9983V175.666H113.666V168.778H127.442V141.223H141.218V154.999H154.994V168.775H141.218V182.551H127.442V189.439H117.108V203.216H103.332V189.439H79.2221V203.216H65.4459V189.439H51.6697V196.328H37.8935V203.216H24.1173V168.772H37.8935V154.996H51.6697V134.329L65.4459 134.332ZM24.1142 168.775H0.00430778V154.999H24.1142V168.775ZM24.1142 203.219V216.995H10.338V203.219H24.1142ZM44.7816 134.332V148.108H31.0054V134.332H44.7816ZM192.889 137.777V144.665H213.556V158.441H165.337V144.665H179.113V137.777H192.889ZM248 165.332V247.997H165.335V165.332H248ZM234.224 179.109H179.113V234.22H234.224V179.109ZM155.004 203.219V247.996H141.227V230.774H127.451V203.219H155.007H155.004ZM96.4501 203.219V223.886H103.338V216.998H117.114V237.665H130.891V247.999H89.5589V223.889H82.6708V203.222L96.4501 203.219ZM72.3402 206.664V220.44H58.5639V206.664H72.3402ZM44.7847 213.552V227.328H31.0085V213.552H44.7847ZM82.6738 227.328V241.104H68.8977V247.992H48.2303V234.216H62.0065V227.328H82.6738ZM13.7867 227.328V241.104H0.010455V227.328H13.7867ZM37.8966 234.216V247.992H24.1204V234.216H37.8966Z" fill="#333333"/>
</svg>
