<svg width="30" height="33" viewBox="0 0 30 33" fill="none" xmlns="http://www.w3.org/2000/svg">
<path d="M0 0V11.7483H2.72727V14.6853H5.45455V11.7483H10.9091V0H0ZM10.9091 11.7483V14.6853H13.6364V17.6224H8.18182V20.5594H0V32.3077H10.9091V20.5594H19.0909V17.6224H16.3636V14.6853H21.8182V11.7483H24.5455V14.6853H27.2727V11.7483H30V0H19.0909V11.7483H10.9091ZM27.2727 14.6853V17.6224H30V14.6853H27.2727ZM27.2727 17.6224H24.5455V20.5594H27.2727V17.6224ZM27.2727 20.5594V23.4965H30V20.5594H27.2727ZM27.2727 23.4965H24.5455V20.5594H21.8182V23.4965H15V32.3077H17.7273V26.4336H23.1818V29.3706H25.9091V26.4336H27.2727V23.4965ZM23.1818 29.3706H20.4545V32.3077H23.1818V29.3706ZM24.5455 17.6224V14.6853H21.8182V17.6224H24.5455ZM8.18182 17.6224V14.6853H5.45455V17.6224H8.18182ZM2.72727 14.6853H0V17.6224H2.72727V14.6853ZM13.6364 0V5.87413H12.2727V8.81119H13.6364V10.2797H16.3636V5.87413H17.7273V2.93706H16.3636V0H13.6364ZM2.72727 2.93706H8.18182V8.81119H2.72727V2.93706ZM21.8182 2.93706H27.2727V8.81119H21.8182V2.93706ZM4.09091 4.40559V7.34266H6.81818V4.40559H4.09091ZM23.1818 4.40559V7.34266H25.9091V4.40559H23.1818ZM2.72727 23.4965H8.18182V29.3706H2.72727V23.4965ZM4.09091 24.965V27.9021H6.81818V24.965H4.09091ZM27.2727 29.3706V32.3077H30V29.3706H27.2727Z" fill="black"/>
</svg>
