<svg width="40" height="40" viewBox="0 0 40 40" fill="none" xmlns="http://www.w3.org/2000/svg">
<g clip-path="url(#clip0_1_3653)">
<path d="M4.82764 24.8276V2.06897C4.82764 0.926307 5.75394 0 6.8966 0H33.1035C34.2462 0 35.1725 0.926307 35.1725 2.06897V24.8276H4.82764Z" fill="#CA8152"/>
<path d="M0.689453 35.8594H6.20669V39.3077C6.20669 39.6885 5.89793 39.9973 5.51704 39.9973H1.37911C0.998222 39.9973 0.689453 39.6885 0.689453 39.3077V35.8594Z" fill="#805333"/>
<path d="M33.793 35.8594H39.3102V39.3077C39.3102 39.6885 39.0014 39.9973 38.6206 39.9973H34.4826C34.1017 39.9973 33.793 39.6885 33.793 39.3077V35.8594Z" fill="#805333"/>
<path d="M40 33.1024L20 30.3438L0 33.1024V36.5506C0 36.9315 0.308769 37.2403 0.689655 37.2403H39.3103C39.6912 37.2403 40 36.9315 40 36.5506V33.1024Z" fill="#A46A43"/>
<path d="M33.1655 21.3823H6.83447L9.25516 17.2374C9.50457 16.8153 9.95797 16.5559 10.4483 16.5547H29.5517C30.042 16.5559 30.4954 16.8153 30.7448 17.2374L33.1655 21.3823Z" fill="#EBEFF0"/>
<path d="M40 33.107H0L6.83448 21.3828H33.1655L40 33.107Z" fill="#C19444"/>
<path d="M16.5519 12.4141H12.414C11.6522 12.4141 11.0347 13.0316 11.0347 13.7934V17.2416C11.0347 18.0034 11.6522 18.621 12.414 18.621H16.5519C17.3137 18.621 17.9312 18.0034 17.9312 17.2416V13.7934C17.9312 13.0316 17.3137 12.4141 16.5519 12.4141Z" fill="#C19444"/>
<path d="M26.8966 12.4141H22.7587C21.9969 12.4141 21.3794 13.0316 21.3794 13.7934V17.2416C21.3794 18.0034 21.9969 18.621 22.7587 18.621H26.8966C27.6584 18.621 28.2759 18.0034 28.2759 17.2416V13.7934C28.2759 13.0316 27.6584 12.4141 26.8966 12.4141Z" fill="#C19444"/>
<path d="M9.45323 2.27223C9.18392 2.00301 8.74736 2.00301 8.47805 2.27223L8.27599 2.4743L8.07392 2.27223C7.80331 2.01087 7.37317 2.01461 7.10715 2.28064C6.84112 2.54666 6.83738 2.9768 7.09874 3.24741L7.30081 3.44948L7.09874 3.65154C6.91946 3.8247 6.84756 4.08112 6.91068 4.32224C6.97379 4.56336 7.1621 4.75167 7.40322 4.81478C7.64435 4.8779 7.90076 4.806 8.07392 4.62672L8.27599 4.42465L8.47805 4.62672C8.74866 4.88808 9.1788 4.88434 9.44483 4.61832C9.71085 4.35229 9.71459 3.92215 9.45323 3.65154L9.25116 3.44948L9.45323 3.24741C9.72246 2.9781 9.72246 2.54154 9.45323 2.27223Z" fill="#A46A43"/>
<path d="M32.6994 3.4503L32.9015 3.24823C33.0808 3.07508 33.1527 2.81866 33.0895 2.57754C33.0264 2.33641 32.8381 2.14811 32.597 2.08499C32.3559 2.02188 32.0995 2.09378 31.9263 2.27306L31.7242 2.47513L31.5222 2.27306C31.2516 2.0117 30.8214 2.01544 30.5554 2.28146C30.2894 2.54749 30.2856 2.97763 30.547 3.24823L30.7491 3.4503L30.547 3.65237C30.3677 3.82553 30.2958 4.08194 30.3589 4.32307C30.422 4.56419 30.6103 4.7525 30.8515 4.81561C31.0926 4.87873 31.349 4.80682 31.5222 4.62754L31.7242 4.42547L31.9263 4.62754C32.1969 4.8889 32.627 4.88517 32.8931 4.61914C33.1591 4.35312 33.1628 3.92298 32.9015 3.65237L32.6994 3.4503Z" fill="#A46A43"/>
<path d="M24.8277 2.07031H15.1726C14.7917 2.07031 14.4829 2.37908 14.4829 2.75997C14.4829 3.14085 14.7917 3.44962 15.1726 3.44962H24.8277C25.2086 3.44962 25.5174 3.14085 25.5174 2.75997C25.5174 2.37908 25.2086 2.07031 24.8277 2.07031Z" fill="#A46A43"/>
<path d="M33.1036 31.0356H6.89669C6.5158 31.0356 6.20703 30.7268 6.20703 30.3459C6.20703 29.965 6.5158 29.6562 6.89669 29.6562H33.1036C33.4845 29.6562 33.7932 29.965 33.7932 30.3459C33.7932 30.7268 33.4845 31.0356 33.1036 31.0356Z" fill="#F2D45B"/>
</g>
<defs>
<clipPath id="clip0_1_3653">
<rect width="40" height="40" fill="white"/>
</clipPath>
</defs>
</svg>
