<svg width="40" height="40" viewBox="0 0 40 40" fill="none" xmlns="http://www.w3.org/2000/svg">
<g clip-path="url(#clip0_1_3519)">
<path d="M1.3064 7.54688H31.4832V15.9428H1.3064V7.54688Z" fill="#FFDA45"/>
<path d="M28.1184 7.54688H31.4833V15.9428H28.1184V7.54688Z" fill="#FAC800"/>
<path d="M18.6111 7.54688H28.1578V15.9428H18.6111V7.54688Z" fill="#FFF5F5"/>
<path d="M37.7306 39.4155H7.78612C5.33714 39.4155 3.35181 37.4302 3.35181 34.9812C3.35181 32.5322 5.33714 30.5469 7.78612 30.5469H37.7306V39.4155Z" fill="#F0F5FA"/>
<path d="M34.6003 30.5469H37.7304V39.4154H34.6003V30.5469Z" fill="#E4ECF2"/>
<path d="M39.2956 40.0033H7.7861C5.01746 40.0033 2.76489 37.7509 2.76489 34.9821C2.76489 32.2134 5.01738 29.9609 7.7861 29.9609H39.2957C39.6198 29.9609 39.8826 30.2237 39.8826 30.5478C39.8826 30.8719 39.6198 31.1347 39.2957 31.1347H7.7861C5.66468 31.1347 3.93868 32.8606 3.93868 34.9821C3.93868 37.1036 5.6646 38.8296 7.7861 38.8296H39.2957C39.6198 38.8296 39.8826 39.0923 39.8826 39.4165C39.8826 39.7406 39.6198 40.0033 39.2956 40.0033Z" fill="#6E9EFF"/>
<path d="M37.7306 34.0878H13.5578C13.2337 34.0878 12.9709 33.8251 12.9709 33.501C12.9709 33.1768 13.2337 32.9141 13.5578 32.9141H37.7306V34.0878Z" fill="#C5D7E6"/>
<path d="M37.7309 37.041H19.9763C19.6522 37.041 19.3894 36.7782 19.3894 36.4541C19.3894 36.13 19.6522 35.8672 19.9763 35.8672H37.7309V37.041Z" fill="#C5D7E6"/>
<path d="M32.7116 29.3725H3.57417C1.98925 29.3725 0.704346 28.0876 0.704346 26.5026C0.704346 24.9177 1.98917 23.6328 3.57417 23.6328H32.7117V29.3725H32.7116Z" fill="#F0F5FA"/>
<path d="M29.5813 23.6328H32.7114V29.3725H29.5813V23.6328Z" fill="#E4ECF2"/>
<path d="M34.507 29.9603H3.57414C1.66815 29.9603 0.117432 28.4097 0.117432 26.5036C0.117432 24.5975 1.66808 23.0469 3.57414 23.0469H34.507C34.8311 23.0469 35.0939 23.3096 35.0939 23.6338C35.0939 23.9579 34.8311 24.2207 34.507 24.2207H3.57414C2.31538 24.2207 1.29121 25.2447 1.29121 26.5036C1.29121 27.7624 2.3153 28.7865 3.57414 28.7865H34.507C34.8311 28.7865 35.0939 29.0493 35.0939 29.3734C35.0939 29.6975 34.8311 29.9603 34.507 29.9603Z" fill="#74D84B"/>
<path d="M32.7116 27.2128H24.4704C24.1463 27.2128 23.8835 26.9501 23.8835 26.626C23.8835 26.3018 24.1463 26.0391 24.4704 26.0391H32.7116V27.2128Z" fill="#C5D7E6"/>
<path d="M10.4114 0.585938H33.7986C35.5593 0.585938 36.9865 2.01326 36.9865 3.77385C36.9865 5.53453 35.5592 6.96177 33.7986 6.96177H10.4114V0.585938Z" fill="#F0F5FA"/>
<path d="M33.7983 0.585938H30.6682C32.4289 0.585938 33.8561 2.01326 33.8561 3.77385C33.8561 5.53453 32.4288 6.96177 30.6682 6.96177H33.7983C35.559 6.96177 36.9862 5.53445 36.9862 3.77385C36.9862 2.01326 35.559 0.585938 33.7983 0.585938Z" fill="#E4ECF2"/>
<path d="M33.7984 7.54969H8.41673C8.0926 7.54969 7.82983 7.28692 7.82983 6.9628C7.82983 6.63868 8.0926 6.37591 8.41673 6.37591H33.7984C35.2326 6.37591 36.3994 5.20909 36.3994 3.77488C36.3994 2.34068 35.2326 1.17378 33.7984 1.17378H8.41673C8.0926 1.17378 7.82983 0.911012 7.82983 0.586891C7.82983 0.262771 8.0926 0 8.41673 0H33.7984C35.8798 0 37.5732 1.69338 37.5732 3.77481C37.5732 5.85624 35.8798 7.54969 33.7984 7.54969Z" fill="#FC435F"/>
<path d="M4.70288 15.9453H39.5957V23.0473H4.70288V15.9453Z" fill="#6E9EFF"/>
<path d="M28.9404 15.9453H39.5958V23.0473H28.9404V15.9453Z" fill="#BF6930"/>
<path d="M36.4656 15.9453H39.5957V23.0473H36.4656V15.9453Z" fill="#AD5F2C"/>
<path d="M16.7067 20.6679H8.72432C8.07608 20.6679 7.55054 20.1423 7.55054 19.4941C7.55054 18.8459 8.07608 18.3203 8.72432 18.3203H16.7067C17.355 18.3203 17.8805 18.8459 17.8805 19.4941C17.8805 20.1423 17.355 20.6679 16.7067 20.6679Z" fill="#FFF5F5"/>
<path d="M36.2048 20.08H32.3835C32.0594 20.08 31.7966 19.8173 31.7966 19.4931C31.7966 19.169 32.0594 18.9062 32.3835 18.9062H36.2048C36.5289 18.9062 36.7917 19.169 36.7917 19.4931C36.7917 19.8173 36.529 20.08 36.2048 20.08Z" fill="#FFF5F5"/>
<path d="M25.5232 13.0638C25.1991 13.0638 24.9363 12.801 24.9363 12.4769V11.0166C24.9363 10.6925 25.1991 10.4297 25.5232 10.4297C25.8473 10.4297 26.1101 10.6925 26.1101 11.0166V12.4769C26.1101 12.801 25.8474 13.0638 25.5232 13.0638Z" fill="#677A8F"/>
<path d="M23.3843 13.0638C23.0601 13.0638 22.7974 12.801 22.7974 12.4769V11.0166C22.7974 10.6925 23.0601 10.4297 23.3843 10.4297C23.7084 10.4297 23.9711 10.6925 23.9711 11.0166V12.4769C23.9711 12.801 23.7085 13.0638 23.3843 13.0638Z" fill="#677A8F"/>
<path d="M21.2453 13.0638C20.9212 13.0638 20.6584 12.801 20.6584 12.4769V11.0166C20.6584 10.6925 20.9212 10.4297 21.2453 10.4297C21.5695 10.4297 21.8322 10.6925 21.8322 11.0166V12.4769C21.8322 12.801 21.5695 13.0638 21.2453 13.0638Z" fill="#677A8F"/>
<path d="M10.3943 3.1875H23.7862C24.1103 3.1875 24.3731 3.45027 24.3731 3.77439C24.3731 4.09851 24.1103 4.36128 23.7862 4.36128H10.3943V3.1875Z" fill="#C5D7E6"/>
</g>
<defs>
<clipPath id="clip0_1_3519">
<rect width="40" height="40" fill="white"/>
</clipPath>
</defs>
</svg>
