<svg width="16" height="16" viewBox="0 0 16 16" fill="none" xmlns="http://www.w3.org/2000/svg">
<g clip-path="url(#clip0_1_6251)">
<path d="M4.26658 3.46612V2.39947C4.26658 2.25221 4.14718 2.13281 3.99992 2.13281H0.266661C0.119399 2.13281 0 2.25221 0 2.39947V3.46612H4.26658Z" fill="#C19444"/>
<path d="M0 4V12.7998H4.26658V4H0ZM3.19994 7.4666H1.06665C0.919383 7.4666 0.799984 7.3472 0.799984 7.19994V5.06665C0.799984 4.91938 0.919383 4.79998 1.06665 4.79998H3.19994C3.3472 4.79998 3.4666 4.91938 3.4666 5.06665V7.19994C3.4666 7.3472 3.3472 7.4666 3.19994 7.4666Z" fill="#C19444"/>
<path d="M0 14.4004V15.7337C0 15.881 0.119399 16.0004 0.266661 16.0004H3.99992C4.14718 16.0004 4.26658 15.881 4.26658 15.7337V14.4004H0Z" fill="#C19444"/>
<path d="M0 13.334H4.26658V13.8673H0V13.334Z" fill="#C19444"/>
<path d="M4.7998 13.334H8.2664V13.8673H4.7998V13.334Z" fill="#C19444"/>
<path d="M8.2664 1.06665V0.266661C8.2664 0.119399 8.147 0 7.99974 0H5.06647C4.9192 0 4.7998 0.119399 4.7998 0.266661V1.06665H8.2664Z" fill="#C19444"/>
<path d="M4.79993 2.93359H8.26652V12.8001H4.79993V2.93359Z" fill="#C19444"/>
<path d="M4.7998 14.4004V15.7337C4.7998 15.881 4.9192 16.0004 5.06647 16.0004H7.99974C8.147 16.0004 8.2664 15.881 8.2664 15.7337V14.4004H4.7998Z" fill="#C19444"/>
<path d="M4.7998 1.59961H8.2664V2.39959H4.7998V1.59961Z" fill="#C19444"/>
<path d="M8.79346 5.52263L8.93616 6.07041L13.4522 4.86613L13.3094 4.31836L8.79346 5.52263Z" fill="#C19444"/>
<path d="M11.022 14.0641L15.538 12.8599L15.252 11.7637L10.7358 12.9679L11.022 14.0641Z" fill="#C19444"/>
<path d="M15.1173 11.2474L13.587 5.38086L9.0708 6.58513L10.6011 12.4517L15.1173 11.2474Z" fill="#C19444"/>
<path d="M8.65882 5.00544L13.1746 3.8013L12.7918 2.33271C12.7524 2.19052 12.607 2.1055 12.4638 2.14079L8.4639 3.20743C8.32263 3.2461 8.23838 3.39076 8.27445 3.53269L8.65882 5.00544Z" fill="#C19444"/>
<path d="M15.6724 13.377L11.1562 14.5812L11.4743 15.8003C11.4928 15.8691 11.5379 15.9277 11.5997 15.9631C11.64 15.9874 11.6861 16.0003 11.7331 16.0003C11.7564 16.0003 11.7797 15.9976 11.8023 15.9924L15.8023 14.9258C15.9435 14.8871 16.0278 14.7423 15.9917 14.6004L15.6724 13.377Z" fill="#C19444"/>
</g>
<defs>
<clipPath id="clip0_1_6251">
<rect width="16" height="16" fill="white"/>
</clipPath>
</defs>
</svg>
