<svg width="212" height="82" viewBox="0 0 212 82" fill="none" xmlns="http://www.w3.org/2000/svg">
<path d="M53 52C68.4195 45.963 117.207 37.5112 189 52" stroke="#C9C9C9" stroke-dasharray="4 3"/>
<path d="M85.706 14.7176H84.7839V13.5072C84.7839 11.7781 83.3429 10.3372 81.6138 10.3372H77.8098C77.7522 10.1643 77.7522 10.049 77.6945 9.87608C76.7723 6.82133 75.0432 4.40058 72.2767 2.78674C69.9712 1.4611 67.4928 1 64.8991 1C51.7579 1 38.6167 1 25.4755 1C22.7666 1 20.1729 1.40346 17.6945 2.44092C14.755 3.6513 12.3919 5.55332 10.8357 8.37752C10.4899 9.01153 10.2017 9.64553 9.97118 10.3372H5.9366C4.20749 10.3372 2.76657 11.7781 2.76657 13.5072V14.7176H1.84438C0.806916 14.7176 0 15.5245 0 16.562V28.8963C0 29.9337 0.806916 30.7406 1.84438 30.7406H5.59078C6.62824 30.7406 7.43516 29.9337 7.43516 28.8963V16.6196C7.43516 15.5821 6.62824 14.7752 5.59078 14.7752H4.8415V14.0259C4.8415 13.1614 5.53314 12.4697 6.39769 12.4697H9.39481C9.16427 13.5648 9.10663 14.6599 9.10663 15.755V52.9885V64.804C9.10663 67.6283 10.7205 70.1066 14.121 70.2795C14.4092 70.2795 14.4092 70.4525 14.4092 70.683V75.6398V78.1758C14.4092 79.732 15.6772 81 17.2334 81H22.2478C23.804 81 25.072 79.732 25.072 78.1758V75.5245C25.1297 73.9683 25.072 72.4697 25.072 70.9136C25.072 70.3372 25.072 70.3372 25.6484 70.3372H61.902C62.2478 70.3372 62.3631 70.3948 62.4207 70.6254V71.951V74.6599V78.1758C62.4207 79.732 63.6888 81 65.245 81H70.2594C71.8156 81 73.0836 79.732 73.0836 78.1758V75.5821V75.5245C73.0836 74.1988 73.0836 72.9308 73.0836 71.6052V70.683C73.1412 70.3948 73.2565 70.2795 73.6599 70.2219C76.6571 69.8185 78.4438 67.9741 78.4438 64.7464C78.4438 56.2738 78.4438 47.8012 78.4438 39.3285C78.4438 31.5476 78.4438 23.7089 78.4438 15.928C78.4438 14.7752 78.3862 13.5648 78.2133 12.4121H81.0951C81.9596 12.4121 82.6513 13.1037 82.6513 13.9683V14.7176H81.9596C80.9222 14.7176 80.1153 15.5245 80.1153 16.562V28.8963C80.1153 29.9337 80.9222 30.7406 81.9596 30.7406H85.706C86.7435 30.7406 87.5504 29.9337 87.5504 28.8963V16.6196C87.5504 15.5821 86.7435 14.7176 85.706 14.7176ZM19.8271 64.977C16.83 64.977 14.4669 62.6138 14.4669 59.6744C14.4669 56.7349 16.83 54.3718 19.7695 54.3718C22.7089 54.3718 25.1297 56.7349 25.1297 59.6744C25.1297 62.5562 22.7089 64.977 19.8271 64.977ZM42.1326 43.6513C34.6974 43.6513 27.2622 43.6513 19.8847 43.6513C16.3112 43.6513 14.5245 41.1729 14.4669 38.2334C14.4092 33.3919 14.4669 28.4928 14.4669 23.6513C14.4669 22.6138 14.4669 21.634 14.755 20.5965C15.4467 18.4063 17.1182 17.0807 19.4236 17.0231H21.268H42.0749V43.6513H42.1326ZM26.5706 11.6628C25.8213 11.6628 25.245 11.2594 25.1297 10.5677C24.9568 9.70317 25.5908 9.01153 26.513 9.01153H33.4294H60.9798C61.7291 9.01153 62.2478 9.41499 62.3631 10.049C62.4784 10.683 62.1902 11.317 61.5562 11.5476C61.3256 11.6628 60.9798 11.6628 60.6916 11.6628C55.0432 11.6628 49.3948 11.6628 43.6888 11.6628C38.0403 11.6628 32.2767 11.6628 26.5706 11.6628ZM67.781 64.977C64.7262 64.977 62.3631 62.6138 62.4207 59.5591C62.4207 56.6196 64.8415 54.2565 67.781 54.3141C70.7205 54.3141 73.0259 56.7349 73.0259 59.6167C73.0836 62.5562 70.6628 64.977 67.781 64.977ZM73.0836 38.1182C73.0836 39.6167 72.6801 40.9424 71.7003 42.0951C70.8357 43.0749 69.7406 43.4784 68.5303 43.6513C68.1844 43.7089 67.781 43.7089 67.3775 43.7089C60.0576 43.7089 52.7378 43.7089 45.4179 43.7089V17.0231H67.4928C68.415 17.0231 69.3372 17.0807 70.2017 17.4842C71.6426 18.1182 72.5072 19.2709 72.9107 20.7695C73.0836 21.4035 73.1412 22.0375 73.1412 22.6715C73.0836 27.8012 73.0836 32.9885 73.0836 38.1182Z" fill="#C19444"/>
<path d="M153.334 77.9265C153.334 78.9471 154.154 79.767 155.175 79.767H167.806V76.0859H155.175C154.154 76.0859 153.334 76.9146 153.334 77.9265Z" fill="#C19444"/>
<path d="M208.159 76.0859H201.434C200.884 76.7751 200.108 77.2722 199.209 77.4731L188.785 79.7671H208.159C209.171 79.7671 210 78.9473 210 77.9266C210 76.9157 209.171 76.0859 208.159 76.0859Z" fill="#C19444"/>
<path d="M151.512 12.6797H146.567C145.603 12.6797 144.822 13.4606 144.822 14.4239V23.6869C144.822 24.6502 145.603 25.4312 146.567 25.4312H151.512C152.475 25.4312 153.256 24.6501 153.256 23.6869V14.4239C153.256 13.4606 152.475 12.6797 151.512 12.6797ZM149.044 21.5716C147.648 21.5716 146.523 20.4465 146.523 19.0598C146.523 17.6646 147.648 16.5395 149.044 16.5395C150.43 16.5395 151.555 17.6644 151.555 19.0598C151.555 20.4463 150.43 21.5716 149.044 21.5716Z" fill="#C19444"/>
<path d="M144.806 1.74458C145.289 1.74458 145.679 1.35444 145.679 0.872371C145.679 0.390301 145.288 0 144.806 0C137.745 0 132 5.7424 132 12.8005C132 13.2827 132.39 13.6727 132.872 13.6727C133.354 13.6727 133.744 13.2826 133.744 12.8005C133.745 6.70414 138.707 1.74458 144.806 1.74458Z" fill="#C19444"/>
<path d="M144.806 4.9788C145.288 4.9788 145.678 4.58866 145.678 4.10659C145.678 3.62452 145.288 3.23438 144.806 3.23438C139.529 3.23438 135.235 7.52448 135.235 12.7984C135.235 13.2807 135.625 13.6706 136.108 13.6706C136.59 13.6706 136.98 13.2805 136.98 12.7984C136.98 8.48686 140.491 4.9788 144.806 4.9788Z" fill="#C19444"/>
<path d="M145.679 7.34096C145.679 6.85873 145.288 6.46875 144.806 6.46875C141.314 6.46875 138.472 9.308 138.472 12.7975C138.472 13.2797 138.862 13.6697 139.344 13.6697C139.826 13.6697 140.216 13.2796 140.216 12.7975C140.216 10.2699 142.275 8.21349 144.806 8.21349C145.288 8.21333 145.679 7.82319 145.679 7.34096Z" fill="#C19444"/>
<path d="M145.678 10.5831C145.678 10.1009 145.288 9.71094 144.806 9.71094C143.098 9.71094 141.708 11.0979 141.708 12.8032C141.708 13.2855 142.098 13.6754 142.58 13.6754C143.062 13.6754 143.452 13.2853 143.452 12.8032C143.452 12.0604 144.06 11.4555 144.806 11.4555C145.288 11.4554 145.678 11.0652 145.678 10.5831Z" fill="#C19444"/>
<path d="M202.315 13.7755V74.3411H204.923V10.3733C204.923 8.89889 203.719 7.69531 202.245 7.69531H189.648L199.096 9.77142C200.954 10.1813 202.315 11.865 202.315 13.7755Z" fill="#C19444"/>
<path d="M158.402 10.3733V74.341H161.019V11.1846C161.019 10.7048 161.412 10.3124 161.892 10.3124H167.806V7.69531H161.08C159.606 7.69531 158.402 8.89905 158.402 10.3733Z" fill="#C19444"/>
<path d="M200.57 73.6086V13.7715C200.57 12.6724 199.785 11.7129 198.721 11.4771L170.615 5.28372C169.947 5.20012 169.551 5.63879 169.551 6.13864V81.1238C169.551 81.6473 170.028 82.0961 170.615 81.9787C207.817 73.7885 195.835 76.4264 198.837 75.7656C199.849 75.5425 200.57 74.6453 200.57 73.6086ZM175.805 45.6798C175.805 46.4676 175.166 47.1061 174.378 47.1061C173.59 47.1061 172.952 46.4674 172.952 45.6798V41.5828C172.952 40.795 173.59 40.1565 174.378 40.1565C175.166 40.1565 175.805 40.7952 175.805 41.5828V45.6798Z" fill="#C19444"/>
</svg>
