<svg width="18" height="18" viewBox="0 0 18 18" fill="none" xmlns="http://www.w3.org/2000/svg">
<path d="M14.3086 18C16.344 18 18 16.3283 18 14.2734C18 12.8038 17.1367 11.5322 15.8906 10.9387C15.8906 9.52717 15.8906 2.46382 15.8906 1.05469H12.7266V0H11.6719V1.05469H8.47266V0H7.41797V1.05469H4.25391V0H3.19922V1.05469H0V15.8555H10.9669C11.5573 17.1214 12.8331 18 14.3086 18ZM16.9453 14.2734C16.9453 15.7467 15.7625 16.9453 14.3086 16.9453C12.8547 16.9453 11.6719 15.7467 11.6719 14.2734C11.6719 12.8196 12.8547 11.6367 14.3086 11.6367C15.7625 11.6367 16.9453 12.8196 16.9453 14.2734ZM1.05469 2.10938H3.19922V3.16406H4.25391V2.10938H7.41797V3.16406H8.47266V2.10938H11.6719V3.16406H12.7266V2.10938H14.8359V4.21875H1.05469V2.10938ZM1.05469 14.8008V5.27344H14.8359V10.6199C14.6636 10.5951 14.4876 10.582 14.3086 10.582C12.2732 10.582 10.6172 12.238 10.6172 14.2734C10.6172 14.4525 10.63 14.6284 10.6543 14.8008H1.05469Z" fill="#C19444"/>
<path d="M13.7812 12.6914V14.8008H15.8906V13.7461H14.8359V12.6914H13.7812Z" fill="#C19444"/>
<path d="M2.14453 9.52734H5.30859V6.36328H2.14453V9.52734ZM3.19922 7.41797H4.25391V8.47266H3.19922V7.41797Z" fill="#C19444"/>
<path d="M2.14453 13.7461H5.30859V10.582H2.14453V13.7461ZM3.19922 11.6367H4.25391V12.6914H3.19922V11.6367Z" fill="#C19444"/>
<path d="M6.36328 13.7461H9.52734V10.582H6.36328V13.7461ZM7.41797 11.6367H8.47266V12.6914H7.41797V11.6367Z" fill="#C19444"/>
<path d="M6.36328 9.52734H9.52734V6.36328H6.36328V9.52734ZM7.41797 7.41797H8.47266V8.47266H7.41797V7.41797Z" fill="#C19444"/>
<path d="M13.7812 6.36328H10.6172V9.52734H13.7812V6.36328ZM12.7266 8.47266H11.6719V7.41797H12.7266V8.47266Z" fill="#C19444"/>
</svg>
