<svg width="72" height="72" viewBox="0 0 72 72" fill="none" xmlns="http://www.w3.org/2000/svg">
<path d="M1 66.0601C1.00154 67.2978 1.48308 68.4563 2.35308 69.3255C3.22846 70.2032 4.39077 70.684 5.62615 70.684C6.86385 70.684 8.02692 70.2032 8.89692 69.3294L33.0285 45.1986C36.8177 47.7501 41.3715 49.2563 46.2746 49.2809C46.2762 49.2809 46.3862 49.2824 46.3869 49.2824C59.5515 49.2824 70.3123 38.5747 70.3731 25.414C70.4046 19.0071 67.94 12.9701 63.4308 8.41783C58.9223 3.86398 52.9108 1.34013 46.3877 1.30859C33.2277 1.30859 22.4669 12.0163 22.4031 25.1786C22.3792 30.1655 23.89 34.8071 26.4831 38.6601L2.35538 62.7871C1.48154 63.6624 1 64.8247 1 66.0601ZM46.4862 4.82167C51.9562 4.84859 57.0854 7.00167 60.9346 10.8901C64.7823 14.7747 66.8869 19.9271 66.86 25.3955C66.8092 36.6301 57.6246 45.7686 46.3877 45.7686H46.2908C38.2923 45.7294 31.3931 41.0755 28.0577 34.3586C28.0415 34.2647 28.0246 34.174 27.9931 34.0824C25.2692 26.1763 29.9508 17.1494 38.4338 13.9624C42.6908 12.3601 47.3631 12.4917 51.2485 14.3178C54.7646 15.9732 57.3808 18.8617 58.6162 22.4563C60.5831 28.164 57.1869 34.6817 51.0462 36.9878C47.9631 38.1494 44.5877 38.0586 41.78 36.7371C39.25 35.5494 37.3685 33.4709 36.4769 30.8886C35.2677 27.3832 37.3777 23.3663 41.1777 21.9355C43.0862 21.2155 45.1738 21.2732 46.9015 22.0863C48.4423 22.8109 49.5885 24.0747 50.13 25.6455C50.5808 26.9563 49.7592 28.4678 48.2985 29.0155C47.5654 29.2917 46.7692 29.2747 46.1215 28.9663C45.7292 28.7824 45.2092 28.4117 44.9638 27.6963C44.6477 26.7801 43.6477 26.2901 42.7308 26.6078C41.8146 26.924 41.3269 27.9224 41.6431 28.8394C42.1462 30.304 43.2069 31.4778 44.6238 32.1463C46.1292 32.8532 47.9208 32.9117 49.5354 32.3055C52.7592 31.094 54.5162 27.5932 53.4515 24.5024C52.5992 22.0278 50.8038 20.0394 48.3977 18.9086C45.8123 17.6901 42.73 17.5986 39.9408 18.6478C34.3792 20.7432 31.3346 26.7463 33.1554 32.0324C34.3577 35.5201 36.8892 38.3201 40.2846 39.9171C42.2562 40.8447 44.4346 41.3086 46.6415 41.3086C48.5354 41.3086 50.4515 40.9663 52.2815 40.2778C60.1846 37.3094 64.5154 28.8024 61.9369 21.314C60.39 16.814 57.1262 13.2024 52.7438 11.1394C48.0038 8.91167 42.3362 8.7409 37.1985 10.6755C32.8415 12.3132 29.3331 15.2509 26.9823 18.8263C29.7085 10.7047 37.4 4.82167 46.4862 4.82167ZM4.83923 65.2709L28.6869 41.4255C29.1885 41.9732 29.7115 42.4963 30.2608 42.9978L6.41308 66.8471C5.99385 67.2663 5.26462 67.2694 4.83769 66.8424C4.62923 66.634 4.51385 66.3555 4.51385 66.0586C4.51385 65.7609 4.62923 65.4809 4.83923 65.2709Z" fill="#C19444" stroke="#F8F4E9" stroke-width="1.4"/>
</svg>
