<svg width="27" height="27" viewBox="0 0 27 27" fill="none" xmlns="http://www.w3.org/2000/svg">
<path d="M4.7944 21.2367V25.9999L6.71057 24.8502L12.7335 21.2367H18.7072C20.1023 21.2367 21.2368 20.1021 21.2368 18.7071V8.58868C21.2368 7.19361 20.1023 6.05908 18.7072 6.05908H3.5296C2.13452 6.05908 1 7.19361 1 8.58868V18.7071C1 20.1021 2.13452 21.2367 3.5296 21.2367H4.7944ZM3.5296 8.58868H18.7072V18.7071H12.0328L7.324 21.5326V18.7071H3.5296V8.58868Z" fill="#C19444" stroke="#F8F4E9"/>
<path d="M23.7663 1H8.58868C7.19361 1 6.05908 2.13452 6.05908 3.5296H21.2367C22.6317 3.5296 23.7663 4.66412 23.7663 6.0592V16.1776C25.1613 16.1776 26.2959 15.0431 26.2959 13.648V3.5296C26.2959 2.13452 25.1613 1 23.7663 1Z" fill="#C19444" stroke="#F8F4E9"/>
</svg>
