<svg width="17" height="16" viewBox="0 0 17 16" fill="none" xmlns="http://www.w3.org/2000/svg">
<rect width="17" height="16" fill="#F5F5F5"/>
<g id="Attendance" clip-path="url(#clip0_0_1)">
<rect width="414" height="953" transform="translate(-363 -369)" fill="white"/>
<g id="Rectangle 86" filter="url(#filter0_d_0_1)">
<rect x="-340" y="-13" width="379" height="62" rx="21" fill="white"/>
<rect x="-339.5" y="-12.5" width="378" height="61" rx="20.5" stroke="#00A624"/>
</g>
<path id="Rectangle 280" d="M-21.6494 -12.5H18.3088C29.6307 -12.5 38.8088 -3.32184 38.8088 8V29C38.8088 39.7696 30.0784 48.5 19.3088 48.5H-21.6494V-12.5Z" stroke="#00A624"/>
<g id="Group 7579">
<path id="Vector" d="M14.5906 1.03148C14.8619 1.03148 15.122 1.14015 15.3138 1.3336C15.5056 1.52704 15.6134 1.7894 15.6134 2.06296V10.3148C15.6134 10.5884 15.5056 10.8507 15.3138 11.0442C15.122 11.2376 14.8619 11.3463 14.5906 11.3463H12.0338C11.7163 11.3463 11.4031 11.4209 11.1191 11.5641C10.835 11.7073 10.588 11.9153 10.3975 12.1715L8.45428 14.7842L6.5111 12.1715C6.32057 11.9153 6.07351 11.7073 5.78949 11.5641C5.50547 11.4209 5.19228 11.3463 4.87473 11.3463H2.31792C2.04667 11.3463 1.78654 11.2376 1.59474 11.0442C1.40294 10.8507 1.29519 10.5884 1.29519 10.3148V2.06296C1.29519 1.7894 1.40294 1.52704 1.59474 1.3336C1.78654 1.14015 2.04667 1.03148 2.31792 1.03148H14.5906ZM2.31792 0C1.77543 0 1.25516 0.217347 0.871561 0.604228C0.487964 0.991108 0.272461 1.51583 0.272461 2.06296L0.272461 10.3148C0.272461 10.8619 0.487964 11.3867 0.871561 11.7735C1.25516 12.1604 1.77543 12.3778 2.31792 12.3778H4.87473C5.03351 12.3778 5.1901 12.4151 5.33211 12.4867C5.47412 12.5583 5.59765 12.6623 5.69292 12.7904L7.6361 15.4031C7.73136 15.5312 7.85489 15.6352 7.9969 15.7068C8.13891 15.7784 8.29551 15.8157 8.45428 15.8157C8.61305 15.8157 8.76964 15.7784 8.91166 15.7068C9.05367 15.6352 9.1772 15.5312 9.27246 15.4031L11.2156 12.7904C11.3109 12.6623 11.4344 12.5583 11.5764 12.4867C11.7185 12.4151 11.8751 12.3778 12.0338 12.3778H14.5906C15.1331 12.3778 15.6534 12.1604 16.037 11.7735C16.4206 11.3867 16.6361 10.8619 16.6361 10.3148V2.06296C16.6361 1.51583 16.4206 0.991108 16.037 0.604228C15.6534 0.217347 15.1331 0 14.5906 0L2.31792 0Z" fill="#C19444"/>
<path id="Vector_2" d="M5.38627 6.18871C5.38627 6.46227 5.27852 6.72463 5.08672 6.91808C4.89493 7.11152 4.63479 7.22019 4.36355 7.22019C4.0923 7.22019 3.83217 7.11152 3.64037 6.91808C3.44857 6.72463 3.34082 6.46227 3.34082 6.18871C3.34082 5.91514 3.44857 5.65278 3.64037 5.45934C3.83217 5.2659 4.0923 5.15723 4.36355 5.15723C4.63479 5.15723 4.89493 5.2659 5.08672 5.45934C5.27852 5.65278 5.38627 5.91514 5.38627 6.18871ZM9.47718 6.18871C9.47718 6.46227 9.36943 6.72463 9.17763 6.91808C8.98584 7.11152 8.7257 7.22019 8.45446 7.22019C8.18321 7.22019 7.92308 7.11152 7.73128 6.91808C7.53948 6.72463 7.43173 6.46227 7.43173 6.18871C7.43173 5.91514 7.53948 5.65278 7.73128 5.45934C7.92308 5.2659 8.18321 5.15723 8.45446 5.15723C8.7257 5.15723 8.98584 5.2659 9.17763 5.45934C9.36943 5.65278 9.47718 5.91514 9.47718 6.18871ZM13.5681 6.18871C13.5681 6.46227 13.4603 6.72463 13.2685 6.91808C13.0767 7.11152 12.8166 7.22019 12.5454 7.22019C12.2741 7.22019 12.014 7.11152 11.8222 6.91808C11.6304 6.72463 11.5226 6.46227 11.5226 6.18871C11.5226 5.91514 11.6304 5.65278 11.8222 5.45934C12.014 5.2659 12.2741 5.15723 12.5454 5.15723C12.8166 5.15723 13.0767 5.2659 13.2685 5.45934C13.4603 5.65278 13.5681 5.91514 13.5681 6.18871Z" fill="#C19444"/>
</g>
</g>
<defs>
<filter id="filter0_d_0_1" x="-344" y="-17" width="387" height="70" filterUnits="userSpaceOnUse" color-interpolation-filters="sRGB">
<feFlood flood-opacity="0" result="BackgroundImageFix"/>
<feColorMatrix in="SourceAlpha" type="matrix" values="0 0 0 0 0 0 0 0 0 0 0 0 0 0 0 0 0 0 127 0" result="hardAlpha"/>
<feOffset/>
<feGaussianBlur stdDeviation="2"/>
<feComposite in2="hardAlpha" operator="out"/>
<feColorMatrix type="matrix" values="0 0 0 0 0 0 0 0 0 0 0 0 0 0 0 0 0 0 0.25 0"/>
<feBlend mode="normal" in2="BackgroundImageFix" result="effect1_dropShadow_0_1"/>
<feBlend mode="normal" in="SourceGraphic" in2="effect1_dropShadow_0_1" result="shape"/>
</filter>
<clipPath id="clip0_0_1">
<rect width="414" height="953" fill="white" transform="translate(-363 -369)"/>
</clipPath>
</defs>
</svg>
