<svg width="54" height="54" viewBox="0 0 54 54" fill="none" xmlns="http://www.w3.org/2000/svg">
<g clip-path="url(#clip0_134_5862)">
<path fill-rule="evenodd" clip-rule="evenodd" d="M25.3143 26.8996H28.8715C29.3626 26.8996 29.7607 26.5014 29.7607 26.0103C29.7607 25.5192 29.3626 25.1211 28.8715 25.1211H25.3143C24.8232 25.1211 24.425 25.5192 24.425 26.0103C24.425 26.5014 24.8231 26.8996 25.3143 26.8996Z" fill="#C19444"/>
<path fill-rule="evenodd" clip-rule="evenodd" d="M27.9822 27.7881H26.2036C25.7125 27.7881 25.3143 28.1862 25.3143 28.6773C25.3143 29.1684 25.7125 29.5666 26.2036 29.5666H27.9822C28.4733 29.5666 28.8714 29.1684 28.8714 28.6773C28.8714 28.1862 28.4733 27.7881 27.9822 27.7881Z" fill="#C19444"/>
<path fill-rule="evenodd" clip-rule="evenodd" d="M24.425 18.0064C24.425 17.5153 24.0269 17.1172 23.5358 17.1172H21.7572C21.2661 17.1172 20.8679 17.5153 20.8679 18.0064C20.8679 18.4975 21.2661 18.8957 21.7572 18.8957C21.7572 19.3868 22.1553 19.7849 22.6464 19.7849C23.1375 19.7849 23.5357 19.3868 23.5357 18.8957C24.0269 18.8957 24.425 18.4976 24.425 18.0064Z" fill="#C19444"/>
<path fill-rule="evenodd" clip-rule="evenodd" d="M30.6501 18.8957C30.6501 19.3868 31.0482 19.7849 31.5393 19.7849C32.0304 19.7849 32.4286 19.3868 32.4286 18.8957C32.9197 18.8957 33.3178 18.4975 33.3178 18.0064C33.3178 17.5153 32.9197 17.1172 32.4286 17.1172H30.65C30.1589 17.1172 29.7607 17.5153 29.7607 18.0064C29.7607 18.4976 30.1589 18.8957 30.6501 18.8957Z" fill="#C19444"/>
<path fill-rule="evenodd" clip-rule="evenodd" d="M26.2036 23.342H27.9822C28.4733 23.342 28.8714 22.9438 28.8714 22.4527C28.8714 21.9616 28.4733 21.5635 27.9822 21.5635H26.2036C25.7125 21.5635 25.3143 21.9616 25.3143 22.4527C25.3143 22.9438 25.7125 23.342 26.2036 23.342Z" fill="#C19444"/>
<path d="M6.8999 41.3882C4.60824 43.6781 3.08215 46.0267 3.08215 50.0205V51.8071C3.08215 52.7894 3.87845 53.5857 4.86075 53.5857H49.325C50.3073 53.5857 51.1036 52.7894 51.1036 51.8071V50.0205C51.1036 46.0232 49.5776 43.6781 47.2859 41.3882C44.7834 38.8867 36.8412 36.506 34.8759 35.9457C34.1057 33.94 33.8311 31.778 34.0756 29.6433L36.2481 27.7412C37.212 26.8966 37.7647 25.6772 37.7643 24.3957V23.253C39.8331 22.8336 41.3201 21.0148 41.3201 18.9039C41.3201 16.7931 39.8331 14.9743 37.7643 14.5549L38.5246 11.5127L41.7448 9.9022C43.1031 9.22353 43.9685 7.84291 43.9872 6.32462C44.006 4.80633 43.1748 3.4047 41.8337 2.69278C39.6549 1.5687 35.3286 0.228516 27.0928 0.228516C18.8571 0.228516 14.5308 1.5687 12.353 2.69269C11.0112 3.40418 10.1796 4.80589 10.1984 6.32453C10.2171 7.84317 11.083 9.22397 12.4419 9.9022L15.662 11.5127L16.4215 14.5549C14.3526 14.9743 12.8657 16.7931 12.8657 18.9039C12.8657 21.0148 14.3526 22.8336 16.4215 23.253V24.3957C16.4218 25.6777 16.9755 26.8972 17.9404 27.7412L20.1129 29.6433C20.3574 31.7779 20.0828 33.94 19.3126 35.9457C17.3445 36.506 9.40232 38.8867 6.8999 41.3882ZM12.9096 51.8071H4.86075V50.0205C4.86075 46.6234 6.12172 44.6804 8.15737 42.6457C9.34193 41.4611 12.2943 40.185 15.0938 39.1775L11.9529 43.9965C11.6299 44.491 11.5735 45.1136 11.8024 45.6581C12.0313 46.2026 12.5155 46.5979 13.0947 46.7133L14.1085 46.9143C13.4184 48.46 13.0124 50.1174 12.9096 51.8071ZM17.3863 38.9124L19.2876 40.8137C17.5425 41.9681 16.0712 43.4906 14.9773 45.2743L13.4398 44.9657L17.3863 38.9124ZM24.425 49.1392C23.5577 49.7936 22.9596 50.7424 22.7434 51.8071H18.2489C18.5893 48.2629 21.0243 45.2697 24.425 44.2152V49.1392ZM31.4424 51.8071C31.2266 50.7421 30.6284 49.7932 29.7608 49.1392L29.7501 44.2037C33.1557 45.2606 35.5945 48.2578 35.9369 51.8071H31.4424ZM37.7269 51.8071C37.3792 47.4774 34.4307 43.7954 30.2818 42.5096C29.7465 42.3404 29.1625 42.4397 28.7131 42.7763C28.2559 43.1137 27.9849 43.647 27.9821 44.2152V49.6194C27.9817 49.9374 28.1514 50.2314 28.4267 50.3904C28.9696 50.7096 29.3811 51.2119 29.5872 51.807H24.6028C24.8077 51.2125 25.2175 50.7104 25.7588 50.3904C26.0342 50.2314 26.2038 49.9374 26.2034 49.6194V44.2152C26.2017 43.6457 25.9306 43.1108 25.4724 42.7728C25.0236 42.4359 24.4396 42.3365 23.9046 42.506C19.7541 43.792 16.8051 47.4757 16.4586 51.807H14.688C15.1432 45.2911 20.5618 40.2379 27.0935 40.2379C33.6253 40.2379 39.0438 45.2911 39.499 51.807H37.7269V51.8071ZM21.1285 36.1645C21.683 34.5932 21.9695 32.9398 21.976 31.2735L22.8341 32.024C23.6439 32.7325 24.6831 33.1233 25.759 33.124H28.4268C29.5036 33.1239 30.5439 32.733 31.3543 32.024L32.2125 31.2735C32.219 32.9398 32.5055 34.5932 33.06 36.1645L27.0929 38.4073L21.1285 36.1645ZM46.0284 42.6457C48.064 44.6804 49.3249 46.6234 49.3249 50.0205V51.8071H41.276C41.1742 50.1182 40.7693 48.4614 40.0807 46.916L41.0945 46.715C41.6742 46.5997 42.1587 46.204 42.3875 45.659C42.6162 45.114 42.5593 44.491 42.2355 43.9965L39.0981 39.1792C41.8914 40.185 44.8438 41.4612 46.0283 42.6474V42.6457H46.0284ZM40.747 44.9685L39.2085 45.2744C38.1148 43.4903 36.6435 41.9674 34.8982 40.8128L36.7995 38.9124L40.747 44.9685ZM34.249 37.6159C34.5486 37.6995 34.9008 37.8027 35.2796 37.9164L33.2885 39.9075C32.4599 39.5044 31.5938 39.1835 30.7025 38.9498L34.249 37.6159ZM16.1635 9.77677L13.2289 8.31126C12.4573 7.92702 11.9711 7.13764 11.975 6.27569C11.9647 5.43686 12.4258 4.66314 13.1684 4.27304C15.1764 3.23972 19.2146 2.00711 27.0928 2.00711C34.971 2.00711 39.0137 3.23963 41.0181 4.27391C41.76 4.66427 42.2206 5.43747 42.2107 6.27569C42.2135 7.13834 41.7254 7.92755 40.9523 8.31038L38.0177 9.7759C37.0039 8.77899 34.296 7.34279 27.0928 7.34279C19.8896 7.34279 17.1818 8.77899 16.1635 9.77677ZM36.8092 11.0556L36.137 13.7457C33.1586 14.322 30.1248 14.5606 27.0929 14.4571C24.0611 14.5604 21.0273 14.3217 18.0489 13.7457L17.3811 11.0778C17.8817 10.5665 19.9351 9.12139 27.0929 9.12139C34.3486 9.12139 36.3601 10.6065 36.8092 11.0556ZM19.1124 26.4028C18.5331 25.8967 18.2005 25.1649 18.2 24.3957V22.4526C18.2 21.9615 17.8018 21.5634 17.3107 21.5634C16.0116 21.5742 14.8959 20.6425 14.6752 19.3622C14.4544 18.082 15.1937 16.8303 16.4214 16.4056V18.0063C16.4214 18.4974 16.8195 18.8955 17.3106 18.8955C17.8017 18.8955 18.1999 18.4974 18.1999 18.0063V15.5981C21.1373 16.0916 24.115 16.3051 27.0928 16.2358C30.0705 16.3051 33.0482 16.0916 35.9856 15.5981V18.0063C35.9856 18.4974 36.3838 18.8955 36.8749 18.8955C37.366 18.8955 37.7641 18.4974 37.7641 18.0063V16.4056C38.9918 16.8303 39.7311 18.082 39.5103 19.3622C39.2896 20.6425 38.1739 21.5743 36.8748 21.5634C36.3837 21.5634 35.9855 21.9615 35.9855 22.4526V24.3957C35.9854 25.1647 35.6536 25.8963 35.0749 26.4028L30.1839 30.6847C29.6975 31.1106 29.0731 31.3453 28.4266 31.3454H25.7588C25.1123 31.3453 24.4879 31.1106 24.0015 30.6847L19.1124 26.4028ZM23.4851 38.9498C22.5938 39.1835 21.7276 39.5043 20.8991 39.9075L18.9062 37.9164C19.285 37.8026 19.6372 37.6995 19.9369 37.6159L23.4851 38.9498Z" fill="#C19444"/>
</g>
<defs>
<clipPath id="clip0_134_5862">
<rect width="53.3571" height="53.3571" fill="white" transform="translate(0.414307 0.228516)"/>
</clipPath>
</defs>
</svg>
