<svg width="18" height="16" viewBox="0 0 18 16" fill="none" xmlns="http://www.w3.org/2000/svg">
<rect x="0.5" y="0.5" width="16.2033" height="15" rx="3.5" fill="#F7F7F7" stroke="#C19444"/>
<path d="M12.4073 3.89722L7.29433 9.33183L4.71562 6.9335L4.61346 6.83849L4.51131 6.9335L3.44126 7.9287L3.29043 7.78842V8.13278V8.13432V8.47867L3.44126 8.33839L6.53465 11.2154L6.53367 11.2163L6.65207 11.3262L7.27835 11.9071L7.38751 12.0083L7.48957 11.8999L7.97711 11.3821L7.97715 11.3821L8.07201 11.2813L8.07277 11.2805L8.07281 11.2804L8.18329 11.1631L8.18325 11.163L13.8717 5.11672L13.9821 4.99932L13.8571 4.89759L12.6112 3.88366L12.5029 3.79554L12.4073 3.89722Z" fill="#C19444" stroke="#C19444" stroke-width="0.3"/>
</svg>
