<svg width="18" height="18" viewBox="0 0 18 18" fill="none" xmlns="http://www.w3.org/2000/svg">
<path d="M8.11629 0.609375C3.98403 0.609375 0.61792 3.97548 0.61792 8.10776C0.61792 12.24 3.98403 15.6127 8.11629 15.6127C9.88131 15.6127 11.5046 14.9941 12.7875 13.9671L15.9109 17.0889C16.0685 17.24 16.279 17.3233 16.4974 17.3211C16.7157 17.3189 16.9245 17.2312 17.079 17.0769C17.2335 16.9227 17.3214 16.714 17.3239 16.4957C17.3265 16.2774 17.2434 16.0667 17.0925 15.9089L13.9692 12.7856C14.997 11.5006 15.6163 9.87481 15.6163 8.10776C15.6163 3.97548 12.2486 0.609375 8.11629 0.609375ZM8.11629 2.27607C11.3478 2.27607 13.948 4.87623 13.948 8.10776C13.948 11.3393 11.3478 13.946 8.11629 13.946C4.88476 13.946 2.28459 11.3393 2.28459 8.10776C2.28459 4.87623 4.88476 2.27607 8.11629 2.27607Z" fill="black"/>
</svg>
