<svg width="24" height="24" viewBox="0 0 24 24" fill="none" xmlns="http://www.w3.org/2000/svg">
<path fill-rule="evenodd" clip-rule="evenodd" d="M0.75 0.75H20.125V3.875H18.875V2H2V16.375H15.3669V17.625H0.75V0.75ZM19.5 8.875C19.9973 8.875 20.4742 8.67746 20.8258 8.32583C21.1775 7.97419 21.375 7.49728 21.375 7C21.375 6.50272 21.1775 6.02581 20.8258 5.67417C20.4742 5.32254 19.9973 5.125 19.5 5.125C19.0027 5.125 18.5258 5.32254 18.1742 5.67417C17.8225 6.02581 17.625 6.50272 17.625 7C17.625 7.49728 17.8225 7.97419 18.1742 8.32583C18.5258 8.67746 19.0027 8.875 19.5 8.875ZM20.7694 10.1313C21.5812 10.1313 22.2237 10.4963 22.6444 11.06C23.0375 11.5881 23.2037 12.2413 23.2412 12.8444C23.278 13.4631 23.1937 14.083 22.9931 14.6694C22.8056 15.2131 22.4887 15.7756 22 16.1613V22.3125C22.0005 22.548 21.9122 22.7751 21.7529 22.9486C21.5935 23.122 21.3747 23.2291 21.1399 23.2486C20.9052 23.2681 20.6717 23.1984 20.486 23.0536C20.3002 22.9087 20.1758 22.6993 20.1375 22.4669L19.3312 17.625H19.145L18.2337 22.485C18.1905 22.7144 18.0632 22.9194 17.8768 23.0599C17.6904 23.2004 17.4583 23.2663 17.2259 23.2447C16.9934 23.2231 16.7774 23.1156 16.6201 22.9432C16.4627 22.7708 16.3753 22.5459 16.375 22.3125V13.3956C16.25 13.586 16.1267 13.7775 16.005 13.97L15.9562 14.0469L15.9437 14.0669L15.9406 14.0725C15.8564 14.2077 15.7391 14.3193 15.5998 14.3966C15.4604 14.4739 15.3037 14.5145 15.1444 14.5144H12.0194C11.7707 14.5144 11.5323 14.4156 11.3565 14.2398C11.1806 14.064 11.0819 13.8255 11.0819 13.5769C11.0819 13.3282 11.1806 13.0898 11.3565 12.914C11.5323 12.7381 11.7707 12.6394 12.0194 12.6394H14.63C14.7819 12.4044 14.9819 12.0994 15.1919 11.7931C15.4106 11.4738 15.6519 11.1356 15.8669 10.8706C15.9712 10.7413 16.0881 10.6062 16.2056 10.4956C16.2631 10.4412 16.3431 10.3706 16.4406 10.3081C16.6127 10.1952 16.8136 10.134 17.0194 10.1319H20.7694V10.1313Z" fill="#C19444"/>
</svg>
