<svg width="15" height="15" viewBox="0 0 15 15" fill="none" xmlns="http://www.w3.org/2000/svg">
<g clip-path="url(#clip0_1_7476)">
<path d="M11.2515 15.0014H3.57422C3.28673 15.0014 3.01101 14.8872 2.80773 14.6839C2.60444 14.4807 2.49023 14.2049 2.49023 13.9175V3.73035C2.49023 3.44286 2.60444 3.16714 2.80773 2.96385C3.01101 2.76057 3.28673 2.64636 3.57422 2.64636H11.2529C11.5404 2.64636 11.8161 2.76057 12.0194 2.96385C12.2227 3.16714 12.3369 3.44286 12.3369 3.73035V13.9175C12.3369 14.0599 12.3088 14.201 12.2543 14.3326C12.1997 14.4642 12.1197 14.5838 12.0189 14.6845C11.9181 14.7851 11.7984 14.865 11.6667 14.9193C11.5351 14.9737 11.3939 15.0016 11.2515 15.0014ZM3.95361 13.5366H10.8706V4.11121H3.95508L3.95361 13.5366Z" fill="#C19444"/>
<path d="M14.2676 13.125C14.0733 13.125 13.887 13.0478 13.7497 12.9105C13.6123 12.7731 13.5352 12.5868 13.5352 12.3926V1.46484H6.24023C6.04598 1.46484 5.85969 1.38768 5.72233 1.25032C5.58498 1.11297 5.50781 0.926672 5.50781 0.732422C5.50781 0.538172 5.58498 0.351877 5.72233 0.214521C5.85969 0.0771657 6.04598 0 6.24023 0L13.916 0C14.2035 0 14.4792 0.114205 14.6825 0.317492C14.8858 0.520778 15 0.796494 15 1.08398V12.3926C15 12.5868 14.9228 12.7731 14.7855 12.9105C14.6481 13.0478 14.4618 13.125 14.2676 13.125Z" fill="#C19444"/>
</g>
<defs>
<clipPath id="clip0_1_7476">
<rect width="15" height="15" fill="white"/>
</clipPath>
</defs>
</svg>
