<svg width="15" height="15" viewBox="0 0 15 15" fill="none" xmlns="http://www.w3.org/2000/svg">
<path d="M12.2214 0H4.8203C3.99894 0 3.33073 0.63085 3.33073 1.40625V1.875H2.30698C1.74568 1.875 1.28906 2.33162 1.28906 2.89292V13.9821C1.28906 14.5434 1.74568 15 2.30698 15H10.6513C11.2126 15 11.6693 14.5434 11.6693 13.9821V13.125H12.2214C13.0427 13.125 13.7109 12.4942 13.7109 11.7188V1.40625C13.7109 0.63085 13.0427 0 12.2214 0ZM10.7318 13.9821C10.7318 14.0264 10.6957 14.0625 10.6513 14.0625H2.30698C2.26263 14.0625 2.22656 14.0264 2.22656 13.9821V2.89292C2.22656 2.84856 2.26263 2.8125 2.30698 2.8125H10.6513C10.6957 2.8125 10.7318 2.84856 10.7318 2.89292V13.9821ZM12.7734 11.7188C12.7734 11.9772 12.5258 12.1875 12.2214 12.1875H11.6693V2.89292C11.6693 2.33162 11.2126 1.875 10.6513 1.875H4.26823V1.40625C4.26823 1.14779 4.51591 0.9375 4.8203 0.9375H12.2214C12.5258 0.9375 12.7734 1.14779 12.7734 1.40625V11.7188Z" fill="#C19444"/>
<path d="M8.78906 6.32812H4.33594C4.07707 6.32812 3.86719 6.11824 3.86719 5.85938C3.86719 5.60051 4.07707 5.39062 4.33594 5.39062H8.78906C9.04793 5.39062 9.25781 5.60051 9.25781 5.85938C9.25781 6.11824 9.04793 6.32812 8.78906 6.32812Z" fill="#C19444"/>
<path d="M8.78906 8.20312H4.33594C4.07707 8.20312 3.86719 7.99324 3.86719 7.73438C3.86719 7.47551 4.07707 7.26562 4.33594 7.26562H8.78906C9.04793 7.26562 9.25781 7.47551 9.25781 7.73438C9.25781 7.99324 9.04793 8.20312 8.78906 8.20312Z" fill="#C19444"/>
<path d="M8.78906 10.0781H4.33594C4.07707 10.0781 3.86719 9.86824 3.86719 9.60938C3.86719 9.35051 4.07707 9.14062 4.33594 9.14062H8.78906C9.04793 9.14062 9.25781 9.35051 9.25781 9.60938C9.25781 9.86824 9.04793 10.0781 8.78906 10.0781Z" fill="#C19444"/>
</svg>
