<svg width="72" height="72" viewBox="0 0 72 72" fill="none" xmlns="http://www.w3.org/2000/svg">
<path d="M60.4995 39.0346C60.4227 38.5339 59.9924 38.1641 59.4861 38.1641H46.927V28.6168C46.927 26.6775 46.0623 24.8668 44.5546 23.649L40.5808 20.4389L42.4457 18.5719L43.3701 19.4973C44.7302 20.8589 46.5386 21.6086 48.4621 21.6086C48.7576 21.6086 49.0312 21.7901 49.1759 22.0821C49.844 23.4299 51.192 24.2671 52.6942 24.2671C54.2064 24.2671 55.6269 23.3112 56.2772 21.9608C56.4221 21.6688 56.6956 21.4873 56.9913 21.4873C58.9147 21.4873 60.7231 20.7375 62.0831 19.3759L63.0076 18.4504L64.8725 20.3175L60.8984 23.5274C59.3908 24.7452 58.5262 26.5559 58.5262 28.4953V34.3388C58.5262 35.665 60.5766 35.665 60.5766 34.3388V28.4956C60.5766 27.1793 61.1634 25.9502 62.1865 25.1238L67.0476 21.1975C67.3039 20.9742 67.4304 20.7196 67.4273 20.4336C70.9234 16.3316 72.9054 9.57528 68.3373 2.37665C66.2612 -0.893281 61.1736 2.32933 63.2544 5.60828C66.3307 10.4557 64.5354 14.235 63.2503 16.0042C62.9042 15.9202 62.5816 16.0102 62.2824 16.2745L60.6329 17.9258C59.6602 18.8997 58.3668 19.4359 56.9911 19.4359C56.6128 19.4359 56.2475 19.5132 55.9108 19.6546L55.4271 17.9271C56.9396 16.9563 57.9447 15.2605 57.9447 13.333V11.0108C57.9447 8.86125 57.2406 7.08283 55.8516 5.72521C52.9896 2.92738 48.2403 3.0041 48.0401 3.00889C47.4834 3.02174 47.0387 3.47702 47.0387 4.03431V13.333C47.0387 15.3549 48.1446 17.122 49.7822 18.0644L49.3927 19.7178C49.0983 19.6137 48.785 19.5572 48.462 19.5572C47.0864 19.5572 45.7932 19.021 44.8203 18.0471L43.1706 16.3959C42.8802 16.1391 42.5664 16.0469 42.229 16.1191C40.9412 14.4022 38.9956 10.5635 42.1404 5.60842C44.1974 2.3668 39.162 -0.937728 37.0575 2.37692C32.464 9.61521 34.4936 16.4068 38.0258 20.502C38.0254 20.5265 38.0246 20.5508 38.0258 20.5754C38.0413 20.8659 38.1793 21.1361 38.4055 21.3188L43.2665 25.2452C44.2897 26.0717 44.8765 27.3006 44.8765 28.6169V39.0477L42.1004 48.879C41.0887 52.4621 40.9595 56.2818 41.7272 59.9251L42.9915 65.9263C42.1441 66.1432 41.367 66.5836 40.7323 67.219C39.3691 68.5836 40.3619 70.9884 42.2902 70.9928L46.9814 71C48.3611 71 49.5743 69.7934 49.5743 68.4107C49.7025 66.2736 49.1981 64.1244 48.8938 62.0227C48.297 57.8998 48.9258 53.7331 50.7124 49.9711L50.6485 51.0448C50.482 53.8507 50.823 56.6332 51.6621 59.3154L53.7393 65.9557C52.9334 66.1815 52.1944 66.6104 51.5864 67.219C50.2231 68.5836 51.2159 70.9884 53.1443 70.9928L57.8355 71C59.2151 71 60.4283 69.7934 60.4283 68.4107C60.6376 65.9188 59.7057 63.3553 59.1844 60.9513C58.3961 57.3161 58.5865 53.5243 59.7347 49.9862C60.5631 47.4345 61.4113 44.992 60.9897 42.2401L60.4995 39.0346ZM64.985 4.50887C64.3414 3.49507 65.9408 2.42834 66.6058 3.47647C70.4337 9.50867 68.989 15.1575 66.1776 18.7229L64.8061 17.3497C66.3964 15.233 68.8004 10.5208 64.985 4.50887ZM49.089 5.11048C50.4457 5.23712 52.8735 5.67735 54.4244 7.19853C55.1906 7.95002 55.6518 8.86795 55.8206 9.98542H49.089V5.11048ZM49.089 12.0368H55.894V13.3333C55.894 15.2103 54.3677 16.7374 52.4914 16.7374C50.6152 16.7374 49.0889 15.2103 49.0889 13.3333V12.0368H49.089ZM52.4916 18.7888C52.8403 18.7888 53.1809 18.7545 53.5116 18.6917L54.2612 21.3688C53.9163 21.8961 53.3348 22.216 52.694 22.216C52.0455 22.216 51.4579 21.8883 51.1148 21.3496L51.7309 18.7346C51.9795 18.7695 52.2332 18.7888 52.4916 18.7888ZM38.7884 3.47661C39.4388 2.45159 41.0646 3.47606 40.4093 4.50873C36.5311 10.6196 39.0782 15.3873 40.6656 17.4515L39.296 18.8227C36.4328 15.2635 34.9248 9.56516 38.7884 3.47661ZM47.524 68.4106C47.524 68.6773 47.2577 68.9485 46.9855 68.9485L42.2943 68.9412C42.1365 68.9003 42.0993 68.8097 42.1828 68.6691C42.7273 68.1241 43.4506 67.8239 44.2202 67.8231H44.2219C44.2231 67.8231 44.2245 67.8229 44.2257 67.8229H47.5241V68.4106H47.524ZM58.3782 68.4106C58.3782 68.6773 58.1119 68.9485 57.8397 68.9485L53.1485 68.9412C52.9906 68.9003 52.9535 68.8097 53.037 68.6691C53.582 68.1235 54.3065 67.8229 55.0771 67.8229H58.3783V68.4106H58.3782ZM58.6202 46.7793L57.7849 49.3524C56.5247 53.2354 56.3159 57.3966 57.181 61.3862L58.1318 65.7715H55.8303L53.6189 58.7024C52.8544 56.2585 52.5438 53.723 52.6954 51.1664L52.9634 46.6539C53.0509 45.1771 50.9815 44.6424 50.3448 45.9784L48.8766 49.0568C46.9035 53.1941 46.2079 57.7794 46.8646 62.3167L47.3647 65.7717H45.0545L43.7337 59.5019C43.0343 56.1821 43.1518 52.7015 44.0738 49.4367L46.6776 40.2156H58.6059L58.9633 42.5507C59.1792 43.9604 59.0605 45.4226 58.6202 46.7793Z" fill="#C19444" stroke="#F8F4E9"/>
<path d="M38.3094 41.9844C33.2077 39.7972 32.4292 35.8629 32.4399 33.6251C32.7895 33.4618 33.0324 33.1077 33.0324 32.6962C33.1273 27.2268 29.3225 23.5266 23.9078 23.6378L23.5561 22.1449C25.1936 21.2025 26.2996 19.4354 26.2996 17.4136V15.0914C26.3048 11.932 23.9741 9.4714 20.8775 9.36773C20.866 9.36732 20.8546 9.36719 20.8431 9.36719C17.8383 9.36719 15.3937 11.8129 15.3937 14.8191V17.4136C15.3937 19.3411 16.399 21.0369 17.9113 22.0076L17.4276 23.735C13.5415 22.9262 9.74115 25.9304 7.03092 27.8868C6.65938 28.1551 6.51749 28.6304 6.66075 29.0495C5.78563 29.7313 4.98707 30.5042 4.28706 31.3521C3.455 32.3601 5.00511 33.7032 5.86779 32.6586C6.40978 32.0022 7.02066 31.3973 7.6865 30.8541L8.67015 32.5455C6.59678 34.341 3.73605 38.0974 5.54464 44.3197C5.87982 45.473 4.04675 46.0507 3.70023 44.8586C2.8243 41.8448 2.83592 39.0088 3.73495 36.4294C4.17128 35.1769 2.23542 34.502 1.79882 35.754C0.756802 38.744 0.73411 42 1.73143 45.4317C2.81254 49.1498 8.59756 47.4761 7.51358 43.747C6.15443 39.0709 7.84862 36.1031 9.72898 34.3502C10.0503 34.7768 10.6523 34.88 11.0947 34.6003L12.7621 33.5461V43.1489C12.7621 43.2364 12.7742 43.3208 12.7948 43.4019L12.4806 45.454C12.12 47.8092 12.887 50.2435 14.5324 51.9662C16.1335 53.6425 17.989 55.4 16.8249 57.956L13.0018 66.3497C12.9432 66.4784 12.9096 66.6325 12.9096 66.775V68.3884C12.9096 69.8004 14.0958 70.9776 15.5016 70.9776L20.1943 70.9702C22.1227 70.9661 23.114 68.5605 21.7515 67.1965C21.207 66.6514 20.5572 66.2505 19.8486 66.0104L24.4769 57.5562C25.4329 55.8099 25.3464 53.8955 24.6629 52.0803L26.3373 53.9335C27.3428 55.0466 27.6308 56.607 27.0886 58.006L23.8331 66.4038C23.7878 66.5208 23.7636 66.6493 23.7636 66.7747V68.3881C23.7636 69.8001 24.95 70.9774 26.3557 70.9774L31.0483 70.97C32.9768 70.9659 33.9682 68.5604 32.6057 67.1962C32.0295 66.6195 31.3359 66.2033 30.5789 65.9692L34.3649 57.1858C35.1498 55.365 34.9852 53.2776 33.9246 51.6022L28.4614 42.9725V41.2434C30.0883 43.9274 32.6357 46.1069 35.9395 47.5233C39.468 49.0356 41.9125 43.5291 38.3094 41.9844ZM20.8259 11.4186C21.9681 11.4621 22.9439 12.0173 23.5582 12.8736C21.7195 15.0888 18.7213 15.2153 17.444 15.156C17.356 13.2023 18.7982 11.4286 20.8259 11.4186ZM17.444 17.2135C19.8508 17.3154 22.3987 16.7086 24.249 15.1V17.4136C24.249 19.2906 22.7227 20.8178 20.8464 20.8178C18.9702 20.8178 17.4438 19.2906 17.4438 17.4136V17.2135H17.444ZM20.8466 22.8691C21.1048 22.8691 21.3586 22.8498 21.6074 22.8148L22.2227 25.4263C21.5076 26.5379 19.8084 26.5673 19.0769 25.4489L19.8266 22.7718C20.1572 22.8349 20.4979 22.8691 20.8466 22.8691ZM10.8983 32.2977L8.98427 29.0064L11.64 27.0895C13.0189 26.094 14.6467 25.5679 16.3473 25.5679C16.6428 25.5679 16.9163 25.7494 17.0612 26.0414C17.7289 27.4278 19.091 28.3477 20.6443 28.3477C22.2954 28.3477 23.8195 27.2476 24.3578 25.6892H24.8983C26.829 25.6892 28.6631 26.6193 29.8048 28.1771C30.5542 29.2 30.9599 30.4056 30.9811 31.6704H28.4615V30.4353C28.4615 29.1517 26.4111 29.0933 26.4111 30.4353V42.2444H14.8125V29.9435C14.8125 28.6599 12.7621 28.6015 12.7621 29.9435V31.1191L10.8983 32.2977ZM20.3357 68.8205C20.2953 68.9184 20.2213 68.9186 20.1904 68.9187L15.4977 68.9261C14.9637 68.9261 14.8773 68.1917 14.96 67.8006H18.261C19.0317 67.8006 19.7562 68.101 20.3012 68.6467C20.3218 68.6672 20.3765 68.7219 20.3357 68.8205ZM31.1901 68.8205C31.1496 68.9186 31.0755 68.9187 31.0446 68.9187L26.3521 68.9261C25.8179 68.9261 25.7315 68.1917 25.8142 67.8006H29.1096C29.1114 67.8006 29.1131 67.8008 29.1149 67.8008C29.1157 67.8008 29.1165 67.8007 29.1174 67.8007C29.8874 67.8013 30.611 68.1016 31.1556 68.6467C31.176 68.6671 31.2307 68.7219 31.1901 68.8205ZM32.4822 56.3736L28.441 65.749H26.2862L29.0004 58.7477C29.8246 56.6215 29.3871 54.2497 27.8584 52.558L23.9312 48.2111C22.9027 47.0656 20.8225 48.0669 21.6358 49.6306L22.943 53.3742C23.3106 54.4272 23.2144 55.5923 22.6787 56.5708L17.6538 65.7492H15.5286L18.6909 58.8064C20.2339 55.4183 18.2326 52.8705 16.015 50.5487C14.8062 49.2831 14.2426 47.4946 14.5075 45.7643L14.7324 44.2959H26.8723L32.1927 52.7001C32.8903 53.8024 32.9985 55.1756 32.4822 56.3736ZM38.0078 45.1332C37.727 45.6498 37.3067 45.8181 36.7471 45.6378C33.7406 44.3489 31.4997 42.4408 30.0867 39.9668C28.7842 37.6863 28.4625 35.4112 28.4616 33.7218H30.3879C30.3907 34.9268 30.5822 36.4298 31.249 37.9871C32.3632 40.5896 34.467 42.5688 37.5016 43.8699C37.9892 44.079 38.2161 44.6458 38.0078 45.1332Z" fill="#C19444" stroke="#F8F4E9"/>
<path d="M11.2221 52.8119C10.4997 52.6709 10.0116 51.929 10.1342 51.1582C10.3424 49.8485 8.31765 49.5261 8.10919 50.8359C7.81502 52.6855 9.03529 54.4753 10.8297 54.8254C12.0901 55.072 12.5014 53.0615 11.2221 52.8119Z" fill="#C19444" stroke="#F8F4E9"/>
<path d="M9.74218 55.8113C7.83707 55.4394 6.54627 53.5081 6.86477 51.5059C7.07295 50.1963 5.04824 49.8736 4.83978 51.1836C4.34974 54.2645 6.37281 57.2438 9.34973 57.8249C10.6102 58.0714 11.0215 56.0609 9.74218 55.8113Z" fill="#C19444" stroke="#F8F4E9"/>
<path d="M64.0625 46.1864C64.2454 46.3209 64.458 46.3858 64.669 46.3858C64.984 46.3858 65.2948 46.2409 65.4957 45.9676C66.6047 44.4585 66.3402 42.3083 64.906 41.1741C64.4619 40.8229 63.817 40.8984 63.4661 41.3429C63.115 41.7874 63.1904 42.4323 63.6346 42.7836C64.2123 43.2403 64.306 44.1235 63.8439 44.7524C63.5083 45.2088 63.6062 45.8508 64.0625 46.1864Z" fill="#C19444" stroke="#F8F4E9"/>
<path d="M67.1271 47.3753C67.3102 47.5099 67.5229 47.5747 67.7338 47.5747C68.0489 47.5747 68.3596 47.4299 68.5605 47.1565C70.4079 44.6432 69.975 41.0676 67.5954 39.1859C67.1513 38.8347 66.5064 38.9101 66.1555 39.3545C65.8045 39.799 65.8798 40.4439 66.3241 40.7953C67.8468 41.9995 68.109 44.308 66.9086 45.9413C66.5731 46.3977 66.671 47.0397 67.1271 47.3753Z" fill="#C19444" stroke="#F8F4E9"/>
<path d="M30.1136 8.65007C30.6753 9.81376 32.5412 8.96312 31.9603 7.7584C31.6403 7.09498 31.9416 6.25965 32.6321 5.89601C33.7673 5.29809 32.864 3.45566 31.6771 4.08079C30.0204 4.95318 29.319 7.00294 30.1136 8.65007Z" fill="#C19444" stroke="#F8F4E9"/>
<path d="M27.7506 9.84206C28.4905 9.84206 28.9968 9.04133 28.6731 8.37025C27.8294 6.62123 28.6019 4.4302 30.3952 3.48601C31.5306 2.88824 30.6269 1.04512 29.4402 1.6708C26.6808 3.12374 25.5082 6.52906 26.8265 9.26193C27.0033 9.62831 27.3693 9.84206 27.7506 9.84206Z" fill="#C19444" stroke="#F8F4E9"/>
<path d="M13.1184 2.93364C12.8486 2.7378 12.5003 2.68556 12.1849 2.79346L6.3041 4.80561C5.89415 4.94592 5.61667 5.32885 5.61079 5.76238L5.54531 10.6134C5.48599 10.6079 5.42652 10.6027 5.36597 10.6019C4.13217 10.5852 3.11845 11.5725 3.10177 12.8069C3.08509 14.0413 4.07189 15.0555 5.30569 15.0722C6.53949 15.0889 7.55321 14.1016 7.56988 12.8672C7.57029 12.8375 7.56742 12.8085 7.5666 12.7791L7.65108 6.51278L11.4718 5.20549L11.427 8.52643C11.3666 8.52069 11.3059 8.51549 11.2441 8.51467C10.0103 8.49799 8.99656 9.48525 8.97988 10.7196C8.96321 11.954 9.95 12.9683 11.1838 12.9849C12.4176 13.0016 13.4313 12.0144 13.448 10.78C13.4481 10.7741 13.4473 10.7683 13.4473 10.7623L13.5415 3.77772C13.5461 3.4443 13.3883 3.12934 13.1184 2.93364Z" fill="#C19444" stroke="#F8F4E9"/>
<path d="M69.6907 57.9807L66.2193 54.5075C65.9278 54.216 65.4906 54.1272 65.1084 54.2826C64.7266 54.4378 64.4746 54.8066 64.4692 55.219L64.4036 60.0749C64.3596 60.0716 64.3159 60.067 64.2714 60.0664C63.0636 60.0501 62.0713 61.0165 62.0549 62.2249C62.0386 63.4333 63.0045 64.4261 64.2122 64.4425C65.42 64.4587 66.4123 63.4924 66.4287 62.284C66.4291 62.2542 66.4262 62.225 66.4254 62.1955L66.4865 57.6763L68.2407 59.4313C68.6411 59.8319 69.2902 59.832 69.6905 59.4313C70.0911 59.0306 70.0911 58.3813 69.6907 57.9807Z" fill="#C19444" stroke="#F8F4E9"/>
</svg>
