<svg width="16" height="16" viewBox="0 0 16 16" fill="none" xmlns="http://www.w3.org/2000/svg">
<path d="M12.6667 4.66797C12.4899 4.66797 12.3204 4.73821 12.1953 4.86323C12.0703 4.98826 12.0001 5.15782 12.0001 5.33464V12.7953C11.981 13.1324 11.8294 13.4483 11.5784 13.6742C11.3274 13.9001 10.9974 14.0177 10.6601 14.0013H5.34008C5.00281 14.0177 4.67274 13.9001 4.42175 13.6742C4.17077 13.4483 4.01921 13.1324 4.00008 12.7953V5.33464C4.00008 5.15782 3.92984 4.98826 3.80482 4.86323C3.67979 4.73821 3.51023 4.66797 3.33341 4.66797C3.1566 4.66797 2.98703 4.73821 2.86201 4.86323C2.73699 4.98826 2.66675 5.15782 2.66675 5.33464V12.7953C2.68578 13.4861 2.9778 14.1412 3.47887 14.6172C3.97993 15.0931 4.6492 15.3511 5.34008 15.3346H10.6601C11.351 15.3511 12.0202 15.0931 12.5213 14.6172C13.0224 14.1412 13.3144 13.4861 13.3334 12.7953V5.33464C13.3334 5.15782 13.2632 4.98826 13.1382 4.86323C13.0131 4.73821 12.8436 4.66797 12.6667 4.66797Z" fill="black"/>
<path d="M13.3333 2.66797H10.6667V1.33464C10.6667 1.15782 10.5964 0.988255 10.4714 0.863231C10.3464 0.738207 10.1768 0.667969 10 0.667969H6C5.82319 0.667969 5.65362 0.738207 5.5286 0.863231C5.40357 0.988255 5.33333 1.15782 5.33333 1.33464V2.66797H2.66667C2.48986 2.66797 2.32029 2.73821 2.19526 2.86323C2.07024 2.98826 2 3.15782 2 3.33464C2 3.51145 2.07024 3.68102 2.19526 3.80604C2.32029 3.93106 2.48986 4.0013 2.66667 4.0013H13.3333C13.5101 4.0013 13.6797 3.93106 13.8047 3.80604C13.9298 3.68102 14 3.51145 14 3.33464C14 3.15782 13.9298 2.98826 13.8047 2.86323C13.6797 2.73821 13.5101 2.66797 13.3333 2.66797ZM6.66667 2.66797V2.0013H9.33333V2.66797H6.66667Z" fill="black"/>
<path d="M7.33333 11.3333V6.66667C7.33333 6.48986 7.2631 6.32029 7.13807 6.19526C7.01305 6.07024 6.84348 6 6.66667 6C6.48986 6 6.32029 6.07024 6.19526 6.19526C6.07024 6.32029 6 6.48986 6 6.66667V11.3333C6 11.5101 6.07024 11.6797 6.19526 11.8047C6.32029 11.9298 6.48986 12 6.66667 12C6.84348 12 7.01305 11.9298 7.13807 11.8047C7.2631 11.6797 7.33333 11.5101 7.33333 11.3333Z" fill="black"/>
<path d="M10.0001 11.3333V6.66667C10.0001 6.48986 9.92984 6.32029 9.80482 6.19526C9.67979 6.07024 9.51023 6 9.33341 6C9.1566 6 8.98703 6.07024 8.86201 6.19526C8.73699 6.32029 8.66675 6.48986 8.66675 6.66667V11.3333C8.66675 11.5101 8.73699 11.6797 8.86201 11.8047C8.98703 11.9298 9.1566 12 9.33341 12C9.51023 12 9.67979 11.9298 9.80482 11.8047C9.92984 11.6797 10.0001 11.5101 10.0001 11.3333Z" fill="black"/>
</svg>
