<svg width="32" height="24" viewBox="0 0 32 24" fill="none" xmlns="http://www.w3.org/2000/svg">
<path d="M24 2.39999C24 1.51636 23.2836 0.799988 22.4 0.799988H1.6C0.716375 0.799988 0 1.51636 0 2.39999C0 3.28361 0.716375 3.99999 1.6 3.99999H22.4C23.2836 3.99999 24 3.28355 24 2.39999ZM1.6 10.4H30.4C31.2836 10.4 32 11.1164 32 12C32 12.8836 31.2836 13.6 30.4 13.6H1.6C0.716375 13.6 0 12.8836 0 12C0 11.1164 0.716375 10.4 1.6 10.4ZM1.6 20H16C16.8836 20 17.6 20.7164 17.6 21.6C17.6 22.4835 16.8836 23.2 16 23.2H1.6C0.716375 23.2 0 22.4835 0 21.6C0 20.7164 0.716375 20 1.6 20Z" fill="#727272"/>
</svg>
