<svg width="19" height="19" viewBox="0 0 19 19" fill="none" xmlns="http://www.w3.org/2000/svg">
<path d="M2.64437 18.2932L4.87645 18.0448C5.351 17.9916 5.79345 17.779 6.13138 17.4416L15.7065 7.8693L17.6909 5.88484C18.0854 5.4902 18.3071 4.95503 18.3071 4.39702C18.3071 3.839 18.0854 3.30383 17.6909 2.9092L15.7065 0.924738C15.3118 0.530221 14.7767 0.308594 14.2186 0.308594C13.6606 0.308594 13.1255 0.530221 12.7308 0.924738L10.7464 2.9092L1.17128 12.4815C0.83375 12.8196 0.621049 13.2623 0.568012 13.7371L0.322497 15.9713C0.289769 16.2652 0.319358 16.5627 0.409334 16.8444C0.49931 17.1262 0.647653 17.3857 0.844691 17.6063C1.04173 17.8268 1.28304 18.0033 1.55288 18.1244C1.82272 18.2454 2.11504 18.3081 2.41078 18.3086C2.48886 18.3076 2.56683 18.3024 2.64437 18.2932ZM13.7206 1.91662C13.8521 1.78511 14.0305 1.71124 14.2165 1.71124C14.4025 1.71124 14.5809 1.78511 14.7125 1.91662L16.6969 3.90108C16.8284 4.03262 16.9023 4.21101 16.9023 4.39702C16.9023 4.58302 16.8284 4.76141 16.6969 4.89296L15.2084 6.38148L12.2321 3.40514L13.7206 1.91662ZM1.71702 16.1242L1.96464 13.8921C1.98231 13.7331 2.05326 13.5848 2.16596 13.4712L11.2423 4.39702L14.2186 7.37336L5.14231 16.4497C5.02857 16.5621 4.88033 16.633 4.72142 16.651L2.48934 16.8986C2.3853 16.9097 2.28011 16.8973 2.18147 16.8624C2.08283 16.8276 1.99324 16.7711 1.91926 16.6971C1.84528 16.6231 1.78878 16.5335 1.75391 16.4349C1.71904 16.3362 1.70668 16.2311 1.71772 16.127L1.71702 16.1242Z" fill="#C19444"/>
</svg>
