<svg width="15" height="15" viewBox="0 0 15 15" fill="none" xmlns="http://www.w3.org/2000/svg">
<g clip-path="url(#clip0_1_6092)">
<path d="M2.85937 8.11632L4.59984 6.37585C5.26563 6.87451 6.0956 7.10244 6.92269 7.01375C7.74977 6.92506 8.51255 6.52634 9.05747 5.89785C9.60238 5.26936 9.88898 4.45778 9.85956 3.62647C9.83015 2.79517 9.4869 2.00587 8.89892 1.41748C8.31094 0.82908 7.52188 0.485274 6.6906 0.455268C5.85932 0.425262 5.04753 0.711286 4.41866 1.25576C3.78979 1.80023 3.39052 2.56273 3.30125 3.38975C3.21197 4.21677 3.43931 5.0469 3.9375 5.71304L2.19656 7.45398L1.53375 6.7907C1.44579 6.7028 1.32652 6.65345 1.20218 6.65349C1.07783 6.65354 0.958597 6.70298 0.870703 6.79093C0.782809 6.87889 0.733455 6.99816 0.733499 7.1225C0.733543 7.24685 0.782981 7.36609 0.870937 7.45398L1.53375 8.11726L0.606094 9.04445C0.561323 9.08769 0.525613 9.13941 0.501046 9.1966C0.476479 9.25379 0.463548 9.3153 0.463008 9.37754C0.462467 9.43978 0.474327 9.50151 0.497896 9.55911C0.521465 9.61672 0.556271 9.66906 0.600283 9.71307C0.644296 9.75708 0.696633 9.79189 0.75424 9.81546C0.811848 9.83903 0.873573 9.85089 0.935813 9.85035C0.998053 9.84981 1.05956 9.83687 1.11675 9.81231C1.17394 9.78774 1.22567 9.75203 1.26891 9.70726L2.19656 8.7796L2.85937 9.44242C2.90262 9.48719 2.95434 9.5229 3.01153 9.54747C3.06872 9.57203 3.13023 9.58496 3.19247 9.5855C3.25471 9.58604 3.31643 9.57418 3.37404 9.55061C3.43165 9.52705 3.48399 9.49224 3.528 9.44823C3.57201 9.40421 3.60682 9.35188 3.63038 9.29427C3.65395 9.23666 3.66581 9.17494 3.66527 9.1127C3.66473 9.05046 3.6518 8.98895 3.62723 8.93176C3.60267 8.87457 3.56696 8.82285 3.52219 8.7796L2.85937 8.11632ZM6.5625 1.4071C7.02605 1.4071 7.47919 1.54456 7.86462 1.8021C8.25005 2.05963 8.55045 2.42568 8.72784 2.85394C8.90524 3.2822 8.95165 3.75345 8.86122 4.2081C8.77078 4.66274 8.54756 5.08036 8.21978 5.40814C7.892 5.73592 7.47439 5.95914 7.01974 6.04957C6.5651 6.14 6.09385 6.09359 5.66559 5.9162C5.23732 5.7388 4.87128 5.4384 4.61374 5.05297C4.35621 4.66754 4.21875 4.2144 4.21875 3.75085C4.21875 3.12925 4.46568 2.53311 4.90522 2.09357C5.34476 1.65403 5.9409 1.4071 6.5625 1.4071Z" fill="#C19444"/>
<path d="M14.0625 5.15625H11.7188C11.5944 5.15625 11.4752 5.20564 11.3873 5.29354C11.2994 5.38145 11.25 5.50068 11.25 5.625C11.25 5.74932 11.2994 5.86855 11.3873 5.95646C11.4752 6.04436 11.5944 6.09375 11.7188 6.09375H12.9309L10.3997 8.625C9.73371 8.12662 8.90366 7.89903 8.07663 7.98804C7.24959 8.07705 6.48699 8.47606 5.94231 9.10475C5.39764 9.73343 5.11135 10.5451 5.14108 11.3764C5.1708 12.2077 5.51432 12.9968 6.1025 13.585C6.69068 14.1732 7.47984 14.5167 8.31112 14.5464C9.1424 14.5761 9.95407 14.2899 10.5828 13.7452C11.2114 13.2005 11.6104 12.4379 11.6995 11.6109C11.7885 10.7838 11.5609 9.95379 11.0625 9.28781L13.5938 6.75656V7.96875C13.5938 8.09307 13.6431 8.2123 13.731 8.30021C13.819 8.38811 13.9382 8.4375 14.0625 8.4375C14.1868 8.4375 14.306 8.38811 14.394 8.30021C14.4819 8.2123 14.5312 8.09307 14.5312 7.96875V5.625C14.5312 5.50068 14.4819 5.38145 14.394 5.29354C14.306 5.20564 14.1868 5.15625 14.0625 5.15625ZM8.4375 13.5938C7.97395 13.5938 7.52081 13.4563 7.13538 13.1988C6.74996 12.9412 6.44955 12.5752 6.27216 12.1469C6.09476 11.7187 6.04835 11.2474 6.13878 10.7928C6.22922 10.3381 6.45244 9.9205 6.78022 9.59272C7.108 9.26494 7.52561 9.04172 7.98026 8.95128C8.4349 8.86085 8.90615 8.90726 9.33441 9.08466C9.76268 9.26205 10.1287 9.56245 10.3863 9.94788C10.6438 10.3333 10.7812 10.7864 10.7812 11.25C10.7812 11.5578 10.7206 11.8626 10.6028 12.1469C10.4851 12.4313 10.3124 12.6896 10.0948 12.9073C9.87714 13.1249 9.61877 13.2976 9.33441 13.4153C9.05006 13.5331 8.74529 13.5938 8.4375 13.5938Z" fill="#C19444"/>
</g>
<defs>
<clipPath id="clip0_1_6092">
<rect width="15" height="15" fill="white"/>
</clipPath>
</defs>
</svg>
