<svg width="16" height="16" viewBox="0 0 16 16" fill="none" xmlns="http://www.w3.org/2000/svg">
<g clip-path="url(#clip0_1_2661)">
<path d="M8.91955 15.8117H15.0342C15.5676 15.8117 16 15.3797 16 14.847V3.96667C16 3.43386 15.5676 3.00195 15.0342 3.00195H7.13062L8.91955 15.8117Z" fill="#DDDDDD"/>
<path d="M15.0341 3.00195H14.0684C14.6018 3.00195 15.0341 3.43389 15.0341 3.96667V14.847C15.0341 15.3798 14.6017 15.8117 14.0684 15.8117H15.0341C15.5675 15.8117 15.9999 15.3798 15.9999 14.847V3.9667C15.9999 3.43389 15.5675 3.00195 15.0341 3.00195V3.00195Z" fill="#CFCDCD"/>
<path d="M14.2993 7.66808H14.9698C15.0054 7.66808 15.0342 7.63927 15.0342 7.6037V6.76667C15.0342 6.73111 15.0054 6.7023 14.9698 6.7023H12.7672C12.7317 6.7023 12.7029 6.67348 12.7029 6.63792V6.03508C12.7029 5.99952 12.674 5.9707 12.6385 5.9707H11.8014C11.7659 5.9707 11.7371 5.99952 11.7371 6.03508V6.63792C11.7371 6.67348 11.7083 6.7023 11.6727 6.7023H9.47014C9.43457 6.7023 9.40576 6.73111 9.40576 6.76667V7.6037C9.40576 7.63927 9.43457 7.66808 9.47014 7.66808H13.0942C13.1421 7.66808 13.1734 7.71855 13.1518 7.7613C12.9625 8.13489 12.6765 8.61477 12.2692 9.10252C12.2436 9.1332 12.1958 9.1332 12.1702 9.10252C11.9213 8.80442 11.7177 8.50942 11.5542 8.24014C11.5358 8.20986 11.4966 8.19998 11.4662 8.21811L10.7469 8.64611C10.7162 8.66436 10.7059 8.70402 10.7244 8.73455C10.9255 9.06633 11.1801 9.4327 11.4963 9.80136C11.5195 9.82839 11.5169 9.8692 11.4899 9.8923C11.0344 10.281 10.4855 10.638 9.82886 10.9062C9.79614 10.9195 9.78004 10.9565 9.79304 10.9894L10.1015 11.7675C10.1147 11.8007 10.1526 11.8171 10.1857 11.8036C10.9099 11.5087 11.5801 11.0932 12.1766 10.5737C12.2009 10.5526 12.2366 10.5525 12.2608 10.5737C12.8002 11.0445 13.4579 11.4795 14.2543 11.8036C14.2874 11.8171 14.3253 11.8008 14.3385 11.7675L14.647 10.9893C14.66 10.9565 14.6439 10.9195 14.6112 10.9061C13.9541 10.6377 13.4052 10.2807 12.9497 9.89208C12.9226 9.86898 12.92 9.82836 12.9432 9.80136C13.1339 9.57955 13.3138 9.34511 13.4817 9.09855C13.8621 8.53967 14.1036 8.0347 14.2398 7.7078C14.2498 7.6838 14.2732 7.66808 14.2993 7.66808V7.66808Z" fill="#607D8B"/>
<path d="M11.4743 12.6524L7.28781 0.354156C7.25388 0.2545 7.16022 0.1875 7.05484 0.1875H0.965781C0.432406 0.1875 0 0.619437 0 1.15222V11.6877C0 12.2205 0.432406 12.6524 0.965781 12.6524H11.4743Z" fill="#2196F3"/>
<path d="M11.4743 12.6523L8.91958 15.8125L7.54492 12.6523H11.4743Z" fill="#1565C0"/>
<path d="M7.1581 6.14863C7.18185 6.14863 7.20107 6.16788 7.20107 6.19159V6.64291C7.20107 6.81181 7.18538 6.97697 7.15529 7.13719C6.92251 8.38166 5.82613 9.32213 4.51201 9.31306C3.03745 9.30291 1.85735 8.11147 1.8606 6.63687C1.86385 5.16494 3.05813 3.97266 4.53085 3.97266C5.25238 3.97266 5.90701 4.25891 6.38766 4.72384C6.40501 4.74063 6.40548 4.76828 6.38838 4.78534L5.74991 5.42381C5.73348 5.44025 5.70691 5.44069 5.69007 5.42466C5.38841 5.1375 4.98026 4.96122 4.53085 4.96122C3.60282 4.96122 2.85551 5.70322 2.84923 6.63122C2.84288 7.56531 3.59823 8.32453 4.53085 8.32453C5.28754 8.32453 5.92754 7.82466 6.13857 7.13716H4.57382C4.55007 7.13716 4.53085 7.11791 4.53085 7.09419V6.19162C4.53085 6.16787 4.5501 6.14866 4.57382 6.14866H7.1581V6.14863Z" fill="#F5F5F5"/>
</g>
<defs>
<clipPath id="clip0_1_2661">
<rect width="16" height="16" fill="white"/>
</clipPath>
</defs>
</svg>
