<svg width="47" height="34" viewBox="0 0 47 34" fill="none" xmlns="http://www.w3.org/2000/svg">
<rect width="47" height="34" fill="#F5F5F5"/>
<g clip-path="url(#clip0_0_1)">
<rect width="414" height="959" transform="translate(-318 -783)" fill="white"/>
<rect x="-35.5809" y="-59.5809" width="116.162" height="109.162" rx="10.4779" fill="#FDFDFD" stroke="#C19444" stroke-width="0.838235"/>
<path d="M0 1.8124C0 1.33172 0.190949 0.870731 0.53084 0.53084C0.870731 0.190949 1.33172 0 1.8124 0H44.4038C44.8845 0 45.3455 0.190949 45.6854 0.53084C46.0253 0.870731 46.2162 1.33172 46.2162 1.8124V31.717C46.2162 32.1977 46.0253 32.6587 45.6854 32.9986C45.3455 33.3385 44.8845 33.5294 44.4038 33.5294H0V1.8124Z" fill="#C19444"/>
<path d="M7.24951 17.2179H11.7805V19.0303H7.24951V17.2179Z" fill="#C5DAFA"/>
<path d="M31.7168 4.53101H38.9664V6.34341H31.7168V4.53101Z" fill="#C5DAFA"/>
<path d="M23.0198 10.0555L29.0392 5.62138L30.1139 7.08036L24.0945 11.5145L23.0198 10.0555Z" fill="#C5DAFA"/>
<path d="M14.2805 16.4918L20.4293 11.9623L21.5041 13.4213L15.3553 17.9508L14.2805 16.4918Z" fill="#C5DAFA"/>
<path d="M40.7791 4.53101H42.5915V6.34341H40.7791V4.53101Z" fill="#C5DAFA"/>
<path d="M3.62476 17.2179H5.43716V19.0303H3.62476V17.2179Z" fill="#C5DAFA"/>
<path d="M12.6868 25.373H18.124V29.904H12.6868V25.373Z" fill="#FFA100"/>
<path d="M18.124 21.749H23.5612V29.9048H18.124V21.749Z" fill="#FFB401"/>
<path d="M23.5613 17.218H28.9985V29.9048H23.5613V17.218Z" fill="#FFC431"/>
<path d="M28.9983 12.6866H34.4355V29.9045H28.9983V12.6866Z" fill="#FFCC4D"/>
<path d="M34.4355 9.06152H39.8727V29.9041H34.4355V9.06152Z" fill="#FFD873"/>
<path d="M9.96826 28.999H42.5915V30.8114H9.96826V28.999Z" fill="#7DAFFF"/>
<path d="M13.5929 19.9356C14.5939 19.9356 15.4053 19.1242 15.4053 18.1232C15.4053 17.1222 14.5939 16.3108 13.5929 16.3108C12.592 16.3108 11.7805 17.1222 11.7805 18.1232C11.7805 19.1242 12.592 19.9356 13.5929 19.9356Z" fill="#C5DAFA"/>
<path d="M13.5931 20.8426C13.0554 20.8426 12.5298 20.6832 12.0827 20.3844C11.6357 20.0857 11.2872 19.6611 11.0815 19.1644C10.8757 18.6676 10.8219 18.121 10.9268 17.5936C11.0316 17.0663 11.2906 16.5819 11.6708 16.2017C12.051 15.8215 12.5354 15.5625 13.0627 15.4576C13.5901 15.3527 14.1367 15.4066 14.6335 15.6123C15.1302 15.8181 15.5548 16.1666 15.8535 16.6136C16.1523 17.0607 16.3117 17.5863 16.3117 18.124C16.3109 18.8448 16.0242 19.5358 15.5146 20.0454C15.0049 20.5551 14.3139 20.8418 13.5931 20.8426ZM13.5931 17.2178C13.4139 17.2178 13.2387 17.2709 13.0897 17.3705C12.9406 17.4701 12.8245 17.6116 12.7559 17.7772C12.6873 17.9428 12.6694 18.125 12.7043 18.3008C12.7393 18.4766 12.8256 18.638 12.9523 18.7648C13.0791 18.8915 13.2405 18.9778 13.4163 19.0128C13.5921 19.0478 13.7743 19.0298 13.9399 18.9612C14.1055 18.8926 14.247 18.7765 14.3466 18.6275C14.4462 18.4784 14.4993 18.3032 14.4993 18.124C14.499 17.8837 14.4035 17.6534 14.2336 17.4835C14.0637 17.3136 13.8334 17.2181 13.5931 17.2178Z" fill="#E0EDFF"/>
<path d="M22.6549 13.5926C23.6559 13.5926 24.4673 12.7811 24.4673 11.7802C24.4673 10.7792 23.6559 9.96777 22.6549 9.96777C21.654 9.96777 20.8425 10.7792 20.8425 11.7802C20.8425 12.7811 21.654 13.5926 22.6549 13.5926Z" fill="#C5DAFA"/>
<path d="M22.6549 14.4987C22.1172 14.4987 21.5916 14.3393 21.1445 14.0406C20.6974 13.7418 20.349 13.3172 20.1432 12.8205C19.9375 12.3237 19.8836 11.7771 19.9885 11.2498C20.0934 10.7224 20.3523 10.238 20.7325 9.85778C21.1127 9.47758 21.5972 9.21866 22.1245 9.11376C22.6519 9.00886 23.1985 9.0627 23.6952 9.26847C24.192 9.47423 24.6166 9.82268 24.9153 10.2698C25.214 10.7168 25.3735 11.2424 25.3735 11.7801C25.3727 12.5009 25.086 13.1919 24.5763 13.7016C24.0667 14.2112 23.3756 14.4979 22.6549 14.4987ZM22.6549 10.8739C22.4757 10.8739 22.3004 10.9271 22.1514 11.0266C22.0024 11.1262 21.8863 11.2678 21.8177 11.4333C21.7491 11.5989 21.7311 11.7811 21.7661 11.9569C21.8011 12.1327 21.8874 12.2942 22.0141 12.4209C22.1408 12.5476 22.3023 12.6339 22.4781 12.6689C22.6539 12.7039 22.8361 12.6859 23.0017 12.6173C23.1673 12.5488 23.3088 12.4326 23.4084 12.2836C23.5079 12.1346 23.5611 11.9594 23.5611 11.7801C23.5608 11.5399 23.4652 11.3095 23.2954 11.1396C23.1255 10.9698 22.8951 10.8742 22.6549 10.8739Z" fill="#E0EDFF"/>
<path d="M30.8107 7.24968C31.8117 7.24968 32.6231 6.43824 32.6231 5.43728C32.6231 4.43632 31.8117 3.62488 30.8107 3.62488C29.8097 3.62488 28.9983 4.43632 28.9983 5.43728C28.9983 6.43824 29.8097 7.24968 30.8107 7.24968Z" fill="#C5DAFA"/>
<path d="M30.8106 8.15583C30.273 8.15583 29.7473 7.99639 29.3003 7.69766C28.8532 7.39894 28.5047 6.97435 28.299 6.47759C28.0932 5.98083 28.0394 5.43421 28.1443 4.90686C28.2492 4.3795 28.5081 3.89509 28.8883 3.51489C29.2685 3.13469 29.7529 2.87576 30.2803 2.77087C30.8076 2.66597 31.3542 2.71981 31.851 2.92557C32.3478 3.13133 32.7724 3.47978 33.0711 3.92686C33.3698 4.37393 33.5292 4.89954 33.5292 5.43723C33.5284 6.158 33.2417 6.84901 32.7321 7.35867C32.2224 7.86833 31.5314 8.15502 30.8106 8.15583ZM30.8106 4.53103C30.6314 4.53103 30.4562 4.58418 30.3072 4.68375C30.1582 4.78333 30.042 4.92486 29.9734 5.09044C29.9048 5.25603 29.8869 5.43824 29.9219 5.61402C29.9568 5.78981 30.0431 5.95128 30.1699 6.07801C30.2966 6.20474 30.4581 6.29105 30.6339 6.32602C30.8096 6.36098 30.9918 6.34304 31.1574 6.27445C31.323 6.20586 31.4645 6.08971 31.5641 5.94069C31.6637 5.79166 31.7168 5.61646 31.7168 5.43723C31.7166 5.19698 31.621 4.96664 31.4511 4.79675C31.2812 4.62687 31.0509 4.5313 30.8106 4.53103Z" fill="#E0EDFF"/>
<path d="M2.7187 3.62478C3.21918 3.62478 3.6249 3.21906 3.6249 2.71858C3.6249 2.2181 3.21918 1.81238 2.7187 1.81238C2.21822 1.81238 1.8125 2.2181 1.8125 2.71858C1.8125 3.21906 2.21822 3.62478 2.7187 3.62478Z" fill="#F5714F"/>
<path d="M5.43721 3.62478C5.93769 3.62478 6.34341 3.21906 6.34341 2.71858C6.34341 2.2181 5.93769 1.81238 5.43721 1.81238C4.93673 1.81238 4.53101 2.2181 4.53101 2.71858C4.53101 3.21906 4.93673 3.62478 5.43721 3.62478Z" fill="#FFC431"/>
<path d="M8.15596 3.62478C8.65644 3.62478 9.06216 3.21906 9.06216 2.71858C9.06216 2.2181 8.65644 1.81238 8.15596 1.81238C7.65548 1.81238 7.24976 2.2181 7.24976 2.71858C7.24976 3.21906 7.65548 3.62478 8.15596 3.62478Z" fill="#3CDE8D"/>
</g>
<defs>
<clipPath id="clip0_0_1">
<rect width="414" height="959" fill="white" transform="translate(-318 -783)"/>
</clipPath>
</defs>
</svg>
