<svg width="27" height="27" viewBox="0 0 27 27" fill="none" xmlns="http://www.w3.org/2000/svg">
<path d="M15.75 1.125C14.2582 1.125 12.8274 1.71763 11.7725 2.77252C10.7176 3.82742 10.125 5.25816 10.125 6.75V18C10.125 18.8951 10.4806 19.7536 11.1135 20.3865C11.7464 21.0194 12.6049 21.375 13.5 21.375C13.9426 21.3749 14.3809 21.2874 14.7897 21.1176C15.1985 20.9478 15.5697 20.699 15.8822 20.3855C16.1947 20.072 16.4422 19.6999 16.6106 19.2905C16.7791 18.8812 16.8651 18.4426 16.8637 18V6.75H14.625V18C14.625 18.2984 14.5065 18.5845 14.2955 18.7955C14.0845 19.0065 13.7984 19.125 13.5 19.125C13.2016 19.125 12.9155 19.0065 12.7045 18.7955C12.4935 18.5845 12.375 18.2984 12.375 18V6.75C12.375 6.30679 12.4623 5.86792 12.6319 5.45844C12.8015 5.04897 13.0501 4.67691 13.3635 4.36351C13.6769 4.05012 14.049 3.80152 14.4584 3.63191C14.8679 3.4623 15.3068 3.375 15.75 3.375C16.1932 3.375 16.6321 3.4623 17.0416 3.63191C17.451 3.80152 17.8231 4.05012 18.1365 4.36351C18.4499 4.67691 18.6985 5.04897 18.8681 5.45844C19.0377 5.86792 19.125 6.30679 19.125 6.75V18.1406C19.125 21.2479 16.6073 23.625 13.5 23.625C12.0082 23.625 10.5774 23.0324 9.52252 21.9775C8.46763 20.9226 7.875 19.4918 7.875 18V12.375H5.625V18C5.625 20.0886 6.45469 22.0916 7.93153 23.5685C9.40838 25.0453 11.4114 25.875 13.5 25.875C14.5336 25.8749 15.557 25.671 16.5118 25.275C17.4665 24.8791 18.3338 24.2988 19.0642 23.5675C19.7945 22.8361 20.3735 21.9679 20.7681 21.0126C21.1627 20.0573 21.3651 19.0336 21.3637 18V6.75C21.3637 3.64275 18.8573 1.125 15.75 1.125Z" fill="#AFAFAF"/>
</svg>
