<svg width="15" height="15" viewBox="0 0 15 15" fill="none" xmlns="http://www.w3.org/2000/svg">
<path d="M14.5605 0.9375H13.2129V0.439453C13.2129 0.196758 13.0161 0 12.7734 0C12.5307 0 12.334 0.196758 12.334 0.439453V0.9375H10.5762V0.439453C10.5762 0.196758 10.3794 0 10.1367 0C9.89402 0 9.69727 0.196758 9.69727 0.439453V0.9375H7.93945V0.439453C7.93945 0.196758 7.7427 0 7.5 0C7.2573 0 7.06055 0.196758 7.06055 0.439453V0.9375H5.30273V0.439453C5.30273 0.196758 5.10598 0 4.86328 0C4.62059 0 4.42383 0.196758 4.42383 0.439453V0.9375H2.66602V0.439453C2.66602 0.196758 2.46926 0 2.22656 0C1.98387 0 1.78711 0.196758 1.78711 0.439453V0.9375H0.439453C0.196758 0.9375 0 1.13426 0 1.37695V14.5605C0 14.8032 0.196758 15 0.439453 15H14.5605C14.8032 15 15 14.8032 15 14.5605V1.37695C15 1.13426 14.8032 0.9375 14.5605 0.9375ZM1.78711 1.81641V2.25586C1.78711 2.49855 1.98387 2.69531 2.22656 2.69531C2.46926 2.69531 2.66602 2.49855 2.66602 2.25586V1.81641H4.42383V2.25586C4.42383 2.49855 4.62059 2.69531 4.86328 2.69531C5.10598 2.69531 5.30273 2.49855 5.30273 2.25586V1.81641H7.06055V2.25586C7.06055 2.49855 7.2573 2.69531 7.5 2.69531C7.7427 2.69531 7.93945 2.49855 7.93945 2.25586V1.81641H9.69727V2.25586C9.69727 2.49855 9.89402 2.69531 10.1367 2.69531C10.3794 2.69531 10.5762 2.49855 10.5762 2.25586V1.81641H12.334V2.25586C12.334 2.49855 12.5307 2.69531 12.7734 2.69531C13.0161 2.69531 13.2129 2.49855 13.2129 2.25586V1.81641H14.1211V3.57422H0.878906V1.81641H1.78711ZM0.878906 14.1211V4.45312H14.1211V14.1211H0.878906Z" fill="#C19444"/>
<path d="M4.86328 6.21094H3.10547C2.86277 6.21094 2.66602 6.4077 2.66602 6.65039V8.4082C2.66602 8.6509 2.86277 8.84766 3.10547 8.84766H4.86328C5.10598 8.84766 5.30273 8.6509 5.30273 8.4082V6.65039C5.30273 6.4077 5.10598 6.21094 4.86328 6.21094ZM4.42383 7.96875H3.54492V7.08984H4.42383V7.96875Z" fill="#C19444"/>
<path d="M11.8945 6.21094H10.1367C9.89402 6.21094 9.69727 6.4077 9.69727 6.65039V8.4082C9.69727 8.6509 9.89402 8.84766 10.1367 8.84766H11.8945C12.1372 8.84766 12.334 8.6509 12.334 8.4082V6.65039C12.334 6.4077 12.1372 6.21094 11.8945 6.21094ZM11.4551 7.96875H10.5762V7.08984H11.4551V7.96875Z" fill="#C19444"/>
<path d="M8.37891 9.69727H6.62109C6.3784 9.69727 6.18164 9.89402 6.18164 10.1367V11.8945C6.18164 12.1372 6.3784 12.334 6.62109 12.334H8.37891C8.6216 12.334 8.81836 12.1372 8.81836 11.8945V10.1367C8.81836 9.89402 8.6216 9.69727 8.37891 9.69727ZM7.93945 11.4551H7.06055V10.5762H7.93945V11.4551Z" fill="#C19444"/>
<path d="M8.37891 6.21094H6.62109C6.3784 6.21094 6.18164 6.4077 6.18164 6.65039V8.4082C6.18164 8.6509 6.3784 8.84766 6.62109 8.84766H8.37891C8.6216 8.84766 8.81836 8.6509 8.81836 8.4082V6.65039C8.81836 6.4077 8.6216 6.21094 8.37891 6.21094ZM7.93945 7.96875H7.06055V7.08984H7.93945V7.96875Z" fill="#C19444"/>
<path d="M11.8945 9.69727H10.1367C9.89402 9.69727 9.69727 9.89402 9.69727 10.1367V11.8945C9.69727 12.1372 9.89402 12.334 10.1367 12.334H11.8945C12.1372 12.334 12.334 12.1372 12.334 11.8945V10.1367C12.334 9.89402 12.1372 9.69727 11.8945 9.69727ZM11.4551 11.4551H10.5762V10.5762H11.4551V11.4551Z" fill="#C19444"/>
<path d="M5.1405 10.1121C4.95218 9.95904 4.67541 9.98763 4.52231 10.1759L3.62881 11.2749L3.38412 11.0743C3.19645 10.9203 2.91956 10.9478 2.76567 11.1354C2.61177 11.3231 2.63916 11.6 2.82684 11.7539L3.41278 12.2343C3.60139 12.389 3.87924 12.3602 4.0324 12.1717L5.20428 10.7303C5.35739 10.542 5.32882 10.2653 5.1405 10.1121Z" fill="#C19444"/>
</svg>
