<svg width="26" height="30" viewBox="0 0 26 30" fill="none" xmlns="http://www.w3.org/2000/svg">
<path d="M22.375 30H3.625C1.90125 30 0.5 28.5975 0.5 26.875V3.125C0.5 1.4025 1.90125 0 3.625 0H22.375C24.0987 0 25.5 1.4025 25.5 3.125V26.875C25.5 28.5975 24.0987 30 22.375 30ZM3.625 1.25C2.59125 1.25 1.75 2.09125 1.75 3.125V26.875C1.75 27.9088 2.59125 28.75 3.625 28.75H22.375C23.4088 28.75 24.25 27.9088 24.25 26.875V3.125C24.25 2.09125 23.4088 1.25 22.375 1.25H3.625Z" fill="#C19444"/>
<path d="M21.125 25H18.625C17.5912 25 16.75 24.1588 16.75 23.125V19.375C16.75 18.3412 17.5912 17.5 18.625 17.5H21.125C21.47 17.5 21.75 17.78 21.75 18.125C21.75 18.47 21.47 18.75 21.125 18.75H18.625C18.2812 18.75 18 19.03 18 19.375V23.125C18 23.47 18.2812 23.75 18.625 23.75H21.125C21.47 23.75 21.75 24.03 21.75 24.375C21.75 24.72 21.47 25 21.125 25Z" fill="#C19444"/>
<path d="M11.125 25C10.78 25 10.5 24.72 10.5 24.375V19.375C10.5 18.3412 11.3412 17.5 12.375 17.5H14.875C15.22 17.5 15.5 17.78 15.5 18.125C15.5 18.47 15.22 18.75 14.875 18.75H12.375C12.0312 18.75 11.75 19.03 11.75 19.375V24.375C11.75 24.72 11.47 25 11.125 25Z" fill="#C19444"/>
<path d="M14.875 22.5H11.125C10.78 22.5 10.5 22.22 10.5 21.875C10.5 21.53 10.78 21.25 11.125 21.25H14.875C15.22 21.25 15.5 21.53 15.5 21.875C15.5 22.22 15.22 22.5 14.875 22.5Z" fill="#C19444"/>
<path d="M8.625 24.9996C8.40875 24.9996 8.20375 24.8884 8.08875 24.6959L5.5 20.3809V24.3746C5.5 24.7196 5.22 24.9996 4.875 24.9996C4.53 24.9996 4.25 24.7196 4.25 24.3746V18.1246C4.25 17.8434 4.4375 17.5971 4.7075 17.5221C4.98375 17.4459 5.26625 17.5634 5.41125 17.8034L8 22.1184V18.1246C8 17.7796 8.28 17.4996 8.625 17.4996C8.97 17.4996 9.25 17.7796 9.25 18.1246V24.3746C9.25 24.6559 9.0625 24.9021 8.7925 24.9771C8.73625 24.9921 8.68 24.9996 8.625 24.9996Z" fill="#C19444"/>
<path d="M13 12.9688C12.4838 12.9688 12.0625 12.5488 12.0625 12.0312C12.0625 11.5137 12.4838 11.0938 13 11.0938C13.5163 11.0938 13.9375 11.5137 13.9375 12.0312C13.9375 12.5488 13.5163 12.9688 13 12.9688Z" fill="#C19444"/>
<path d="M15.6499 10.0067C15.4899 10.0067 15.3299 9.94547 15.2074 9.82422C14.0262 8.64172 11.9724 8.64172 10.7912 9.82422C10.5474 10.068 10.1512 10.068 9.90742 9.82422C9.66367 9.58047 9.66367 9.18422 9.90742 8.94047C11.5624 7.28547 14.4362 7.28547 16.0912 8.94047C16.3349 9.18422 16.3349 9.58047 16.0912 9.82422C15.9699 9.94547 15.8099 10.0067 15.6499 10.0067Z" fill="#C19444"/>
<path d="M17.8627 7.79375C17.7027 7.79375 17.5427 7.7325 17.4202 7.61125C16.2415 6.43125 14.6715 5.78125 13.0002 5.78125C11.329 5.78125 9.75898 6.43125 8.58023 7.61C8.33648 7.85375 7.94023 7.85375 7.69648 7.61C7.45273 7.36625 7.45273 6.97 7.69648 6.72625C9.11148 5.31125 10.9952 4.53125 13.0002 4.53125C15.0052 4.53125 16.889 5.31125 18.304 6.72625C18.5477 6.97 18.5477 7.36625 18.304 7.61C18.1827 7.7325 18.0227 7.79375 17.8627 7.79375Z" fill="#C19444"/>
</svg>
