<svg width="47" height="45" viewBox="0 0 47 45" fill="none" xmlns="http://www.w3.org/2000/svg">
<path d="M13.5601 18.5992H12.1286C10.1751 18.5279 8.22798 18.863 6.40801 19.5838C4.58804 20.3045 2.93407 21.3956 1.54876 22.7892L1.15387 23.2547V37.0215H7.86705V29.207L8.77201 28.1762L9.18335 27.694C11.3255 25.4702 13.9925 23.8338 16.9331 22.9388C15.4608 21.8067 14.2997 20.3129 13.5601 18.5992Z" fill="white" stroke="#C19444" stroke-width="2"/>
<path d="M45.3821 22.7403C43.9968 21.3467 42.3429 20.2557 40.5229 19.5349C38.7029 18.8142 36.7558 18.4791 34.8023 18.5504C34.2032 18.5521 33.6045 18.5854 33.0088 18.6502C32.2554 20.2578 31.1259 21.6559 29.718 22.7237C32.8574 23.6013 35.7013 25.3256 37.945 27.7117L38.3563 28.1772L39.2448 29.2081V37.0392H45.7277V23.2059L45.3821 22.7403Z" fill="white" stroke="#C19444" stroke-width="2"/>
<path d="M12.0795 15.3583H12.5896C12.3526 13.302 12.7097 11.2203 13.6177 9.36453C14.5257 7.50877 15.9459 5.95826 17.7067 4.90014C17.0684 3.91476 16.1878 3.11379 15.1511 2.57565C14.1144 2.03751 12.9572 1.78066 11.7928 1.83025C10.6283 1.87984 9.49661 2.23416 8.5084 2.85852C7.52019 3.48289 6.70939 4.35589 6.15539 5.39204C5.60139 6.42819 5.32319 7.59196 5.34802 8.7694C5.37286 9.94685 5.69988 11.0976 6.29706 12.1089C6.89425 13.1203 7.74112 13.9576 8.75476 14.5388C9.7684 15.1201 10.914 15.4254 12.0795 15.4248V15.3583Z" fill="white" stroke="#C19444" stroke-width="2"/>
<path d="M34.0124 14.1105C34.0324 14.4927 34.0324 14.8756 34.0124 15.2578C34.3282 15.3084 34.6471 15.3361 34.9668 15.3409H35.2794C36.4397 15.2784 37.5643 14.9133 38.5436 14.2813C39.5228 13.6492 40.3235 12.7717 40.8675 11.7341C41.4116 10.6966 41.6805 9.53436 41.6481 8.36062C41.6157 7.18688 41.283 6.04162 40.6826 5.03634C40.0821 4.03105 39.2343 3.20001 38.2217 2.6241C37.2091 2.0482 36.0661 1.74707 34.9041 1.75002C33.7421 1.75298 32.6007 2.05992 31.5909 2.64096C30.5812 3.222 29.7375 4.05735 29.1421 5.06567C30.6313 6.0482 31.8559 7.38892 32.7059 8.96755C33.5559 10.5462 34.0049 12.3134 34.0124 14.1105Z" fill="white" stroke="#C19444" stroke-width="2"/>
<path d="M23.2184 21.5595C27.2804 21.5595 30.5733 18.232 30.5733 14.1274C30.5733 10.0228 27.2804 6.69531 23.2184 6.69531C19.1564 6.69531 15.8636 10.0228 15.8636 14.1274C15.8636 18.232 19.1564 21.5595 23.2184 21.5595Z" fill="white" stroke="#C19444" stroke-width="2"/>
<path d="M23.6134 25.5169C21.4646 25.4292 19.3205 25.7817 17.31 26.5532C15.2995 27.3247 13.4643 28.4992 11.9147 30.006L11.5034 30.4716V40.9962C11.5098 41.339 11.583 41.6772 11.7188 41.9915C11.8545 42.3057 12.0503 42.5898 12.2947 42.8276C12.5392 43.0653 12.8277 43.2521 13.1436 43.3772C13.4595 43.5023 13.7967 43.5633 14.136 43.5567H33.0415C33.3807 43.5633 33.7179 43.5023 34.0339 43.3772C34.3498 43.2521 34.6382 43.0653 34.8827 42.8276C35.1272 42.5898 35.3229 42.3057 35.4587 41.9915C35.5945 41.6772 35.6677 41.339 35.6741 40.9962V30.5048L35.2792 30.006C33.7396 28.4945 31.9108 27.3167 29.9048 26.5448C27.8988 25.7728 25.7579 25.4231 23.6134 25.5169Z" fill="white" stroke="#C19444" stroke-width="2"/>
</svg>
