<svg width="18" height="25" viewBox="0 0 18 25" fill="none" xmlns="http://www.w3.org/2000/svg">
<path d="M9.01189 0C6.5199 0 4.49243 1.9647 4.49243 4.37954V12.9869C4.49243 15.4015 6.5199 17.3662 9.01189 17.3662C11.5039 17.3662 13.5314 15.4151 13.5314 13.017V4.37954C13.5314 1.9647 11.5039 0 9.01189 0ZM11.6479 13.0167C11.6479 14.4085 10.4653 15.5411 9.01189 15.5411C7.55845 15.5411 6.37554 14.3954 6.37554 12.9866V4.37954C6.37554 2.9708 7.55815 1.8248 9.01189 1.8248C10.4656 1.8248 11.6483 2.9708 11.6479 4.37954V13.0167Z" fill="#AFAFAF"/>
<path d="M9.95342 19.9824H8.07031V24.0883H9.95342V19.9824Z" fill="#AFAFAF"/>
<path d="M11.4913 23.1758H6.53237C6.01232 23.1758 5.59082 23.5842 5.59082 24.0882C5.59082 24.5921 6.01232 25.0006 6.53237 25.0006H11.4913C12.0113 25.0006 12.4328 24.5921 12.4328 24.0882C12.4328 23.5842 12.0113 23.1758 11.4913 23.1758Z" fill="#AFAFAF"/>
<path d="M16.1363 11.4668C15.6163 11.4668 15.1948 11.8752 15.1948 12.3792V13.1091C15.1948 16.4126 12.4209 19.1006 9.01183 19.1006C5.60247 19.1006 2.82891 16.4127 2.82891 13.1091V12.3792C2.82891 11.8752 2.40741 11.4668 1.88735 11.4668C1.3673 11.4668 0.945801 11.8752 0.945801 12.3792V13.1091C0.945801 17.419 4.56422 20.9254 9.01183 20.9254C13.4594 20.9254 17.0779 17.419 17.0779 13.1091V12.3792C17.0779 11.8753 16.6564 11.4668 16.1363 11.4668Z" fill="#AFAFAF"/>
</svg>
