<svg width="70" height="70" viewBox="0 0 70 70" fill="none" xmlns="http://www.w3.org/2000/svg">
<path d="M12.8324 46.479C12.3916 46.0384 11.6769 46.0381 11.2359 46.479C10.7951 46.92 10.7951 47.6346 11.2359 48.0755L21.922 58.7617C22.1425 58.982 22.4313 59.0922 22.7203 59.0922C23.0091 59.0922 23.2981 58.982 23.5186 58.7617C23.9595 58.3207 23.9595 57.606 23.5186 57.1652L12.8324 46.479Z" fill="#C19444"/>
<path d="M69.9012 8.04198C69.9314 7.91163 70.6102 4.81992 67.8944 2.10389C65.1783 -0.611992 62.0868 0.0663758 61.9563 0.0970807C61.7507 0.144643 61.5625 0.249251 61.4132 0.39841L60.9797 0.831892L60.7136 0.565782C60.2726 0.125076 59.5581 0.124926 59.1173 0.565933C58.6764 1.00679 58.6764 1.72158 59.1174 2.16229L59.3834 2.42825L58.1814 3.63025L57.9153 3.36414C57.4742 2.92344 56.7598 2.92329 56.3189 3.3643C55.878 3.80515 55.878 4.51994 56.319 4.96065L56.585 5.22661L55.383 6.42862L55.1169 6.16251C54.6759 5.7218 53.9612 5.7218 53.5204 6.16251C53.0795 6.60351 53.0795 7.31816 53.5204 7.75901L54.0094 8.24803L52.3208 11.6253L40.1643 23.3273C37.6744 21.4061 32.7553 18.6171 27.6313 21.3599C24.2158 23.1834 23.3064 25.5071 22.5042 27.5571C21.865 29.1906 21.3129 30.6012 19.5851 31.8815C18.7815 32.4763 17.2979 32.7721 15.5799 33.1145C11.288 33.97 5.41014 35.1416 1.54764 42.2814C-3.05389 50.7891 3.76923 59.0356 6.91995 62.1898L7.81385 63.0822C10.2088 65.477 15.551 69.9999 21.7178 69.9999C23.6579 69.9997 25.6798 69.5519 27.717 68.4496C34.8571 64.5872 36.0288 58.7107 36.8842 54.4198C37.2266 52.7023 37.5224 51.219 38.1171 50.4157C39.397 48.6875 40.8079 48.1351 42.4416 47.4955C44.4921 46.6929 46.8162 45.783 48.6381 42.3686C51.3811 37.2439 48.5913 32.3246 46.6697 29.8347L58.37 17.68L61.7507 15.9896L62.2389 16.4777C62.4594 16.6981 62.7483 16.8082 63.0371 16.8082C63.3259 16.8082 63.6149 16.6981 63.8354 16.4776C64.2763 16.0367 64.2763 15.3219 63.8353 14.8812L63.5693 14.6152L64.7713 13.4132L65.0373 13.6792C65.2578 13.8995 65.5468 14.0097 65.8356 14.0097C66.1245 14.0097 66.4134 13.8995 66.6339 13.6792C67.0748 13.2382 67.0748 12.5235 66.6339 12.0827L66.368 11.8167L67.5698 10.6149L67.8358 10.8808C68.0563 11.1012 68.3453 11.2114 68.6341 11.2114C68.923 11.2114 69.212 11.1012 69.4325 10.8808C69.8733 10.4398 69.8733 9.72518 69.4325 9.28432L69.1665 9.01837L69.5998 8.58504C69.749 8.43573 69.8536 8.24758 69.9012 8.04198ZM46.647 41.3046C45.217 43.9848 43.5494 44.6377 41.6188 45.3935C39.9082 46.0631 37.9694 46.8222 36.3026 49.0725C35.4072 50.2822 35.0655 51.995 34.6701 53.9787C33.8593 58.0452 32.8503 63.1061 26.6426 66.4641C19.4656 70.348 12.2009 64.2764 9.41186 61.4875L8.51359 60.5909C5.72381 57.7981 -0.345833 50.5283 3.53322 43.356C6.8912 37.1487 11.9533 36.1398 16.0211 35.3289C18.005 34.9335 19.7183 34.592 20.9286 33.6959C23.1784 32.0287 23.9369 30.0902 24.6064 28.3801C25.3619 26.4497 26.0143 24.7828 28.6955 23.3512C32.5295 21.2988 36.3786 23.3312 38.5173 24.9128L31.2003 31.9562C31.0933 31.9515 30.986 31.9483 30.8782 31.9483C28.9549 31.9483 27.1486 32.6956 25.7926 34.0515C24.4368 35.4044 23.6903 37.2074 23.6907 39.1282C23.691 41.0489 24.4383 42.8516 25.7931 44.2024C27.1474 45.5587 28.9513 46.3057 30.8728 46.3057C32.7943 46.3057 34.5974 45.5586 35.9475 44.2047C37.3023 42.8556 38.0498 41.055 38.052 39.1343C38.0522 39.021 38.0492 38.908 38.0442 38.7955L45.0845 31.4817C46.6664 33.6202 48.6996 37.4696 46.647 41.3046ZM31.5004 34.2461C32.5798 34.3806 33.5765 34.8626 34.354 35.6386C35.1333 36.4184 35.6173 37.4158 35.7534 38.4957C35.7546 38.5071 35.7561 38.5186 35.7576 38.53C35.7812 38.7281 35.7945 38.9287 35.7942 39.1316C35.7925 40.4483 35.2812 41.6816 34.3515 42.6076C33.4254 43.5364 32.1898 44.0479 30.8726 44.0479C29.5549 44.0479 28.3183 43.5363 27.3888 42.6053C26.4602 41.6794 25.9486 40.4443 25.9484 39.1277C25.9481 37.8112 26.4593 36.5759 27.3881 35.6489C28.3186 34.7185 29.5579 34.2062 30.8782 34.2062C31.0766 34.2062 31.2727 34.2191 31.4666 34.242C31.4777 34.2434 31.489 34.2449 31.5004 34.2461ZM37.4257 36.1824C37.0729 35.3951 36.5777 34.6699 35.9499 34.0417C35.3238 33.4169 34.6007 32.924 33.8155 32.5727L53.2278 13.8858L56.1104 16.772L37.4257 36.1824ZM67.7365 7.25539L66.7745 8.21733C66.7735 8.21838 66.7724 8.21914 66.7715 8.22004C66.7705 8.22109 66.7697 8.22215 66.7688 8.22305L63.9762 11.0157C63.9751 11.0167 63.9741 11.0175 63.9732 11.0184C63.9721 11.0195 63.9713 11.0205 63.9704 11.0214L61.3018 13.69L57.915 15.3835L54.6167 12.0815L56.3106 8.69371L62.7419 2.26238C63.3618 2.21692 64.8776 2.27984 66.2979 3.70024C67.7217 5.12426 67.7816 6.64415 67.7365 7.25539Z" fill="#C19444"/>
</svg>
