<svg width="46" height="46" viewBox="0 0 46 46" fill="none" xmlns="http://www.w3.org/2000/svg">
<path d="M30.3719 15.9942C29.7429 17.3278 28.1537 17.8965 26.821 17.2675L20.1634 14.1263L26.0245 19.9865C27.0537 21.0157 27.0652 22.6777 26.0609 23.7231C25.024 24.8002 23.2663 24.7743 22.2094 23.7174L16.2621 17.7702L20.0323 25.0999C20.7063 26.4096 20.1903 28.0189 18.8806 28.692C17.5709 29.3669 15.9615 28.8499 15.2885 27.5402L12.0153 21.1785V26.2574C12.0153 27.7299 10.8214 28.9247 9.34805 28.9247C7.87555 28.9247 6.67978 27.7308 6.67978 26.2574V23.931C6.67978 20.2699 5.81525 16.6616 4.15521 13.3999L2.61385 10.3726L0 7.75877L2.68737 5.07139L7.72701 0.0317519C9.33731 1.64108 10.3417 2.64543 10.3417 2.64543C10.7466 2.23953 11.2512 1.99247 11.7758 1.90249L15.6263 1.24187L22.4573 0.0700524C23.9106 -0.178857 25.2892 0.795737 25.5382 2.24807C25.7871 3.70138 24.8115 5.07905 23.3592 5.32796L17.881 6.26813C19.4942 7.61331 21.2739 8.75062 23.1791 9.64861L29.0986 12.4432C30.4303 13.0722 31.0009 14.6615 30.3719 15.9942Z" fill="#FCD0A3"/>
<path d="M16.168 1.78427L9.09108 5.7124L5.56885 2.19017L7.72679 0.03125C9.33709 1.64057 10.3414 2.64493 10.3414 2.64493C10.7464 2.23903 11.251 1.99197 11.7756 1.90199L15.6261 1.24137L16.168 1.78427Z" fill="#FFB983"/>
<path d="M9.34814 28.9253C10.3521 28.9253 10.3069 25.3141 10.1714 22.9669C10.1117 21.9323 10.9838 21.0862 12.0159 21.1788V26.2575C12.0152 27.731 10.821 28.9253 9.34814 28.9253Z" fill="#FFB983"/>
<path d="M18.905 28.6823C19.8351 28.1151 16.9163 22.6243 15.3384 19.812C14.8799 18.9948 15.345 17.968 16.2615 17.7734L20.032 25.1035C20.7012 26.4051 20.196 28.0012 18.905 28.6823Z" fill="#FFB983"/>
<path d="M20.1631 14.125L26.0236 19.9855C27.0492 21.0111 27.0658 22.6638 26.0717 23.7079C26.5657 23.0837 22.106 18.5246 19.7824 16.2237C19.1369 15.5846 19.3345 14.4973 20.1631 14.125Z" fill="#FFB983"/>
<path d="M4.15463 13.3998L2.61328 10.3724L10.3406 2.64507C10.7463 2.23935 11.2503 1.99229 11.7759 1.90275L11.7765 1.90213L22.4574 0.0702249C23.8763 -0.173489 25.2233 0.750653 25.5178 2.14646C24.8519 0.527982 7.49426 3.92625 4.15463 13.3998Z" fill="#FFB983"/>
<path d="M29.0974 12.4411L23.179 9.64743C21.274 8.74767 19.4942 7.61072 17.8816 6.26562C17.8816 6.26562 17.8527 6.35473 17.7898 6.50758C17.147 8.06953 15.8207 9.2646 14.1918 9.71152C13.3371 9.94608 12.3058 10.0481 11.0778 9.89836C10.678 9.84932 10.3151 10.1595 10.3149 10.5762C10.3148 10.9233 10.5915 11.2104 10.9361 11.2517C11.3906 11.3062 11.8218 11.3313 12.2321 11.3313C15.0808 11.3313 16.8804 10.1198 17.8751 9.13235C21.4094 10.724 30.6778 15.005 30.3721 15.9921C31.0011 14.6595 30.43 13.0701 29.0974 12.4411Z" fill="#FFB983"/>
<path d="M22.6088 33.2234C23.0742 32.2367 24.25 31.816 25.236 32.2813L30.1618 34.6054L25.8254 30.2697C25.064 29.5083 25.0554 28.2786 25.7985 27.505C26.5656 26.7081 27.8661 26.7272 28.6481 27.5092L33.0483 31.9094L30.2588 26.4864C29.7601 25.5174 30.1419 24.3267 31.111 23.8287C32.0799 23.3293 33.2707 23.7119 33.7687 24.6808L36.1905 29.3877V25.6301C36.1905 24.5406 37.0738 23.6567 38.1639 23.6567C39.2533 23.6567 40.138 24.5399 40.138 25.6301V27.3513C40.138 30.06 40.7777 32.7297 42.0058 35.143L43.1462 37.3828L45.08 39.3164L43.0917 41.3047L39.363 45.0334C38.1715 43.8427 37.4285 43.0997 37.4285 43.0997C37.1289 43.4 36.7556 43.5828 36.3675 43.6493L33.5185 44.1381L28.4645 45.0051C27.3893 45.1893 26.3693 44.4682 26.1851 43.3936C26.0009 42.3184 26.7227 41.2991 27.7972 41.1149L31.8503 40.4193C30.6567 39.4241 29.34 38.5826 27.9303 37.9182L23.5507 35.8506C22.5656 35.3852 22.1434 34.2094 22.6088 33.2234Z" fill="#FCD0A3"/>
<path d="M38.1638 23.6562C37.4209 23.6562 37.4545 26.328 37.5547 28.0647C37.5989 28.8301 36.9536 29.4561 36.1899 29.3876V25.6301C36.1905 24.5398 37.074 23.6562 38.1638 23.6562Z" fill="#FFB983"/>
<path d="M31.0927 23.8359C30.4045 24.2556 32.5641 28.3181 33.7315 30.3988C34.0707 31.0034 33.7266 31.7631 33.0484 31.907L30.2588 26.4838C29.7637 25.5207 30.1375 24.3398 31.0927 23.8359Z" fill="#FFB983"/>
<path d="M30.1618 34.6056L25.8258 30.2697C25.067 29.5109 25.0548 28.2881 25.7903 27.5156C25.4249 27.9774 28.7244 31.3506 30.4435 33.0529C30.921 33.5257 30.7748 34.3302 30.1618 34.6056Z" fill="#FFB983"/>
<path d="M37.0511 41.1923C33.9623 42.039 26.434 44.0376 26.2002 43.4694C26.418 44.5021 27.4147 45.1859 28.4645 45.0056L33.5188 44.1386L33.5188 44.1388L33.5191 44.1386L36.367 43.6502L36.3674 43.6498C36.7562 43.5835 37.1289 43.4009 37.429 43.1008C37.4365 43.1083 38.1778 43.8496 39.3631 45.0343L40.9597 43.4369L39.3149 41.7921C38.7227 41.1999 37.8588 40.971 37.0511 41.1923Z" fill="#FFB983"/>
<path d="M31.85 40.4151C30.657 39.4199 29.3402 38.5787 27.9307 37.913L23.5518 35.8461C22.5658 35.3807 22.1433 34.2047 22.6087 33.2188C22.4023 33.8849 28.0908 36.5792 31.076 37.9411C32.019 38.3713 32.3794 39.5242 31.85 40.4151Z" fill="#FFB983"/>
</svg>
