<svg width="15" height="15" viewBox="0 0 15 15" fill="none" xmlns="http://www.w3.org/2000/svg">
<path d="M4.86726 6.08289C4.7797 6.46617 4.77721 6.85745 4.85985 7.24595C4.86165 7.2544 4.86311 7.26291 4.86418 7.2715C4.8902 7.4763 5.06594 7.63079 5.27297 7.63079C5.48933 7.63079 5.66729 7.46333 5.68397 7.25125C5.68282 7.24052 5.68224 7.22962 5.68224 7.21858C5.68224 7.18705 5.67846 7.15514 5.67102 7.12382C5.59267 6.79567 5.60475 6.45164 5.70608 6.12927C5.75768 5.96516 5.93249 5.8739 6.0966 5.9255C6.2607 5.97706 6.35193 6.1519 6.30037 6.31601C6.23281 6.53099 6.22471 6.76044 6.27704 6.97948C6.29175 7.04142 6.30075 7.10427 6.3039 7.16719C6.30673 7.1839 6.30822 7.20107 6.30822 7.21855C6.30822 7.78937 5.84382 8.2537 5.273 8.2537C4.75773 8.2537 4.31956 7.87204 4.24809 7.36366C4.14904 6.88991 4.15306 6.41236 4.26003 5.94412C4.29834 5.77644 4.46539 5.67154 4.63303 5.70982C4.80067 5.7482 4.90557 5.91522 4.86726 6.08289ZM9.46545 12.6435C9.29591 12.6149 9.13512 12.7291 9.1064 12.8987C9.07771 13.0683 9.19195 13.2291 9.36159 13.2578C10.3233 13.4204 10.6882 13.6413 10.7716 13.7344C10.7157 13.7947 10.4933 13.9748 9.73601 14.1413C9.04438 14.2933 8.14776 14.3771 7.21135 14.3771C6.13878 14.3771 5.11609 14.266 4.40545 14.0724C3.87049 13.9267 3.6989 13.7863 3.65094 13.7344C3.73427 13.6413 4.09907 13.4204 5.06103 13.2577C5.23064 13.229 5.34488 13.0683 5.31623 12.8987C5.28757 12.7291 5.12664 12.6147 4.95717 12.6435C3.66859 12.8614 3.01523 13.2288 3.01523 13.7356C3.01523 14.1419 3.41643 14.4486 4.24172 14.6735C5.00344 14.881 6.08583 15 7.21135 15C8.27321 15 9.27507 14.8977 10.0323 14.7119C10.9576 14.4849 11.4073 14.1656 11.4073 13.7356C11.4074 13.2289 10.754 12.8614 9.46545 12.6435ZM8.24643 12.7981V12.8497C8.24643 13.4205 7.7821 13.8848 7.21131 13.8848C6.64056 13.8848 6.17619 13.4205 6.17619 12.8497V12.7981C6.17619 12.2274 6.64052 11.763 7.21131 11.763C7.78206 11.763 8.24643 12.2274 8.24643 12.7981ZM7.62349 12.7981C7.62349 12.5709 7.43858 12.386 7.21131 12.386C6.98404 12.386 6.79913 12.5709 6.79913 12.7981V12.8497C6.79913 13.0769 6.98404 13.2619 7.21131 13.2619C7.43858 13.2619 7.62349 13.0769 7.62349 12.8497V12.7981ZM8.55565 7.36809C8.38012 7.64149 8.11115 7.83314 7.79538 7.90921C7.79452 7.90942 7.79366 7.90963 7.79279 7.90984C7.23374 8.04356 6.76162 8.38455 6.46347 8.86992C6.16377 9.35769 6.07182 9.93255 6.2044 10.4882C6.31708 10.9635 6.74279 11.2844 7.21135 11.2844C7.29008 11.2844 7.37006 11.2754 7.44993 11.2564C7.71887 11.1927 7.9469 11.0281 8.09201 10.7928C8.23708 10.5576 8.2819 10.2799 8.21808 10.0105C8.21199 9.98495 8.2194 9.96543 8.22667 9.95356C8.23345 9.94252 8.24826 9.92321 8.27117 9.91771C8.2728 9.91733 8.27481 9.91681 8.27685 9.91625C9.12733 9.71162 9.84942 9.19299 10.3139 8.45408C10.3205 8.44546 10.3267 8.43646 10.3324 8.42712C10.7903 7.68191 10.9342 6.80014 10.7376 5.94429C10.699 5.77665 10.5321 5.67203 10.3642 5.71048C10.1966 5.749 10.0919 5.91612 10.1304 6.08379C10.288 6.76986 10.1767 7.4761 9.81693 8.07592C9.81108 8.08367 9.80561 8.0917 9.80045 8.10004C9.42316 8.71329 8.82922 9.14346 8.12803 9.31134C8.12634 9.31176 8.12423 9.31228 8.12208 9.31283C7.94513 9.3563 7.79393 9.46788 7.69589 9.62738C7.5985 9.78585 7.56877 9.97322 7.612 10.1545C7.63737 10.2616 7.61954 10.3721 7.56178 10.4658C7.50406 10.5594 7.41332 10.6249 7.30634 10.6502C7.08537 10.7026 6.86291 10.5654 6.81045 10.344C6.71635 9.94972 6.78162 9.54204 6.99429 9.19596C7.20494 8.853 7.53898 8.61168 7.93517 8.51623C7.93603 8.51602 7.93693 8.51582 7.9378 8.51561C8.42469 8.39929 8.83746 8.09983 9.10006 7.67243C9.10024 7.67211 9.10169 7.66976 9.10186 7.66945C9.10754 7.66011 9.11269 7.65062 9.11726 7.64097C9.3653 7.22124 9.44136 6.73193 9.33062 6.25655L9.32685 6.24101C9.31813 6.20495 9.30792 6.16789 9.29657 6.13089C9.246 5.96647 9.07182 5.87414 8.9073 5.9247C8.74288 5.97523 8.65058 6.14951 8.70111 6.31393C8.70879 6.33895 8.71561 6.36377 8.72149 6.38799L8.72464 6.40083C8.79974 6.72331 8.74457 7.05807 8.56925 7.34344C8.5643 7.35154 8.5598 7.35975 8.55565 7.36809ZM12.6587 3.8509C12.6587 4.36535 12.1033 4.77451 11.0079 5.06698C10.0669 5.31823 8.82113 5.4566 7.50001 5.4566C6.17893 5.4566 4.93315 5.3182 3.99217 5.06698C2.89673 4.77448 2.34131 4.36535 2.34131 3.8509C2.34131 3.38266 2.80256 3.00118 3.71292 2.7157L4.05965 0.697512C4.11184 0.393933 4.3524 0.0295132 5.20209 0.0171582C5.67538 0.0102712 6.23125 0.102224 6.72185 0.183345C7.03903 0.235775 7.33863 0.285299 7.50001 0.285299C7.69509 0.285299 8.02023 0.228681 8.36447 0.16874C9.19683 0.0238029 10.1402 -0.140515 10.6306 0.205286C10.7982 0.323506 10.9054 0.493707 10.9404 0.697512L11.2871 2.71573C12.1975 3.00121 12.6587 3.38269 12.6587 3.8509ZM12.0358 3.8509C12.0358 3.79754 11.8841 3.57054 11.1864 3.33781C10.2386 3.61782 8.90321 3.77767 7.50001 3.77767C6.62357 3.77767 5.76125 3.71531 5.00631 3.5973C4.83635 3.57072 4.72011 3.41142 4.74669 3.24146C4.77326 3.07147 4.93253 2.95508 5.10252 2.98183C5.82617 3.09496 6.6552 3.15477 7.49997 3.15477C8.68577 3.15477 9.8135 3.038 10.6747 2.83004L10.3264 0.802996C10.3193 0.761605 10.3044 0.737588 10.2716 0.7144C9.99242 0.517552 9.07701 0.676955 8.47128 0.782474C8.08363 0.849959 7.74887 0.908273 7.49997 0.908273C7.28745 0.908273 6.97826 0.857157 6.62021 0.797944C6.17076 0.723641 5.66334 0.639752 5.25293 0.639752C5.23884 0.639752 5.22493 0.639855 5.21112 0.640063C5.09131 0.641793 4.69841 0.658717 4.67356 0.803031L4.29405 3.01197C4.2737 3.13044 4.18701 3.22661 4.07125 3.25911C3.15206 3.51714 2.96421 3.79158 2.96421 3.85094C2.96421 3.91364 3.16594 4.20165 4.15282 4.46519C5.04289 4.70284 6.2316 4.83373 7.49997 4.83373C8.76835 4.83373 9.95709 4.70284 10.8471 4.46519C11.8341 4.20161 12.0358 3.91361 12.0358 3.8509Z" fill="#C19444"/>
</svg>
