<svg width="72" height="72" viewBox="0 0 72 72" fill="none" xmlns="http://www.w3.org/2000/svg">
<path d="M58.8982 68.6662C58.6439 68.4119 58.2924 68.2656 57.9316 68.2656C57.5721 68.2656 57.2193 68.4119 56.965 68.6662C56.7109 68.9205 56.5645 69.2732 56.5645 69.6328C56.5645 69.9924 56.7107 70.3451 56.965 70.5994C57.2193 70.8537 57.5721 71 57.9316 71C58.2912 71 58.6439 70.8537 58.8982 70.5994C59.1539 70.3451 59.2988 69.9924 59.2988 69.6328C59.2988 69.2732 59.1539 68.9205 58.8982 68.6662Z" fill="#C19444" stroke="#F8F4E9"/>
<path d="M70.0458 23.9487C69.2207 22.7446 67.9746 21.942 66.5372 21.6886C64.2101 21.2783 61.9349 22.4447 60.8571 24.4426V10.0163C60.8571 7.09328 58.4788 4.71533 55.5559 4.71533C54.5998 4.71533 53.7031 4.971 52.9278 5.41561C52.5049 2.91283 50.3233 1 47.702 1C45.0807 1 42.8992 2.91283 42.4763 5.41561C41.701 4.971 40.8042 4.71533 39.8482 4.71533C37.1003 4.71533 34.8344 6.81725 34.5729 9.49762C33.809 9.07051 32.9299 8.82592 31.9944 8.82592C29.0713 8.82592 26.6934 11.204 26.6934 14.1269C26.6934 14.882 27.3056 15.4941 28.0605 15.4941C28.8155 15.4941 29.4277 14.882 29.4277 14.1269C29.4277 12.7116 30.5792 11.5603 31.9944 11.5603C33.3197 11.5603 34.4136 12.5702 34.5472 13.861V17.5059C34.5472 18.261 35.1594 18.8731 35.9144 18.8731C36.6693 18.8731 37.2815 18.261 37.2815 17.5059V10.0165C37.2815 8.60115 38.433 7.44984 39.8482 7.44984C41.1735 7.44984 42.2674 8.45978 42.401 9.75055V20.3871C42.401 20.4499 42.4149 20.9043 42.4149 20.9043C42.4149 21.6594 43.0271 22.2715 43.7821 22.2715C44.5371 22.2715 45.1493 21.6594 45.1493 20.9043V10.0163C45.1493 9.89396 45.1436 9.77283 45.1353 9.65252V6.301C45.1353 4.88568 46.2868 3.73438 47.702 3.73438C49.1171 3.73438 50.2686 4.88582 50.2686 6.301V9.65252C50.2604 9.77283 50.2546 9.89396 50.2546 10.0163V29.2435C50.2546 29.9986 50.8669 30.6107 51.6218 30.6107C52.3768 30.6107 52.989 29.9986 52.989 29.2435L53.003 9.75027C53.1365 8.45951 54.2304 7.44957 55.5559 7.44957C56.9712 7.44957 58.1225 8.60102 58.1225 10.0162V30.24C58.1225 31.24 58.8432 32.0529 59.8359 32.1728C60.8278 32.2933 61.7219 31.6749 61.9602 30.7035L63.0243 26.3624C63.3561 25.0096 64.6891 24.139 66.0622 24.3812C66.7701 24.5061 67.3837 24.9013 67.7902 25.4943C68.1965 26.0872 68.3438 26.8022 68.2046 27.5076L66.1448 37.9533C65.4534 41.4596 63.7503 44.6466 61.2199 47.1701L56.967 51.4109C56.7097 51.6674 56.5652 52.0158 56.5652 52.379V64.5742C56.5652 65.3293 57.1774 65.9414 57.9324 65.9414C58.6873 65.9414 59.2995 65.3293 59.2995 64.5742V52.9466L63.1508 49.1064C66.0677 46.1977 68.0307 42.5239 68.8278 38.4824L70.8876 28.0367C71.1699 26.6046 70.8709 25.1527 70.0458 23.9487Z" fill="#C19444" stroke="#F8F4E9"/>
<path d="M41.5504 43.2461C40.7954 43.2461 40.1832 43.8582 40.1832 44.6133V48.623C40.1832 53.1195 38.4296 57.3445 35.2454 60.5197L32.6547 63.103C32.3974 63.3595 32.2529 63.7078 32.2529 64.0711V69.6328C32.2529 70.3879 32.8652 71 33.6201 71C34.3751 71 34.9873 70.3879 34.9873 69.6328V64.6386L37.1762 62.456C40.8787 58.7642 42.9177 53.8515 42.9177 48.6231V44.6133C42.9175 43.8582 42.3055 43.2461 41.5504 43.2461Z" fill="#C19444" stroke="#F8F4E9"/>
<path d="M42.5174 38.7912C42.2631 38.5369 41.9104 38.3906 41.5508 38.3906C41.1912 38.3906 40.8385 38.5369 40.5843 38.7912C40.33 39.0455 40.1836 39.3982 40.1836 39.7578C40.1836 40.1174 40.3299 40.4701 40.5843 40.7244C40.8385 40.9787 41.1912 41.125 41.5508 41.125C41.9104 41.125 42.2631 40.9787 42.5174 40.7244C42.7717 40.4701 42.918 40.1174 42.918 39.7578C42.918 39.3982 42.7718 39.0455 42.5174 38.7912Z" fill="#C19444" stroke="#F8F4E9"/>
<path d="M37.8427 22.9421C36.9886 22.9421 36.1837 23.1551 35.4769 23.5293C35.1728 21.0196 33.031 19.068 30.4405 19.068C29.565 19.068 28.7408 19.2909 28.0212 19.6829C27.5717 17.3414 25.509 15.5664 23.0384 15.5664C20.5677 15.5664 18.5049 17.3414 18.0555 19.6829C17.336 19.2909 16.5115 19.068 15.6361 19.068C12.8379 19.068 10.5614 21.3446 10.5614 24.1429V37.4461C9.47955 35.6915 7.3991 34.6917 5.27285 35.0663C3.89705 35.3089 2.70446 36.0772 1.91463 37.2296C1.12481 38.382 0.838792 39.7715 1.10895 41.1421L3.05035 50.9871C3.80463 54.8117 5.66223 58.288 8.42258 61.0406L12.0291 64.6368V69.631C12.0291 70.3861 12.6413 70.9982 13.3963 70.9982C14.1512 70.9982 14.7635 70.3861 14.7635 69.631V64.0693C14.7635 63.706 14.6188 63.3577 14.3616 63.1012L10.3535 59.1042C7.97948 56.7369 6.38178 53.7472 5.73319 50.458L3.79178 40.613C3.66491 39.9692 3.7993 39.3165 4.17022 38.7752C4.54127 38.234 5.10155 37.873 5.74768 37.7591C7.00002 37.5382 8.21791 38.3327 8.52075 39.5677L9.52371 43.6591C9.75764 44.6137 10.6343 45.2217 11.6115 45.1033C12.5874 44.9854 13.2956 44.1864 13.2956 43.2036V24.1428C13.2956 22.8523 14.3456 21.8023 15.6361 21.8023C16.8436 21.8023 17.8403 22.7217 17.9634 23.8974V33.9168C17.9634 34.6719 18.5756 35.284 19.3306 35.284C19.3327 35.284 19.3349 35.2837 19.3371 35.2837C19.3393 35.2837 19.3415 35.284 19.3437 35.284C20.0986 35.284 20.7109 34.6719 20.7109 33.9168V24.1426C20.7109 24.0264 20.7055 23.9114 20.6977 23.7971V20.641C20.6977 19.3505 21.7477 18.3005 23.0382 18.3005C24.3287 18.3005 25.3787 19.3504 25.3787 20.641V23.7971C25.3709 23.9114 25.3656 24.0264 25.3656 24.1426V33.9168C25.3656 34.6719 25.9778 35.284 26.7328 35.284C26.735 35.284 26.7372 35.2837 26.7393 35.2837C26.7415 35.2837 26.7437 35.284 26.7459 35.284C27.5009 35.284 28.1131 34.6719 28.1131 33.9168V23.8974C28.2361 22.7217 29.2327 21.8023 30.4403 21.8023C31.7308 21.8023 32.7808 22.8521 32.7808 24.1428L32.7678 33.9169C32.7678 34.672 33.38 35.2841 34.135 35.2841C34.1372 35.2841 34.1394 35.2838 34.1416 35.2838C34.1438 35.2838 34.1459 35.2841 34.1481 35.2841C34.9031 35.2841 35.5153 34.672 35.5153 33.9169V27.7716C35.6384 26.5959 36.635 25.6765 37.8427 25.6765C39.1332 25.6765 40.1832 26.7263 40.1832 28.017V34.4032C40.1832 35.1583 40.7954 35.7704 41.5504 35.7704C42.3053 35.7704 42.9175 35.1583 42.9175 34.4032V28.017C42.9175 25.2188 40.641 22.9421 37.8427 22.9421Z" fill="#C19444" stroke="#F8F4E9"/>
<path d="M21.3545 8.61323L14.1456 1.40432C13.6117 0.870435 12.7462 0.870435 12.2119 1.40432C11.6781 1.93821 11.6781 2.80391 12.2119 3.3378L19.421 10.5467C19.688 10.8137 20.0379 10.9472 20.3877 10.9472C20.7376 10.9472 21.0874 10.8136 21.3545 10.5467C21.8883 10.0128 21.8883 9.14711 21.3545 8.61323Z" fill="#C19444" stroke="#F8F4E9"/>
<path d="M16.5179 12.2773H13.1816C12.4267 12.2773 11.8145 12.8894 11.8145 13.6445C11.8145 14.3996 12.4267 15.0117 13.1816 15.0117H16.5179C17.2728 15.0117 17.885 14.3996 17.885 13.6445C17.885 12.8894 17.2728 12.2773 16.5179 12.2773Z" fill="#C19444" stroke="#F8F4E9"/>
<path d="M24.3896 1C23.6347 1 23.0225 1.61209 23.0225 2.36719V5.81496C23.0225 6.57006 23.6346 7.18215 24.3896 7.18215C25.1446 7.18215 25.7568 6.57006 25.7568 5.81496V2.36719C25.7568 1.61209 25.1446 1 24.3896 1Z" fill="#C19444" stroke="#F8F4E9"/>
</svg>
