<svg width="33" height="32" viewBox="0 0 33 32" fill="none" xmlns="http://www.w3.org/2000/svg">
<path d="M10.6265 0.501249H10.4172C7.87611 0.531598 5.60359 1.11305 3.96975 2.01475C2.27359 2.95085 1.37012 4.16361 1.37012 5.38578C1.37012 6.60801 2.27335 7.82076 3.9693 8.75682C5.6477 9.68319 8.00039 10.2716 10.6265 10.2716C13.2519 10.2716 15.6046 9.6832 17.2832 8.75681C18.9793 7.82071 19.8828 6.60795 19.8828 5.38578C19.8828 4.16359 18.9796 2.95116 17.2837 2.0154C15.6053 1.08932 13.2526 0.501249 10.6265 0.501249ZM3.48607 14.9781C2.6618 14.5232 1.94936 13.974 1.41459 13.3481C1.61521 14.4072 2.49113 15.433 3.96924 16.2486C5.64763 17.1746 8.00034 17.7627 10.6265 17.7627C10.805 17.7627 10.9791 17.7557 11.1582 17.7462C11.2626 17.3446 11.4086 16.9557 11.5936 16.5856C11.2769 16.6056 10.9544 16.6174 10.6265 16.6174C7.86426 16.6174 5.33878 16.0007 3.48607 14.9781ZM3.48698 18.7243C2.66208 18.2689 1.94924 17.7192 1.41428 17.0926C1.61431 18.1524 2.49037 19.1788 3.96924 19.9947C5.64763 20.9208 8.00034 21.5089 10.6265 21.5089C10.7483 21.5089 10.8658 21.5046 10.9856 21.4985V20.7227C10.9856 20.5903 11.0007 20.4673 11.0233 20.3541C10.8921 20.3598 10.7589 20.3636 10.6265 20.3636C7.86424 20.3636 5.33937 19.7469 3.48698 18.7243ZM3.48698 22.4705C2.66208 22.0151 1.94924 21.4654 1.41428 20.8388C1.61431 21.8986 2.49037 22.925 3.96924 23.7409C5.64763 24.667 8.00034 25.2551 10.6265 25.2551C10.7483 25.2551 10.8658 25.2508 10.9856 25.2447V24.4689C10.9856 24.3367 11.0007 24.2136 11.0232 24.1003C10.8921 24.106 10.7588 24.1098 10.6265 24.1098C7.86424 24.1098 5.33937 23.4931 3.48698 22.4705ZM19.8343 9.61764C19.2965 10.2444 18.5796 10.7935 17.7504 11.2476C15.8993 12.2613 13.3806 12.8712 10.6265 12.8712C7.86424 12.8712 5.33937 12.2545 3.48698 11.2319C2.66208 10.7765 1.94924 10.2268 1.41428 9.60024C1.61431 10.66 2.49037 11.6864 3.96924 12.5024C5.64763 13.4284 8.00034 14.0165 10.6265 14.0165C12.0068 14.0165 13.3026 13.8379 14.4843 13.5444C15.4995 12.9021 16.6959 12.3969 18.0192 12.0293C19.0452 11.3033 19.6637 10.4717 19.8343 9.61764ZM29.7714 29.9853C31.243 29.173 32.1176 28.1523 32.323 27.0978C31.785 27.7253 31.0677 28.2751 30.2378 28.7296C28.3866 29.7436 25.8679 30.3534 23.1138 30.3534C20.3516 30.3534 17.8267 29.7368 15.9743 28.7142C15.1494 28.2588 14.4365 27.709 13.9016 27.0825C14.1015 28.1424 14.9774 29.169 16.4562 29.9853C18.1344 30.9116 20.4871 31.5 23.1138 31.5C25.7405 31.5 28.0932 30.9116 29.7714 29.9853ZM29.7714 26.2391C31.243 25.4268 32.1175 24.4061 32.323 23.3516C31.785 23.9791 31.0677 24.5289 30.2378 24.9834C28.3866 25.9974 25.8679 26.6072 23.1138 26.6072C20.3516 26.6072 17.8267 25.9906 15.9743 24.968C15.1494 24.5126 14.4365 23.9628 13.9016 23.3363C14.1015 24.3962 14.9774 25.4228 16.4562 26.2391C18.1344 27.1654 20.4871 27.7538 23.1138 27.7538C25.7405 27.7538 28.0932 27.1654 29.7714 26.2391ZM32.3701 19.1218C32.3701 17.8996 31.4669 16.6869 29.7709 15.7508C28.0925 14.8244 25.7399 14.236 23.1138 14.236C20.4883 14.236 18.1356 14.8244 16.4571 15.7508C14.7609 16.6869 13.8574 17.8997 13.8574 19.1218C13.8574 20.3441 14.7607 21.5568 16.4566 22.4929C18.135 23.4192 20.4877 24.0076 23.1138 24.0076C25.7392 24.0076 28.0919 23.4193 29.7705 22.4929C31.4666 21.5568 32.3701 20.344 32.3701 19.1218Z" fill="#C19444" stroke="#C19444"/>
</svg>
