<svg width="22" height="22" viewBox="0 0 22 22" fill="none" xmlns="http://www.w3.org/2000/svg">
<path d="M2.0012 21.2027L11.0002 12.2037L19.9991 21.2027L20.0345 21.238L20.0698 21.2027L21.2012 20.0713L21.2366 20.0359L21.2012 20.0006L12.2022 11.0016L21.2012 2.00266L21.2366 1.96731L21.2012 1.93195L20.0698 0.800582L20.0345 0.765227L19.9991 0.800582L11.0002 9.79954L2.0012 0.800582L1.96584 0.765227L1.93049 0.800582L0.799117 1.93195L0.763762 1.96731L0.799117 2.00266L9.79808 11.0016L0.799117 20.0006L0.763762 20.0359L0.799117 20.0713L1.93049 21.2027L1.96584 21.238L2.0012 21.2027Z" fill="#929292" stroke="white" stroke-width="0.1"/>
</svg>
