<svg width="11" height="15" viewBox="0 0 11 15" fill="none" xmlns="http://www.w3.org/2000/svg">
<path d="M2.86726 6.08289C2.7797 6.46617 2.77721 6.85745 2.85985 7.24595C2.86165 7.2544 2.86311 7.26291 2.86418 7.2715C2.8902 7.4763 3.06594 7.63079 3.27297 7.63079C3.48933 7.63079 3.66729 7.46333 3.68397 7.25125C3.68282 7.24052 3.68224 7.22962 3.68224 7.21858C3.68224 7.18705 3.67846 7.15514 3.67102 7.12382C3.59267 6.79567 3.60475 6.45164 3.70608 6.12927C3.75768 5.96516 3.93249 5.8739 4.0966 5.9255C4.2607 5.97706 4.35193 6.1519 4.30037 6.31601C4.23281 6.53099 4.22471 6.76044 4.27704 6.97948C4.29175 7.04142 4.30075 7.10427 4.3039 7.16719C4.30673 7.1839 4.30822 7.20107 4.30822 7.21855C4.30822 7.78937 3.84382 8.2537 3.273 8.2537C2.75773 8.2537 2.31956 7.87204 2.24809 7.36366C2.14904 6.88991 2.15306 6.41236 2.26003 5.94412C2.29834 5.77644 2.46539 5.67154 2.63303 5.70982C2.80067 5.7482 2.90557 5.91522 2.86726 6.08289ZM7.46545 12.6435C7.29591 12.6149 7.13512 12.7291 7.1064 12.8987C7.07771 13.0683 7.19195 13.2291 7.36159 13.2578C8.32334 13.4204 8.68821 13.6413 8.77162 13.7344C8.71572 13.7947 8.49334 13.9748 7.73601 14.1413C7.04438 14.2933 6.14776 14.3771 5.21135 14.3771C4.13878 14.3771 3.11609 14.266 2.40545 14.0724C1.87049 13.9267 1.6989 13.7863 1.65094 13.7344C1.73427 13.6413 2.09907 13.4204 3.06103 13.2577C3.23064 13.229 3.34488 13.0683 3.31623 12.8987C3.28757 12.7291 3.12664 12.6147 2.95717 12.6435C1.66859 12.8614 1.01523 13.2288 1.01523 13.7356C1.01523 14.1419 1.41643 14.4486 2.24172 14.6735C3.00344 14.881 4.08583 15 5.21135 15C6.27321 15 7.27507 14.8977 8.03233 14.7119C8.95756 14.4849 9.40733 14.1656 9.40733 13.7356C9.4074 13.2289 8.75404 12.8614 7.46545 12.6435ZM6.24643 12.7981V12.8497C6.24643 13.4205 5.7821 13.8848 5.21131 13.8848C4.64056 13.8848 4.17619 13.4205 4.17619 12.8497V12.7981C4.17619 12.2274 4.64052 11.763 5.21131 11.763C5.78206 11.763 6.24643 12.2274 6.24643 12.7981ZM5.62349 12.7981C5.62349 12.5709 5.43858 12.386 5.21131 12.386C4.98404 12.386 4.79913 12.5709 4.79913 12.7981V12.8497C4.79913 13.0769 4.98404 13.2619 5.21131 13.2619C5.43858 13.2619 5.62349 13.0769 5.62349 12.8497V12.7981ZM6.55565 7.36809C6.38012 7.64149 6.11115 7.83314 5.79538 7.90921C5.79452 7.90942 5.79366 7.90963 5.79279 7.90984C5.23374 8.04356 4.76162 8.38455 4.46347 8.86992C4.16377 9.35769 4.07182 9.93255 4.2044 10.4882C4.31708 10.9635 4.74279 11.2844 5.21135 11.2844C5.29008 11.2844 5.37006 11.2754 5.44993 11.2564C5.71887 11.1927 5.9469 11.0281 6.09201 10.7928C6.23708 10.5576 6.2819 10.2799 6.21808 10.0105C6.21199 9.98495 6.2194 9.96543 6.22667 9.95356C6.23345 9.94252 6.24826 9.92321 6.27117 9.91771C6.2728 9.91733 6.27481 9.91681 6.27685 9.91625C7.12733 9.71162 7.84942 9.19299 8.31386 8.45408C8.3205 8.44546 8.3267 8.43646 8.33245 8.42712C8.79027 7.68191 8.93417 6.80014 8.73756 5.94429C8.69904 5.77665 8.5321 5.67203 8.36425 5.71048C8.19661 5.749 8.09192 5.91612 8.13044 6.08379C8.28804 6.76986 8.17667 7.4761 7.81693 8.07592C7.81108 8.08367 7.80561 8.0917 7.80045 8.10004C7.42316 8.71329 6.82922 9.14346 6.12803 9.31134C6.12634 9.31176 6.12423 9.31228 6.12208 9.31283C5.94513 9.3563 5.79393 9.46788 5.69589 9.62738C5.5985 9.78585 5.56877 9.97322 5.612 10.1545C5.63737 10.2616 5.61954 10.3721 5.56178 10.4658C5.50406 10.5594 5.41332 10.6249 5.30634 10.6502C5.08537 10.7026 4.86291 10.5654 4.81045 10.344C4.71635 9.94972 4.78162 9.54204 4.99429 9.19596C5.20494 8.853 5.53898 8.61168 5.93517 8.51623C5.93603 8.51602 5.93693 8.51582 5.9378 8.51561C6.42469 8.39929 6.83746 8.09983 7.10006 7.67243C7.10024 7.67211 7.10169 7.66976 7.10186 7.66945C7.10754 7.66011 7.11269 7.65062 7.11726 7.64097C7.3653 7.22124 7.44136 6.73193 7.33062 6.25655L7.32685 6.24101C7.31813 6.20495 7.30792 6.16789 7.29657 6.13089C7.246 5.96647 7.07182 5.87414 6.9073 5.9247C6.74288 5.97523 6.65058 6.14951 6.70111 6.31393C6.70879 6.33895 6.71561 6.36377 6.72149 6.38799L6.72464 6.40083C6.79974 6.72331 6.74457 7.05807 6.56925 7.34344C6.5643 7.35154 6.5598 7.35975 6.55565 7.36809ZM10.6587 3.8509C10.6587 4.36535 10.1033 4.77451 9.00788 5.06698C8.0669 5.31823 6.82113 5.4566 5.50001 5.4566C4.17893 5.4566 2.93315 5.3182 1.99217 5.06698C0.896728 4.77448 0.341309 4.36535 0.341309 3.8509C0.341309 3.38266 0.802561 3.00118 1.71292 2.7157L2.05965 0.697512C2.11184 0.393933 2.3524 0.0295132 3.20209 0.0171582C3.67538 0.0102712 4.23125 0.102224 4.72185 0.183345C5.03903 0.235775 5.33863 0.285299 5.50001 0.285299C5.69509 0.285299 6.02023 0.228681 6.36447 0.16874C7.19683 0.0238029 8.14023 -0.140515 8.63056 0.205286C8.79823 0.323506 8.90538 0.493707 8.9404 0.697512L9.28713 2.71573C10.1975 3.00121 10.6587 3.38269 10.6587 3.8509ZM10.0358 3.8509C10.0358 3.79754 9.88408 3.57054 9.18636 3.33781C8.23855 3.61782 6.90321 3.77767 5.50001 3.77767C4.62357 3.77767 3.76125 3.71531 3.00631 3.5973C2.83635 3.57072 2.72011 3.41142 2.74669 3.24146C2.77326 3.07147 2.93253 2.95508 3.10252 2.98183C3.82617 3.09496 4.6552 3.15477 5.49997 3.15477C6.68577 3.15477 7.8135 3.038 8.67468 2.83004L8.32642 0.802996C8.31929 0.761605 8.30445 0.737588 8.27157 0.7144C7.99242 0.517552 7.07701 0.676955 6.47128 0.782474C6.08363 0.849959 5.74887 0.908273 5.49997 0.908273C5.28745 0.908273 4.97826 0.857157 4.62021 0.797944C4.17076 0.723641 3.66334 0.639752 3.25293 0.639752C3.23884 0.639752 3.22493 0.639855 3.21112 0.640063C3.09131 0.641793 2.69841 0.658717 2.67356 0.803031L2.29405 3.01197C2.2737 3.13044 2.18701 3.22661 2.07125 3.25911C1.15206 3.51714 0.964213 3.79158 0.964213 3.85094C0.964213 3.91364 1.16594 4.20165 2.15282 4.46519C3.04289 4.70284 4.2316 4.83373 5.49997 4.83373C6.76835 4.83373 7.95709 4.70284 8.84713 4.46519C9.83407 4.20161 10.0358 3.91361 10.0358 3.8509Z" fill="#C19444"/>
</svg>
