<svg width="18" height="18" viewBox="0 0 18 18" fill="none" xmlns="http://www.w3.org/2000/svg">
<path d="M11.9329 17.9999H5.18933C4.51464 17.9902 3.8685 17.7261 3.38011 17.2605C2.89173 16.7949 2.5971 16.1621 2.55513 15.4887L1.75609 3.33624C1.75199 3.24813 1.76541 3.16009 1.79555 3.07719C1.82569 2.9943 1.87197 2.9182 1.9317 2.85331C1.99324 2.78605 2.06775 2.73193 2.15074 2.69421C2.23374 2.65648 2.3235 2.63593 2.41464 2.63379H14.7076C14.7979 2.63359 14.8873 2.65196 14.9702 2.68777C15.0531 2.72358 15.1277 2.77605 15.1895 2.84193C15.2512 2.90781 15.2988 2.98569 15.3292 3.07073C15.3596 3.15576 15.3721 3.24614 15.3661 3.33624L14.6022 15.4887C14.5598 16.1681 14.2602 16.8059 13.7644 17.2724C13.2685 17.7389 12.6137 17.999 11.9329 17.9999ZM3.15222 3.95089L3.82833 15.4097C3.85067 15.7552 4.00386 16.0792 4.25672 16.3158C4.50957 16.5523 4.84308 16.6836 5.18933 16.6828H11.9329C12.2785 16.6815 12.6109 16.5495 12.8633 16.3134C13.1157 16.0773 13.2695 15.7544 13.2939 15.4097L14.0051 3.99479L3.15222 3.95089Z" fill="#C19444"/>
<path d="M16.4637 3.95089H0.65855C0.483891 3.95089 0.316387 3.88151 0.192885 3.758C0.0693826 3.6345 0 3.467 0 3.29234C0 3.11768 0.0693826 2.95018 0.192885 2.82667C0.316387 2.70317 0.483891 2.63379 0.65855 2.63379H16.4637C16.6384 2.63379 16.8059 2.70317 16.9294 2.82667C17.0529 2.95018 17.1223 3.11768 17.1223 3.29234C17.1223 3.467 17.0529 3.6345 16.9294 3.758C16.8059 3.88151 16.6384 3.95089 16.4637 3.95089Z" fill="#C19444"/>
<path d="M11.1955 3.9513H5.9271C5.75315 3.94902 5.58697 3.87891 5.46395 3.7559C5.34094 3.63289 5.27083 3.4667 5.26855 3.29275V1.71223C5.27969 1.26162 5.46365 0.832548 5.78238 0.513824C6.1011 0.195099 6.53018 0.0111311 6.98078 0H10.1418C10.5999 0.0114562 11.0354 0.201522 11.3553 0.529627C11.6752 0.857732 11.8542 1.29788 11.8541 1.75613V3.29275C11.8518 3.4667 11.7817 3.63289 11.6587 3.7559C11.5356 3.87891 11.3695 3.94902 11.1955 3.9513ZM6.58565 2.6342H10.537V1.75613C10.537 1.65134 10.4953 1.55083 10.4212 1.47673C10.3471 1.40263 10.2466 1.361 10.1418 1.361H6.98078C6.87599 1.361 6.77549 1.40263 6.70138 1.47673C6.62728 1.55083 6.58565 1.65134 6.58565 1.75613V2.6342Z" fill="#C19444"/>
<path d="M11.1952 14.4891C11.0212 14.4868 10.855 14.4167 10.732 14.2937C10.609 14.1707 10.5389 14.0045 10.5366 13.8305V6.80601C10.5366 6.63135 10.606 6.46385 10.7295 6.34035C10.853 6.21684 11.0205 6.14746 11.1952 6.14746C11.3698 6.14746 11.5373 6.21684 11.6608 6.34035C11.7843 6.46385 11.8537 6.63135 11.8537 6.80601V13.8305C11.8514 14.0045 11.7813 14.1707 11.6583 14.2937C11.5353 14.4167 11.3691 14.4868 11.1952 14.4891Z" fill="#C19444"/>
<path d="M5.9271 14.4891C5.75315 14.4868 5.58697 14.4167 5.46395 14.2937C5.34094 14.1707 5.27083 14.0045 5.26855 13.8305V6.80601C5.26855 6.63135 5.33794 6.46385 5.46144 6.34035C5.58494 6.21684 5.75245 6.14746 5.9271 6.14746C6.10176 6.14746 6.26927 6.21684 6.39277 6.34035C6.51627 6.46385 6.58565 6.63135 6.58565 6.80601V13.8305C6.58338 14.0045 6.51327 14.1707 6.39025 14.2937C6.26724 14.4167 6.10106 14.4868 5.9271 14.4891Z" fill="#C19444"/>
<path d="M8.56138 14.4891C8.38743 14.4868 8.22124 14.4167 8.09823 14.2937C7.97522 14.1707 7.90511 14.0045 7.90283 13.8305V6.80601C7.90283 6.63135 7.97222 6.46385 8.09572 6.34035C8.21922 6.21684 8.38672 6.14746 8.56138 6.14746C8.73604 6.14746 8.90354 6.21684 9.02705 6.34035C9.15055 6.46385 9.21993 6.63135 9.21993 6.80601V13.8305C9.21766 14.0045 9.14754 14.1707 9.02453 14.2937C8.90152 14.4167 8.73533 14.4868 8.56138 14.4891Z" fill="#C19444"/>
</svg>
