<svg width="20" height="20" viewBox="0 0 20 20" fill="none" xmlns="http://www.w3.org/2000/svg">
<path d="M19.8729 9.60962C19.6942 9.36521 15.4371 3.625 9.9999 3.625C4.56274 3.625 0.305391 9.36521 0.126914 9.60939C-0.0423048 9.84126 -0.0423048 10.1558 0.126914 10.3876C0.305391 10.632 4.56274 16.3723 9.9999 16.3723C15.4371 16.3723 19.6942 10.632 19.8729 10.3878C20.0423 10.156 20.0423 9.84126 19.8729 9.60962ZM9.9999 15.0536C5.99486 15.0536 2.52606 11.2437 1.49922 9.99818C2.52473 8.75157 5.98626 4.94367 9.9999 4.94367C14.0048 4.94367 17.4733 8.7529 18.5006 9.99907C17.4751 11.2456 14.0135 15.0536 9.9999 15.0536Z" fill="#C19444"/>
<path d="M9.99989 6.04492C7.81855 6.04492 6.04382 7.81965 6.04382 10.001C6.04382 12.1823 7.81855 13.957 9.99989 13.957C12.1812 13.957 13.9559 12.1823 13.9559 10.001C13.9559 7.81965 12.1812 6.04492 9.99989 6.04492ZM9.99989 12.6383C8.54559 12.6383 7.36254 11.4552 7.36254 10.001C7.36254 8.54672 8.54562 7.36363 9.99989 7.36363C11.4541 7.36363 12.6372 8.54672 12.6372 10.001C12.6372 11.4552 11.4542 12.6383 9.99989 12.6383Z" fill="#C19444"/>
</svg>
