<svg width="19" height="17" viewBox="0 0 19 17" fill="none" xmlns="http://www.w3.org/2000/svg">
<path d="M4.82909 13.5236C3.59195 13.5236 2.49159 12.7316 2.09209 11.5524L2.06505 11.4635C1.97077 11.1513 1.93136 10.8886 1.93136 10.6259V5.35742L0.056727 11.615C-0.184364 12.5353 0.365045 13.4896 1.28691 13.7438L13.2356 16.9437C13.3847 16.9823 13.5339 17.0009 13.6807 17.0009C14.4503 17.0009 15.1535 16.4901 15.3505 15.7375L16.0468 13.5236H4.82909Z" fill="#7B7B7B"/>
<path d="M6.9539 5.40927C7.80622 5.40927 8.49936 4.71613 8.49936 3.86381C8.49936 3.0115 7.80622 2.31836 6.9539 2.31836C6.10158 2.31836 5.40845 3.0115 5.40845 3.86381C5.40845 4.71613 6.10158 5.40927 6.9539 5.40927Z" fill="#7B7B7B"/>
<path d="M16.6133 0H5.02239C3.95758 0 3.09058 0.867 3.09058 1.93182V10.4318C3.09058 11.4966 3.95758 12.3636 5.02239 12.3636H16.6133C17.6781 12.3636 18.5451 11.4966 18.5451 10.4318V1.93182C18.5451 0.867 17.6781 0 16.6133 0ZM5.02239 1.54545H16.6133C16.8266 1.54545 16.9997 1.71855 16.9997 1.93182V7.41741L14.5586 4.56914C14.2998 4.26545 13.925 4.10318 13.5224 4.09391C13.1221 4.09623 12.7466 4.27395 12.49 4.5815L9.62012 8.02632L8.68512 7.09364C8.15658 6.56509 7.29653 6.56509 6.76876 7.09364L4.63603 9.22559V1.93182C4.63603 1.71855 4.80912 1.54545 5.02239 1.54545Z" fill="#7B7B7B"/>
</svg>
