<svg width="17" height="17" viewBox="0 0 17 17" fill="none" xmlns="http://www.w3.org/2000/svg">
<path d="M14.2693 1.14648H2.71406C1.50591 1.14648 0.522949 2.12925 0.522949 3.3376V10.4092C0.522949 11.6148 1.50163 12.596 2.70628 12.6003V15.8093L7.31798 12.6003H14.2693C15.4775 12.6003 16.4604 11.6173 16.4604 10.4092V3.3376C16.4604 2.12925 15.4775 1.14648 14.2693 1.14648ZM15.5266 10.4092C15.5266 11.1024 14.9626 11.6665 14.2693 11.6665H7.02499L3.64012 14.0219V11.6665H2.71406C2.02079 11.6665 1.45679 11.1024 1.45679 10.4092V3.3376C1.45679 2.64422 2.02079 2.08032 2.71406 2.08032H14.2693C14.9626 2.08032 15.5266 2.64422 15.5266 3.3376V10.4092Z" fill="#C19444"/>
<path d="M4.78857 4.44531H12.1949V5.37915H4.78857V4.44531Z" fill="#C19444"/>
<path d="M4.78857 6.4375H12.1949V7.37134H4.78857V6.4375Z" fill="#C19444"/>
<path d="M4.78857 8.42969H12.1949V9.36353H4.78857V8.42969Z" fill="#C19444"/>
</svg>
