<svg width="15" height="15" viewBox="0 0 15 15" fill="none" xmlns="http://www.w3.org/2000/svg">
<g clip-path="url(#clip0_1590_8546)">
<path d="M7.06713 11.1C6.9543 11.0172 6.79554 11.0413 6.71263 11.1542L6.68131 11.1968C6.59849 11.3096 6.6226 11.4682 6.73528 11.5512C6.78054 11.5845 6.83328 11.6006 6.88551 11.6006C6.96324 11.6006 7.03997 11.565 7.08966 11.4977L7.12144 11.4545C7.20432 11.3416 7.18001 11.1829 7.06713 11.1Z" fill="#C19444"/>
<path d="M7.13335 13.5129L6.48111 12.3269L7.09008 11.4975C7.17302 11.3846 7.14867 11.2259 7.03576 11.143C6.92288 11.06 6.76415 11.0844 6.68127 11.1973L5.97644 12.1572C5.91799 12.2368 5.91108 12.343 5.95863 12.4296L6.68894 13.7573V13.7573C6.73514 13.8412 6.82189 13.8887 6.91139 13.8887C6.95273 13.8887 6.99463 13.8786 7.03339 13.8573C7.15608 13.7898 7.20085 13.6356 7.13335 13.5129Z" fill="#C19444"/>
<path d="M9.02358 12.1572L8.32162 11.2012C8.26341 11.1219 8.16477 11.0834 8.06826 11.1025C7.97179 11.1214 7.895 11.1945 7.87115 11.2899C7.85284 11.3631 7.86811 11.4406 7.91278 11.5015L8.51876 12.3268L7.87098 13.5048C7.85041 13.5422 7.8396 13.5844 7.8396 13.6271C7.8396 13.7429 7.918 13.8439 8.03012 13.8727C8.05112 13.8782 8.0723 13.8808 8.09322 13.8808C8.18401 13.8808 8.27006 13.8318 8.31544 13.7494L9.04136 12.4295C9.08897 12.343 9.08199 12.2367 9.02358 12.1572Z" fill="#C19444"/>
<path d="M9.4254 8.17168C9.34199 8.12788 9.24115 8.13386 9.16354 8.18735C9.01269 8.29127 8.87271 8.40137 8.7475 8.51454C8.065 9.13153 7.41657 9.04804 7.39117 9.0444C7.37587 9.042 7.36032 9.04089 7.34494 9.04139C7.0752 9.0483 6.58887 8.80183 6.07439 8.39776C5.99569 8.33597 5.91501 8.27709 5.83444 8.22271C5.75675 8.17021 5.65635 8.16491 5.57355 8.20894C5.49073 8.25295 5.43896 8.33908 5.43896 8.43289V9.30289C5.43896 9.37982 5.47397 9.45254 5.53397 9.5007C5.54106 9.50642 5.54845 9.51169 5.55606 9.51655L7.35434 10.7182C7.35463 10.7184 7.3549 10.7186 7.35519 10.7188L7.35994 10.722C7.40227 10.75 7.45105 10.7641 7.5 10.7641C7.5412 10.7641 7.58239 10.7541 7.62003 10.734C7.62797 10.7298 7.63559 10.7251 7.64291 10.7201C7.64376 10.7196 7.64461 10.719 7.64549 10.7184C7.64649 10.7178 7.64748 10.7171 7.64848 10.7164L9.44251 9.51764C9.44971 9.51307 9.45675 9.50815 9.46351 9.50287C9.52507 9.45482 9.56104 9.38108 9.56104 9.30298V8.39621C9.56104 8.30193 9.50884 8.21554 9.4254 8.17168ZM9.0538 9.16725L7.49997 10.2055L5.94618 9.16722V8.93656C6.32452 9.21151 6.88108 9.54875 7.33474 9.54872C7.33568 9.54872 7.33673 9.54872 7.3377 9.54872C7.49001 9.56557 8.26676 9.61136 9.05385 8.92089V9.16725H9.0538Z" fill="#C19444"/>
<path d="M7.75028 10.4697C7.73355 10.3691 7.65817 10.2884 7.55897 10.2647C7.45971 10.2412 7.35606 10.2791 7.29571 10.3613L6.71279 11.1553C6.62988 11.2682 6.65419 11.4269 6.76713 11.5098C6.81234 11.543 6.8649 11.559 6.91702 11.559C6.99501 11.559 7.07194 11.5231 7.12169 11.4554L7.70156 10.6656C7.73455 10.6225 7.75377 10.5689 7.75377 10.5115C7.75374 10.4975 7.75257 10.4835 7.75028 10.4697Z" fill="#C19444"/>
<path d="M11.3637 2.29391C11.3587 2.25418 11.2399 1.39678 10.4328 1.05855C10.4562 0.907961 10.4538 0.714425 10.3582 0.526134C10.2297 0.273067 9.97611 0.108154 9.60448 0.0359082C9.58854 0.0328027 9.57237 0.03125 9.55611 0.03125H6.15218C4.77001 0.03125 3.64551 1.15572 3.64551 2.53795V3.87363C3.64551 4.22162 3.76413 4.56097 3.97946 4.82909C4.08622 4.96204 4.21771 5.19422 4.23754 5.54526C4.24527 5.68231 4.36 5.78821 4.4979 5.78441C4.63513 5.78054 4.74435 5.66816 4.74435 5.5309V3.78949C4.91656 3.07731 5.50428 2.93871 5.60533 2.91999H6.70636C6.83589 2.91999 6.96324 2.90021 7.08497 2.86119C7.29432 2.79404 7.62646 2.67046 7.86828 2.57862C8.03006 2.51712 8.20918 2.51487 8.37257 2.57229L9.5513 2.98608C10.1406 3.20346 10.2458 3.72079 10.2588 3.80206V5.89201C10.2588 6.02476 10.3611 6.13489 10.4935 6.14476C10.4999 6.14523 10.5063 6.14549 10.5126 6.14549C10.637 6.14546 10.7444 6.05432 10.7632 5.92943C10.7642 5.92289 10.8655 5.26878 11.192 4.74507C11.3056 4.56275 11.3657 4.35489 11.3657 4.14395V2.32593C11.3657 2.31524 11.365 2.30455 11.3637 2.29391ZM10.8585 4.14384C10.8585 4.25713 10.8265 4.36951 10.766 4.46944V3.78471C10.766 3.77554 10.7655 3.76643 10.7645 3.75732C10.7605 3.7205 10.6557 2.85137 9.7245 2.5093C9.72336 2.50889 9.72222 2.50848 9.72108 2.50807L8.54056 2.09364C8.40746 2.04691 8.26821 2.02359 8.12905 2.02359C7.9794 2.02359 7.82984 2.05057 7.68813 2.10448C7.34958 2.23309 7.0874 2.32775 6.93005 2.3782C6.85847 2.40114 6.78321 2.4128 6.70633 2.4128H5.58482C5.57395 2.4128 5.56305 2.4135 5.55224 2.41488C5.50932 2.42044 4.49778 2.56429 4.24322 3.70526C4.23918 3.7234 4.23713 3.74191 4.23713 3.76049V4.28244C4.18191 4.15482 4.15267 4.01543 4.15267 3.87366V2.53801C4.15267 1.43551 5.04965 0.538526 6.15212 0.538526H9.5305C9.67036 0.568321 9.84034 0.629464 9.90483 0.753859C9.98378 0.906115 9.89384 1.11576 9.89375 1.11594C9.86132 1.18493 9.8617 1.26483 9.89466 1.33353C9.92765 1.40223 9.98982 1.45244 10.0639 1.47029C10.7096 1.62571 10.8413 2.24496 10.8584 2.34512L10.8585 4.14384Z" fill="#C19444"/>
<path d="M10.7644 3.75715C10.7605 3.72033 10.6557 2.85121 9.72446 2.50913C9.72332 2.50872 9.72218 2.50831 9.72104 2.5079L8.54052 2.09347C8.26425 1.9965 7.96155 2.00036 7.68806 2.10425C7.34951 2.23286 7.08733 2.32752 6.92998 2.378C6.8584 2.40094 6.78314 2.41257 6.70626 2.41257H5.58475C5.57388 2.41257 5.56298 2.41327 5.55217 2.41465C5.50925 2.42022 4.49772 2.56407 4.24315 3.70503C4.23911 3.72317 4.23706 3.74169 4.23706 3.76026V5.94042C4.23706 5.9423 4.23709 5.94417 4.23712 5.94605C4.23879 6.02178 4.29237 7.81027 5.52812 8.62821L5.5345 8.63272C5.53981 8.63647 5.54511 8.64022 5.55065 8.64394C5.62111 8.69152 5.69186 8.74317 5.76106 8.79749C6.12106 9.08017 6.79949 9.54954 7.33468 9.54954C7.33568 9.54954 7.33662 9.54954 7.33764 9.54954C7.36671 9.55273 7.41859 9.55701 7.48896 9.55701C7.79227 9.55701 8.43938 9.47753 9.08755 8.89159C9.19633 8.7933 9.31864 8.69714 9.45124 8.6058L9.4702 8.59252C9.47638 8.58816 9.48256 8.58377 9.48895 8.57949C9.90115 8.30263 10.6151 7.58826 10.7649 5.9144C10.7656 5.9069 10.766 5.89932 10.766 5.89176V3.78455C10.7659 3.77541 10.7654 3.7663 10.7644 3.75715ZM10.2587 5.8803C10.1205 7.39091 9.47688 7.97653 9.20611 8.15837C9.1965 8.16485 9.18701 8.17153 9.17752 8.17821L9.16346 8.18811C9.01261 8.29203 8.87263 8.40212 8.74741 8.5153C8.06746 9.13001 7.42114 9.04938 7.38944 9.04493C7.3747 9.04273 7.35976 9.04179 7.34485 9.0422C7.07511 9.04912 6.58878 8.80264 6.0743 8.39858C5.99561 8.33676 5.91492 8.27788 5.83448 8.22359L5.82824 8.21919C5.82214 8.21486 5.81608 8.21055 5.80893 8.20581C4.81172 7.54577 4.74648 6.00121 4.74428 5.93676V3.78929C4.9171 3.07451 5.50846 2.93748 5.60485 2.91979H6.70629C6.83582 2.91979 6.96317 2.90001 7.0849 2.86099C7.29425 2.79384 7.62642 2.67027 7.86821 2.57842C8.02999 2.51693 8.20911 2.51467 8.3725 2.57209L9.55123 2.98588C10.1405 3.20327 10.2457 3.72059 10.2587 3.80186V5.8803H10.2587Z" fill="#C19444"/>
<path d="M7.7269 10.398C7.68737 10.3189 7.60956 10.2662 7.52152 10.2587C7.43363 10.2514 7.34791 10.2901 7.29561 10.3613L6.68811 11.1887C6.60529 11.3016 6.62949 11.4602 6.74225 11.5431C6.78749 11.5764 6.84014 11.5925 6.89231 11.5925C6.97013 11.5925 7.04694 11.5568 7.09666 11.4893L7.70419 10.6649C7.73633 10.6213 7.75367 10.5656 7.75367 10.5115C7.7537 10.4721 7.74447 10.4332 7.7269 10.398Z" fill="#C19444"/>
<path d="M7.74314 14.4807C7.64787 14.381 7.49045 14.3757 7.38874 14.4688L7.33076 14.5219C7.24395 14.6012 7.22312 14.7299 7.28048 14.8326L7.28227 14.8358C7.321 14.9052 7.39008 14.9524 7.4688 14.9634C7.48046 14.965 7.49212 14.9658 7.50373 14.9658C7.57049 14.9658 7.63515 14.9394 7.68305 14.8915L7.73921 14.8352C7.83669 14.7378 7.83844 14.5803 7.74314 14.4807Z" fill="#C19444"/>
<path d="M7.66928 14.5218L7.6113 14.4688C7.50958 14.3758 7.35214 14.3811 7.25686 14.4807C7.16156 14.5803 7.16332 14.7379 7.26082 14.8353L7.31707 14.8915C7.36497 14.9394 7.4296 14.9658 7.49637 14.9658C7.50829 14.9658 7.52027 14.965 7.53225 14.9632C7.61124 14.952 7.68032 14.9041 7.71873 14.8342L7.72052 14.831C7.77671 14.7284 7.75556 14.6007 7.66928 14.5218Z" fill="#C19444"/>
<path d="M7.67353 14.5257L7.6732 14.5254C7.63403 14.4888 7.58338 14.4647 7.52757 14.4585C7.45283 14.4504 7.38003 14.4757 7.32709 14.525L7.32633 14.5257C7.27506 14.5725 7.24521 14.6382 7.24371 14.7076C7.24222 14.7771 7.26923 14.844 7.31842 14.8929L7.32108 14.8956C7.37057 14.9448 7.43523 14.9694 7.49991 14.9694C7.56483 14.9694 7.62973 14.9446 7.67921 14.8951L7.68188 14.8925C7.73086 14.8434 7.7577 14.7766 7.75609 14.7073C7.75456 14.638 7.72471 14.5724 7.67353 14.5257Z" fill="#C19444"/>
<path d="M7.58217 10.2659C7.47714 10.2322 7.36189 10.2712 7.29793 10.3612C7.22639 10.4619 7.23819 10.5992 7.32535 10.6867C7.3744 10.736 7.43949 10.7613 7.50509 10.7613C7.55604 10.7613 7.60725 10.746 7.65143 10.7149C7.71893 10.6674 7.75909 10.5901 7.75909 10.5075V10.5069C7.75909 10.3965 7.68732 10.2994 7.58217 10.2659Z" fill="#C19444"/>
<path d="M7.70604 10.3577L7.70387 10.3548C7.6388 10.2667 7.52454 10.2305 7.42057 10.2647C7.31659 10.299 7.24634 10.3961 7.24634 10.5056V10.5099C7.24634 10.6033 7.29875 10.6884 7.38102 10.7326C7.41828 10.7526 7.45941 10.7624 7.50049 10.7624C7.55003 10.7624 7.59951 10.7481 7.64205 10.7199C7.70003 10.6815 7.73973 10.621 7.75183 10.5525C7.76393 10.4841 7.74737 10.4136 7.70604 10.3577Z" fill="#C19444"/>
<path d="M10.5169 9.56124C10.4906 9.49177 10.4352 9.43734 10.3653 9.41232L9.39292 9.06374C9.38504 9.06093 9.37687 9.05841 9.36872 9.05642C9.29932 9.03905 9.22578 9.05179 9.16631 9.09158L7.36461 10.2955C7.36414 10.2958 7.36361 10.2961 7.36311 10.2965L7.50459 10.5069L7.35995 10.2986C7.3071 10.3336 7.26925 10.3872 7.25389 10.4486C7.24546 10.4824 7.24408 10.5176 7.24979 10.5519C7.25633 10.5911 7.27197 10.6283 7.29552 10.6604L8.61462 12.4569C8.66255 12.5222 8.7386 12.5604 8.81899 12.5604C8.8245 12.5604 8.83004 12.5602 8.83558 12.5598C8.92197 12.5542 8.99952 12.5049 9.04124 12.429L10.5019 9.77326C10.5377 9.70816 10.5432 9.63064 10.5169 9.56124ZM8.78829 11.8364L7.86119 10.5737L9.34192 9.58426L9.91417 9.78943L8.78829 11.8364Z" fill="#C19444"/>
<path d="M7.74979 10.4664C7.73787 10.3983 7.6987 10.338 7.64127 10.2995L5.83356 9.09155C5.77603 9.05305 5.7051 9.03987 5.63751 9.05487C5.62714 9.05716 5.61694 9.06014 5.60695 9.06372L4.63456 9.41229C4.56466 9.43734 4.50926 9.49178 4.48298 9.56121C4.4567 9.63067 4.46215 9.70813 4.49795 9.77323L5.9586 12.4289C6.00032 12.5048 6.07787 12.5541 6.16427 12.5598C6.16978 12.5602 6.17531 12.5603 6.18082 12.5603C6.26121 12.5603 6.33724 12.5221 6.38526 12.4568L7.09008 11.4969C7.09064 11.4961 7.09119 11.4953 7.09175 11.4945L7.70438 10.6601C7.74528 10.6044 7.76168 10.5345 7.74979 10.4664ZM6.68127 11.1966C6.68066 11.1974 6.68007 11.1982 6.67946 11.199L6.2115 11.8364L5.08561 9.78937L5.6579 9.58424L7.1386 10.5737L6.68127 11.1966Z" fill="#C19444"/>
<path d="M14.9875 13.8916L14.6603 11.9161C14.5572 11.2935 14.1245 10.7733 13.5311 10.5587L10.366 9.41357C10.2684 9.3783 10.1594 9.40595 10.0904 9.48336C10.0214 9.56079 10.0065 9.67241 10.0528 9.76525L10.7136 11.0905L10.0652 11.1005C9.97717 11.1018 9.8961 11.1487 9.85113 11.2244C9.80613 11.3001 9.80361 11.3937 9.84445 11.4717L10.1104 11.9795L7.38864 14.4694C7.38585 14.4719 7.38313 14.4745 7.38046 14.4772L7.32427 14.5334C7.24467 14.613 7.22707 14.7356 7.28112 14.8344L7.28311 14.838C7.32761 14.9193 7.41293 14.9699 7.50562 14.9699H14.0731C14.346 14.9699 14.6036 14.8505 14.78 14.6425C14.9564 14.4344 15.0321 14.1607 14.9875 13.8916ZM14.3932 14.3144C14.3133 14.4086 14.1967 14.4627 14.0732 14.4627H8.1474L10.5969 12.2219C10.6819 12.1442 10.7039 12.0191 10.6504 11.9171L10.485 11.6012L11.1244 11.5914C11.2116 11.5901 11.2919 11.544 11.3372 11.4696C11.3825 11.3951 11.3864 11.3026 11.3475 11.2246L10.7897 10.1062L13.3587 11.0356C13.7798 11.1879 14.0869 11.5571 14.16 11.9989L14.4872 13.9745V13.9745C14.5074 14.0963 14.4731 14.2202 14.3932 14.3144Z" fill="#C19444"/>
<path d="M7.67573 14.5272L7.67277 14.5246C7.5724 14.4337 7.41824 14.4377 7.32273 14.5338L7.32009 14.5364C7.24788 14.6091 7.22646 14.7181 7.26578 14.8126C7.30512 14.9072 7.39753 14.9689 7.49995 14.9689H7.50551C7.61037 14.9689 7.70444 14.9043 7.74212 14.8065C7.77988 14.7086 7.75348 14.5976 7.67573 14.5272Z" fill="#C19444"/>
<path d="M7.66771 14.5202C7.61014 14.4684 7.53207 14.4456 7.4556 14.4587C7.37923 14.4716 7.31296 14.5188 7.27569 14.5867L7.27393 14.5899C7.22047 14.6874 7.23672 14.8083 7.31404 14.8882L7.31495 14.8892C7.36464 14.9405 7.43085 14.9664 7.49723 14.9664C7.55832 14.9664 7.61958 14.9445 7.66809 14.9001L7.67076 14.8977C7.69379 14.8768 7.71277 14.8516 7.72672 14.8237C7.77778 14.7217 7.75253 14.5965 7.66771 14.5202Z" fill="#C19444"/>
<path d="M7.67879 14.5365L7.67774 14.5354C7.67706 14.5347 7.67636 14.534 7.67571 14.5334L7.61946 14.4772C7.61683 14.4745 7.6141 14.4719 7.61135 14.4694L4.88958 11.9795L5.15556 11.4717C5.19643 11.3938 5.19388 11.3001 5.14891 11.2244C5.10391 11.1488 5.02288 11.1019 4.93484 11.1005L4.28635 11.0905L4.94717 9.76528C4.99346 9.67247 4.97852 9.56082 4.90959 9.48339C4.84065 9.40595 4.73143 9.37827 4.63396 9.4136L1.46892 10.5587C0.875486 10.7733 0.44277 11.2935 0.339674 11.9161L0.0125157 13.8917C-0.032045 14.1608 0.0435997 14.4345 0.220026 14.6425C0.396481 14.8506 0.654148 14.9699 0.926902 14.9699H7.50002C7.60274 14.9699 7.69528 14.9079 7.73443 14.813C7.7736 14.7181 7.75162 14.6089 7.67879 14.5365ZM0.926931 14.4627C0.803416 14.4627 0.686755 14.4087 0.606892 14.3145C0.527028 14.2203 0.49281 14.0964 0.512966 13.9745L0.840125 11.9989C0.913279 11.557 1.22034 11.1879 1.64148 11.0356L4.21038 10.1062L3.65269 11.2246C3.61378 11.3026 3.61765 11.3951 3.66297 11.4696C3.70824 11.544 3.7886 11.59 3.87576 11.5914L4.51519 11.6012L4.34972 11.9171C4.29631 12.0191 4.31829 12.1443 4.40319 12.2219L6.85273 14.4627H0.926931Z" fill="#C19444"/>
<path d="M8.36317 11.4122C8.38148 11.3389 8.36622 11.2614 8.32154 11.2005L7.70437 10.36C7.63951 10.2717 7.52513 10.2365 7.42101 10.2707C7.36479 10.2891 7.31847 10.3263 7.28765 10.3739L6.68176 11.196C6.67309 11.2077 6.66538 11.2203 6.65885 11.2334C6.61734 11.3164 6.62451 11.4155 6.67754 11.4917L6.93556 11.8622L6.6607 13.5948C6.65188 13.6504 6.66184 13.7073 6.68897 13.7567L7.27778 14.8272C7.32234 14.9083 7.40753 14.9586 7.49999 14.9586C7.59249 14.9586 7.67765 14.9083 7.72221 14.8272L8.31542 13.7488C8.33598 13.7113 8.34679 13.6693 8.34679 13.6266V13.6264C8.34679 13.6131 8.34571 13.5998 8.34366 13.5867L8.07005 11.8623L8.32529 11.4958C8.34281 11.4704 8.35573 11.442 8.36317 11.4122ZM7.49999 14.1788L7.17524 13.5884L7.4525 11.8409C7.46279 11.7761 7.44758 11.71 7.41014 11.6562L7.19762 11.351L7.50073 10.9397L7.80541 11.3547L7.59544 11.6562C7.558 11.7099 7.54283 11.7761 7.55308 11.8409L7.82909 13.5804L7.49999 14.1788Z" fill="#C19444"/>
</g>
<defs>
<clipPath id="clip0_1590_8546">
<rect width="15" height="15" fill="white"/>
</clipPath>
</defs>
</svg>
