<svg width="24" height="14" viewBox="0 0 24 14" fill="none" xmlns="http://www.w3.org/2000/svg">
<path d="M13.4786 0H2.60708C1.17318 0 0 1.17318 0 2.60708V11.3929C0 12.8268 1.17318 14 2.60708 14H13.4786C14.9125 14 16.0857 12.8268 16.0857 11.3929V2.60708C16.0857 1.14711 14.9125 0 13.4786 0Z" fill="#7B7B7B"/>
<path d="M21.8999 1.43262C21.7435 1.45869 21.587 1.5369 21.4567 1.61511L17.3896 3.96148V10.0099L21.4828 12.3563C22.2388 12.7995 23.1774 12.5388 23.6206 11.7827C23.7509 11.5481 23.8291 11.2874 23.8291 11.0006V2.94472C23.8291 1.9801 22.9166 1.19798 21.8999 1.43262Z" fill="#7B7B7B"/>
</svg>
