<svg width="22" height="20" viewBox="0 0 22 20" fill="none" xmlns="http://www.w3.org/2000/svg">
<path d="M3.25526 9.49051H21.5327L0.74618 0.0420822C0.650656 0.00265791 0.546041 -0.00938488 0.444057 0.00730332C0.342074 0.0239915 0.246753 0.0687512 0.168777 0.136566C0.0925316 0.206983 0.038872 0.298421 0.0145802 0.399326C-0.00971155 0.50023 -0.00354532 0.606071 0.0322996 0.703472L3.25526 9.49051Z" fill="#C19444"/>
<path d="M3.25526 10.541L0.0322996 19.2861C-0.00354532 19.3835 -0.00971155 19.4893 0.0145802 19.5902C0.038872 19.6911 0.0925316 19.7825 0.168777 19.853C0.268818 19.9376 0.394695 19.9858 0.525717 19.9894C0.59844 20.0044 0.673458 20.0044 0.74618 19.9894L21.5327 10.541H3.25526Z" fill="#C19444"/>
</svg>
