<svg width="28" height="36" viewBox="0 0 28 36" fill="none" xmlns="http://www.w3.org/2000/svg">
<rect width="28" height="36" fill="#F5F5F5"/>
<g clip-path="url(#clip0_0_1)">
<rect width="414" height="896" transform="translate(-43 -172)" fill="white"/>
<g filter="url(#filter0_d_0_1)">
<rect x="-26" y="-26" width="380" height="285" rx="12.6489" fill="white"/>
<rect x="-25.5" y="-25.5" width="379" height="284" rx="12.1489" stroke="#D7DEEA"/>
</g>
<g clip-path="url(#clip1_0_1)">
<rect x="-10.5" y="-6.5" width="49" height="49" rx="15.5" fill="white" stroke="#C19444"/>
<g clip-path="url(#clip2_0_1)">
<path d="M10.9238 16.6082C10.8284 16.7254 10.7908 16.8794 10.8215 17.0275C11.1276 18.5048 12.4643 19.577 13.9998 19.577C15.5353 19.577 16.872 18.5048 17.1781 17.0275C17.2088 16.8795 17.1712 16.7254 17.0758 16.6082C16.9803 16.4909 16.8371 16.4229 16.686 16.4229H11.3136C11.1624 16.4229 11.0193 16.4909 10.9238 16.6082ZM15.9684 17.4281C15.5848 18.1162 14.8353 18.5717 13.9998 18.5717C13.1644 18.5717 12.4148 18.1162 12.0312 17.4281H15.9684Z" fill="#C19444"/>
<path d="M9.70158 13.1301C9.74193 13.1301 9.78295 13.1253 9.82389 13.115L10.2738 13.0025V13.7019C10.2738 13.9795 10.4988 14.2045 10.7764 14.2045C11.054 14.2045 11.2791 13.9795 11.2791 13.7019V12.7512L11.9728 12.5778C12.2421 12.5104 12.4059 12.2375 12.3385 11.9682C12.2712 11.6989 11.9981 11.5352 11.729 11.6025L9.58008 12.1397C9.31073 12.2071 9.147 12.48 9.21436 12.7493C9.27139 12.9777 9.47633 13.1301 9.70158 13.1301Z" fill="#C19444"/>
<path d="M16.0269 12.578L16.7206 12.7514V13.7021C16.7206 13.9797 16.9456 14.2048 17.2232 14.2048C17.5008 14.2048 17.7258 13.9797 17.7258 13.7021V13.0028L18.1757 13.1152C18.2166 13.1255 18.2576 13.1304 18.2981 13.1304C18.5232 13.1304 18.7282 12.9779 18.7853 12.7495C18.8526 12.4802 18.6889 12.2073 18.4196 12.14L16.2707 11.6027C16.0017 11.5355 15.7285 11.6991 15.6611 11.9685C15.5938 12.2377 15.7576 12.5106 16.0269 12.578Z" fill="#C19444"/>
<path d="M24.2953 26.4544L20.3197 24.6196C19.913 23.7097 19.2236 23.247 18.8005 23.0376V21.5961C18.9255 21.4913 19.0479 21.3824 19.1671 21.2686C20.6629 19.8416 21.4866 17.9176 21.4866 15.851V15.2792H21.7898C22.3104 15.2792 22.8093 15.0577 23.1587 14.6716C23.5079 14.2857 23.6782 13.7656 23.6261 13.2448C23.533 12.3156 22.6928 11.5877 21.7132 11.5877H21.7052C21.1954 11.5877 20.7529 11.2423 20.6293 10.7477L20.6061 10.655C20.1501 8.831 18.4071 7.62935 16.5515 7.85983C14.8053 8.07677 12.1315 8.15766 9.30931 7.31101C9.17769 7.27153 9.03567 7.28762 8.91638 7.35558C8.79695 7.42347 8.71056 7.53726 8.67726 7.67056L7.90795 10.7477C7.7843 11.2423 7.34184 11.5877 6.83196 11.5877H6.28676C6.28602 11.5877 6.28529 11.5878 6.28448 11.5878C6.13912 11.196 5.89175 10.4638 5.72233 9.61049C5.49889 8.48484 5.36699 6.90977 6.00789 5.79826C6.38186 5.14972 6.97477 4.72274 7.80876 4.50238C7.71775 5.27069 7.88107 5.85945 7.89273 5.90006C7.9692 6.16592 8.24572 6.31873 8.51192 6.2436C8.77812 6.16847 8.93327 5.89108 8.85948 5.62455C8.84567 5.57462 8.52981 4.38952 9.3006 3.37646C10.0612 2.37668 11.6863 1.8483 14 1.8483C16.1882 1.8483 18.3395 2.55073 20.3942 3.93607C22.0953 5.0831 22.8691 7.20753 22.3195 9.22245L22.1107 9.98808C22.0377 10.2559 22.1956 10.5322 22.4634 10.6053C22.5077 10.6173 22.5522 10.6231 22.596 10.6231C22.817 10.6231 23.0197 10.4761 23.0806 10.2526L23.2894 9.48698C23.9524 7.05627 23.0147 4.49059 20.9562 3.10256C18.7325 1.60321 16.3921 0.843018 14 0.843018C11.3123 0.843018 9.45843 1.49531 8.48987 2.78181C8.33365 2.98936 8.21067 3.20134 8.11336 3.41225C6.72995 3.63522 5.72876 4.26849 5.13598 5.29796C3.89801 7.44786 4.88017 10.6764 5.30802 11.8486C4.7976 12.1407 4.43328 12.6515 4.37384 13.2448C4.3217 13.7656 4.49206 14.2857 4.84123 14.6716C5.1906 15.0577 5.68955 15.2792 6.21009 15.2792H6.51328V15.6537C6.51328 17.6116 7.2401 19.4832 8.55984 20.9237C8.76264 21.1451 8.97636 21.3524 9.19947 21.5453V23.0376C8.77638 23.247 8.08702 23.7097 7.68028 24.6196L3.70466 26.4545C1.82096 27.3239 0.60376 29.2262 0.60376 31.3009V34.654C0.60376 34.9316 0.828809 35.1567 1.1064 35.1567C1.38399 35.1567 1.60904 34.9316 1.60904 34.654V31.3009C1.60904 29.617 2.59697 28.0729 4.12594 27.3672L7.37005 25.8699C7.26591 27.1702 7.71828 28.7537 8.72363 30.5968C8.79112 30.7206 8.9076 30.8104 9.04459 30.8441C9.08433 30.8539 9.12467 30.8588 9.16488 30.8588C9.26327 30.8588 9.36038 30.8299 9.44375 30.7743L11.589 29.3441L11.8724 29.9108L11.3516 34.5984C11.3209 34.8743 11.5197 35.1228 11.7956 35.1535C11.8145 35.1555 11.8332 35.1566 11.8517 35.1566C12.1045 35.1566 12.3221 34.9665 12.3507 34.7094L12.8383 30.3214H15.1619L15.6494 34.7094C15.678 34.9665 15.8956 35.1566 16.1484 35.1566C16.1669 35.1566 16.1856 35.1555 16.2045 35.1535C16.4804 35.1228 16.6792 34.8743 16.6485 34.5984L16.1277 29.9108L16.4111 29.3441L18.5564 30.7743C18.6397 30.8299 18.7369 30.8588 18.8352 30.8588C18.8754 30.8588 18.9158 30.8539 18.9555 30.8441C19.0925 30.8104 19.2089 30.7206 19.2765 30.5968C20.2818 28.7537 20.7342 27.1702 20.6301 25.8699L23.8742 27.3671C25.4032 28.0728 26.3911 29.6169 26.3911 31.3008V34.654C26.3911 34.9316 26.6161 35.1567 26.8937 35.1567C27.1713 35.1567 27.3964 34.9316 27.3964 34.654V31.3009C27.3962 29.2262 26.179 27.3238 24.2953 26.4544ZM7.51863 15.6536V14.7764C7.51863 14.4988 7.29358 14.2738 7.01599 14.2738H6.21016C5.97311 14.2738 5.74592 14.1729 5.58668 13.9969C5.42537 13.8187 5.3499 13.5871 5.37423 13.3449C5.41645 12.9232 5.81736 12.5929 6.28689 12.5929H6.83209C7.80407 12.5929 8.64757 11.9344 8.88327 10.9914L9.52692 8.41702C12.3272 9.1608 14.9379 9.07327 16.6756 8.8574C18.0273 8.68932 19.2979 9.567 19.6309 10.8987L19.6541 10.9913C19.8898 11.9343 20.7333 12.5928 21.7053 12.5928H21.7132C22.1828 12.5928 22.5837 12.9232 22.6259 13.3449C22.6502 13.5871 22.5747 13.8187 22.4134 13.9969C22.2543 14.1728 22.027 14.2737 21.79 14.2737H20.984C20.7064 14.2737 20.4814 14.4988 20.4814 14.7764V15.8508C20.4814 17.64 19.7681 19.3056 18.4732 20.5411C17.179 21.7757 15.479 22.4092 13.686 22.3247C12.0153 22.246 10.458 21.5073 9.30113 20.2444C8.15163 18.9899 7.51863 17.3595 7.51863 15.6536ZM9.35093 29.6281C8.39993 27.7308 8.12857 26.1724 8.56734 25.0998C8.83817 24.4378 9.31876 24.1039 9.60587 23.9558L10.9826 25.1604C11.1915 25.3432 11.509 25.3221 11.6918 25.1132C11.8747 24.9043 11.8535 24.5867 11.6445 24.4039L10.2047 23.1441V22.2783C11.2396 22.9075 12.4122 23.2714 13.6387 23.3291C13.761 23.3348 13.8828 23.3377 14.0043 23.3377C15.3579 23.3377 16.6558 22.9813 17.7952 22.308V23.1441L14 26.4649L13.2575 25.8153C13.0486 25.6324 12.7311 25.6536 12.5483 25.8625C12.3654 26.0714 12.3866 26.3889 12.5956 26.5718L13.175 27.0787L9.35093 29.6281ZM15.3011 29.3163H12.699L12.432 28.7822L14 27.7369L15.568 28.7822L15.3011 29.3163ZM18.6491 29.6281L14.8251 27.0788L18.3939 23.956C18.6824 24.1047 19.1622 24.4386 19.4326 25.0998C19.8714 26.1723 19.6001 27.7308 18.6491 29.6281Z" fill="#C19444"/>
</g>
</g>
</g>
<defs>
<filter id="filter0_d_0_1" x="-30" y="-26" width="388" height="293" filterUnits="userSpaceOnUse" color-interpolation-filters="sRGB">
<feFlood flood-opacity="0" result="BackgroundImageFix"/>
<feColorMatrix in="SourceAlpha" type="matrix" values="0 0 0 0 0 0 0 0 0 0 0 0 0 0 0 0 0 0 127 0" result="hardAlpha"/>
<feOffset dy="4"/>
<feGaussianBlur stdDeviation="2"/>
<feComposite in2="hardAlpha" operator="out"/>
<feColorMatrix type="matrix" values="0 0 0 0 0 0 0 0 0 0 0 0 0 0 0 0 0 0 0.25 0"/>
<feBlend mode="normal" in2="BackgroundImageFix" result="effect1_dropShadow_0_1"/>
<feBlend mode="normal" in="SourceGraphic" in2="effect1_dropShadow_0_1" result="shape"/>
</filter>
<clipPath id="clip0_0_1">
<rect width="414" height="896" fill="white" transform="translate(-43 -172)"/>
</clipPath>
<clipPath id="clip1_0_1">
<rect width="50" height="50" fill="white" transform="translate(-11 -7)"/>
</clipPath>
<clipPath id="clip2_0_1">
<rect width="34.3137" height="34.3137" fill="white" transform="translate(-3.15698 0.843018)"/>
</clipPath>
</defs>
</svg>
