<svg width="25" height="23" viewBox="0 0 25 23" fill="none" xmlns="http://www.w3.org/2000/svg">
<path d="M17.7083 5.20833C17.7083 7.57812 14.5356 11.8012 13.1424 13.5026C12.8082 13.9583 12.1918 13.9583 11.8576 13.5026C10.4644 11.8012 7.29167 7.57812 7.29167 5.20833C7.29167 2.33203 9.6224 0 12.5 0C15.3776 0 17.7083 2.33203 17.7083 5.20833ZM12.5 6.59722C13.4592 6.59722 14.2361 5.82031 14.2361 4.86111C14.2361 3.90234 13.4592 3.125 12.5 3.125C11.5408 3.125 10.7639 3.90234 10.7639 4.86111C10.7639 5.82031 11.5408 6.59722 12.5 6.59722ZM18.4722 7.80382C18.4939 7.75174 18.5156 7.69965 18.5373 7.64323L23.572 5.62934C24.2578 5.3559 25 5.85938 25 6.59722V18.3507C25 18.776 24.7396 19.158 24.3446 19.3186L18.0556 21.8316V8.69792C18.2075 8.39844 18.3464 8.1033 18.4722 7.80382ZM6.52778 7.80382C6.65365 8.1033 6.79253 8.39844 6.94444 8.69792V19.6094L1.42839 21.8186C0.744358 22.053 0 21.5885 0 20.8507V9.09722C0 8.67188 0.259332 8.25087 0.654948 8.12934L5.97222 6.0026C6.07639 6.61892 6.28906 7.2309 6.52778 7.80382ZM14.2274 14.3707C14.8307 13.6545 15.7769 12.4262 16.6667 11.0677V21.888L8.33333 19.5052V11.0677C9.22309 12.4262 10.1693 13.6545 10.7726 14.3707C11.6623 15.5208 13.3377 15.5208 14.2274 14.3707Z" fill="#C19444"/>
</svg>
