<svg width="18" height="29" viewBox="0 0 18 29" fill="none" xmlns="http://www.w3.org/2000/svg">
<path d="M3.77422 1.46111L5.05807 0.988764C6.26318 0.546628 7.54822 1.26201 8.06486 2.65982L9.0898 5.44445C9.53604 6.65689 9.28906 8.08353 8.47651 8.97055L6.21664 11.4394C6.35505 12.9168 6.78698 14.3709 7.51004 15.8017C8.19705 17.1861 9.11847 18.3977 10.2197 19.3649L12.9342 18.3213C13.9639 17.9272 15.0843 18.3817 15.7143 19.4486L17.1855 21.9339C17.9193 23.1752 17.788 24.8861 16.8776 25.9379L15.9016 27.0652C14.9304 28.187 13.5427 28.5948 12.26 28.1334C9.23059 27.0459 6.44573 23.8178 3.90428 18.449C1.35925 13.072 0.46079 8.50782 1.2101 4.76202C1.5251 3.18571 2.49992 1.92933 3.77422 1.46111Z" fill="#C19444"/>
</svg>
