<svg width="23" height="30" viewBox="0 0 23 30" fill="none" xmlns="http://www.w3.org/2000/svg">
<path d="M3.55815 15C3.55815 19.1421 6.74422 22.5 10.6744 22.5C12.2114 22.5 13.6345 21.9865 14.7978 21.1134L15.6465 22.008C14.2605 23.102 12.5393 23.75 10.6744 23.75C6.08918 23.75 2.3721 19.8325 2.3721 15C2.3721 14.3096 1.84109 13.75 1.18605 13.75C0.531015 13.75 3.13856e-06 14.3096 3.13856e-06 15C3.13856e-06 20.7914 4.15214 25.5606 9.49013 26.1815C9.489 26.2043 9.48838 26.227 9.48838 26.25V27.5H7.11629C6.46125 27.5 5.93024 28.0596 5.93024 28.75C5.93024 29.4404 6.46125 30 7.11629 30H14.2326C14.8876 30 15.4186 29.4404 15.4186 28.75C15.4186 28.0596 14.8876 27.5 14.2326 27.5H11.8605V26.25C11.8605 26.227 11.8599 26.2043 11.8588 26.1815C13.9183 25.942 15.8011 25.0849 17.3373 23.7899L20.4753 27.0971C20.9385 27.5853 21.6894 27.5853 22.1526 27.0971C22.6158 26.6089 22.6158 25.8175 22.1526 25.3294L2.02472 4.11611C1.56153 3.62796 0.810566 3.62796 0.347391 4.11611C-0.115797 4.60427 -0.115797 5.39572 0.347391 5.88389L3.55815 9.26776V15Z" fill="#C19444"/>
<path d="M4.34717 4.0639L17.3072 17.7227C17.6193 16.8787 17.7907 15.9604 17.7907 15V7.5C17.7907 3.35786 14.6045 0 10.6743 0C7.91916 0 5.52968 1.65018 4.34717 4.0639Z" fill="#C19444"/>
<path d="M18.2109 18.6753L19.9717 20.531C20.8483 18.8976 21.3487 17.0104 21.3487 15C21.3487 14.3096 20.8177 13.75 20.1627 13.75C19.5076 13.75 18.9766 14.3096 18.9766 15C18.9766 16.3126 18.7023 17.5577 18.2109 18.6753Z" fill="#C19444"/>
</svg>
