<svg width="36" height="36" viewBox="0 0 36 36" fill="none" xmlns="http://www.w3.org/2000/svg">
<path d="M18.0003 34.28C18.6302 34.2655 19.2348 34.0287 19.7069 33.6114C20.1791 33.1942 20.4884 32.6234 20.5803 32H15.3203C15.4148 32.6403 15.7386 33.2245 16.2316 33.6439C16.7246 34.0633 17.3531 34.2894 18.0003 34.28Z" fill="#333333"/>
<path d="M32.5098 27.8304C31.5455 26.9707 30.7013 25.9852 29.9998 24.9004C29.234 23.4029 28.775 21.7676 28.6498 20.0904V15.1504C28.6457 14.5503 28.5922 13.9516 28.4898 13.3604C27.7027 13.2031 26.9463 12.9194 26.2498 12.5204C26.5153 13.3752 26.6501 14.2653 26.6498 15.1604V20.1004C26.7724 22.1464 27.3352 24.1419 28.2998 25.9504C28.9902 27.0444 29.8094 28.0516 30.7398 28.9504H5.1298C6.06021 28.0516 6.8794 27.0444 7.56981 25.9504C8.53442 24.1419 9.09724 22.1464 9.2198 20.1004V15.1504C9.21454 13.9931 9.43761 12.8461 9.87625 11.7751C10.3149 10.7041 10.9605 9.73019 11.776 8.90905C12.5916 8.08792 13.5611 7.43572 14.6291 6.9898C15.697 6.54389 16.8425 6.31301 17.9998 6.31039C19.6936 6.31175 21.3493 6.81264 22.7598 7.75039C22.6043 7.17938 22.517 6.59195 22.4998 6.00039V5.37039C21.4557 4.85675 20.3339 4.51888 19.1798 4.37039V3.11039C19.1798 2.75633 19.0392 2.41676 18.7888 2.1664C18.5384 1.91604 18.1989 1.77539 17.8448 1.77539C17.4907 1.77539 17.1512 1.91604 16.9008 2.1664C16.6505 2.41676 16.5098 2.75633 16.5098 3.11039V4.42039C13.9255 4.78494 11.5604 6.07213 9.85103 8.04432C8.14167 10.0165 7.20353 12.5405 7.2098 15.1504V20.0904C7.08456 21.7676 6.62558 23.4029 5.8598 24.9004C5.17069 25.9827 4.34 26.9681 3.3898 27.8304C3.28314 27.9241 3.19765 28.0395 3.13902 28.1688C3.0804 28.2981 3.04998 28.4384 3.0498 28.5804V29.9404C3.0498 30.2056 3.15516 30.46 3.3427 30.6475C3.53023 30.835 3.78459 30.9404 4.0498 30.9404H31.8498C32.115 30.9404 32.3694 30.835 32.5569 30.6475C32.7444 30.46 32.8498 30.2056 32.8498 29.9404V28.5804C32.8496 28.4384 32.8192 28.2981 32.7606 28.1688C32.702 28.0395 32.6165 27.9241 32.5098 27.8304Z" fill="#333333"/>
<path d="M26.5 19C31.1944 19 35 15.1944 35 10.5C35 5.80558 31.1944 2 26.5 2C21.8056 2 18 5.80558 18 10.5C18 15.1944 21.8056 19 26.5 19Z" fill="#C19444"/>
<path d="M27.6309 15H26.5762V8.2793C26.3223 8.52148 25.9883 8.76367 25.5742 9.00586C25.1641 9.24805 24.7949 9.42969 24.4668 9.55078V8.53125C25.0566 8.25391 25.5723 7.91797 26.0137 7.52344C26.4551 7.12891 26.7676 6.74609 26.9512 6.375H27.6309V15Z" fill="white"/>
</svg>
