<svg width="50" height="50" viewBox="0 0 50 50" fill="none" xmlns="http://www.w3.org/2000/svg">
<g clip-path="url(#clip0_1_10160)">
<path d="M49.3197 39.6485L29.6208 5.04768C27.614 1.52259 22.3863 1.5218 20.3789 5.04768L19.2956 6.95058C18.8417 7.74779 20.0954 8.50952 20.5697 7.67595L21.653 5.77314C23.1052 3.22228 26.8943 3.22238 28.3466 5.77314L48.0456 40.3738C49.488 42.9076 47.6005 46.1305 44.6988 46.1305H5.30112C2.39935 46.1305 0.51189 42.9076 1.95432 40.3738L18.6615 11.0276C19.1155 10.2304 17.8621 9.4688 17.3874 10.3023L0.680109 39.6485C-1.30451 43.1344 1.30118 47.5965 5.30102 47.5965H44.6987C48.6984 47.5966 51.3047 43.1351 49.3197 39.6485Z" fill="#C19444"/>
<path d="M42.2585 36.304C42.6103 36.1038 42.7331 35.6562 42.5328 35.3042L26.3495 6.87866C25.7712 5.858 24.2366 5.8494 23.6521 6.87612L3.9537 41.476C3.37857 42.4838 4.13062 43.8004 5.30083 43.8004H44.6993C45.8609 43.8004 46.6243 42.4919 46.0473 41.4775L44.4537 38.6785C43.9998 37.8811 42.705 38.5704 43.1796 39.4038L44.773 42.2026C44.8112 42.2698 44.7597 42.3341 44.6993 42.3341H5.30093C5.24052 42.3341 5.18881 42.2699 5.22752 42.2021L24.9263 7.60159C24.9615 7.53942 25.0398 7.54157 25.0746 7.60276L41.2587 36.0298C41.459 36.3814 41.9067 36.5043 42.2585 36.304Z" fill="#C19444"/>
<path d="M27.6857 20.3181C27.6857 18.822 26.4809 17.6047 24.9998 17.6047C23.5188 17.6047 22.314 18.822 22.314 20.3181V29.604C22.314 31.1001 23.5188 32.3174 24.9998 32.3174C26.4809 32.3174 27.6857 31.1001 27.6857 29.604V20.3181ZM26.2195 29.604C26.2195 30.2917 25.6723 30.8512 24.9998 30.8512C24.3274 30.8512 23.7802 30.2917 23.7802 29.604V20.3181C23.7802 19.6304 24.3274 19.0709 24.9998 19.0709C25.6723 19.0709 26.2195 19.6304 26.2195 20.3181V29.604Z" fill="#C19444"/>
<path d="M24.9998 33.6409C23.5188 33.6409 22.3139 34.8581 22.3139 36.3543C22.3139 37.8505 23.5187 39.0677 24.9998 39.0677C26.4808 39.0677 27.6856 37.8505 27.6856 36.3543C27.6856 34.8581 26.4807 33.6409 24.9998 33.6409ZM24.9998 37.6014C24.3273 37.6014 23.7801 37.0419 23.7801 36.3542C23.7801 35.6664 24.3273 35.107 24.9998 35.107C25.6723 35.107 26.2194 35.6664 26.2194 36.3542C26.2194 37.0419 25.6723 37.6014 24.9998 37.6014Z" fill="#C19444"/>
<path d="M40.1439 15.0681C42.6006 15.6258 44.1655 18.0809 43.6322 20.541C43.4411 21.4234 44.8528 21.8309 45.0651 20.8517C45.7678 17.6091 43.7058 14.3732 40.4684 13.6383C39.5739 13.4345 39.2085 14.8558 40.1439 15.0681Z" fill="#C19444"/>
<path d="M41.1477 10.9793C45.8074 12.0369 48.7755 16.6937 47.7639 21.3601C47.5728 22.2423 48.9845 22.65 49.1969 21.6707C50.378 16.2219 46.9127 10.7843 41.4722 9.54951C40.5778 9.34551 40.2125 10.7669 41.1477 10.9793Z" fill="#C19444"/>
<path d="M4.93496 20.8514C5.13309 21.7652 6.56897 21.4687 6.36791 20.5407C5.83471 18.0807 7.39961 15.6255 9.85625 15.0678C10.7508 14.8647 10.4668 13.4246 9.53173 13.638C6.29431 14.3729 4.23217 17.6088 4.93496 20.8514Z" fill="#C19444"/>
<path d="M1.51857 22.2489C1.97631 22.2489 2.33387 21.8133 2.23573 21.3604C1.22416 16.694 4.1923 12.0372 8.85192 10.9796C9.74649 10.7765 9.46244 9.33645 8.5274 9.54982C3.0869 10.7846 -0.378276 16.2222 0.802782 21.671C0.877264 22.0144 1.18096 22.2489 1.51857 22.2489Z" fill="#C19444"/>
</g>
<defs>
<clipPath id="clip0_1_10160">
<rect width="50" height="50" fill="white"/>
</clipPath>
</defs>
</svg>
