<svg width="40" height="40" viewBox="0 0 40 40" fill="none" xmlns="http://www.w3.org/2000/svg">
<g clip-path="url(#clip0_1_3627)">
<path d="M10.8457 15.2578H12.2014V34.2374H10.8457V15.2578Z" fill="#995F5B"/>
<path d="M16.2682 5.76666C16.0405 5.76666 15.8135 5.78916 15.5904 5.83451C15.5904 5.81134 15.5904 5.78883 15.5904 5.76666C15.5844 3.59908 13.8792 1.81709 11.714 1.71548C9.5487 1.61387 7.68429 3.22805 7.47512 5.3857C6.2121 4.81907 4.73164 5.07756 3.73539 6.03839C2.73882 6.99955 2.42703 8.46976 2.94766 9.7523C3.46796 11.0352 4.71641 11.8722 6.10056 11.8672C6.32927 11.8676 6.55764 11.8447 6.78172 11.7994C6.78172 11.8226 6.77841 11.8447 6.77841 11.8672C6.79562 14.344 8.71529 16.3911 11.186 16.5668C13.6565 16.7429 15.8469 14.989 16.2153 12.5398C16.2331 12.5398 16.25 12.5451 16.2682 12.5451C18.1399 12.5451 19.6574 11.0276 19.6574 9.15588C19.6574 7.28419 18.1399 5.76666 16.2682 5.76666Z" fill="#C8D952"/>
<path d="M0.677734 34.2422H39.9927V39.6649H0.677734V34.2422Z" fill="#C8D952"/>
<path d="M2.03369 23.3906H7.45644V31.5247H2.03369V23.3906Z" fill="#F3E56D"/>
<path d="M4.06689 23.3906H5.42258V29.4912H4.06689V23.3906Z" fill="#DF6437"/>
<path d="M0 22.7188H9.48981V24.0744H0V22.7188Z" fill="#EBB562"/>
<path d="M3.38916 31.5234H6.10053V34.2348H3.38916V31.5234Z" fill="#EBB562"/>
<path d="M14.2349 28.8125H37.2815V31.5239H14.2349V28.8125Z" fill="#995F5B"/>
<path d="M16.2683 23.3906H35.2479C35.9966 23.3906 36.6036 23.9976 36.6036 24.7463C36.6036 25.495 35.9966 26.102 35.2479 26.102H16.2683C15.5196 26.102 14.9126 25.495 14.9126 24.7463C14.9126 23.9976 15.5196 23.3906 16.2683 23.3906Z" fill="#DF6437"/>
<path d="M16.2683 17.9688H35.2479C35.9966 17.9688 36.6036 18.5758 36.6036 19.3244C36.6036 20.0731 35.9966 20.6801 35.2479 20.6801H16.2683C15.5196 20.6801 14.9126 20.0731 14.9126 19.3244C14.9126 18.5758 15.5196 17.9688 16.2683 17.9688Z" fill="#DF6437"/>
<path d="M17.624 31.5234H20.3354V34.2348H17.624V31.5234Z" fill="#EBB562"/>
<path d="M31.1807 31.5234H33.892V34.2348H31.1807V31.5234Z" fill="#EBB562"/>
<path d="M17.624 20.6797H20.3354V23.3911H17.624V20.6797Z" fill="#EBB562"/>
<path d="M17.624 26.1016H20.3354V28.8129H17.624V26.1016Z" fill="#EBB562"/>
<path d="M31.1809 20.6797H33.8923V23.3911H31.1809V20.6797Z" fill="#EBB562"/>
<path d="M31.1807 26.1016H33.892V28.8129H31.1807V26.1016Z" fill="#EBB562"/>
<path d="M7.45605 36.2734H8.81174V37.6291H7.45605V36.2734Z" fill="#67C086"/>
<path d="M21.0132 36.2734H22.3689V37.6291H21.0132V36.2734Z" fill="#67C086"/>
<path d="M33.8921 36.2734H36.6035V37.6291H33.8921V36.2734Z" fill="#67C086"/>
<path d="M0.677734 36.2734H4.06695V37.6291H0.677734V36.2734Z" fill="#67C086"/>
<path d="M12.8789 10.5156H14.2346V11.8713H12.8789V10.5156Z" fill="#67C086"/>
<path d="M10.1675 12.5469H11.5232V13.9026H10.1675V12.5469Z" fill="#67C086"/>
<path d="M39.993 5.08866V4.41081C40.0416 3.85808 39.843 3.31196 39.4505 2.91942C39.0583 2.52721 38.5122 2.32863 37.9594 2.37728H37.2816C36.8798 1.08944 35.9259 0.34375 33.8924 0.34375C32.3828 0.34375 30.8298 0.975588 30.5032 2.37728H29.8253C29.2815 2.36206 28.7553 2.57123 28.3707 2.95583C27.9857 3.34076 27.7766 3.86701 27.7918 4.41081V5.08866H39.993Z" fill="#CDEEF6"/>
<path d="M33.8924 12.5496V11.8717C33.941 11.319 33.7425 10.7729 33.3499 10.3804C32.9577 9.98815 32.4116 9.78956 31.8589 9.83822H31.181C30.7792 8.55038 29.8253 7.80469 27.7918 7.80469C26.2822 7.80469 24.7293 8.43653 24.4026 9.83822H23.7247C23.1809 9.82299 22.6547 10.0322 22.2701 10.4168C21.8852 10.8017 21.676 11.328 21.6912 11.8717V12.5496H33.8924Z" fill="#CDEEF6"/>
</g>
<defs>
<clipPath id="clip0_1_3627">
<rect width="40" height="40" fill="white"/>
</clipPath>
</defs>
</svg>
