<svg width="24" height="21" viewBox="0 0 24 21" fill="none" xmlns="http://www.w3.org/2000/svg">
<path d="M21.8207 14.8051V17.4301C21.8218 17.6738 21.7658 17.915 21.6564 18.1383C21.547 18.3615 21.3865 18.562 21.1852 18.7267C20.9839 18.8915 20.7463 19.0169 20.4875 19.095C20.2288 19.173 19.9546 19.202 19.6826 19.1801C16.6645 18.8875 13.7655 17.9675 11.2184 16.4938C8.84864 15.1504 6.83951 13.358 5.33367 11.2438C3.67612 8.96114 2.64459 6.3622 2.32266 3.65758C2.29815 3.41562 2.33038 3.17175 2.4173 2.94151C2.50423 2.71126 2.64393 2.49969 2.82753 2.32025C3.01113 2.14082 3.2346 1.99746 3.4837 1.89929C3.73281 1.80113 4.0021 1.75031 4.27442 1.75008H7.21678C7.69276 1.74591 8.15421 1.89628 8.51511 2.17318C8.87601 2.45007 9.11173 2.8346 9.17835 3.25508C9.30254 4.09514 9.53286 4.91997 9.8649 5.71383C9.99686 6.02702 10.0254 6.36738 9.9472 6.6946C9.86897 7.02182 9.68724 7.32218 9.42355 7.56008L8.17795 8.67133C9.57415 10.8619 11.6072 12.6757 14.0627 13.9213L15.3083 12.8101C15.5749 12.5748 15.9116 12.4127 16.2784 12.3429C16.6452 12.2731 17.0267 12.2986 17.3777 12.4163C18.2676 12.7126 19.1921 12.918 20.1337 13.0288C20.6102 13.0888 21.0453 13.3029 21.3563 13.6304C21.6673 13.9579 21.8326 14.376 21.8207 14.8051Z" stroke="#C19444" stroke-width="1.8" stroke-linecap="round" stroke-linejoin="round"/>
</svg>
