<svg width="61" height="61" viewBox="0 0 61 61" fill="none" xmlns="http://www.w3.org/2000/svg">
<path d="M0 0.120117V21.9601H5.4964V27.4201H10.9928V21.9601H21.9856V0.120117H0ZM21.9856 21.9601V27.4201H27.482V32.8801H16.4892V38.3402H0V60.1802H21.9856V38.3402H38.4748V32.8801H32.9784V27.4201H43.9712V21.9601H49.4676V27.4201H54.964V21.9601H60.4604V0.120117H38.4748V21.9601H21.9856ZM54.964 27.4201V32.8801H60.4604V27.4201H54.964ZM54.964 32.8801H49.4676V38.3402H54.964V32.8801ZM54.964 38.3402V43.8002H60.4604V38.3402H54.964ZM54.964 43.8002H49.4676V38.3402H43.9712V43.8002H30.2302V60.1802H35.7266V49.2602H46.7194V54.7202H52.2158V49.2602H54.964V43.8002ZM46.7194 54.7202H41.223V60.1802H46.7194V54.7202ZM49.4676 32.8801V27.4201H43.9712V32.8801H49.4676ZM16.4892 32.8801V27.4201H10.9928V32.8801H16.4892ZM5.4964 27.4201H0V32.8801H5.4964V27.4201ZM27.482 0.120117V11.0401H24.7338V16.5001H27.482V19.2301H32.9784V11.0401H35.7266V5.58012H32.9784V0.120117H27.482ZM5.4964 5.58012H16.4892V16.5001H5.4964V5.58012ZM43.9712 5.58012H54.964V16.5001H43.9712V5.58012ZM8.24459 8.31013V13.7701H13.741V8.31013H8.24459ZM46.7194 8.31013V13.7701H52.2158V8.31013H46.7194ZM5.4964 43.8002H16.4892V54.7202H5.4964V43.8002ZM8.24459 46.5302V51.9902H13.741V46.5302H8.24459ZM54.964 54.7202V60.1802H60.4604V54.7202H54.964Z" fill="black"/>
</svg>
