<svg width="39" height="38" viewBox="0 0 39 38" fill="none" xmlns="http://www.w3.org/2000/svg">
<g filter="url(#filter0_d_1_2894)">
<path d="M26.7897 27.0527L19.7306 23.3506L12.7033 27.0439C12.5111 27.1452 12.2903 27.1799 12.0755 27.1428C11.5365 27.0502 11.1711 26.5376 11.2586 25.9981L12.5727 18.1689L6.8512 12.619C6.69314 12.4664 6.59188 12.2671 6.55918 12.0527C6.52045 11.7923 6.58676 11.5277 6.74355 11.3171C6.90035 11.1065 7.13479 10.967 7.39536 10.9294L15.2651 9.79206L18.7567 2.66919C18.8377 2.50335 18.9638 2.36372 19.1205 2.26613C19.2773 2.16854 19.4586 2.11691 19.6438 2.11708C19.8289 2.11725 20.0106 2.16921 20.1682 2.26708C20.3258 2.36495 20.453 2.50482 20.5353 2.67081L24.0869 9.79808L31.9669 10.9463C32.1827 10.9766 32.3839 11.0802 32.5358 11.236C32.9193 11.6281 32.9147 12.2544 32.5239 12.6354L26.8476 18.1768L28.2248 26.0081C28.2618 26.2219 28.2289 26.4423 28.1272 26.6358C27.8779 27.1231 27.2773 27.3065 26.7897 27.0527Z" fill="#C19444"/>
<path d="M26.5575 27.4955L26.5589 27.4962C27.2844 27.8739 28.191 27.6058 28.5711 26.8659C28.7242 26.5733 28.7727 26.2419 28.7175 25.9228L28.7173 25.9215L27.3858 18.3502L32.8728 12.9935L26.5575 27.4955ZM26.5575 27.4955L19.7308 23.9153M26.5575 27.4955L19.7308 23.9153M19.7308 23.9153L12.9363 27.4863C12.9363 27.4863 12.9362 27.4863 12.9362 27.4864C12.6461 27.6391 12.3135 27.6913 11.9905 27.6355M19.7308 23.9153L7.32385 10.4345L7.39536 10.9294M11.9905 27.6355C11.9907 27.6355 11.9908 27.6355 11.9909 27.6356L12.0755 27.1428L11.9903 27.6354C11.9904 27.6355 11.9904 27.6355 11.9905 27.6355ZM11.9905 27.6355C11.1811 27.4963 10.6336 26.728 10.7651 25.918L10.7655 25.9153L12.0361 18.345L6.50393 12.9787C6.50369 12.9784 6.50344 12.9782 6.50319 12.978L6.50307 12.9779L6.8512 12.619M6.8512 12.619C6.69314 12.4664 6.59188 12.2671 6.55918 12.0527C6.52045 11.7923 6.58676 11.5277 6.74355 11.3171C6.90035 11.1065 7.13479 10.967 7.39536 10.9294M6.8512 12.619L12.5727 18.1689L6.8512 12.619ZM7.39536 10.9294L7.32389 10.4345L14.9323 9.33495M7.39536 10.9294L15.2651 9.79206M15.2651 9.79206L14.8161 9.57198L14.9323 9.33495M15.2651 9.79206L15.1936 9.2972L14.9323 9.33495M15.2651 9.79206L18.3074 2.44972M14.9323 9.33495L18.3074 2.44972M18.3074 2.44972C18.3075 2.44958 18.3076 2.44944 18.3076 2.4493C18.4299 2.19923 18.62 1.98872 18.8563 1.84163C19.0928 1.69448 19.3658 1.61682 19.6442 1.61708C19.9227 1.61733 20.1955 1.69545 20.432 1.84234C20.6685 1.98921 20.8595 2.19914 20.9832 2.44851C20.9832 2.44853 20.9832 2.44856 20.9832 2.44858L24.4178 9.34101L32.0364 10.4511C32.0369 10.4512 32.0373 10.4512 32.0377 10.4513C32.3651 10.4976 32.6664 10.6539 32.8936 10.8868M18.3074 2.44972L32.5239 12.6354L32.8731 12.9932C33.4641 12.4168 33.4675 11.4739 32.8936 10.8868M32.8936 10.8868C32.8935 10.8866 32.8933 10.8865 32.8932 10.8864L32.5358 11.236L32.8937 10.8869C32.8937 10.8868 32.8936 10.8868 32.8936 10.8868Z" stroke="white"/>
</g>
<defs>
<filter id="filter0_d_1_2894" x="0.548401" y="0.117188" width="38.2719" height="37.0488" filterUnits="userSpaceOnUse" color-interpolation-filters="sRGB">
<feFlood flood-opacity="0" result="BackgroundImageFix"/>
<feColorMatrix in="SourceAlpha" type="matrix" values="0 0 0 0 0 0 0 0 0 0 0 0 0 0 0 0 0 0 127 0" result="hardAlpha"/>
<feOffset dy="4"/>
<feGaussianBlur stdDeviation="2.5"/>
<feComposite in2="hardAlpha" operator="out"/>
<feColorMatrix type="matrix" values="0 0 0 0 0 0 0 0 0 0 0 0 0 0 0 0 0 0 0.15 0"/>
<feBlend mode="normal" in2="BackgroundImageFix" result="effect1_dropShadow_1_2894"/>
<feBlend mode="normal" in="SourceGraphic" in2="effect1_dropShadow_1_2894" result="shape"/>
</filter>
</defs>
</svg>
