<svg width="14" height="14" viewBox="0 0 14 14" fill="none" xmlns="http://www.w3.org/2000/svg">
<g clip-path="url(#clip0_1_14683)">
<path d="M12.4916 0H1.5085C0.676651 0 0 0.676651 0 1.5085V9.55408C0 10.3858 0.676651 11.0625 1.5085 11.0625H4.98927L6.14198 13.368C6.34279 13.7696 6.65553 14 7 14C7.34447 14 7.65721 13.7696 7.85802 13.368L9.01083 11.0625H12.4916C13.3233 11.0625 14 10.3858 14 9.55408V1.5085C14 0.676651 13.3233 0 12.4916 0V0ZM13.1797 9.55408C13.1797 9.93347 12.871 10.2422 12.4916 10.2422H8.75737C8.60196 10.2422 8.46001 10.33 8.39047 10.4689L7.12433 13.0012C7.07327 13.1032 7.02531 13.1534 7 13.1726C6.97469 13.1534 6.92673 13.1032 6.87567 13.0012L5.60953 10.4689C5.5401 10.33 5.39804 10.2422 5.24274 10.2422H1.5085C1.129 10.2422 0.820312 9.93347 0.820312 9.55408V1.5085C0.820312 1.129 1.129 0.820312 1.5085 0.820312H12.4916C12.871 0.820312 13.1797 1.129 13.1797 1.5085V9.55408Z" fill="#C19444"/>
<path d="M7.00021 7.16797C6.2896 7.16797 5.71143 7.74614 5.71143 8.45676C5.71143 9.16737 6.2896 9.74554 7.00021 9.74554C7.71083 9.74554 8.28911 9.16748 8.28911 8.45676C8.28911 7.74614 7.71083 7.16797 7.00021 7.16797ZM7.00021 8.92523C6.74194 8.92523 6.53174 8.71513 6.53174 8.45676C6.53174 8.19838 6.74194 7.98828 7.00021 7.98828C7.25859 7.98828 7.4688 8.19838 7.4688 8.45676C7.4688 8.71513 7.25859 8.92523 7.00021 8.92523Z" fill="#C19444"/>
<path d="M7.00021 1.75781C6.2896 1.75781 5.71143 2.33598 5.71143 3.0466V4.94176C5.71143 5.65237 6.2896 6.23055 7.00021 6.23055C7.71083 6.23055 8.28911 5.65237 8.28911 4.94176V3.0466C8.28911 2.33598 7.71083 1.75781 7.00021 1.75781ZM7.4688 4.94165C7.4688 5.20003 7.25859 5.41023 7.00021 5.41023C6.74194 5.41023 6.53174 5.20003 6.53174 4.94165V3.0466C6.53174 2.78833 6.74194 2.57812 7.00021 2.57812C7.25859 2.57812 7.4688 2.78833 7.4688 3.0466V4.94165Z" fill="#C19444"/>
</g>
<defs>
<clipPath id="clip0_1_14683">
<rect width="14" height="14" fill="white"/>
</clipPath>
</defs>
</svg>
