<svg width="250" height="250" viewBox="0 0 250 250" fill="none" xmlns="http://www.w3.org/2000/svg">
<g clip-path="url(#clip0_1_19756)">
<path d="M235.538 233.064H185.74C184.123 233.064 182.811 231.75 182.811 230.134V99.314C182.811 97.6968 184.125 96.3843 185.74 96.3843H235.538C237.155 96.3843 238.468 97.6968 238.468 99.314V230.134C238.468 231.75 237.154 233.064 235.538 233.064ZM188.67 227.203H232.605V102.242H188.67V227.203Z" fill="#C19444"/>
<path d="M244.444 102.242H185.74C184.123 102.242 182.811 100.929 182.811 99.3121V80.0244C182.811 78.4072 184.125 77.0947 185.74 77.0947H244.444C247.509 77.0947 250 79.5864 250 82.6494V96.6856C250.003 99.7501 247.509 102.242 244.444 102.242ZM188.67 96.3824H244.141V82.9527H188.67V96.3824Z" fill="#C19444"/>
<path d="M168.775 134.491H81.2227C79.6055 134.491 78.293 133.177 78.293 131.561V105.843C78.293 104.226 79.6055 102.913 81.2227 102.913H168.775C170.392 102.913 171.705 104.226 171.705 105.843V131.561C171.705 133.178 170.392 134.491 168.775 134.491ZM84.1524 128.631H165.846V108.772H84.1524V128.631Z" fill="#C19444"/>
<path d="M125 233.063C123.383 233.063 122.07 231.749 122.07 230.134V154.735C122.07 153.118 123.383 151.805 125 151.805C126.617 151.805 127.93 153.119 127.93 154.735V230.134C127.93 231.749 126.617 233.063 125 233.063Z" fill="#C19444"/>
<path d="M185.74 233.063H64.2598C62.6426 233.063 61.3301 231.749 61.3301 230.134V39.1582C61.3301 37.541 62.6426 36.2285 64.2598 36.2285H185.738C187.355 36.2285 188.668 37.541 188.668 39.1582V230.134C188.669 231.749 187.358 233.063 185.74 233.063ZM67.1895 227.202H182.809V42.0879H67.1895V227.202Z" fill="#C19444"/>
<path d="M64.2595 233.064H14.4649C12.8477 233.064 11.5352 231.75 11.5352 230.134V99.314C11.5352 97.6968 12.8477 96.3843 14.4649 96.3843H64.2609C65.8781 96.3843 67.1906 97.6968 67.1906 99.314V230.134C67.1892 231.75 65.8781 233.064 64.2595 233.064ZM17.3946 227.203H61.3312V102.242H17.3946V227.203Z" fill="#C19444"/>
<path d="M64.26 102.242H5.55617C2.49171 102.242 0 99.7501 0 96.6856V82.6494C0 79.5864 2.49317 77.0947 5.55617 77.0947H64.26C65.8772 77.0947 67.1897 78.4072 67.1897 80.0244V99.3121C67.1897 100.929 65.8801 102.242 64.26 102.242ZM5.8594 96.3824H61.3318V82.9527H5.8594V96.3824Z" fill="#C19444"/>
<path d="M194.501 42.0865H55.4995C52.4351 42.0865 49.9434 39.5948 49.9434 36.5304V22.4942C49.9434 19.4297 52.4351 16.938 55.4995 16.938L194.501 16.9395C197.567 16.9395 200.058 19.4312 200.058 22.4956V36.5318C200.06 39.5934 197.565 42.088 194.501 42.088V42.0865ZM55.8028 36.2271H194.199V22.7974H55.8028V36.2271Z" fill="#C19444"/>
<path d="M165.249 233.063H84.75C83.1328 233.063 81.8203 231.749 81.8203 230.134V164.573C81.8203 157.531 87.5479 151.804 94.5894 151.804H155.409C162.45 151.804 168.179 157.531 168.179 164.573V230.134C168.179 231.749 166.868 233.063 165.249 233.063ZM87.6797 227.202H162.32V164.574C162.32 160.766 159.222 157.665 155.41 157.665H94.5894C90.7779 157.665 87.6797 160.763 87.6797 164.574V227.202Z" fill="#C19444"/>
<path d="M47.1221 144.254H30.3379C28.7207 144.254 27.4082 142.94 27.4082 141.324V124.54C27.4082 122.923 28.7207 121.61 30.3379 121.61H47.1221C48.7393 121.61 50.0518 122.923 50.0518 124.54V141.324C50.0518 142.941 48.7393 144.254 47.1221 144.254ZM33.2676 138.393H44.1924V127.47H33.2676V138.393Z" fill="#C19444"/>
<path d="M47.1221 176.043H30.3379C28.7207 176.043 27.4082 174.729 27.4082 173.113V156.329C27.4082 154.711 28.7207 153.399 30.3379 153.399H47.1221C48.7393 153.399 50.0518 154.713 50.0518 156.329V173.113C50.0518 174.732 48.7393 176.043 47.1221 176.043ZM33.2676 170.182H44.1924V159.258L33.2676 159.257V170.18V170.182Z" fill="#C19444"/>
<path d="M47.1221 207.834H30.3379C28.7207 207.834 27.4082 206.52 27.4082 204.904V188.12C27.4082 186.503 28.7207 185.19 30.3379 185.19H47.1221C48.7393 185.19 50.0518 186.504 50.0518 188.12V204.904C50.0518 206.522 48.7393 207.834 47.1221 207.834ZM33.2676 201.972H44.1924V191.048H33.2676V201.972Z" fill="#C19444"/>
<path d="M219.026 144.254H202.242C200.625 144.254 199.312 142.94 199.312 141.324V124.54C199.312 122.923 200.626 121.61 202.242 121.61H219.026C220.644 121.61 221.956 122.923 221.956 124.54V141.324C221.959 142.941 220.645 144.254 219.026 144.254ZM205.175 138.393H216.097V127.47H205.175V138.393Z" fill="#C19444"/>
<path d="M219.026 176.043H202.242C200.625 176.043 199.312 174.729 199.312 173.113V156.329C199.312 154.711 200.626 153.399 202.242 153.399H219.026C220.644 153.399 221.956 154.713 221.956 156.329V173.113C221.959 174.732 220.645 176.043 219.026 176.043ZM205.175 170.182H216.097V159.258L205.175 159.257V170.18V170.182Z" fill="#C19444"/>
<path d="M219.026 207.834H202.242C200.625 207.834 199.312 206.52 199.312 204.904V188.12C199.312 186.503 200.626 185.19 202.242 185.19H219.026C220.644 185.19 221.956 186.504 221.956 188.12V204.904C221.959 206.522 220.645 207.834 219.026 207.834ZM205.175 201.972H216.097V191.048H205.175V201.972Z" fill="#C19444"/>
<path d="M124.022 79.7581C123.691 79.7581 123.36 79.7039 123.045 79.5881L86.5645 66.6726C85.3955 66.258 84.6133 65.1535 84.6133 63.9142C84.6133 62.675 85.3926 61.5676 86.563 61.1515L121.782 48.6227C122.417 48.3986 123.111 48.3986 123.745 48.6227L158.969 61.1515C160.125 61.5646 160.903 62.653 160.916 63.8806C160.93 65.1096 160.178 66.2141 159.028 66.6521L125.064 79.5676C124.728 79.6936 124.375 79.7595 124.022 79.7595V79.7581ZM96.3028 63.9069L123.986 73.7082L149.503 64.0036L122.764 54.4938L96.3028 63.9084V63.9069Z" fill="#C19444"/>
<path d="M147.161 93.8572H100.4C98.7832 93.8572 97.4707 92.5447 97.4707 90.9275V68.4655C97.4707 67.5134 97.9321 66.6228 98.71 66.0734C99.4878 65.5241 100.484 65.3894 101.379 65.7028L123.989 73.7068L146.121 65.2897C147.022 64.9484 148.03 65.07 148.825 65.6179C149.619 66.1657 150.092 67.0666 150.092 68.0305V90.929C150.091 92.5477 148.78 93.8587 147.161 93.8587V93.8572ZM103.33 87.9978H144.232V72.2785L125.066 79.5676C124.418 79.8152 123.7 79.824 123.047 79.5896L103.333 72.6096V87.9993H103.33V87.9978Z" fill="#C19444"/>
<path d="M157.986 78.356C156.369 78.356 155.057 77.0435 155.057 75.4263V63.9111C155.057 62.294 156.371 60.9814 157.986 60.9814C159.602 60.9814 160.916 62.294 160.916 63.9111V75.4263C160.917 77.0464 159.604 78.356 157.986 78.356Z" fill="#C19444"/>
<path d="M141.624 196.082H134.344C132.727 196.082 131.414 194.768 131.414 193.152C131.414 191.536 132.728 190.222 134.344 190.222H141.624C143.241 190.222 144.554 191.536 144.554 193.152C144.554 194.768 143.241 196.082 141.624 196.082Z" fill="#C19444"/>
<path d="M115.655 196.082H108.375C106.758 196.082 105.445 194.768 105.445 193.152C105.445 191.536 106.758 190.222 108.375 190.222H115.655C117.272 190.222 118.585 191.536 118.585 193.152C118.585 194.768 117.272 196.082 115.655 196.082Z" fill="#C19444"/>
</g>
<defs>
<clipPath id="clip0_1_19756">
<rect width="250" height="250" fill="white"/>
</clipPath>
</defs>
</svg>
