<svg width="40" height="40" viewBox="0 0 40 40" fill="none" xmlns="http://www.w3.org/2000/svg">
<g clip-path="url(#clip0_1_3460)">
<path d="M20.0009 8.47017C17.6658 8.47017 15.7659 6.57042 15.7659 4.23513C15.7659 1.89984 17.6658 0 20.0009 0C22.336 0 24.236 1.89975 24.236 4.23504C24.236 6.57033 22.3361 8.47017 20.0009 8.47017ZM20.0009 1.41168C18.444 1.41168 17.1776 2.67815 17.1776 4.23504C17.1776 5.79193 18.444 7.0584 20.0009 7.0584C21.5578 7.0584 22.8243 5.79193 22.8243 4.23504C22.8243 2.67815 21.5579 1.41168 20.0009 1.41168Z" fill="#3A556A"/>
<path d="M33.6453 10.066V37.4152C33.6453 38.8457 32.4924 40.0033 31.0619 40.0033H8.94066C7.51019 40.0033 6.35254 38.8457 6.35254 37.4152V10.066C6.35254 7.10619 8.7524 4.71094 11.7123 4.71094H28.2902C31.2501 4.71102 33.6453 7.10619 33.6453 10.066Z" fill="#FCD462"/>
<path d="M29.41 24.7789V35.8417C29.41 36.6182 28.7794 37.2534 27.9983 37.2534H11.9991C11.2226 37.2534 10.5874 36.6182 10.5874 35.8417V24.7789C10.5874 23.9976 11.2226 23.3672 11.9991 23.3672H27.9982C28.7794 23.3672 29.41 23.9976 29.41 24.7789Z" fill="#27A2DB"/>
<path d="M15.766 25.0078H14.3542V26.4196H15.766V25.0078Z" fill="#3A556A"/>
<path d="M17.1774 26.4219H15.7656V27.8336H17.1774V26.4219Z" fill="#3A556A"/>
<path d="M12.9425 25.0078H11.5308V26.4196H12.9425V25.0078Z" fill="#3A556A"/>
<path d="M14.3541 26.4219H12.9424V27.8336H14.3541V26.4219Z" fill="#3A556A"/>
<path d="M18.5895 25.0078H17.1777V26.4196H18.5895V25.0078Z" fill="#3A556A"/>
<path d="M20.0041 26.4219H18.5923V27.8336H20.0041V26.4219Z" fill="#3A556A"/>
<path d="M21.4118 25.0078H20V26.4196H21.4118V25.0078Z" fill="#3A556A"/>
<path d="M22.8249 26.4219H21.4131V27.8336H22.8249V26.4219Z" fill="#3A556A"/>
<path d="M24.2384 25.0078H22.8267V26.4196H24.2384V25.0078Z" fill="#3A556A"/>
<path d="M25.6481 26.4219H24.2363V27.8336H25.6481V26.4219Z" fill="#3A556A"/>
<path d="M27.06 25.0078H25.6482V26.4196H27.06V25.0078Z" fill="#3A556A"/>
<path d="M28.4733 26.4219H27.0615V27.8336H28.4733V26.4219Z" fill="#3A556A"/>
<path d="M14.8988 31.5299C14.4954 32.0692 12.8015 32.0692 12.3982 31.5299C11.8664 30.8187 12.951 27.8594 12.951 27.8594H14.3461C14.3461 27.8594 15.4307 30.8186 14.8988 31.5299Z" fill="#64798A"/>
<path d="M13.6479 31.2295C14.0976 31.2295 14.4622 30.8178 14.4622 30.3101C14.4622 29.8023 14.0976 29.3906 13.6479 29.3906C13.1981 29.3906 12.8335 29.8023 12.8335 30.3101C12.8335 30.8178 13.1981 31.2295 13.6479 31.2295Z" fill="#E1E6E9"/>
<path d="M29.41 34.4062V35.8414C29.41 36.6179 28.7794 37.2531 27.9983 37.2531H11.9991C11.2226 37.2531 10.5874 36.6179 10.5874 35.8414V34.4062H29.41Z" fill="#2D93BA"/>
<path d="M36.1626 22.5178V34.1596C36.1626 35.5525 35.0379 36.6771 33.645 36.6771V21.1484H34.7932C35.5508 21.1484 36.1626 21.7602 36.1626 22.5178Z" fill="#44C4A1"/>
<path d="M36.1626 22.5178V25.0071H33.645V21.1484H34.7932C35.5508 21.1484 36.1626 21.7602 36.1626 22.5178Z" fill="#E1E6E9"/>
<path d="M3.8374 22.5178V34.1596C3.8374 35.5525 4.96208 36.6771 6.35497 36.6771V21.1484H5.20672C4.44916 21.1484 3.8374 21.7602 3.8374 22.5178Z" fill="#44C4A1"/>
<path d="M3.8374 22.5178V25.0071H6.35497V21.1484H5.20672C4.44916 21.1484 3.8374 21.7602 3.8374 22.5178Z" fill="#E1E6E9"/>
<path d="M33.6452 10.0661V13.0164C30.2148 15.6422 25.3727 17.2797 19.9989 17.2797C14.6251 17.2797 9.77826 15.6422 6.35254 13.0118V10.066C6.35254 7.10619 8.7524 4.71094 11.7123 4.71094H28.2902C31.25 4.71111 33.6452 7.10628 33.6452 10.0661Z" fill="#F6C358"/>
<path d="M13.6485 21.1466C12.8688 21.1466 12.2368 20.5146 12.2368 19.7349V4.70312H15.0602V19.7349C15.0602 20.5145 14.4281 21.1466 13.6485 21.1466Z" fill="#E56353"/>
<path d="M26.3538 21.1466C25.5741 21.1466 24.9421 20.5146 24.9421 19.7349V4.70312H27.7655V19.7349C27.7655 20.5145 27.1334 21.1466 26.3538 21.1466Z" fill="#E56353"/>
<path d="M27.7979 14.125H24.9093C24.6733 14.125 24.4736 14.3 24.4428 14.5341L24.06 17.4407C23.9857 18.0045 24.4244 18.5047 24.9931 18.5047H27.7142C28.2828 18.5047 28.7215 18.0045 28.6473 17.4407L28.2644 14.5341C28.2336 14.3 28.0341 14.125 27.7979 14.125Z" fill="#64798A"/>
<path d="M28.6257 17.2734C28.5283 17.6836 28.1642 17.9985 27.7143 17.9985H24.9931C24.5431 17.9985 24.1789 17.6835 24.0816 17.2734L24.06 17.4372C23.9857 18.0009 24.4244 18.5012 24.9931 18.5012H27.7143C28.2829 18.5012 28.7216 18.0009 28.6473 17.4372L28.6257 17.2734Z" fill="#3A556A"/>
<path d="M15.0928 14.125H12.2043C11.9682 14.125 11.7686 14.3 11.7377 14.5341L11.3549 17.4407C11.2807 18.0045 11.7194 18.5047 12.288 18.5047H15.0091C15.5777 18.5047 16.0164 18.0045 15.9422 17.4407L15.5593 14.5341C15.5285 14.3 15.329 14.125 15.0928 14.125Z" fill="#64798A"/>
<path d="M15.9207 17.2734C15.8232 17.6836 15.4592 17.9985 15.0092 17.9985H12.288C11.838 17.9985 11.4739 17.6835 11.3765 17.2734L11.3549 17.4372C11.2807 18.0009 11.7194 18.5012 12.288 18.5012H15.0092C15.5778 18.5012 16.0165 18.0009 15.9423 17.4372L15.9207 17.2734Z" fill="#3A556A"/>
</g>
<defs>
<clipPath id="clip0_1_3460">
<rect width="40" height="40" fill="white"/>
</clipPath>
</defs>
</svg>
