<svg width="30" height="24" viewBox="0 0 30 24" fill="none" xmlns="http://www.w3.org/2000/svg">
<path d="M15.009 21.3535C15.009 21.882 14.7037 22.3621 14.2258 22.5862C14.041 22.6736 13.8431 22.7158 13.6464 22.7158C13.3349 22.7158 13.0263 22.6088 12.777 22.4021L5.32911 16.2304H1.36235C0.610073 16.2311 0 15.6207 0 14.8684V9.4406C0 8.68801 0.610073 8.07793 1.36235 8.07793H5.32943L12.7774 1.90626C13.1843 1.56898 13.7486 1.49708 14.2261 1.72279C14.7037 1.94689 15.0094 2.42734 15.0094 2.95551L15.009 21.3535ZM20.2446 19.2247C20.2114 19.2269 20.1795 19.2282 20.1466 19.2282C19.7868 19.2282 19.4398 19.086 19.1835 18.8293L19.0013 18.6465C18.5234 18.1696 18.4673 17.4141 18.8697 16.8718C19.8899 15.4962 20.4284 13.8656 20.4284 12.155C20.4284 10.3151 19.8171 8.58934 18.6601 7.16411C18.2197 6.6224 18.2603 5.83563 18.7539 5.34228L18.9358 5.1601C19.208 4.88795 19.5726 4.73962 19.9673 4.76316C20.3517 4.78251 20.7106 4.9634 20.9543 5.26134C22.5592 7.22506 23.4069 9.60925 23.4069 12.1553C23.4069 14.5266 22.6572 16.7837 21.2384 18.6817C21.0014 18.998 20.639 19.1966 20.2446 19.2247ZM25.8772 23.4349C25.6308 23.7261 25.2745 23.9008 24.8931 23.9169C24.8743 23.9176 24.8553 23.9182 24.836 23.9182C24.4752 23.9182 24.1289 23.7757 23.8725 23.5194L23.6935 23.3404C23.1934 22.8406 23.1596 22.0413 23.6142 21.5002C25.8114 18.8871 27.0219 15.5684 27.0219 12.155C27.0219 8.60449 25.7259 5.18654 23.3737 2.53085C22.8968 1.99171 22.921 1.17559 23.4285 0.666125L23.6071 0.487166C23.8722 0.220823 24.2166 0.0741091 24.6116 0.0866846C24.9866 0.0973254 25.3413 0.263064 25.5905 0.543595C28.4339 3.74487 30 7.86899 30 12.155C30.0006 16.2788 28.5364 20.2849 25.8772 23.4349Z" fill="#C19444"/>
</svg>
