<svg width="30" height="30" viewBox="0 0 30 30" fill="none" xmlns="http://www.w3.org/2000/svg">
<g clip-path="url(#clip0_1_12987)">
<path d="M26.8421 24.6042C26.6965 24.6042 26.5487 24.568 26.4127 24.4916C25.9894 24.254 25.8389 23.7182 26.0765 23.295C27.4933 20.7712 28.2422 17.9029 28.2422 15C28.2422 12.0974 27.4935 9.2293 26.0769 6.70576C25.8393 6.28247 25.9899 5.74669 26.4132 5.50914C26.8364 5.27148 27.3722 5.42213 27.6098 5.84536C29.1734 8.63111 30 11.7967 30 15C30 18.2037 29.1734 21.3696 27.6094 24.1555C27.448 24.4426 27.1496 24.6042 26.8421 24.6042Z" fill="#C19444"/>
<path d="M23.6658 22.0996C23.5331 22.0996 23.3984 22.0694 23.2717 22.0057C22.838 21.7878 22.6632 21.2594 22.8812 20.8257C23.7963 19.0052 24.2603 17.0447 24.2603 14.9986C24.2603 12.9528 23.7964 10.9926 22.8815 9.17226C22.6636 8.73854 22.8384 8.21026 23.2722 7.99229C23.7058 7.7742 24.2342 7.94916 24.4522 8.38293C25.4912 10.4504 26.0181 12.6762 26.0181 14.9987C26.0181 17.3215 25.4911 19.5476 24.4518 21.6153C24.2974 21.9223 23.9875 22.0996 23.6658 22.0996Z" fill="#C19444"/>
<path d="M20.4489 19.5655C20.3401 19.5655 20.2295 19.5452 20.1224 19.5022C19.6718 19.3217 19.4528 18.8101 19.6333 18.3595C20.0614 17.291 20.2785 16.1607 20.2785 15.0001C20.2785 13.8398 20.0615 12.7098 19.6337 11.6415C19.4532 11.1909 19.6722 10.6792 20.1228 10.4988C20.5734 10.3183 21.085 10.5374 21.2655 10.988C21.777 12.2651 22.0363 13.615 22.0363 15.0001C22.0363 16.3857 21.7768 17.7359 21.2651 19.0132C21.1275 19.3566 20.7976 19.5655 20.4489 19.5655Z" fill="#C19444"/>
<path d="M7.81409 9.56641H2.63675C1.18285 9.56641 0 10.7493 0 12.2032V17.7966C0 19.2505 1.18285 20.4333 2.63675 20.4333H7.6365L7.81409 9.56641Z" fill="#C19444"/>
<path d="M17.3424 3.50657C17.0378 3.36026 16.6763 3.40157 16.4125 3.6128L9.58 9.08424L9.38916 20.7613L16.4125 26.3856C16.5714 26.5129 16.7658 26.5785 16.962 26.5785C17.0913 26.5785 17.2214 26.5499 17.3424 26.4918C17.647 26.3455 17.8408 26.0375 17.8408 25.6996V4.29883C17.8408 3.96086 17.647 3.65288 17.3424 3.50657Z" fill="#C19444"/>
</g>
<defs>
<clipPath id="clip0_1_12987">
<rect width="30" height="30" fill="white"/>
</clipPath>
</defs>
</svg>
