<svg width="331" height="88" viewBox="0 0 331 88" fill="none" xmlns="http://www.w3.org/2000/svg">
<rect x="305.5" y="44.5" width="1" height="279" transform="rotate(90 305.5 44.5)" fill="white" stroke="#CECECE" stroke-dasharray="5 5"/>
<circle cx="24.2493" cy="41.4566" r="6.65217" fill="white"/>
<g filter="url(#filter0_d_1_14657)">
<path fill-rule="evenodd" clip-rule="evenodd" d="M15 42C15 39.6131 15.9482 37.3239 17.636 35.636C19.3239 33.9482 21.6131 33 24 33C26.3869 33 28.6761 33.9482 30.364 35.636C32.0518 37.3239 33 39.6131 33 42C33 44.3869 32.0518 46.6761 30.364 48.364C28.6761 50.0518 26.3869 51 24 51C21.6131 51 19.3239 50.0518 17.636 48.364C15.9482 46.6761 15 44.3869 15 42V42ZM23.4864 45.852L28.668 39.3744L27.732 38.6256L23.3136 44.1468L20.184 41.5392L19.416 42.4608L23.4864 45.8532V45.852Z" fill="#C19444"/>
<path d="M16.9289 34.9289C15.2908 36.5671 14.2797 38.7151 14.0501 41H14V42C14 44.6522 15.0536 47.1957 16.9289 49.0711C18.8043 50.9464 21.3478 52 24 52C26.6522 52 29.1957 50.9464 31.0711 49.0711C32.9464 47.1957 34 44.6522 34 42C34 39.3478 32.9464 36.8043 31.0711 34.9289C29.1957 33.0536 26.6522 32 24 32C21.3478 32 18.8043 33.0536 16.9289 34.9289Z" stroke="white" stroke-width="2"/>
</g>
<path d="M1.18945 11V2.41016H4.83984C5.75781 2.41016 6.42383 2.48828 6.83789 2.64453C7.25586 2.79688 7.58984 3.07031 7.83984 3.46484C8.08984 3.85937 8.21484 4.31055 8.21484 4.81836C8.21484 5.46289 8.02539 5.99609 7.64648 6.41797C7.26758 6.83594 6.70117 7.09961 5.94727 7.20898C6.32227 7.42773 6.63086 7.66797 6.87305 7.92969C7.11914 8.19141 7.44922 8.65625 7.86328 9.32422L8.91211 11H6.83789L5.58398 9.13086C5.13867 8.46289 4.83398 8.04297 4.66992 7.87109C4.50586 7.69531 4.33203 7.57617 4.14844 7.51367C3.96484 7.44727 3.67383 7.41406 3.27539 7.41406H2.92383V11H1.18945ZM2.92383 6.04297H4.20703C5.03906 6.04297 5.55859 6.00781 5.76562 5.9375C5.97266 5.86719 6.13477 5.74609 6.25195 5.57422C6.36914 5.40234 6.42773 5.1875 6.42773 4.92969C6.42773 4.64062 6.34961 4.4082 6.19336 4.23242C6.04102 4.05273 5.82422 3.93945 5.54297 3.89258C5.40234 3.87305 4.98047 3.86328 4.27734 3.86328H2.92383V6.04297ZM13.4473 9.01953L15.0879 9.29492C14.877 9.89648 14.543 10.3555 14.0859 10.6719C13.6328 10.9844 13.0645 11.1406 12.3809 11.1406C11.2988 11.1406 10.498 10.7871 9.97852 10.0801C9.56836 9.51367 9.36328 8.79883 9.36328 7.93555C9.36328 6.9043 9.63281 6.09766 10.1719 5.51562C10.7109 4.92969 11.3926 4.63672 12.2168 4.63672C13.1426 4.63672 13.873 4.94336 14.4082 5.55664C14.9434 6.16602 15.1992 7.10156 15.1758 8.36328H11.0508C11.0625 8.85156 11.1953 9.23242 11.4492 9.50586C11.7031 9.77539 12.0195 9.91016 12.3984 9.91016C12.6562 9.91016 12.873 9.83984 13.0488 9.69922C13.2246 9.55859 13.3574 9.33203 13.4473 9.01953ZM13.541 7.35547C13.5293 6.87891 13.4062 6.51758 13.1719 6.27148C12.9375 6.02148 12.6523 5.89648 12.3164 5.89648C11.957 5.89648 11.6602 6.02734 11.4258 6.28906C11.1914 6.55078 11.0762 6.90625 11.0801 7.35547H13.541ZM20.5898 13.3672V10.2383C20.375 10.5156 20.1074 10.7363 19.7871 10.9004C19.4668 11.0605 19.1211 11.1406 18.75 11.1406C18.043 11.1406 17.4609 10.875 17.0039 10.3438C16.4648 9.72266 16.1953 8.88086 16.1953 7.81836C16.1953 6.81836 16.4473 6.03906 16.9512 5.48047C17.459 4.91797 18.0879 4.63672 18.8379 4.63672C19.252 4.63672 19.6094 4.72461 19.9102 4.90039C20.2148 5.07617 20.4844 5.3418 20.7188 5.69727V4.77734H22.2363V13.3672H20.5898ZM20.6426 7.8125C20.6426 7.17578 20.5117 6.70312 20.25 6.39453C19.9922 6.08203 19.668 5.92578 19.2773 5.92578C18.8789 5.92578 18.5449 6.08398 18.2754 6.40039C18.0098 6.7168 17.877 7.21875 17.877 7.90625C17.877 8.58984 18.0059 9.08398 18.2637 9.38867C18.5215 9.68945 18.8398 9.83984 19.2188 9.83984C19.5977 9.83984 19.9297 9.66992 20.2148 9.33008C20.5 8.99023 20.6426 8.48438 20.6426 7.8125ZM27.9551 11V10.0684C27.7285 10.4004 27.4297 10.6621 27.0586 10.8535C26.6914 11.0449 26.3027 11.1406 25.8926 11.1406C25.4746 11.1406 25.0996 11.0488 24.7676 10.8652C24.4355 10.6816 24.1953 10.4238 24.0469 10.0918C23.8984 9.75977 23.8242 9.30078 23.8242 8.71484V4.77734H25.4707V7.63672C25.4707 8.51172 25.5 9.04883 25.5586 9.24805C25.6211 9.44336 25.7324 9.59961 25.8926 9.7168C26.0527 9.83008 26.2559 9.88672 26.502 9.88672C26.7832 9.88672 27.0352 9.81055 27.2578 9.6582C27.4805 9.50195 27.6328 9.31055 27.7148 9.08398C27.7969 8.85352 27.8379 8.29297 27.8379 7.40234V4.77734H29.4844V11H27.9551ZM34.7988 9.01953L36.4395 9.29492C36.2285 9.89648 35.8945 10.3555 35.4375 10.6719C34.9844 10.9844 34.416 11.1406 33.7324 11.1406C32.6504 11.1406 31.8496 10.7871 31.3301 10.0801C30.9199 9.51367 30.7148 8.79883 30.7148 7.93555C30.7148 6.9043 30.9844 6.09766 31.5234 5.51562C32.0625 4.92969 32.7441 4.63672 33.5684 4.63672C34.4941 4.63672 35.2246 4.94336 35.7598 5.55664C36.2949 6.16602 36.5508 7.10156 36.5273 8.36328H32.4023C32.4141 8.85156 32.5469 9.23242 32.8008 9.50586C33.0547 9.77539 33.3711 9.91016 33.75 9.91016C34.0078 9.91016 34.2246 9.83984 34.4004 9.69922C34.5762 9.55859 34.709 9.33203 34.7988 9.01953ZM34.8926 7.35547C34.8809 6.87891 34.7578 6.51758 34.5234 6.27148C34.2891 6.02148 34.0039 5.89648 33.668 5.89648C33.3086 5.89648 33.0117 6.02734 32.7773 6.28906C32.543 6.55078 32.4277 6.90625 32.4316 7.35547H34.8926ZM37.2949 9.22461L38.9473 8.97266C39.0176 9.29297 39.1602 9.53711 39.375 9.70508C39.5898 9.86914 39.8906 9.95117 40.2773 9.95117C40.7031 9.95117 41.0234 9.87305 41.2383 9.7168C41.3828 9.60742 41.4551 9.46094 41.4551 9.27734C41.4551 9.15234 41.416 9.04883 41.3379 8.9668C41.2559 8.88867 41.0723 8.81641 40.7871 8.75C39.459 8.45703 38.6172 8.18945 38.2617 7.94727C37.7695 7.61133 37.5234 7.14453 37.5234 6.54688C37.5234 6.00781 37.7363 5.55469 38.1621 5.1875C38.5879 4.82031 39.248 4.63672 40.1426 4.63672C40.9941 4.63672 41.627 4.77539 42.041 5.05273C42.4551 5.33008 42.7402 5.74023 42.8965 6.2832L41.3438 6.57031C41.2773 6.32812 41.1504 6.14258 40.9629 6.01367C40.7793 5.88477 40.5156 5.82031 40.1719 5.82031C39.7383 5.82031 39.4277 5.88086 39.2402 6.00195C39.1152 6.08789 39.0527 6.19922 39.0527 6.33594C39.0527 6.45312 39.1074 6.55273 39.2168 6.63477C39.3652 6.74414 39.877 6.89844 40.752 7.09766C41.6309 7.29688 42.2441 7.54102 42.5918 7.83008C42.9355 8.12305 43.1074 8.53125 43.1074 9.05469C43.1074 9.625 42.8691 10.1152 42.3926 10.5254C41.916 10.9355 41.2109 11.1406 40.2773 11.1406C39.4297 11.1406 38.7578 10.9688 38.2617 10.625C37.7695 10.2812 37.4473 9.81445 37.2949 9.22461ZM47.4082 4.77734V6.08984H46.2832V8.59766C46.2832 9.10547 46.293 9.40234 46.3125 9.48828C46.3359 9.57031 46.3848 9.63867 46.459 9.69336C46.5371 9.74805 46.6309 9.77539 46.7402 9.77539C46.8926 9.77539 47.1133 9.72266 47.4023 9.61719L47.543 10.8945C47.1602 11.0586 46.7266 11.1406 46.2422 11.1406C45.9453 11.1406 45.6777 11.0918 45.4395 10.9941C45.2012 10.8926 45.0254 10.7637 44.9121 10.6074C44.8027 10.4473 44.7266 10.2324 44.6836 9.96289C44.6484 9.77148 44.6309 9.38477 44.6309 8.80273V6.08984H43.875V4.77734H44.6309V3.54102L46.2832 2.58008V4.77734H47.4082ZM5.18555 25V16.4102H8.83594C9.75391 16.4102 10.4199 16.4883 10.834 16.6445C11.252 16.7969 11.5859 17.0703 11.8359 17.4648C12.0859 17.8594 12.2109 18.3105 12.2109 18.8184C12.2109 19.4629 12.0215 19.9961 11.6426 20.418C11.2637 20.8359 10.6973 21.0996 9.94336 21.209C10.3184 21.4277 10.627 21.668 10.8691 21.9297C11.1152 22.1914 11.4453 22.6562 11.8594 23.3242L12.9082 25H10.834L9.58008 23.1309C9.13477 22.4629 8.83008 22.043 8.66602 21.8711C8.50195 21.6953 8.32812 21.5762 8.14453 21.5137C7.96094 21.4473 7.66992 21.4141 7.27148 21.4141H6.91992V25H5.18555ZM6.91992 20.043H8.20312C9.03516 20.043 9.55469 20.0078 9.76172 19.9375C9.96875 19.8672 10.1309 19.7461 10.248 19.5742C10.3652 19.4023 10.4238 19.1875 10.4238 18.9297C10.4238 18.6406 10.3457 18.4082 10.1895 18.2324C10.0371 18.0527 9.82031 17.9395 9.53906 17.8926C9.39844 17.873 8.97656 17.8633 8.27344 17.8633H6.91992V20.043ZM15.0703 20.6758L13.5762 20.4062C13.7441 19.8047 14.0332 19.3594 14.4434 19.0703C14.8535 18.7812 15.4629 18.6367 16.2715 18.6367C17.0059 18.6367 17.5527 18.7246 17.9121 18.9004C18.2715 19.0723 18.5234 19.293 18.668 19.5625C18.8164 19.8281 18.8906 20.3184 18.8906 21.0332L18.873 22.9551C18.873 23.502 18.8984 23.9062 18.9492 24.168C19.0039 24.4258 19.1035 24.7031 19.248 25H17.6191C17.5762 24.8906 17.5234 24.7285 17.4609 24.5137C17.4336 24.416 17.4141 24.3516 17.4023 24.3203C17.1211 24.5938 16.8203 24.7988 16.5 24.9355C16.1797 25.0723 15.8379 25.1406 15.4746 25.1406C14.834 25.1406 14.3281 24.9668 13.957 24.6191C13.5898 24.2715 13.4062 23.832 13.4062 23.3008C13.4062 22.9492 13.4902 22.6367 13.6582 22.3633C13.8262 22.0859 14.0605 21.875 14.3613 21.7305C14.666 21.582 15.1035 21.4531 15.6738 21.3438C16.4434 21.1992 16.9766 21.0645 17.2734 20.9395V20.7754C17.2734 20.459 17.1953 20.2344 17.0391 20.1016C16.8828 19.9648 16.5879 19.8965 16.1543 19.8965C15.8613 19.8965 15.6328 19.9551 15.4688 20.0723C15.3047 20.1855 15.1719 20.3867 15.0703 20.6758ZM17.2734 22.0117C17.0625 22.082 16.7285 22.166 16.2715 22.2637C15.8145 22.3613 15.5156 22.457 15.375 22.5508C15.1602 22.7031 15.0527 22.8965 15.0527 23.1309C15.0527 23.3613 15.1387 23.5605 15.3105 23.7285C15.4824 23.8965 15.7012 23.9805 15.9668 23.9805C16.2637 23.9805 16.5469 23.8828 16.8164 23.6875C17.0156 23.5391 17.1465 23.3574 17.209 23.1426C17.252 23.002 17.2734 22.7344 17.2734 22.3398V22.0117ZM20.5195 17.9336V16.4102H22.166V17.9336H20.5195ZM20.5195 25V18.7773H22.166V25H20.5195ZM23.2793 23.2246L24.9316 22.9727C25.002 23.293 25.1445 23.5371 25.3594 23.7051C25.5742 23.8691 25.875 23.9512 26.2617 23.9512C26.6875 23.9512 27.0078 23.873 27.2227 23.7168C27.3672 23.6074 27.4395 23.4609 27.4395 23.2773C27.4395 23.1523 27.4004 23.0488 27.3223 22.9668C27.2402 22.8887 27.0566 22.8164 26.7715 22.75C25.4434 22.457 24.6016 22.1895 24.2461 21.9473C23.7539 21.6113 23.5078 21.1445 23.5078 20.5469C23.5078 20.0078 23.7207 19.5547 24.1465 19.1875C24.5723 18.8203 25.2324 18.6367 26.127 18.6367C26.9785 18.6367 27.6113 18.7754 28.0254 19.0527C28.4395 19.3301 28.7246 19.7402 28.8809 20.2832L27.3281 20.5703C27.2617 20.3281 27.1348 20.1426 26.9473 20.0137C26.7637 19.8848 26.5 19.8203 26.1562 19.8203C25.7227 19.8203 25.4121 19.8809 25.2246 20.002C25.0996 20.0879 25.0371 20.1992 25.0371 20.3359C25.0371 20.4531 25.0918 20.5527 25.2012 20.6348C25.3496 20.7441 25.8613 20.8984 26.7363 21.0977C27.6152 21.2969 28.2285 21.541 28.5762 21.8301C28.9199 22.123 29.0918 22.5312 29.0918 23.0547C29.0918 23.625 28.8535 24.1152 28.377 24.5254C27.9004 24.9355 27.1953 25.1406 26.2617 25.1406C25.4141 25.1406 24.7422 24.9688 24.2461 24.625C23.7539 24.2812 23.4316 23.8145 23.2793 23.2246ZM34.1426 23.0195L35.7832 23.2949C35.5723 23.8965 35.2383 24.3555 34.7812 24.6719C34.3281 24.9844 33.7598 25.1406 33.0762 25.1406C31.9941 25.1406 31.1934 24.7871 30.6738 24.0801C30.2637 23.5137 30.0586 22.7988 30.0586 21.9355C30.0586 20.9043 30.3281 20.0977 30.8672 19.5156C31.4062 18.9297 32.0879 18.6367 32.9121 18.6367C33.8379 18.6367 34.5684 18.9434 35.1035 19.5566C35.6387 20.166 35.8945 21.1016 35.8711 22.3633H31.7461C31.7578 22.8516 31.8906 23.2324 32.1445 23.5059C32.3984 23.7754 32.7148 23.9102 33.0938 23.9102C33.3516 23.9102 33.5684 23.8398 33.7441 23.6992C33.9199 23.5586 34.0527 23.332 34.1426 23.0195ZM34.2363 21.3555C34.2246 20.8789 34.1016 20.5176 33.8672 20.2715C33.6328 20.0215 33.3477 19.8965 33.0117 19.8965C32.6523 19.8965 32.3555 20.0273 32.1211 20.2891C31.8867 20.5508 31.7715 20.9062 31.7754 21.3555H34.2363ZM42.9258 25H41.3965V24.0859C41.1426 24.4414 40.8418 24.707 40.4941 24.8828C40.1504 25.0547 39.8027 25.1406 39.4512 25.1406C38.7363 25.1406 38.123 24.8535 37.6113 24.2793C37.1035 23.7012 36.8496 22.8965 36.8496 21.8652C36.8496 20.8105 37.0977 20.0098 37.5938 19.4629C38.0898 18.9121 38.7168 18.6367 39.4746 18.6367C40.1699 18.6367 40.7715 18.9258 41.2793 19.5039V16.4102H42.9258V25ZM38.5312 21.7539C38.5312 22.418 38.623 22.8984 38.8066 23.1953C39.0723 23.625 39.4434 23.8398 39.9199 23.8398C40.2988 23.8398 40.6211 23.6797 40.8867 23.3594C41.1523 23.0352 41.2852 22.5527 41.2852 21.9121C41.2852 21.1973 41.1562 20.6836 40.8984 20.3711C40.6406 20.0547 40.3105 19.8965 39.9082 19.8965C39.5176 19.8965 39.1895 20.0527 38.9238 20.3652C38.6621 20.6738 38.5312 21.1367 38.5312 21.7539Z" fill="black"/>
<path d="M9.0252 66.9688L9.87969 66.8516C9.90247 67.3984 10.005 67.7728 10.1873 67.9746C10.3696 68.1764 10.6219 68.2773 10.9441 68.2773C11.1818 68.2773 11.3868 68.2236 11.5594 68.1162C11.7319 68.0055 11.8507 67.8574 11.9158 67.6719C11.9809 67.4831 12.0135 67.1836 12.0135 66.7734V61.8418H12.9607V66.7197C12.9607 67.3187 12.8875 67.7826 12.741 68.1113C12.5978 68.4401 12.3683 68.6908 12.0525 68.8633C11.74 69.0358 11.3722 69.1221 10.949 69.1221C10.3208 69.1221 9.839 68.9414 9.50371 68.5801C9.17168 68.2188 9.01217 67.6816 9.0252 66.9688ZM17.8947 69V68.2383C17.4911 68.8242 16.9426 69.1172 16.2492 69.1172C15.9432 69.1172 15.6568 69.0586 15.3898 68.9414C15.1262 68.8242 14.9292 68.6777 14.799 68.502C14.6721 68.3229 14.5826 68.1048 14.5305 67.8477C14.4947 67.6751 14.4768 67.4017 14.4768 67.0273V63.8145H15.3557V66.6904C15.3557 67.1494 15.3736 67.4587 15.4094 67.6182C15.4647 67.8493 15.5819 68.0316 15.7609 68.165C15.94 68.2952 16.1613 68.3604 16.425 68.3604C16.6887 68.3604 16.9361 68.2936 17.1672 68.1602C17.3983 68.0234 17.5611 67.8395 17.6555 67.6084C17.7531 67.374 17.802 67.0355 17.802 66.5928V63.8145H18.6809V69H17.8947ZM20.1432 69V61.8418H21.0221V69H20.1432ZM22.4502 70.9971L22.3525 70.1719C22.5446 70.224 22.7122 70.25 22.8555 70.25C23.0508 70.25 23.207 70.2174 23.3242 70.1523C23.4414 70.0872 23.5374 69.9961 23.6123 69.8789C23.6676 69.791 23.7572 69.5729 23.8809 69.2246C23.8971 69.1758 23.9232 69.1042 23.959 69.0098L21.9912 63.8145H22.9385L24.0176 66.8174C24.1576 67.1982 24.2829 67.5986 24.3936 68.0186C24.4945 67.6149 24.6149 67.221 24.7549 66.8369L25.8633 63.8145H26.7422L24.7695 69.0879C24.5579 69.6576 24.3936 70.0498 24.2764 70.2646C24.1201 70.5544 23.9411 70.766 23.7393 70.8994C23.5374 71.0361 23.2965 71.1045 23.0166 71.1045C22.8473 71.1045 22.6585 71.0687 22.4502 70.9971ZM34.8475 68.1553V69H30.116C30.1095 68.7884 30.1437 68.585 30.2186 68.3896C30.339 68.0674 30.5311 67.75 30.7947 67.4375C31.0617 67.125 31.4458 66.7637 31.9471 66.3535C32.7251 65.7155 33.2508 65.2109 33.5242 64.8398C33.7977 64.4655 33.9344 64.1123 33.9344 63.7803C33.9344 63.432 33.8091 63.139 33.5584 62.9014C33.311 62.6605 32.9871 62.54 32.5867 62.54C32.1635 62.54 31.825 62.667 31.5711 62.9209C31.3172 63.1748 31.1886 63.5264 31.1854 63.9756L30.282 63.8828C30.3439 63.209 30.5766 62.6963 30.9803 62.3447C31.3839 61.9899 31.9259 61.8125 32.6063 61.8125C33.2931 61.8125 33.8367 62.0029 34.2371 62.3838C34.6375 62.7646 34.8377 63.2367 34.8377 63.7998C34.8377 64.0863 34.7791 64.3678 34.6619 64.6445C34.5447 64.9212 34.3494 65.2126 34.076 65.5186C33.8058 65.8245 33.3549 66.2445 32.7234 66.7783C32.1961 67.221 31.8576 67.5221 31.7078 67.6816C31.5581 67.8379 31.4344 67.9958 31.3367 68.1553H34.8475ZM36.3684 69V67.999H37.3693V69C37.3693 69.3678 37.3042 69.6641 37.174 69.8887C37.0438 70.1165 36.8371 70.2923 36.5539 70.416L36.3098 70.04C36.4953 69.9587 36.632 69.8382 36.7199 69.6787C36.8078 69.5225 36.8566 69.2962 36.8664 69H36.3684ZM7.77637 80.1182C7.41178 79.9847 7.1416 79.7943 6.96582 79.5469C6.79004 79.2995 6.70215 79.0033 6.70215 78.6582C6.70215 78.1374 6.88932 77.6995 7.26367 77.3447C7.63802 76.9899 8.13607 76.8125 8.75781 76.8125C9.38281 76.8125 9.88574 76.9948 10.2666 77.3594C10.6475 77.7207 10.8379 78.1618 10.8379 78.6826C10.8379 79.0146 10.75 79.3044 10.5742 79.5518C10.4017 79.7959 10.138 79.9847 9.7832 80.1182C10.2227 80.2614 10.5563 80.4925 10.7842 80.8115C11.0153 81.1305 11.1309 81.5114 11.1309 81.9541C11.1309 82.5661 10.9144 83.0804 10.4814 83.4971C10.0485 83.9137 9.47884 84.1221 8.77246 84.1221C8.06608 84.1221 7.49642 83.9137 7.06348 83.4971C6.63053 83.0771 6.41406 82.5547 6.41406 81.9297C6.41406 81.4642 6.53125 81.0752 6.76562 80.7627C7.00326 80.4469 7.34017 80.2321 7.77637 80.1182ZM7.60059 78.6289C7.60059 78.9674 7.70964 79.2441 7.92773 79.459C8.14583 79.6738 8.42904 79.7812 8.77734 79.7812C9.11589 79.7812 9.39258 79.6755 9.60742 79.4639C9.82552 79.249 9.93457 78.987 9.93457 78.6777C9.93457 78.3555 9.82227 78.0853 9.59766 77.8672C9.3763 77.6458 9.09961 77.5352 8.76758 77.5352C8.43229 77.5352 8.15397 77.6426 7.93262 77.8574C7.71126 78.0723 7.60059 78.3294 7.60059 78.6289ZM7.31738 81.9346C7.31738 82.1852 7.37598 82.4277 7.49316 82.6621C7.61361 82.8965 7.79102 83.0788 8.02539 83.209C8.25977 83.3359 8.51204 83.3994 8.78223 83.3994C9.20215 83.3994 9.54883 83.2643 9.82227 82.9941C10.0957 82.724 10.2324 82.3805 10.2324 81.9639C10.2324 81.5407 10.0908 81.1908 9.80762 80.9141C9.52767 80.6374 9.17611 80.499 8.75293 80.499C8.33952 80.499 7.99609 80.6357 7.72266 80.9092C7.45247 81.1826 7.31738 81.5244 7.31738 81.9346ZM12.5785 79.8154V78.8145H13.5795V79.8154H12.5785ZM12.5785 84V82.999H13.5795V84H12.5785ZM14.9783 82.1104L15.8572 81.9932C15.9581 82.4912 16.129 82.8509 16.3699 83.0723C16.6141 83.2904 16.9103 83.3994 17.2586 83.3994C17.672 83.3994 18.0203 83.2562 18.3035 82.9697C18.59 82.6833 18.7332 82.3285 18.7332 81.9053C18.7332 81.5016 18.6014 81.1696 18.3377 80.9092C18.074 80.6455 17.7387 80.5137 17.3318 80.5137C17.1658 80.5137 16.9591 80.5462 16.7117 80.6113L16.8094 79.8398C16.868 79.8464 16.9152 79.8496 16.951 79.8496C17.3253 79.8496 17.6622 79.752 17.9617 79.5566C18.2612 79.3613 18.4109 79.0602 18.4109 78.6533C18.4109 78.3311 18.3019 78.0641 18.0838 77.8525C17.8657 77.641 17.5841 77.5352 17.2391 77.5352C16.8973 77.5352 16.6124 77.6426 16.3846 77.8574C16.1567 78.0723 16.0102 78.3945 15.9451 78.8242L15.0662 78.668C15.1736 78.0788 15.4178 77.623 15.7986 77.3008C16.1795 76.9753 16.6531 76.8125 17.2195 76.8125C17.6102 76.8125 17.9699 76.8971 18.2986 77.0664C18.6274 77.2324 18.8781 77.4603 19.0506 77.75C19.2264 78.0397 19.3143 78.3473 19.3143 78.6729C19.3143 78.9821 19.2312 79.2637 19.0652 79.5176C18.8992 79.7715 18.6535 79.9733 18.3279 80.123C18.7511 80.2207 19.0799 80.4242 19.3143 80.7334C19.5486 81.0394 19.6658 81.4235 19.6658 81.8857C19.6658 82.5107 19.438 83.0413 18.9822 83.4775C18.5265 83.9105 17.9503 84.127 17.2537 84.127C16.6255 84.127 16.103 83.9398 15.6863 83.5654C15.2729 83.1911 15.0369 82.7061 14.9783 82.1104ZM20.6398 80.4697C20.6398 79.6234 20.7261 78.943 20.8986 78.4287C21.0744 77.9111 21.3332 77.5124 21.675 77.2324C22.0201 76.9525 22.453 76.8125 22.9738 76.8125C23.3579 76.8125 23.6949 76.8906 23.9846 77.0469C24.2743 77.1999 24.5135 77.4229 24.7023 77.7158C24.8911 78.0055 25.0393 78.3604 25.1467 78.7803C25.2541 79.1969 25.3078 79.7601 25.3078 80.4697C25.3078 81.3096 25.2215 81.9883 25.049 82.5059C24.8765 83.0202 24.6177 83.4189 24.2727 83.7021C23.9309 83.9821 23.4979 84.1221 22.9738 84.1221C22.2837 84.1221 21.7417 83.8747 21.3479 83.3799C20.8758 82.7842 20.6398 81.8141 20.6398 80.4697ZM21.5432 80.4697C21.5432 81.6449 21.6799 82.4277 21.9533 82.8184C22.23 83.2057 22.5702 83.3994 22.9738 83.3994C23.3775 83.3994 23.716 83.2041 23.9895 82.8135C24.2661 82.4229 24.4045 81.6416 24.4045 80.4697C24.4045 79.2913 24.2661 78.5085 23.9895 78.1211C23.716 77.7337 23.3742 77.54 22.9641 77.54C22.5604 77.54 22.2382 77.7109 21.9973 78.0527C21.6945 78.4889 21.5432 79.2946 21.5432 80.4697ZM26.6627 84V76.8418H29.3629C29.8382 76.8418 30.2011 76.8646 30.4518 76.9102C30.8033 76.9688 31.0979 77.0811 31.3355 77.2471C31.5732 77.4098 31.7636 77.6393 31.9068 77.9355C32.0533 78.2318 32.1266 78.5573 32.1266 78.9121C32.1266 79.5208 31.9329 80.0368 31.5455 80.46C31.1581 80.8799 30.4583 81.0898 29.4459 81.0898H27.61V84H26.6627ZM27.61 80.2451H29.4605C30.0725 80.2451 30.5071 80.1312 30.7643 79.9033C31.0214 79.6755 31.15 79.3548 31.15 78.9414C31.15 78.6419 31.0735 78.3864 30.9205 78.1748C30.7708 77.96 30.5722 77.8184 30.3248 77.75C30.1653 77.7077 29.8707 77.6865 29.441 77.6865H27.61V80.2451ZM33.4033 84V76.8418H34.8291L36.5234 81.9102C36.6797 82.3822 36.7936 82.7354 36.8652 82.9697C36.9466 82.7093 37.0736 82.3268 37.2461 81.8223L38.96 76.8418H40.2344V84H39.3213V78.0088L37.2412 84H36.3867L34.3164 77.9062V84H33.4033Z" fill="#9D9D9D"/>
<circle cx="117.25" cy="41.4569" r="6.65217" fill="white"/>
<g filter="url(#filter1_d_1_14657)">
<path fill-rule="evenodd" clip-rule="evenodd" d="M108 42C108 39.6131 108.948 37.3239 110.636 35.636C112.324 33.9482 114.613 33 117 33C119.387 33 121.676 33.9482 123.364 35.636C125.052 37.3239 126 39.6131 126 42C126 44.3869 125.052 46.6761 123.364 48.364C121.676 50.0518 119.387 51 117 51C114.613 51 112.324 50.0518 110.636 48.364C108.948 46.6761 108 44.3869 108 42V42ZM116.486 45.852L121.668 39.3744L120.732 38.6256L116.314 44.1468L113.184 41.5392L112.416 42.4608L116.486 45.8532V45.852Z" fill="#C19444"/>
<path d="M109.929 34.9289C108.291 36.5671 107.28 38.7151 107.05 41H107V42C107 44.6522 108.054 47.1957 109.929 49.0711C111.804 50.9464 114.348 52 117 52C119.652 52 122.196 50.9464 124.071 49.0711C125.946 47.1957 127 44.6522 127 42C127 39.3478 125.946 36.8043 124.071 34.9289C122.196 33.0536 119.652 32 117 32C114.348 32 111.804 33.0536 109.929 34.9289Z" stroke="white" stroke-width="2"/>
</g>
<path d="M94.6895 11V2.41016H98.3398C99.2578 2.41016 99.9238 2.48828 100.338 2.64453C100.756 2.79688 101.09 3.07031 101.34 3.46484C101.59 3.85937 101.715 4.31055 101.715 4.81836C101.715 5.46289 101.525 5.99609 101.146 6.41797C100.768 6.83594 100.201 7.09961 99.4473 7.20898C99.8223 7.42773 100.131 7.66797 100.373 7.92969C100.619 8.19141 100.949 8.65625 101.363 9.32422L102.412 11H100.338L99.084 9.13086C98.6387 8.46289 98.334 8.04297 98.1699 7.87109C98.0059 7.69531 97.832 7.57617 97.6484 7.51367C97.4648 7.44727 97.1738 7.41406 96.7754 7.41406H96.4238V11H94.6895ZM96.4238 6.04297H97.707C98.5391 6.04297 99.0586 6.00781 99.2656 5.9375C99.4727 5.86719 99.6348 5.74609 99.752 5.57422C99.8691 5.40234 99.9277 5.1875 99.9277 4.92969C99.9277 4.64062 99.8496 4.4082 99.6934 4.23242C99.541 4.05273 99.3242 3.93945 99.043 3.89258C98.9023 3.87305 98.4805 3.86328 97.7773 3.86328H96.4238V6.04297ZM106.947 9.01953L108.588 9.29492C108.377 9.89648 108.043 10.3555 107.586 10.6719C107.133 10.9844 106.564 11.1406 105.881 11.1406C104.799 11.1406 103.998 10.7871 103.479 10.0801C103.068 9.51367 102.863 8.79883 102.863 7.93555C102.863 6.9043 103.133 6.09766 103.672 5.51562C104.211 4.92969 104.893 4.63672 105.717 4.63672C106.643 4.63672 107.373 4.94336 107.908 5.55664C108.443 6.16602 108.699 7.10156 108.676 8.36328H104.551C104.562 8.85156 104.695 9.23242 104.949 9.50586C105.203 9.77539 105.52 9.91016 105.898 9.91016C106.156 9.91016 106.373 9.83984 106.549 9.69922C106.725 9.55859 106.857 9.33203 106.947 9.01953ZM107.041 7.35547C107.029 6.87891 106.906 6.51758 106.672 6.27148C106.438 6.02148 106.152 5.89648 105.816 5.89648C105.457 5.89648 105.16 6.02734 104.926 6.28906C104.691 6.55078 104.576 6.90625 104.58 7.35547H107.041ZM114.09 13.3672V10.2383C113.875 10.5156 113.607 10.7363 113.287 10.9004C112.967 11.0605 112.621 11.1406 112.25 11.1406C111.543 11.1406 110.961 10.875 110.504 10.3438C109.965 9.72266 109.695 8.88086 109.695 7.81836C109.695 6.81836 109.947 6.03906 110.451 5.48047C110.959 4.91797 111.588 4.63672 112.338 4.63672C112.752 4.63672 113.109 4.72461 113.41 4.90039C113.715 5.07617 113.984 5.3418 114.219 5.69727V4.77734H115.736V13.3672H114.09ZM114.143 7.8125C114.143 7.17578 114.012 6.70312 113.75 6.39453C113.492 6.08203 113.168 5.92578 112.777 5.92578C112.379 5.92578 112.045 6.08398 111.775 6.40039C111.51 6.7168 111.377 7.21875 111.377 7.90625C111.377 8.58984 111.506 9.08398 111.764 9.38867C112.021 9.68945 112.34 9.83984 112.719 9.83984C113.098 9.83984 113.43 9.66992 113.715 9.33008C114 8.99023 114.143 8.48438 114.143 7.8125ZM121.455 11V10.0684C121.229 10.4004 120.93 10.6621 120.559 10.8535C120.191 11.0449 119.803 11.1406 119.393 11.1406C118.975 11.1406 118.6 11.0488 118.268 10.8652C117.936 10.6816 117.695 10.4238 117.547 10.0918C117.398 9.75977 117.324 9.30078 117.324 8.71484V4.77734H118.971V7.63672C118.971 8.51172 119 9.04883 119.059 9.24805C119.121 9.44336 119.232 9.59961 119.393 9.7168C119.553 9.83008 119.756 9.88672 120.002 9.88672C120.283 9.88672 120.535 9.81055 120.758 9.6582C120.98 9.50195 121.133 9.31055 121.215 9.08398C121.297 8.85352 121.338 8.29297 121.338 7.40234V4.77734H122.984V11H121.455ZM128.299 9.01953L129.939 9.29492C129.729 9.89648 129.395 10.3555 128.938 10.6719C128.484 10.9844 127.916 11.1406 127.232 11.1406C126.15 11.1406 125.35 10.7871 124.83 10.0801C124.42 9.51367 124.215 8.79883 124.215 7.93555C124.215 6.9043 124.484 6.09766 125.023 5.51562C125.562 4.92969 126.244 4.63672 127.068 4.63672C127.994 4.63672 128.725 4.94336 129.26 5.55664C129.795 6.16602 130.051 7.10156 130.027 8.36328H125.902C125.914 8.85156 126.047 9.23242 126.301 9.50586C126.555 9.77539 126.871 9.91016 127.25 9.91016C127.508 9.91016 127.725 9.83984 127.9 9.69922C128.076 9.55859 128.209 9.33203 128.299 9.01953ZM128.393 7.35547C128.381 6.87891 128.258 6.51758 128.023 6.27148C127.789 6.02148 127.504 5.89648 127.168 5.89648C126.809 5.89648 126.512 6.02734 126.277 6.28906C126.043 6.55078 125.928 6.90625 125.932 7.35547H128.393ZM130.795 9.22461L132.447 8.97266C132.518 9.29297 132.66 9.53711 132.875 9.70508C133.09 9.86914 133.391 9.95117 133.777 9.95117C134.203 9.95117 134.523 9.87305 134.738 9.7168C134.883 9.60742 134.955 9.46094 134.955 9.27734C134.955 9.15234 134.916 9.04883 134.838 8.9668C134.756 8.88867 134.572 8.81641 134.287 8.75C132.959 8.45703 132.117 8.18945 131.762 7.94727C131.27 7.61133 131.023 7.14453 131.023 6.54688C131.023 6.00781 131.236 5.55469 131.662 5.1875C132.088 4.82031 132.748 4.63672 133.643 4.63672C134.494 4.63672 135.127 4.77539 135.541 5.05273C135.955 5.33008 136.24 5.74023 136.396 6.2832L134.844 6.57031C134.777 6.32812 134.65 6.14258 134.463 6.01367C134.279 5.88477 134.016 5.82031 133.672 5.82031C133.238 5.82031 132.928 5.88086 132.74 6.00195C132.615 6.08789 132.553 6.19922 132.553 6.33594C132.553 6.45312 132.607 6.55273 132.717 6.63477C132.865 6.74414 133.377 6.89844 134.252 7.09766C135.131 7.29688 135.744 7.54102 136.092 7.83008C136.436 8.12305 136.607 8.53125 136.607 9.05469C136.607 9.625 136.369 10.1152 135.893 10.5254C135.416 10.9355 134.711 11.1406 133.777 11.1406C132.93 11.1406 132.258 10.9688 131.762 10.625C131.27 10.2812 130.947 9.81445 130.795 9.22461ZM140.908 4.77734V6.08984H139.783V8.59766C139.783 9.10547 139.793 9.40234 139.812 9.48828C139.836 9.57031 139.885 9.63867 139.959 9.69336C140.037 9.74805 140.131 9.77539 140.24 9.77539C140.393 9.77539 140.613 9.72266 140.902 9.61719L141.043 10.8945C140.66 11.0586 140.227 11.1406 139.742 11.1406C139.445 11.1406 139.178 11.0918 138.939 10.9941C138.701 10.8926 138.525 10.7637 138.412 10.6074C138.303 10.4473 138.227 10.2324 138.184 9.96289C138.148 9.77148 138.131 9.38477 138.131 8.80273V6.08984H137.375V4.77734H138.131V3.54102L139.783 2.58008V4.77734H140.908ZM99.0898 25H97.2031L96.4531 23.0488H93.0195L92.3105 25H90.4707L93.8164 16.4102H95.6504L99.0898 25ZM95.8965 21.6016L94.7129 18.4141L93.5527 21.6016H95.8965ZM105.43 20.6172L103.807 20.9102C103.752 20.5859 103.627 20.3418 103.432 20.1777C103.24 20.0137 102.99 19.9316 102.682 19.9316C102.271 19.9316 101.943 20.0742 101.697 20.3594C101.455 20.6406 101.334 21.1133 101.334 21.7773C101.334 22.5156 101.457 23.0371 101.703 23.3418C101.953 23.6465 102.287 23.7988 102.705 23.7988C103.018 23.7988 103.273 23.7109 103.473 23.5352C103.672 23.3555 103.812 23.0488 103.895 22.6152L105.512 22.8906C105.344 23.6328 105.021 24.1934 104.545 24.5723C104.068 24.9512 103.43 25.1406 102.629 25.1406C101.719 25.1406 100.992 24.8535 100.449 24.2793C99.9102 23.7051 99.6406 22.9102 99.6406 21.8945C99.6406 20.8672 99.9121 20.0684 100.455 19.498C100.998 18.9238 101.732 18.6367 102.658 18.6367C103.416 18.6367 104.018 18.8008 104.463 19.1289C104.912 19.4531 105.234 19.9492 105.43 20.6172ZM112.109 20.6172L110.486 20.9102C110.432 20.5859 110.307 20.3418 110.111 20.1777C109.92 20.0137 109.67 19.9316 109.361 19.9316C108.951 19.9316 108.623 20.0742 108.377 20.3594C108.135 20.6406 108.014 21.1133 108.014 21.7773C108.014 22.5156 108.137 23.0371 108.383 23.3418C108.633 23.6465 108.967 23.7988 109.385 23.7988C109.697 23.7988 109.953 23.7109 110.152 23.5352C110.352 23.3555 110.492 23.0488 110.574 22.6152L112.191 22.8906C112.023 23.6328 111.701 24.1934 111.225 24.5723C110.748 24.9512 110.109 25.1406 109.309 25.1406C108.398 25.1406 107.672 24.8535 107.129 24.2793C106.59 23.7051 106.32 22.9102 106.32 21.8945C106.32 20.8672 106.592 20.0684 107.135 19.498C107.678 18.9238 108.412 18.6367 109.338 18.6367C110.096 18.6367 110.697 18.8008 111.143 19.1289C111.592 19.4531 111.914 19.9492 112.109 20.6172ZM116.967 23.0195L118.607 23.2949C118.396 23.8965 118.062 24.3555 117.605 24.6719C117.152 24.9844 116.584 25.1406 115.9 25.1406C114.818 25.1406 114.018 24.7871 113.498 24.0801C113.088 23.5137 112.883 22.7988 112.883 21.9355C112.883 20.9043 113.152 20.0977 113.691 19.5156C114.23 18.9297 114.912 18.6367 115.736 18.6367C116.662 18.6367 117.393 18.9434 117.928 19.5566C118.463 20.166 118.719 21.1016 118.695 22.3633H114.57C114.582 22.8516 114.715 23.2324 114.969 23.5059C115.223 23.7754 115.539 23.9102 115.918 23.9102C116.176 23.9102 116.393 23.8398 116.568 23.6992C116.744 23.5586 116.877 23.332 116.967 23.0195ZM117.061 21.3555C117.049 20.8789 116.926 20.5176 116.691 20.2715C116.457 20.0215 116.172 19.8965 115.836 19.8965C115.477 19.8965 115.18 20.0273 114.945 20.2891C114.711 20.5508 114.596 20.9062 114.6 21.3555H117.061ZM119.996 18.7773H121.531V19.6914C121.73 19.3789 122 19.125 122.34 18.9297C122.68 18.7344 123.057 18.6367 123.471 18.6367C124.193 18.6367 124.807 18.9199 125.311 19.4863C125.814 20.0527 126.066 20.8418 126.066 21.8535C126.066 22.8926 125.812 23.7012 125.305 24.2793C124.797 24.8535 124.182 25.1406 123.459 25.1406C123.115 25.1406 122.803 25.0723 122.521 24.9355C122.244 24.7988 121.951 24.5645 121.643 24.2324V27.3672H119.996V18.7773ZM121.625 21.7832C121.625 22.4824 121.764 23 122.041 23.3359C122.318 23.668 122.656 23.834 123.055 23.834C123.438 23.834 123.756 23.6816 124.01 23.377C124.264 23.0684 124.391 22.5645 124.391 21.8652C124.391 21.2129 124.26 20.7285 123.998 20.4121C123.736 20.0957 123.412 19.9375 123.025 19.9375C122.623 19.9375 122.289 20.0938 122.023 20.4062C121.758 20.7148 121.625 21.1738 121.625 21.7832ZM130.232 18.7773V20.0898H129.107V22.5977C129.107 23.1055 129.117 23.4023 129.137 23.4883C129.16 23.5703 129.209 23.6387 129.283 23.6934C129.361 23.748 129.455 23.7754 129.564 23.7754C129.717 23.7754 129.938 23.7227 130.227 23.6172L130.367 24.8945C129.984 25.0586 129.551 25.1406 129.066 25.1406C128.77 25.1406 128.502 25.0918 128.264 24.9941C128.025 24.8926 127.85 24.7637 127.736 24.6074C127.627 24.4473 127.551 24.2324 127.508 23.9629C127.473 23.7715 127.455 23.3848 127.455 22.8027V20.0898H126.699V18.7773H127.455V17.541L129.107 16.5801V18.7773H130.232ZM134.979 23.0195L136.619 23.2949C136.408 23.8965 136.074 24.3555 135.617 24.6719C135.164 24.9844 134.596 25.1406 133.912 25.1406C132.83 25.1406 132.029 24.7871 131.51 24.0801C131.1 23.5137 130.895 22.7988 130.895 21.9355C130.895 20.9043 131.164 20.0977 131.703 19.5156C132.242 18.9297 132.924 18.6367 133.748 18.6367C134.674 18.6367 135.404 18.9434 135.939 19.5566C136.475 20.166 136.73 21.1016 136.707 22.3633H132.582C132.594 22.8516 132.727 23.2324 132.98 23.5059C133.234 23.7754 133.551 23.9102 133.93 23.9102C134.188 23.9102 134.404 23.8398 134.58 23.6992C134.756 23.5586 134.889 23.332 134.979 23.0195ZM135.072 21.3555C135.061 20.8789 134.938 20.5176 134.703 20.2715C134.469 20.0215 134.184 19.8965 133.848 19.8965C133.488 19.8965 133.191 20.0273 132.957 20.2891C132.723 20.5508 132.607 20.9062 132.611 21.3555H135.072ZM143.762 25H142.232V24.0859C141.979 24.4414 141.678 24.707 141.33 24.8828C140.986 25.0547 140.639 25.1406 140.287 25.1406C139.572 25.1406 138.959 24.8535 138.447 24.2793C137.939 23.7012 137.686 22.8965 137.686 21.8652C137.686 20.8105 137.934 20.0098 138.43 19.4629C138.926 18.9121 139.553 18.6367 140.311 18.6367C141.006 18.6367 141.607 18.9258 142.115 19.5039V16.4102H143.762V25ZM139.367 21.7539C139.367 22.418 139.459 22.8984 139.643 23.1953C139.908 23.625 140.279 23.8398 140.756 23.8398C141.135 23.8398 141.457 23.6797 141.723 23.3594C141.988 23.0352 142.121 22.5527 142.121 21.9121C142.121 21.1973 141.992 20.6836 141.734 20.3711C141.477 20.0547 141.146 19.8965 140.744 19.8965C140.354 19.8965 140.025 20.0527 139.76 20.3652C139.498 20.6738 139.367 21.1367 139.367 21.7539Z" fill="black"/>
<circle cx="306" cy="44" r="7" fill="#D9D9D9" stroke="white" stroke-width="2"/>
<path d="M103.025 66.9688L103.88 66.8516C103.902 67.3984 104.005 67.7728 104.187 67.9746C104.37 68.1764 104.622 68.2773 104.944 68.2773C105.182 68.2773 105.387 68.2236 105.559 68.1162C105.732 68.0055 105.851 67.8574 105.916 67.6719C105.981 67.4831 106.013 67.1836 106.013 66.7734V61.8418H106.961V66.7197C106.961 67.3187 106.887 67.7826 106.741 68.1113C106.598 68.4401 106.368 68.6908 106.053 68.8633C105.74 69.0358 105.372 69.1221 104.949 69.1221C104.321 69.1221 103.839 68.9414 103.504 68.5801C103.172 68.2188 103.012 67.6816 103.025 66.9688ZM111.895 69V68.2383C111.491 68.8242 110.943 69.1172 110.249 69.1172C109.943 69.1172 109.657 69.0586 109.39 68.9414C109.126 68.8242 108.929 68.6777 108.799 68.502C108.672 68.3229 108.583 68.1048 108.53 67.8477C108.495 67.6751 108.477 67.4017 108.477 67.0273V63.8145H109.356V66.6904C109.356 67.1494 109.374 67.4587 109.409 67.6182C109.465 67.8493 109.582 68.0316 109.761 68.165C109.94 68.2952 110.161 68.3604 110.425 68.3604C110.689 68.3604 110.936 68.2936 111.167 68.1602C111.398 68.0234 111.561 67.8395 111.655 67.6084C111.753 67.374 111.802 67.0355 111.802 66.5928V63.8145H112.681V69H111.895ZM114.143 69V61.8418H115.022V69H114.143ZM116.45 70.9971L116.353 70.1719C116.545 70.224 116.712 70.25 116.855 70.25C117.051 70.25 117.207 70.2174 117.324 70.1523C117.441 70.0872 117.537 69.9961 117.612 69.8789C117.668 69.791 117.757 69.5729 117.881 69.2246C117.897 69.1758 117.923 69.1042 117.959 69.0098L115.991 63.8145H116.938L118.018 66.8174C118.158 67.1982 118.283 67.5986 118.394 68.0186C118.494 67.6149 118.615 67.221 118.755 66.8369L119.863 63.8145H120.742L118.77 69.0879C118.558 69.6576 118.394 70.0498 118.276 70.2646C118.12 70.5544 117.941 70.766 117.739 70.8994C117.537 71.0361 117.297 71.1045 117.017 71.1045C116.847 71.1045 116.659 71.0687 116.45 70.9971ZM124.233 67.1104L125.112 66.9932C125.213 67.4912 125.384 67.8509 125.625 68.0723C125.869 68.2904 126.165 68.3994 126.513 68.3994C126.927 68.3994 127.275 68.2562 127.558 67.9697C127.845 67.6833 127.988 67.3285 127.988 66.9053C127.988 66.5016 127.856 66.1696 127.593 65.9092C127.329 65.6455 126.994 65.5137 126.587 65.5137C126.421 65.5137 126.214 65.5462 125.967 65.6113L126.064 64.8398C126.123 64.8464 126.17 64.8496 126.206 64.8496C126.58 64.8496 126.917 64.752 127.217 64.5566C127.516 64.3613 127.666 64.0602 127.666 63.6533C127.666 63.3311 127.557 63.0641 127.339 62.8525C127.121 62.641 126.839 62.5352 126.494 62.5352C126.152 62.5352 125.867 62.6426 125.639 62.8574C125.412 63.0723 125.265 63.3945 125.2 63.8242L124.321 63.668C124.429 63.0788 124.673 62.623 125.054 62.3008C125.434 61.9753 125.908 61.8125 126.474 61.8125C126.865 61.8125 127.225 61.8971 127.554 62.0664C127.882 62.2324 128.133 62.4603 128.305 62.75C128.481 63.0397 128.569 63.3473 128.569 63.6729C128.569 63.9821 128.486 64.2637 128.32 64.5176C128.154 64.7715 127.908 64.9733 127.583 65.123C128.006 65.2207 128.335 65.4242 128.569 65.7334C128.804 66.0394 128.921 66.4235 128.921 66.8857C128.921 67.5107 128.693 68.0413 128.237 68.4775C127.781 68.9105 127.205 69.127 126.509 69.127C125.88 69.127 125.358 68.9398 124.941 68.5654C124.528 68.1911 124.292 67.7061 124.233 67.1104ZM130.368 69V67.999H131.369V69C131.369 69.3678 131.304 69.6641 131.174 69.8887C131.044 70.1165 130.837 70.2923 130.554 70.416L130.31 70.04C130.495 69.9587 130.632 69.8382 130.72 69.6787C130.808 69.5225 130.857 69.2962 130.866 69H130.368ZM100.901 84H100.022V78.3994C99.8107 78.6012 99.5324 78.8031 99.1873 79.0049C98.8455 79.2067 98.5379 79.3581 98.2645 79.459V78.6094C98.756 78.3783 99.1857 78.0983 99.5535 77.7695C99.9214 77.4408 100.182 77.1217 100.335 76.8125H100.901V84ZM103.257 80.4697C103.257 79.6234 103.343 78.943 103.516 78.4287C103.692 77.9111 103.95 77.5124 104.292 77.2324C104.637 76.9525 105.07 76.8125 105.591 76.8125C105.975 76.8125 106.312 76.8906 106.602 77.0469C106.891 77.1999 107.131 77.4229 107.32 77.7158C107.508 78.0055 107.656 78.3604 107.764 78.7803C107.871 79.1969 107.925 79.7601 107.925 80.4697C107.925 81.3096 107.839 81.9883 107.666 82.5059C107.494 83.0202 107.235 83.4189 106.89 83.7021C106.548 83.9821 106.115 84.1221 105.591 84.1221C104.901 84.1221 104.359 83.8747 103.965 83.3799C103.493 82.7842 103.257 81.8141 103.257 80.4697ZM104.16 80.4697C104.16 81.6449 104.297 82.4277 104.571 82.8184C104.847 83.2057 105.187 83.3994 105.591 83.3994C105.995 83.3994 106.333 83.2041 106.607 82.8135C106.883 82.4229 107.022 81.6416 107.022 80.4697C107.022 79.2913 106.883 78.5085 106.607 78.1211C106.333 77.7337 105.991 77.54 105.581 77.54C105.178 77.54 104.855 77.7109 104.614 78.0527C104.312 78.4889 104.16 79.2946 104.16 80.4697ZM109.412 79.8154V78.8145H110.413V79.8154H109.412ZM109.412 84V82.999H110.413V84H109.412ZM111.812 82.1104L112.69 81.9932C112.791 82.4912 112.962 82.8509 113.203 83.0723C113.447 83.2904 113.743 83.3994 114.092 83.3994C114.505 83.3994 114.854 83.2562 115.137 82.9697C115.423 82.6833 115.566 82.3285 115.566 81.9053C115.566 81.5016 115.435 81.1696 115.171 80.9092C114.907 80.6455 114.572 80.5137 114.165 80.5137C113.999 80.5137 113.792 80.5462 113.545 80.6113L113.643 79.8398C113.701 79.8464 113.748 79.8496 113.784 79.8496C114.159 79.8496 114.495 79.752 114.795 79.5566C115.094 79.3613 115.244 79.0602 115.244 78.6533C115.244 78.3311 115.135 78.0641 114.917 77.8525C114.699 77.641 114.417 77.5352 114.072 77.5352C113.73 77.5352 113.446 77.6426 113.218 77.8574C112.99 78.0723 112.843 78.3945 112.778 78.8242L111.899 78.668C112.007 78.0788 112.251 77.623 112.632 77.3008C113.013 76.9753 113.486 76.8125 114.053 76.8125C114.443 76.8125 114.803 76.8971 115.132 77.0664C115.461 77.2324 115.711 77.4603 115.884 77.75C116.06 78.0397 116.147 78.3473 116.147 78.6729C116.147 78.9821 116.064 79.2637 115.898 79.5176C115.732 79.7715 115.487 79.9733 115.161 80.123C115.584 80.2207 115.913 80.4242 116.147 80.7334C116.382 81.0394 116.499 81.4235 116.499 81.8857C116.499 82.5107 116.271 83.0413 115.815 83.4775C115.36 83.9105 114.784 84.127 114.087 84.127C113.459 84.127 112.936 83.9398 112.52 83.5654C112.106 83.1911 111.87 82.7061 111.812 82.1104ZM117.473 80.4697C117.473 79.6234 117.559 78.943 117.732 78.4287C117.908 77.9111 118.166 77.5124 118.508 77.2324C118.853 76.9525 119.286 76.8125 119.807 76.8125C120.191 76.8125 120.528 76.8906 120.818 77.0469C121.107 77.1999 121.347 77.4229 121.536 77.7158C121.724 78.0055 121.872 78.3604 121.98 78.7803C122.087 79.1969 122.141 79.7601 122.141 80.4697C122.141 81.3096 122.055 81.9883 121.882 82.5059C121.71 83.0202 121.451 83.4189 121.106 83.7021C120.764 83.9821 120.331 84.1221 119.807 84.1221C119.117 84.1221 118.575 83.8747 118.181 83.3799C117.709 82.7842 117.473 81.8141 117.473 80.4697ZM118.376 80.4697C118.376 81.6449 118.513 82.4277 118.787 82.8184C119.063 83.2057 119.403 83.3994 119.807 83.3994C120.211 83.3994 120.549 83.2041 120.823 82.8135C121.099 82.4229 121.238 81.6416 121.238 80.4697C121.238 79.2913 121.099 78.5085 120.823 78.1211C120.549 77.7337 120.207 77.54 119.797 77.54C119.394 77.54 119.071 77.7109 118.83 78.0527C118.528 78.4889 118.376 79.2946 118.376 80.4697ZM122.71 84L125.459 76.8418H126.479L129.409 84H128.33L127.495 81.832H124.502L123.716 84H122.71ZM124.775 81.0605H127.202L126.455 79.0781C126.227 78.4759 126.058 77.9811 125.947 77.5938C125.856 78.0527 125.727 78.5085 125.561 78.9609L124.775 81.0605ZM130.237 84V76.8418H131.662L133.357 81.9102C133.513 82.3822 133.627 82.7354 133.698 82.9697C133.78 82.7093 133.907 82.3268 134.079 81.8223L135.793 76.8418H137.068V84H136.154V78.0088L134.074 84H133.22L131.15 77.9062V84H130.237Z" fill="#9D9D9D"/>
<path d="M281.252 11V2.41016H287.463V3.42383H282.389V6.05469H287.141V7.0625H282.389V9.98633H287.662V11H281.252ZM290.826 11L288.459 4.77734H289.572L290.908 8.50391C291.053 8.90625 291.186 9.32422 291.307 9.75781C291.4 9.42969 291.531 9.03516 291.699 8.57422L293.082 4.77734H294.166L291.811 11H290.826ZM295.104 3.62305V2.41016H296.158V3.62305H295.104ZM295.104 11V4.77734H296.158V11H295.104ZM301.807 11V10.2148C301.412 10.832 300.832 11.1406 300.066 11.1406C299.57 11.1406 299.113 11.0039 298.695 10.7305C298.281 10.457 297.959 10.0762 297.729 9.58789C297.502 9.0957 297.389 8.53125 297.389 7.89453C297.389 7.27344 297.492 6.71094 297.699 6.20703C297.906 5.69922 298.217 5.31055 298.631 5.04102C299.045 4.77148 299.508 4.63672 300.02 4.63672C300.395 4.63672 300.729 4.7168 301.021 4.87695C301.314 5.0332 301.553 5.23828 301.736 5.49219V2.41016H302.785V11H301.807ZM298.473 7.89453C298.473 8.69141 298.641 9.28711 298.977 9.68164C299.312 10.0762 299.709 10.2734 300.166 10.2734C300.627 10.2734 301.018 10.0859 301.338 9.71094C301.662 9.33203 301.824 8.75586 301.824 7.98242C301.824 7.13086 301.66 6.50586 301.332 6.10742C301.004 5.70898 300.6 5.50977 300.119 5.50977C299.65 5.50977 299.258 5.70117 298.941 6.08398C298.629 6.4668 298.473 7.07031 298.473 7.89453ZM308.709 8.99609L309.799 9.13086C309.627 9.76758 309.309 10.2617 308.844 10.6133C308.379 10.9648 307.785 11.1406 307.062 11.1406C306.152 11.1406 305.43 10.8613 304.895 10.3027C304.363 9.74023 304.098 8.95312 304.098 7.94141C304.098 6.89453 304.367 6.08203 304.906 5.50391C305.445 4.92578 306.145 4.63672 307.004 4.63672C307.836 4.63672 308.516 4.91992 309.043 5.48633C309.57 6.05273 309.834 6.84961 309.834 7.87695C309.834 7.93945 309.832 8.0332 309.828 8.1582H305.188C305.227 8.8418 305.42 9.36523 305.768 9.72852C306.115 10.0918 306.549 10.2734 307.068 10.2734C307.455 10.2734 307.785 10.1719 308.059 9.96875C308.332 9.76562 308.549 9.44141 308.709 8.99609ZM305.246 7.29102H308.721C308.674 6.76758 308.541 6.375 308.322 6.11328C307.986 5.70703 307.551 5.50391 307.016 5.50391C306.531 5.50391 306.123 5.66602 305.791 5.99023C305.463 6.31445 305.281 6.74805 305.246 7.29102ZM311.129 11V4.77734H312.078V5.66211C312.535 4.97852 313.195 4.63672 314.059 4.63672C314.434 4.63672 314.777 4.70508 315.09 4.8418C315.406 4.97461 315.643 5.15039 315.799 5.36914C315.955 5.58789 316.064 5.84766 316.127 6.14844C316.166 6.34375 316.186 6.68555 316.186 7.17383V11H315.131V7.21484C315.131 6.78516 315.09 6.46484 315.008 6.25391C314.926 6.03906 314.779 5.86914 314.568 5.74414C314.361 5.61523 314.117 5.55078 313.836 5.55078C313.387 5.55078 312.998 5.69336 312.67 5.97852C312.346 6.26367 312.184 6.80469 312.184 7.60156V11H311.129ZM321.869 8.7207L322.906 8.85547C322.793 9.57031 322.502 10.1309 322.033 10.5371C321.568 10.9395 320.996 11.1406 320.316 11.1406C319.465 11.1406 318.779 10.8633 318.26 10.3086C317.744 9.75 317.486 8.95117 317.486 7.91211C317.486 7.24023 317.598 6.65234 317.82 6.14844C318.043 5.64453 318.381 5.26758 318.834 5.01758C319.291 4.76367 319.787 4.63672 320.322 4.63672C320.998 4.63672 321.551 4.80859 321.98 5.15234C322.41 5.49219 322.686 5.97656 322.807 6.60547L321.781 6.76367C321.684 6.3457 321.51 6.03125 321.26 5.82031C321.014 5.60938 320.715 5.50391 320.363 5.50391C319.832 5.50391 319.4 5.69531 319.068 6.07812C318.736 6.45703 318.57 7.05859 318.57 7.88281C318.57 8.71875 318.73 9.32617 319.051 9.70508C319.371 10.084 319.789 10.2734 320.305 10.2734C320.719 10.2734 321.064 10.1465 321.342 9.89258C321.619 9.63867 321.795 9.24805 321.869 8.7207ZM328.068 8.99609L329.158 9.13086C328.986 9.76758 328.668 10.2617 328.203 10.6133C327.738 10.9648 327.145 11.1406 326.422 11.1406C325.512 11.1406 324.789 10.8613 324.254 10.3027C323.723 9.74023 323.457 8.95312 323.457 7.94141C323.457 6.89453 323.727 6.08203 324.266 5.50391C324.805 4.92578 325.504 4.63672 326.363 4.63672C327.195 4.63672 327.875 4.91992 328.402 5.48633C328.93 6.05273 329.193 6.84961 329.193 7.87695C329.193 7.93945 329.191 8.0332 329.188 8.1582H324.547C324.586 8.8418 324.779 9.36523 325.127 9.72852C325.475 10.0918 325.908 10.2734 326.428 10.2734C326.814 10.2734 327.145 10.1719 327.418 9.96875C327.691 9.76562 327.908 9.44141 328.068 8.99609ZM324.605 7.29102H328.08C328.033 6.76758 327.9 6.375 327.682 6.11328C327.346 5.70703 326.91 5.50391 326.375 5.50391C325.891 5.50391 325.482 5.66602 325.15 5.99023C324.822 6.31445 324.641 6.74805 324.605 7.29102ZM279.283 25L282.582 16.4102H283.807L287.322 25H286.027L285.025 22.3984H281.434L280.49 25H279.283ZM281.762 21.4727H284.674L283.777 19.0938C283.504 18.3711 283.301 17.7773 283.168 17.3125C283.059 17.8633 282.904 18.4102 282.705 18.9531L281.762 21.4727ZM288.096 27.3848V18.7773H289.057V19.5859C289.283 19.2695 289.539 19.0332 289.824 18.877C290.109 18.7168 290.455 18.6367 290.861 18.6367C291.393 18.6367 291.861 18.7734 292.268 19.0469C292.674 19.3203 292.98 19.707 293.188 20.207C293.395 20.7031 293.498 21.248 293.498 21.8418C293.498 22.4785 293.383 23.0527 293.152 23.5645C292.926 24.0723 292.594 24.4629 292.156 24.7363C291.723 25.0059 291.266 25.1406 290.785 25.1406C290.434 25.1406 290.117 25.0664 289.836 24.918C289.559 24.7695 289.33 24.582 289.15 24.3555V27.3848H288.096ZM289.051 21.9238C289.051 22.7246 289.213 23.3164 289.537 23.6992C289.861 24.082 290.254 24.2734 290.715 24.2734C291.184 24.2734 291.584 24.0762 291.916 23.6816C292.252 23.2832 292.42 22.668 292.42 21.8359C292.42 21.043 292.256 20.4492 291.928 20.0547C291.604 19.6602 291.215 19.4629 290.762 19.4629C290.312 19.4629 289.914 19.6738 289.566 20.0957C289.223 20.5137 289.051 21.123 289.051 21.9238ZM294.775 27.3848V18.7773H295.736V19.5859C295.963 19.2695 296.219 19.0332 296.504 18.877C296.789 18.7168 297.135 18.6367 297.541 18.6367C298.072 18.6367 298.541 18.7734 298.947 19.0469C299.354 19.3203 299.66 19.707 299.867 20.207C300.074 20.7031 300.178 21.248 300.178 21.8418C300.178 22.4785 300.062 23.0527 299.832 23.5645C299.605 24.0723 299.273 24.4629 298.836 24.7363C298.402 25.0059 297.945 25.1406 297.465 25.1406C297.113 25.1406 296.797 25.0664 296.516 24.918C296.238 24.7695 296.01 24.582 295.83 24.3555V27.3848H294.775ZM295.73 21.9238C295.73 22.7246 295.893 23.3164 296.217 23.6992C296.541 24.082 296.934 24.2734 297.395 24.2734C297.863 24.2734 298.264 24.0762 298.596 23.6816C298.932 23.2832 299.1 22.668 299.1 21.8359C299.1 21.043 298.936 20.4492 298.607 20.0547C298.283 19.6602 297.895 19.4629 297.441 19.4629C296.992 19.4629 296.594 19.6738 296.246 20.0957C295.902 20.5137 295.73 21.123 295.73 21.9238ZM301.443 25V18.7773H302.393V19.7207C302.635 19.2793 302.857 18.9883 303.061 18.8477C303.268 18.707 303.494 18.6367 303.74 18.6367C304.096 18.6367 304.457 18.75 304.824 18.9766L304.461 19.9551C304.203 19.8027 303.945 19.7266 303.688 19.7266C303.457 19.7266 303.25 19.7969 303.066 19.9375C302.883 20.0742 302.752 20.2656 302.674 20.5117C302.557 20.8867 302.498 21.2969 302.498 21.7422V25H301.443ZM305.059 21.8887C305.059 20.7363 305.379 19.8828 306.02 19.3281C306.555 18.8672 307.207 18.6367 307.977 18.6367C308.832 18.6367 309.531 18.918 310.074 19.4805C310.617 20.0391 310.889 20.8125 310.889 21.8008C310.889 22.6016 310.768 23.2324 310.525 23.6934C310.287 24.1504 309.938 24.5059 309.477 24.7598C309.02 25.0137 308.52 25.1406 307.977 25.1406C307.105 25.1406 306.4 24.8613 305.861 24.3027C305.326 23.7441 305.059 22.9395 305.059 21.8887ZM306.143 21.8887C306.143 22.6855 306.316 23.2832 306.664 23.6816C307.012 24.0762 307.449 24.2734 307.977 24.2734C308.5 24.2734 308.936 24.0742 309.283 23.6758C309.631 23.2773 309.805 22.6699 309.805 21.8535C309.805 21.084 309.629 20.502 309.277 20.1074C308.93 19.709 308.496 19.5098 307.977 19.5098C307.449 19.5098 307.012 19.707 306.664 20.1016C306.316 20.4961 306.143 21.0918 306.143 21.8887ZM313.859 25L311.492 18.7773H312.605L313.941 22.5039C314.086 22.9062 314.219 23.3242 314.34 23.7578C314.434 23.4297 314.564 23.0352 314.732 22.5742L316.115 18.7773H317.199L314.844 25H313.859ZM322.391 22.9961L323.48 23.1309C323.309 23.7676 322.99 24.2617 322.525 24.6133C322.061 24.9648 321.467 25.1406 320.744 25.1406C319.834 25.1406 319.111 24.8613 318.576 24.3027C318.045 23.7402 317.779 22.9531 317.779 21.9414C317.779 20.8945 318.049 20.082 318.588 19.5039C319.127 18.9258 319.826 18.6367 320.686 18.6367C321.518 18.6367 322.197 18.9199 322.725 19.4863C323.252 20.0527 323.516 20.8496 323.516 21.877C323.516 21.9395 323.514 22.0332 323.51 22.1582H318.869C318.908 22.8418 319.102 23.3652 319.449 23.7285C319.797 24.0918 320.23 24.2734 320.75 24.2734C321.137 24.2734 321.467 24.1719 321.74 23.9688C322.014 23.7656 322.23 23.4414 322.391 22.9961ZM318.928 21.291H322.402C322.355 20.7676 322.223 20.375 322.004 20.1133C321.668 19.707 321.232 19.5039 320.697 19.5039C320.213 19.5039 319.805 19.666 319.473 19.9902C319.145 20.3145 318.963 20.748 318.928 21.291ZM328.848 25V24.2148C328.453 24.832 327.873 25.1406 327.107 25.1406C326.611 25.1406 326.154 25.0039 325.736 24.7305C325.322 24.457 325 24.0762 324.77 23.5879C324.543 23.0957 324.43 22.5312 324.43 21.8945C324.43 21.2734 324.533 20.7109 324.74 20.207C324.947 19.6992 325.258 19.3105 325.672 19.041C326.086 18.7715 326.549 18.6367 327.061 18.6367C327.436 18.6367 327.77 18.7168 328.062 18.877C328.355 19.0332 328.594 19.2383 328.777 19.4922V16.4102H329.826V25H328.848ZM325.514 21.8945C325.514 22.6914 325.682 23.2871 326.018 23.6816C326.354 24.0762 326.75 24.2734 327.207 24.2734C327.668 24.2734 328.059 24.0859 328.379 23.7109C328.703 23.332 328.865 22.7559 328.865 21.9824C328.865 21.1309 328.701 20.5059 328.373 20.1074C328.045 19.709 327.641 19.5098 327.16 19.5098C326.691 19.5098 326.299 19.7012 325.982 20.084C325.67 20.4668 325.514 21.0703 325.514 21.8945Z" fill="#8A8A8A"/>
<circle cx="212" cy="44" r="7" fill="#D9D9D9" stroke="white" stroke-width="2"/>
<path d="M188.252 11V2.41016H194.463V3.42383H189.389V6.05469H194.141V7.0625H189.389V9.98633H194.662V11H188.252ZM197.826 11L195.459 4.77734H196.572L197.908 8.50391C198.053 8.90625 198.186 9.32422 198.307 9.75781C198.4 9.42969 198.531 9.03516 198.699 8.57422L200.082 4.77734H201.166L198.811 11H197.826ZM202.104 3.62305V2.41016H203.158V3.62305H202.104ZM202.104 11V4.77734H203.158V11H202.104ZM208.807 11V10.2148C208.412 10.832 207.832 11.1406 207.066 11.1406C206.57 11.1406 206.113 11.0039 205.695 10.7305C205.281 10.457 204.959 10.0762 204.729 9.58789C204.502 9.0957 204.389 8.53125 204.389 7.89453C204.389 7.27344 204.492 6.71094 204.699 6.20703C204.906 5.69922 205.217 5.31055 205.631 5.04102C206.045 4.77148 206.508 4.63672 207.02 4.63672C207.395 4.63672 207.729 4.7168 208.021 4.87695C208.314 5.0332 208.553 5.23828 208.736 5.49219V2.41016H209.785V11H208.807ZM205.473 7.89453C205.473 8.69141 205.641 9.28711 205.977 9.68164C206.312 10.0762 206.709 10.2734 207.166 10.2734C207.627 10.2734 208.018 10.0859 208.338 9.71094C208.662 9.33203 208.824 8.75586 208.824 7.98242C208.824 7.13086 208.66 6.50586 208.332 6.10742C208.004 5.70898 207.6 5.50977 207.119 5.50977C206.65 5.50977 206.258 5.70117 205.941 6.08398C205.629 6.4668 205.473 7.07031 205.473 7.89453ZM215.709 8.99609L216.799 9.13086C216.627 9.76758 216.309 10.2617 215.844 10.6133C215.379 10.9648 214.785 11.1406 214.062 11.1406C213.152 11.1406 212.43 10.8613 211.895 10.3027C211.363 9.74023 211.098 8.95312 211.098 7.94141C211.098 6.89453 211.367 6.08203 211.906 5.50391C212.445 4.92578 213.145 4.63672 214.004 4.63672C214.836 4.63672 215.516 4.91992 216.043 5.48633C216.57 6.05273 216.834 6.84961 216.834 7.87695C216.834 7.93945 216.832 8.0332 216.828 8.1582H212.188C212.227 8.8418 212.42 9.36523 212.768 9.72852C213.115 10.0918 213.549 10.2734 214.068 10.2734C214.455 10.2734 214.785 10.1719 215.059 9.96875C215.332 9.76562 215.549 9.44141 215.709 8.99609ZM212.246 7.29102H215.721C215.674 6.76758 215.541 6.375 215.322 6.11328C214.986 5.70703 214.551 5.50391 214.016 5.50391C213.531 5.50391 213.123 5.66602 212.791 5.99023C212.463 6.31445 212.281 6.74805 212.246 7.29102ZM218.129 11V4.77734H219.078V5.66211C219.535 4.97852 220.195 4.63672 221.059 4.63672C221.434 4.63672 221.777 4.70508 222.09 4.8418C222.406 4.97461 222.643 5.15039 222.799 5.36914C222.955 5.58789 223.064 5.84766 223.127 6.14844C223.166 6.34375 223.186 6.68555 223.186 7.17383V11H222.131V7.21484C222.131 6.78516 222.09 6.46484 222.008 6.25391C221.926 6.03906 221.779 5.86914 221.568 5.74414C221.361 5.61523 221.117 5.55078 220.836 5.55078C220.387 5.55078 219.998 5.69336 219.67 5.97852C219.346 6.26367 219.184 6.80469 219.184 7.60156V11H218.129ZM228.869 8.7207L229.906 8.85547C229.793 9.57031 229.502 10.1309 229.033 10.5371C228.568 10.9395 227.996 11.1406 227.316 11.1406C226.465 11.1406 225.779 10.8633 225.26 10.3086C224.744 9.75 224.486 8.95117 224.486 7.91211C224.486 7.24023 224.598 6.65234 224.82 6.14844C225.043 5.64453 225.381 5.26758 225.834 5.01758C226.291 4.76367 226.787 4.63672 227.322 4.63672C227.998 4.63672 228.551 4.80859 228.98 5.15234C229.41 5.49219 229.686 5.97656 229.807 6.60547L228.781 6.76367C228.684 6.3457 228.51 6.03125 228.26 5.82031C228.014 5.60938 227.715 5.50391 227.363 5.50391C226.832 5.50391 226.4 5.69531 226.068 6.07812C225.736 6.45703 225.57 7.05859 225.57 7.88281C225.57 8.71875 225.73 9.32617 226.051 9.70508C226.371 10.084 226.789 10.2734 227.305 10.2734C227.719 10.2734 228.064 10.1465 228.342 9.89258C228.619 9.63867 228.795 9.24805 228.869 8.7207ZM235.068 8.99609L236.158 9.13086C235.986 9.76758 235.668 10.2617 235.203 10.6133C234.738 10.9648 234.145 11.1406 233.422 11.1406C232.512 11.1406 231.789 10.8613 231.254 10.3027C230.723 9.74023 230.457 8.95312 230.457 7.94141C230.457 6.89453 230.727 6.08203 231.266 5.50391C231.805 4.92578 232.504 4.63672 233.363 4.63672C234.195 4.63672 234.875 4.91992 235.402 5.48633C235.93 6.05273 236.193 6.84961 236.193 7.87695C236.193 7.93945 236.191 8.0332 236.188 8.1582H231.547C231.586 8.8418 231.779 9.36523 232.127 9.72852C232.475 10.0918 232.908 10.2734 233.428 10.2734C233.814 10.2734 234.145 10.1719 234.418 9.96875C234.691 9.76562 234.908 9.44141 235.068 8.99609ZM231.605 7.29102H235.08C235.033 6.76758 234.9 6.375 234.682 6.11328C234.346 5.70703 233.91 5.50391 233.375 5.50391C232.891 5.50391 232.482 5.66602 232.15 5.99023C231.822 6.31445 231.641 6.74805 231.605 7.29102ZM193.854 22.2402L194.926 22.1465C194.977 22.5762 195.094 22.9297 195.277 23.207C195.465 23.4805 195.754 23.7031 196.145 23.875C196.535 24.043 196.975 24.127 197.463 24.127C197.896 24.127 198.279 24.0625 198.611 23.9336C198.943 23.8047 199.189 23.6289 199.35 23.4062C199.514 23.1797 199.596 22.9336 199.596 22.668C199.596 22.3984 199.518 22.1641 199.361 21.9648C199.205 21.7617 198.947 21.5918 198.588 21.4551C198.357 21.3652 197.848 21.2266 197.059 21.0391C196.27 20.8477 195.717 20.668 195.4 20.5C194.99 20.2852 194.684 20.0195 194.48 19.7031C194.281 19.3828 194.182 19.0254 194.182 18.6309C194.182 18.1973 194.305 17.793 194.551 17.418C194.797 17.0391 195.156 16.752 195.629 16.5566C196.102 16.3613 196.627 16.2637 197.205 16.2637C197.842 16.2637 198.402 16.3672 198.887 16.5742C199.375 16.7773 199.75 17.0781 200.012 17.4766C200.273 17.875 200.414 18.3262 200.434 18.8301L199.344 18.9121C199.285 18.3691 199.086 17.959 198.746 17.6816C198.41 17.4043 197.912 17.2656 197.252 17.2656C196.564 17.2656 196.062 17.3926 195.746 17.6465C195.434 17.8965 195.277 18.1992 195.277 18.5547C195.277 18.8633 195.389 19.1172 195.611 19.3164C195.83 19.5156 196.4 19.7207 197.322 19.9316C198.248 20.1387 198.883 20.3203 199.227 20.4766C199.727 20.707 200.096 21 200.334 21.3555C200.572 21.707 200.691 22.1133 200.691 22.5742C200.691 23.0312 200.561 23.4629 200.299 23.8691C200.037 24.2715 199.66 24.5859 199.168 24.8125C198.68 25.0352 198.129 25.1465 197.516 25.1465C196.738 25.1465 196.086 25.0332 195.559 24.8066C195.035 24.5801 194.623 24.2402 194.322 23.7871C194.025 23.3301 193.869 22.8145 193.854 22.2402ZM206.188 25V24.0859C205.703 24.7891 205.045 25.1406 204.213 25.1406C203.846 25.1406 203.502 25.0703 203.182 24.9297C202.865 24.7891 202.629 24.6133 202.473 24.4023C202.32 24.1875 202.213 23.9258 202.15 23.6172C202.107 23.4102 202.086 23.082 202.086 22.6328V18.7773H203.141V22.2285C203.141 22.7793 203.162 23.1504 203.205 23.3418C203.271 23.6191 203.412 23.8379 203.627 23.998C203.842 24.1543 204.107 24.2324 204.424 24.2324C204.74 24.2324 205.037 24.1523 205.314 23.9922C205.592 23.8281 205.787 23.6074 205.9 23.3301C206.018 23.0488 206.076 22.6426 206.076 22.1113V18.7773H207.131V25H206.188ZM209.762 25H208.783V16.4102H209.838V19.4746C210.283 18.916 210.852 18.6367 211.543 18.6367C211.926 18.6367 212.287 18.7148 212.627 18.8711C212.971 19.0234 213.252 19.2402 213.471 19.5215C213.693 19.7988 213.867 20.1348 213.992 20.5293C214.117 20.9238 214.18 21.3457 214.18 21.7949C214.18 22.8613 213.916 23.6855 213.389 24.2676C212.861 24.8496 212.229 25.1406 211.49 25.1406C210.756 25.1406 210.18 24.834 209.762 24.2207V25ZM209.75 21.8418C209.75 22.5879 209.852 23.127 210.055 23.459C210.387 24.002 210.836 24.2734 211.402 24.2734C211.863 24.2734 212.262 24.0742 212.598 23.6758C212.934 23.2734 213.102 22.6758 213.102 21.8828C213.102 21.0703 212.939 20.4707 212.615 20.084C212.295 19.6973 211.906 19.5039 211.449 19.5039C210.988 19.5039 210.59 19.7051 210.254 20.1074C209.918 20.5059 209.75 21.084 209.75 21.8418ZM215.469 25V18.7773H216.412V19.6504C216.607 19.3457 216.867 19.1016 217.191 18.918C217.516 18.7305 217.885 18.6367 218.299 18.6367C218.76 18.6367 219.137 18.7324 219.43 18.9238C219.727 19.1152 219.936 19.3828 220.057 19.7266C220.549 19 221.189 18.6367 221.979 18.6367C222.596 18.6367 223.07 18.8086 223.402 19.1523C223.734 19.4922 223.9 20.0176 223.9 20.7285V25H222.852V21.0801C222.852 20.6582 222.816 20.3555 222.746 20.1719C222.68 19.9844 222.557 19.834 222.377 19.7207C222.197 19.6074 221.986 19.5508 221.744 19.5508C221.307 19.5508 220.943 19.6973 220.654 19.9902C220.365 20.2793 220.221 20.7441 220.221 21.3848V25H219.166V20.957C219.166 20.4883 219.08 20.1367 218.908 19.9023C218.736 19.668 218.455 19.5508 218.064 19.5508C217.768 19.5508 217.492 19.6289 217.238 19.7852C216.988 19.9414 216.807 20.1699 216.693 20.4707C216.58 20.7715 216.523 21.2051 216.523 21.7715V25H215.469ZM225.471 17.623V16.4102H226.525V17.623H225.471ZM225.471 25V18.7773H226.525V25H225.471ZM230.439 24.0566L230.592 24.9883C230.295 25.0508 230.029 25.082 229.795 25.082C229.412 25.082 229.115 25.0215 228.904 24.9004C228.693 24.7793 228.545 24.6211 228.459 24.4258C228.373 24.2266 228.33 23.8105 228.33 23.1777V19.5977H227.557V18.7773H228.33V17.2363L229.379 16.6035V18.7773H230.439V19.5977H229.379V23.2363C229.379 23.5371 229.396 23.7305 229.432 23.8164C229.471 23.9023 229.531 23.9707 229.613 24.0215C229.699 24.0723 229.82 24.0977 229.977 24.0977C230.094 24.0977 230.248 24.084 230.439 24.0566Z" fill="#8A8A8A"/>
<defs>
<filter id="filter0_d_1_14657" x="3" y="21" width="42" height="42" filterUnits="userSpaceOnUse" color-interpolation-filters="sRGB">
<feFlood flood-opacity="0" result="BackgroundImageFix"/>
<feColorMatrix in="SourceAlpha" type="matrix" values="0 0 0 0 0 0 0 0 0 0 0 0 0 0 0 0 0 0 127 0" result="hardAlpha"/>
<feOffset/>
<feGaussianBlur stdDeviation="5"/>
<feComposite in2="hardAlpha" operator="out"/>
<feColorMatrix type="matrix" values="0 0 0 0 0 0 0 0 0 0 0 0 0 0 0 0 0 0 0.15 0"/>
<feBlend mode="normal" in2="BackgroundImageFix" result="effect1_dropShadow_1_14657"/>
<feBlend mode="normal" in="SourceGraphic" in2="effect1_dropShadow_1_14657" result="shape"/>
</filter>
<filter id="filter1_d_1_14657" x="96" y="21" width="42" height="42" filterUnits="userSpaceOnUse" color-interpolation-filters="sRGB">
<feFlood flood-opacity="0" result="BackgroundImageFix"/>
<feColorMatrix in="SourceAlpha" type="matrix" values="0 0 0 0 0 0 0 0 0 0 0 0 0 0 0 0 0 0 127 0" result="hardAlpha"/>
<feOffset/>
<feGaussianBlur stdDeviation="5"/>
<feComposite in2="hardAlpha" operator="out"/>
<feColorMatrix type="matrix" values="0 0 0 0 0 0 0 0 0 0 0 0 0 0 0 0 0 0 0.15 0"/>
<feBlend mode="normal" in2="BackgroundImageFix" result="effect1_dropShadow_1_14657"/>
<feBlend mode="normal" in="SourceGraphic" in2="effect1_dropShadow_1_14657" result="shape"/>
</filter>
</defs>
</svg>
