<svg width="12" height="12" viewBox="0 0 12 12" fill="none" xmlns="http://www.w3.org/2000/svg">
<g clip-path="url(#clip0_1_10170)">
<path d="M6.3958 0.462285L7.8382 3.52389C7.86943 3.59136 7.91678 3.65011 7.97607 3.69496C8.03536 3.73981 8.10478 3.76939 8.1782 3.78109L11.414 4.27369C11.4982 4.28894 11.5766 4.32686 11.6408 4.38336C11.705 4.43987 11.7527 4.51281 11.7785 4.59436C11.8044 4.6759 11.8075 4.76295 11.7876 4.84614C11.7676 4.92933 11.7254 5.00551 11.6654 5.06649L9.3162 7.46529C9.26438 7.51879 9.22582 7.58369 9.20362 7.65479C9.18143 7.72589 9.17622 7.80121 9.1884 7.87469L9.742 11.2547C9.75831 11.3387 9.75055 11.4257 9.71961 11.5055C9.68867 11.5854 9.63581 11.6549 9.56712 11.706C9.49842 11.7571 9.41669 11.7878 9.33132 11.7945C9.24596 11.8012 9.16043 11.7837 9.0846 11.7439L6.2024 10.1569C6.1374 10.121 6.06436 10.1021 5.9901 10.1021C5.91584 10.1021 5.8428 10.121 5.7778 10.1569L2.8954 11.7443C2.81957 11.7841 2.73404 11.8016 2.64868 11.7949C2.56331 11.7882 2.48158 11.7575 2.41288 11.7064C2.34419 11.6553 2.29133 11.5858 2.26039 11.5059C2.22945 11.4261 2.22169 11.3391 2.238 11.2551L2.7916 7.87509C2.80378 7.80161 2.79857 7.72629 2.77638 7.65519C2.75418 7.58409 2.71562 7.51919 2.6638 7.46569L0.3146 5.06649C0.254599 5.00551 0.21236 4.92933 0.19243 4.84614C0.172499 4.76295 0.175631 4.6759 0.201489 4.59436C0.227346 4.51281 0.27495 4.43987 0.339178 4.38336C0.403406 4.32686 0.481826 4.28894 0.566 4.27369L3.8018 3.78109C3.87522 3.76939 3.94464 3.73981 4.00393 3.69496C4.06322 3.65011 4.11057 3.59136 4.1418 3.52389L5.5842 0.462285C5.61944 0.384179 5.67648 0.317904 5.74846 0.271414C5.82044 0.224924 5.90431 0.200195 5.99 0.200195C6.07569 0.200195 6.15956 0.224924 6.23154 0.271414C6.30352 0.317904 6.36056 0.384179 6.3958 0.462285Z" fill="#C19444"/>
<path d="M5.2 6C5.14696 6 5.09609 5.97893 5.05858 5.94142C5.02107 5.90391 5 5.85304 5 5.8C5 5.69391 4.95786 5.59217 4.88284 5.51716C4.80783 5.44214 4.70609 5.4 4.6 5.4C4.49391 5.4 4.39217 5.44214 4.31716 5.51716C4.24214 5.59217 4.2 5.69391 4.2 5.8C4.2 5.85304 4.17893 5.90391 4.14142 5.94142C4.10391 5.97893 4.05304 6 4 6C3.94696 6 3.89609 5.97893 3.85858 5.94142C3.82107 5.90391 3.8 5.85304 3.8 5.8C3.8 5.58783 3.88429 5.38434 4.03431 5.23431C4.18434 5.08429 4.38783 5 4.6 5C4.81217 5 5.01566 5.08429 5.16569 5.23431C5.31571 5.38434 5.4 5.58783 5.4 5.8C5.4 5.85304 5.37893 5.90391 5.34142 5.94142C5.30391 5.97893 5.25304 6 5.2 6Z" fill="black"/>
<path d="M8 6C7.94696 6 7.89609 5.97893 7.85858 5.94142C7.82107 5.90391 7.8 5.85304 7.8 5.8C7.8 5.69391 7.75786 5.59217 7.68284 5.51716C7.60783 5.44214 7.50609 5.4 7.4 5.4C7.29391 5.4 7.19217 5.44214 7.11716 5.51716C7.04214 5.59217 7 5.69391 7 5.8C7 5.85304 6.97893 5.90391 6.94142 5.94142C6.90392 5.97893 6.85304 6 6.8 6C6.74696 6 6.69609 5.97893 6.65858 5.94142C6.62107 5.90391 6.6 5.85304 6.6 5.8C6.6 5.58783 6.68429 5.38434 6.83432 5.23431C6.98435 5.08429 7.18783 5 7.4 5C7.61217 5 7.81566 5.08429 7.96569 5.23431C8.11572 5.38434 8.2 5.58783 8.2 5.8C8.2 5.85304 8.17893 5.90391 8.14142 5.94142C8.10392 5.97893 8.05304 6 8 6Z" fill="black"/>
<path d="M5.99996 8.60056C7.27836 8.60056 7.95156 7.59176 8.23416 7.00696C8.25024 6.97237 8.2561 6.9339 8.25103 6.8961C8.24596 6.85829 8.23019 6.82272 8.20557 6.79358C8.18096 6.76444 8.14852 6.74295 8.11209 6.73165C8.07566 6.72034 8.03675 6.71968 7.99996 6.72976C7.34845 6.90929 6.67576 7.00037 5.99996 7.00056C5.32417 7.00037 4.65147 6.90929 3.99996 6.72976C3.96319 6.71973 3.92431 6.72043 3.88791 6.73176C3.85152 6.74309 3.81912 6.76458 3.79453 6.79371C3.76994 6.82284 3.75419 6.85838 3.74913 6.89617C3.74407 6.93395 3.74991 6.97239 3.76596 7.00696C4.04836 7.59176 4.72156 8.60056 5.99996 8.60056Z" fill="#ECF0F1"/>
</g>
<defs>
<clipPath id="clip0_1_10170">
<rect width="12" height="12" fill="white"/>
</clipPath>
</defs>
</svg>
