<svg width="15" height="13" viewBox="0 0 15 13" fill="none" xmlns="http://www.w3.org/2000/svg">
<path d="M11.0417 8.6276C10.5459 8.6276 10.1268 8.45642 9.78446 8.11406C9.4421 7.7717 9.27092 7.3526 9.27092 6.85677C9.27092 6.36094 9.4421 5.94184 9.78446 5.59948C10.1268 5.25712 10.5459 5.08594 11.0417 5.08594C11.5376 5.08594 11.9567 5.25712 12.299 5.59948C12.6414 5.94184 12.8126 6.36094 12.8126 6.85677C12.8126 7.3526 12.6414 7.7717 12.299 8.11406C11.9567 8.45642 11.5376 8.6276 11.0417 8.6276ZM7.50008 12.1693V11.1776C7.50008 10.8943 7.57375 10.6317 7.72108 10.3899C7.86889 10.1477 8.07855 9.97344 8.35008 9.86719C8.77508 9.6901 9.21496 9.55741 9.66971 9.4691C10.124 9.38033 10.5813 9.33594 11.0417 9.33594C11.5022 9.33594 11.9597 9.38033 12.4145 9.4691C12.8688 9.55741 13.3084 9.6901 13.7334 9.86719C14.0049 9.97344 14.2146 10.1477 14.3624 10.3899C14.5097 10.6317 14.5834 10.8943 14.5834 11.1776V12.1693H7.50008ZM6.08342 6.5026C5.30425 6.5026 4.63723 6.22517 4.08237 5.67031C3.52751 5.11545 3.25008 4.44844 3.25008 3.66927C3.25008 2.8901 3.52751 2.22309 4.08237 1.66823C4.63723 1.11337 5.30425 0.835938 6.08342 0.835938C6.86258 0.835938 7.5296 1.11337 8.08446 1.66823C8.63932 2.22309 8.91675 2.8901 8.91675 3.66927C8.91675 4.44844 8.63932 5.11545 8.08446 5.67031C7.5296 6.22517 6.86258 6.5026 6.08342 6.5026ZM0.416748 12.1693V10.0443C0.416748 9.73733 0.522998 9.43345 0.735498 9.13264C0.947998 8.83137 1.26085 8.56858 1.67404 8.34427C2.31154 8.00191 3.00807 7.72755 3.76362 7.52119C4.51918 7.31435 5.29244 7.21094 6.08342 7.21094C6.40216 7.21094 6.74169 7.23455 7.102 7.28177C7.46183 7.32899 7.83064 7.39983 8.20842 7.49427V8.4151C8.04314 8.47413 7.90147 8.53316 7.78341 8.59219C7.66536 8.65121 7.5414 8.71615 7.41154 8.78698C6.97473 9.03489 6.64418 9.35955 6.41987 9.76094C6.19557 10.1623 6.08342 10.4929 6.08342 10.7526V12.1693H0.416748Z" fill="#C19444"/>
</svg>
