<svg width="20" height="27" viewBox="0 0 20 27" fill="none" xmlns="http://www.w3.org/2000/svg">
<rect width="20" height="27" fill="#F5F5F5"/>
<g id="Teachers" clip-path="url(#clip0_0_1)">
<rect width="414" height="959" transform="translate(-34 -899)" fill="white"/>
<g id="Group 8284">
<path id="Vector" d="M121.504 -11.5393L121.507 -11.5368C125.307 -8.35213 128.784 -4.80444 131.889 -0.944569L131.895 -0.937057C133.401 0.862274 134.851 2.75367 136.259 4.59303L136.656 4.289L136.259 4.59307L136.279 4.61893C140.289 9.85359 144.422 15.248 150.554 19.3759C156.711 23.52 164.847 26.3669 176.848 26.5889L176.867 26.5893L176.886 26.5882C188.369 25.9444 195.975 23.0555 201.679 18.9361C207.359 14.8347 211.116 9.53667 214.925 4.16522L214.947 4.13524L214.951 4.12934L214.955 4.12333C217.706 -0.00389671 220.826 -3.87528 224.278 -7.44357C226.968 -9.98993 230.027 -12.1207 233.352 -13.7647L233.359 -13.7687C235.965 -15.1135 238.704 -16.182 241.53 -16.958C242.982 -17.3566 244.499 -17.5 246.032 -17.5H359C370.874 -17.5 380.5 -7.87412 380.5 4V58.5C380.5 70.3741 370.874 80 359 80H173H-13C-24.8741 80 -34.5 70.3741 -34.5 58.5V4C-34.5 -7.87412 -24.8741 -17.5 -13 -17.5H107.3C109.08 -17.5 110.835 -17.3184 112.469 -16.7408C115.768 -15.5745 118.832 -13.8138 121.504 -11.5393Z" fill="#F8F4E9" stroke="#C19444"/>
<g id="Group 7698">
<path id="Vector_2" d="M18.7133 3.25249C18.2065 2.74458 17.5325 2.46484 16.8153 2.46484H15.604V2.2207C15.604 1.54761 15.0564 1 14.3833 1H5.59424C4.92114 1 4.37354 1.54761 4.37354 2.2207V2.46484H3.15786C1.68028 2.46484 0.476808 3.66826 0.475148 5.14741L0.45508 23.3115C0.454299 24.0293 0.732961 24.7044 1.23975 25.2124C1.74658 25.7203 2.42066 26 3.13779 26H16.7952C18.2729 26 19.4763 24.7966 19.4779 23.3174L19.4981 5.15337C19.4989 4.43545 19.2202 3.76035 18.7133 3.25249ZM5.83838 2.46484H14.1392V3.92969H5.83838V2.46484ZM18.0147 23.3158C18.0139 23.9882 17.4668 24.5352 16.7952 24.5352H3.13779C2.81182 24.5352 2.50542 24.408 2.27505 24.1771C2.04468 23.9462 1.91802 23.6394 1.91836 23.3131L1.93843 5.14907C1.93916 4.47666 2.48618 3.92969 3.15786 3.92969H4.37354V4.17383C4.37354 4.84692 4.92114 5.39453 5.59424 5.39453H14.3833C15.0564 5.39453 15.604 4.84692 15.604 4.17383V3.92969H16.8153C17.1413 3.92969 17.4477 4.05684 17.6781 4.2877C17.9084 4.51855 18.0352 4.82544 18.0348 5.15171L18.0147 23.3158Z" fill="#C19444" stroke="#C19444" stroke-width="0.3"/>
<path id="Vector_3" d="M10.2256 10.7656H15.4292C15.8337 10.7656 16.1617 10.4377 16.1617 10.0332C16.1617 9.62871 15.8337 9.30078 15.4292 9.30078H10.2256C9.82109 9.30078 9.49316 9.62871 9.49316 10.0332C9.49316 10.4377 9.82109 10.7656 10.2256 10.7656Z" fill="#C19444" stroke="#C19444" stroke-width="0.3"/>
<path id="Vector_4" d="M10.2256 15.6484H15.4292C15.8337 15.6484 16.1617 15.3205 16.1617 14.916C16.1617 14.5115 15.8337 14.1836 15.4292 14.1836H10.2256C9.82109 14.1836 9.49316 14.5115 9.49316 14.916C9.49316 15.3205 9.82109 15.6484 10.2256 15.6484Z" fill="#C19444" stroke="#C19444" stroke-width="0.3"/>
<path id="Vector_5" d="M15.4502 19.0664H10.2256C9.82109 19.0664 9.49316 19.3943 9.49316 19.7988C9.49316 20.2033 9.82109 20.5312 10.2256 20.5312H15.4502C15.8547 20.5312 16.1826 20.2033 16.1826 19.7988C16.1826 19.3943 15.8547 19.0664 15.4502 19.0664Z" fill="#C19444" stroke="#C19444" stroke-width="0.3"/>
<path id="Vector_6" d="M7.10813 8.03862L5.41907 9.72768L5.02082 9.32939C4.73479 9.04335 4.27107 9.04335 3.98503 9.32939C3.699 9.61537 3.699 10.0791 3.98503 10.3652L4.9012 11.2814C5.03855 11.4187 5.22483 11.4959 5.41912 11.4959C5.61335 11.4959 5.79963 11.4188 5.93699 11.2814L8.14397 9.07446C8.43 8.78847 8.43 8.3247 8.14397 8.03867C7.85793 7.75258 7.39421 7.75258 7.10813 8.03862Z" fill="#C19444" stroke="#C19444" stroke-width="0.3"/>
<path id="Vector_7" d="M7.10813 13.2944L5.41907 14.9835L5.02082 14.5853C4.73479 14.2992 4.27107 14.2992 3.98503 14.5853C3.699 14.8712 3.699 15.335 3.98503 15.6211L4.9012 16.5373C5.03855 16.6746 5.22483 16.7518 5.41912 16.7518C5.61335 16.7518 5.79968 16.6747 5.93699 16.5373L8.14397 14.3303C8.43 14.0443 8.43 13.5805 8.14397 13.2945C7.85793 13.0085 7.39416 13.0085 7.10813 13.2944Z" fill="#C19444" stroke="#C19444" stroke-width="0.3"/>
<path id="Vector_8" d="M7.10813 18.1773L5.41907 19.8663L5.02082 19.4681C4.73479 19.182 4.27107 19.182 3.98503 19.4681C3.699 19.7541 3.699 20.2178 3.98503 20.5039L4.9012 21.4201C5.03855 21.5574 5.22483 21.6346 5.41912 21.6346C5.61335 21.6346 5.79968 21.5575 5.93699 21.4201L8.14397 19.2131C8.43 18.9271 8.43 18.4633 8.14397 18.1773C7.85793 17.8913 7.39416 17.8913 7.10813 18.1773Z" fill="#C19444" stroke="#C19444" stroke-width="0.3"/>
</g>
</g>
</g>
<defs>
<clipPath id="clip0_0_1">
<rect width="414" height="959" fill="white" transform="translate(-34 -899)"/>
</clipPath>
</defs>
</svg>
