<svg width="45" height="45" viewBox="0 0 45 45" fill="none" xmlns="http://www.w3.org/2000/svg">
<path d="M37.6811 18.4109C37.6811 13.3989 33.8726 9.33594 29.1741 9.33594C27.3621 9.33877 25.6032 9.94835 24.1781 11.0674C23.6984 11.4408 23.1079 11.6435 22.5001 11.6435C21.8923 11.6435 21.3018 11.4408 20.8221 11.0674C19.397 9.94835 17.6381 9.33877 15.8261 9.33594C11.1261 9.33594 7.3191 13.3989 7.3191 18.4109C7.30962 19.6929 7.56491 20.963 8.069 22.1417C8.57309 23.3204 9.31511 24.3823 10.2486 25.2609C10.9061 25.844 11.4313 26.5609 11.789 27.3636C12.1467 28.1663 12.3287 29.0362 12.3226 29.9149C12.3199 30.0279 12.3186 30.1414 12.3186 30.2554C12.2932 31.9971 12.648 33.7233 13.3585 35.3137C14.069 36.9041 15.1179 38.3202 16.4321 39.4634C16.6101 39.6101 16.8263 39.7028 17.0552 39.7306C17.2842 39.7583 17.5163 39.72 17.7241 39.6201C17.932 39.5203 18.107 39.363 18.2283 39.1669C18.3497 38.9708 18.4124 38.744 18.4091 38.5134C18.4068 38.3548 18.4056 38.1958 18.4056 38.0364C18.4056 31.8299 20.2386 26.7989 22.5001 26.7989C24.7616 26.7989 26.5946 31.8299 26.5946 38.0364C26.5946 38.1961 26.5934 38.3551 26.5911 38.5134C26.5878 38.744 26.6505 38.9708 26.7719 39.1669C26.8932 39.363 27.0682 39.5203 27.2761 39.6201C27.4839 39.72 27.716 39.7583 27.945 39.7306C28.1739 39.7028 28.3901 39.6101 28.5681 39.4634C29.8823 38.3202 30.9312 36.9041 31.6417 35.3137C32.3522 33.7233 32.707 31.9971 32.6816 30.2554C32.6816 30.1414 32.6803 30.0279 32.6776 29.9149C32.6714 29.0364 32.8532 28.1666 33.2106 27.3641C33.568 26.5615 34.0929 25.8446 34.7501 25.2614C35.6839 24.3829 36.4263 23.3209 36.9306 22.1421C37.435 20.9633 37.6905 19.6931 37.6811 18.4109Z" fill="#37D4E9"/>
<path d="M11.8271 17.7234C11.8285 16.6326 12.2624 15.5869 13.0338 14.8156C13.8051 14.0444 14.8509 13.6106 15.9416 13.6094C16.1737 13.6094 16.3963 13.5172 16.5604 13.3531C16.7245 13.189 16.8166 12.9664 16.8166 12.7344C16.8166 12.5023 16.7245 12.2798 16.5604 12.1157C16.3963 11.9516 16.1737 11.8594 15.9416 11.8594C14.3869 11.8611 12.8963 12.4794 11.7969 13.5788C10.6975 14.6781 10.079 16.1686 10.0771 17.7234C10.0771 17.9554 10.1693 18.178 10.3334 18.3421C10.4975 18.5062 10.7201 18.5984 10.9521 18.5984C11.1842 18.5984 11.4068 18.5062 11.5709 18.3421C11.735 18.178 11.8271 17.9554 11.8271 17.7234Z" fill="#FFFFF8"/>
<path d="M4.3 7.8605L4.667 9.3335L5.0345 7.8605C5.20475 7.1772 5.55776 6.55313 6.0557 6.0552C6.55363 5.55726 7.1777 5.20425 7.861 5.034L9.334 4.6665L7.8605 4.3C7.1772 4.12975 6.55313 3.77674 6.0552 3.2788C5.55726 2.78087 5.20425 2.1568 5.034 1.4735L4.6665 0L4.3 1.473C4.12979 2.15645 3.77674 2.78067 3.2787 3.2787C2.78067 3.77674 2.15645 4.12979 1.473 4.3L0 4.6665L1.473 5.034C2.15639 5.20417 2.78057 5.55715 3.27859 6.05509C3.77662 6.55303 4.12971 7.17714 4.3 7.8605Z" fill="#FFC26F"/>
<path d="M39.966 43.5246L40.3335 44.9981L40.7005 43.5251C40.8707 42.8418 41.2238 42.2177 41.7217 41.7198C42.2196 41.2218 42.8437 40.8688 43.527 40.6986L45 40.3311L43.527 39.9636C42.8437 39.7933 42.2196 39.4403 41.7217 38.9424C41.2238 38.4444 40.8707 37.8204 40.7005 37.1371L40.3335 35.6641L39.966 37.1371C39.7958 37.8204 39.4427 38.4444 38.9448 38.9424C38.4469 39.4403 37.8228 39.7933 37.1395 39.9636L35.6665 40.3311L37.1395 40.6981C37.8228 40.8683 38.4469 41.2213 38.9448 41.7193C39.4427 42.2172 39.7958 42.8413 39.966 43.5246Z" fill="#FFC26F"/>
<path d="M45.0001 28.4979C45.0001 28.2356 44.9224 27.9792 44.7767 27.7612C44.631 27.5431 44.4239 27.3732 44.1816 27.2728C43.9393 27.1725 43.6727 27.1462 43.4155 27.1974C43.1582 27.2485 42.922 27.3748 42.7365 27.5603C42.5511 27.7457 42.4248 27.982 42.3736 28.2392C42.3225 28.4964 42.3487 28.763 42.4491 29.0053C42.5494 29.2476 42.7194 29.4547 42.9375 29.6004C43.1555 29.7461 43.4119 29.8239 43.6741 29.8239C44.0258 29.8239 44.3631 29.6842 44.6118 29.4355C44.8604 29.1868 45.0001 28.8496 45.0001 28.4979Z" fill="#FFC26F"/>
<path d="M21.1251 3.34163C21.1251 3.07932 21.0474 2.82292 20.9016 2.60484C20.7559 2.38675 20.5487 2.2168 20.3064 2.11647C20.064 2.01613 19.7973 1.98993 19.5401 2.04118C19.2828 2.09242 19.0466 2.21881 18.8612 2.40436C18.6758 2.5899 18.5496 2.82626 18.4985 3.08355C18.4475 3.34083 18.4739 3.60748 18.5744 3.84976C18.6749 4.09203 18.845 4.29906 19.0632 4.44464C19.2814 4.59022 19.5378 4.66782 19.8001 4.66763C20.1516 4.66736 20.4887 4.52754 20.7371 4.2789C20.9856 4.03025 21.1251 3.69313 21.1251 3.34163Z" fill="#FFC26F"/>
<path d="M7.31902 31.952C7.31912 31.6896 7.2414 31.4331 7.0957 31.2149C6.95001 30.9967 6.74287 30.8266 6.50049 30.7261C6.25812 30.6256 5.99138 30.5993 5.73404 30.6504C5.47669 30.7016 5.24028 30.8279 5.05472 31.0133C4.86915 31.1988 4.74277 31.4352 4.69154 31.6925C4.64032 31.9499 4.66656 32.2166 4.76694 32.459C4.86733 32.7014 5.03735 32.9086 5.2555 33.0544C5.47365 33.2002 5.73014 33.278 5.99252 33.278C6.16669 33.2781 6.33917 33.2438 6.50011 33.1772C6.66104 33.1106 6.80728 33.0129 6.93046 32.8898C7.05365 32.7667 7.15136 32.6205 7.21803 32.4596C7.2847 32.2986 7.31902 32.1262 7.31902 31.952Z" fill="#FFC26F"/>
</svg>
