<svg width="18" height="18" viewBox="0 0 18 18" fill="none" xmlns="http://www.w3.org/2000/svg">
<path d="M2.8127 2.81235L2.8127 2.81235C4.52117 1.10381 6.76036 0.25 9 0.25C11.2396 0.25 13.4788 1.10381 15.1873 2.81235L15.3641 2.63557L15.1873 2.81235C18.6042 6.22934 18.6042 11.7702 15.1873 15.1872L15.3641 15.364L15.1873 15.1872C11.7704 18.6043 6.22961 18.6043 2.8127 15.1872C-0.604233 11.7702 -0.604233 6.22935 2.8127 2.81235ZM4.12129 4.12096L4.29807 4.29774L4.12129 4.12096C1.42709 6.81523 1.42707 11.1843 4.12129 13.8786C6.81553 16.5728 11.1845 16.5728 13.8787 13.8786C16.5729 11.1843 16.5729 6.81523 13.8787 4.12096L13.7019 4.29774L13.8787 4.12096C12.5316 2.77383 10.7651 2.10101 9 2.10101C7.23493 2.10101 5.46842 2.77383 4.12129 4.12096ZM8.07939 8.31596H8.32939V8.06596V4.1116H10.1309V10.1175H5.99929V8.31596H8.07939Z" fill="#333333" stroke="white" stroke-width="0.5"/>
</svg>
