<svg width="30" height="30" viewBox="0 0 30 30" fill="none" xmlns="http://www.w3.org/2000/svg">
<g id="tick" filter="url(#filter0_d_1_15897)">
<mask id="path-1-outside-1_1_15897" maskUnits="userSpaceOnUse" x="4" y="2" width="22" height="22" fill="black">
<rect fill="white" x="4" y="2" width="22" height="22"/>
<path fill-rule="evenodd" clip-rule="evenodd" d="M5 12.9752C5 10.3296 6.05096 7.7924 7.92168 5.92168C9.7924 4.05096 12.3296 3 14.9752 3C17.6208 3 20.1581 4.05096 22.0288 5.92168C23.8995 7.7924 24.9505 10.3296 24.9505 12.9752C24.9505 15.6208 23.8995 18.1581 22.0288 20.0288C20.1581 21.8995 17.6208 22.9505 14.9752 22.9505C12.3296 22.9505 9.7924 21.8995 7.92168 20.0288C6.05096 18.1581 5 15.6208 5 12.9752H5ZM14.406 17.2446L20.1491 10.0651L19.1116 9.23519L14.2145 15.3547L10.7457 12.4645L9.89452 13.486L14.406 17.246V17.2446Z"/>
</mask>
<path fill-rule="evenodd" clip-rule="evenodd" d="M5 12.9752C5 10.3296 6.05096 7.7924 7.92168 5.92168C9.7924 4.05096 12.3296 3 14.9752 3C17.6208 3 20.1581 4.05096 22.0288 5.92168C23.8995 7.7924 24.9505 10.3296 24.9505 12.9752C24.9505 15.6208 23.8995 18.1581 22.0288 20.0288C20.1581 21.8995 17.6208 22.9505 14.9752 22.9505C12.3296 22.9505 9.7924 21.8995 7.92168 20.0288C6.05096 18.1581 5 15.6208 5 12.9752H5ZM14.406 17.2446L20.1491 10.0651L19.1116 9.23519L14.2145 15.3547L10.7457 12.4645L9.89452 13.486L14.406 17.246V17.2446Z" fill="#CDCACA"/>
<path fill-rule="evenodd" clip-rule="evenodd" d="M5 12.9752C5 10.3296 6.05096 7.7924 7.92168 5.92168C9.7924 4.05096 12.3296 3 14.9752 3C17.6208 3 20.1581 4.05096 22.0288 5.92168C23.8995 7.7924 24.9505 10.3296 24.9505 12.9752C24.9505 15.6208 23.8995 18.1581 22.0288 20.0288C20.1581 21.8995 17.6208 22.9505 14.9752 22.9505C12.3296 22.9505 9.7924 21.8995 7.92168 20.0288C6.05096 18.1581 5 15.6208 5 12.9752H5ZM14.406 17.2446L20.1491 10.0651L19.1116 9.23519L14.2145 15.3547L10.7457 12.4645L9.89452 13.486L14.406 17.246V17.2446Z" stroke="white" stroke-width="2" mask="url(#path-1-outside-1_1_15897)"/>
</g>
<defs>
<filter id="filter0_d_1_15897" x="0" y="0" width="29.9507" height="29.9504" filterUnits="userSpaceOnUse" color-interpolation-filters="sRGB">
<feFlood flood-opacity="0" result="BackgroundImageFix"/>
<feColorMatrix in="SourceAlpha" type="matrix" values="0 0 0 0 0 0 0 0 0 0 0 0 0 0 0 0 0 0 127 0" result="hardAlpha"/>
<feOffset dy="2"/>
<feGaussianBlur stdDeviation="2"/>
<feComposite in2="hardAlpha" operator="out"/>
<feColorMatrix type="matrix" values="0 0 0 0 0 0 0 0 0 0 0 0 0 0 0 0 0 0 0.25 0"/>
<feBlend mode="normal" in2="BackgroundImageFix" result="effect1_dropShadow_1_15897"/>
<feBlend mode="normal" in="SourceGraphic" in2="effect1_dropShadow_1_15897" result="shape"/>
</filter>
</defs>
</svg>
