<svg width="25" height="19" viewBox="0 0 25 19" fill="none" xmlns="http://www.w3.org/2000/svg">
<rect width="25" height="19" fill="#F5F5F5"/>
<g clip-path="url(#clip0_0_1)">
<rect width="414" height="896" transform="translate(-345 -165)" fill="white"/>
<g filter="url(#filter0_d_0_1)">
<rect x="-328" y="-19" width="380" height="285" rx="12.6489" fill="white"/>
<rect x="-327.5" y="-18.5" width="379" height="284" rx="12.1489" stroke="#D7DEEA"/>
</g>
<path d="M12.4017 9.34202C12.3813 9.31213 12.3552 9.28797 12.3254 9.27135C12.2956 9.25473 12.2629 9.24609 12.2297 9.24609C12.1966 9.24609 12.1639 9.25473 12.1341 9.27135C12.1043 9.28797 12.0782 9.31213 12.0578 9.34202L9.00043 13.7702C8.97523 13.807 8.95959 13.8512 8.9553 13.8978C8.95102 13.9443 8.95826 13.9913 8.9762 14.0333C8.99414 14.0754 9.02205 14.1108 9.05675 14.1356C9.09145 14.1603 9.13153 14.1734 9.17241 14.1733H11.1897V21.7483C11.1897 21.8858 11.288 21.9983 11.4081 21.9983H13.0459C13.1661 21.9983 13.2643 21.8858 13.2643 21.7483V14.1764H15.2871C15.47 14.1764 15.571 13.9358 15.4591 13.7733L12.4017 9.34202Z" fill="#C19444"/>
<path d="M20.4023 6.45939C19.1521 2.68438 15.9664 0 12.2348 0C8.50323 0 5.31759 2.68126 4.06735 6.45627C1.72794 7.15939 0 9.60002 0 12.5C0 15.9532 2.44314 18.75 5.45681 18.75H6.55144C6.67155 18.75 6.76982 18.6375 6.76982 18.5V16.625C6.76982 16.4875 6.67155 16.375 6.55144 16.375H5.45681C4.53687 16.375 3.67154 15.9563 3.02731 15.1969C2.38582 14.4407 2.0446 13.4219 2.07462 12.3657C2.09919 11.5407 2.34487 10.7657 2.78982 10.1125C3.24569 9.4469 3.88446 8.96252 4.5942 8.7469L5.62878 8.43752L6.00822 7.29377C6.24298 6.58127 6.57055 5.91564 6.98275 5.31251C7.38968 4.71472 7.87171 4.18923 8.41315 3.75313C9.53508 2.85001 10.8563 2.37188 12.2348 2.37188C13.6134 2.37188 14.9346 2.85001 16.0565 3.75313C16.5997 4.19064 17.0802 4.71564 17.4869 5.31251C17.8991 5.91564 18.2267 6.58439 18.4614 7.29377L18.8381 8.43439L19.87 8.7469C21.3495 9.20315 22.3841 10.7438 22.3841 12.5C22.3841 13.5344 22.032 14.5094 21.3932 15.2407C21.0799 15.6014 20.7073 15.8874 20.2968 16.0821C19.8864 16.2768 19.4462 16.3764 19.0019 16.375H17.9073C17.7872 16.375 17.6889 16.4875 17.6889 16.625V18.5C17.6889 18.6375 17.7872 18.75 17.9073 18.75H19.0019C22.0156 18.75 24.4587 15.9532 24.4587 12.5C24.4587 9.60315 22.7362 7.16564 20.4023 6.45939Z" fill="#C19444"/>
</g>
<defs>
<filter id="filter0_d_0_1" x="-332" y="-19" width="388" height="293" filterUnits="userSpaceOnUse" color-interpolation-filters="sRGB">
<feFlood flood-opacity="0" result="BackgroundImageFix"/>
<feColorMatrix in="SourceAlpha" type="matrix" values="0 0 0 0 0 0 0 0 0 0 0 0 0 0 0 0 0 0 127 0" result="hardAlpha"/>
<feOffset dy="4"/>
<feGaussianBlur stdDeviation="2"/>
<feComposite in2="hardAlpha" operator="out"/>
<feColorMatrix type="matrix" values="0 0 0 0 0 0 0 0 0 0 0 0 0 0 0 0 0 0 0.25 0"/>
<feBlend mode="normal" in2="BackgroundImageFix" result="effect1_dropShadow_0_1"/>
<feBlend mode="normal" in="SourceGraphic" in2="effect1_dropShadow_0_1" result="shape"/>
</filter>
<clipPath id="clip0_0_1">
<rect width="414" height="896" fill="white" transform="translate(-345 -165)"/>
</clipPath>
</defs>
</svg>
