<svg width="26" height="26" viewBox="0 0 26 26" fill="none" xmlns="http://www.w3.org/2000/svg">
<circle cx="13" cy="13" r="12" fill="#E2E2E2" stroke="white" stroke-width="2"/>
<path d="M12.4583 12.3004L11.8894 11.447L10.7783 13.1137H15.7783L13.8339 10.3359L12.4583 12.3004Z" fill="#333333"/>
<path d="M11.6133 10.8889C12.0745 10.8889 12.4483 10.515 12.4483 10.0539C12.4483 9.59271 12.0745 9.21887 11.6133 9.21887C11.1522 9.21887 10.7783 9.59271 10.7783 10.0539C10.7783 10.515 11.1522 10.8889 11.6133 10.8889Z" fill="#333333"/>
<path d="M16.8889 7H9.66667C8.99667 7 8 7.44389 8 8.66667V16.4444C8 17.6672 8.99667 18.1111 9.66667 18.1111H18V17H9.67333C9.41667 16.9933 9.11111 16.8922 9.11111 16.4444C9.11111 15.9967 9.41667 15.8956 9.67333 15.8889H18V8.11111C18 7.49833 17.5017 7 16.8889 7ZM16.8889 14.7778H9.11111V8.66667C9.11111 8.21889 9.41667 8.11778 9.66667 8.11111H16.8889V14.7778Z" fill="#333333"/>
<path d="M12.4583 12.3004L11.8894 11.447L10.7783 13.1137H15.7783L13.8339 10.3359L12.4583 12.3004Z" fill="#333333"/>
<path d="M11.6133 10.8889C12.0745 10.8889 12.4483 10.515 12.4483 10.0539C12.4483 9.59271 12.0745 9.21887 11.6133 9.21887C11.1522 9.21887 10.7783 9.59271 10.7783 10.0539C10.7783 10.515 11.1522 10.8889 11.6133 10.8889Z" fill="#333333"/>
<path d="M16.8889 7H9.66667C8.99667 7 8 7.44389 8 8.66667V16.4444C8 17.6672 8.99667 18.1111 9.66667 18.1111H18V17H9.67333C9.41667 16.9933 9.11111 16.8922 9.11111 16.4444C9.11111 15.9967 9.41667 15.8956 9.67333 15.8889H18V8.11111C18 7.49833 17.5017 7 16.8889 7ZM16.8889 14.7778H9.11111V8.66667C9.11111 8.21889 9.41667 8.11778 9.66667 8.11111H16.8889V14.7778Z" fill="#333333"/>
</svg>
