<svg width="25" height="22" viewBox="0 0 25 22" fill="none" xmlns="http://www.w3.org/2000/svg">
<path d="M12.4017 9.34397C12.3813 9.31409 12.3552 9.28992 12.3254 9.2733C12.2956 9.25668 12.2629 9.24805 12.2297 9.24805C12.1966 9.24805 12.1639 9.25668 12.1341 9.2733C12.1043 9.28992 12.0782 9.31409 12.0578 9.34397L9.00043 13.7721C8.97523 13.8089 8.95959 13.8532 8.9553 13.8997C8.95102 13.9463 8.95826 13.9932 8.9762 14.0353C8.99414 14.0773 9.02205 14.1128 9.05675 14.1375C9.09145 14.1623 9.13153 14.1753 9.17241 14.1752C10.2865 14.1752 11.1897 15.0784 11.1897 16.1925V21.7502C11.1897 21.8877 11.288 22.0002 11.4081 22.0002H13.0459C13.1661 22.0002 13.2643 21.8877 13.2643 21.7502V16.2011C13.2643 15.084 14.1699 14.1784 15.2871 14.1784C15.47 14.1784 15.571 13.9377 15.4591 13.7752L12.4017 9.34397Z" fill="black"/>
<path d="M22.212 7.44638C21.213 6.61278 20.2049 5.69654 19.5633 4.56462C18.0062 1.81751 15.3053 0 12.2348 0C9.16593 0 6.46629 1.81349 4.90878 4.55742C4.2652 5.69126 3.25402 6.60861 2.25208 7.44283C0.887738 8.57878 0 10.4214 0 12.5C0 15.9532 2.44314 18.75 5.45681 18.75H6.55144C6.67155 18.75 6.76982 18.6375 6.76982 18.5V16.625C6.76982 16.4875 6.67155 16.375 6.55144 16.375H5.45681C4.53687 16.375 3.67154 15.9563 3.02731 15.1969C2.38582 14.4407 2.0446 13.4219 2.07462 12.3657C2.09919 11.5407 2.34487 10.7657 2.78982 10.1125C3.24569 9.4469 3.88446 8.96252 4.5942 8.7469C5.24263 8.55299 5.75569 8.05497 5.9688 7.4126L6.00822 7.29377C6.24298 6.58127 6.57055 5.91564 6.98275 5.31251C7.38968 4.71472 7.87171 4.18923 8.41315 3.75313C9.53508 2.85001 10.8563 2.37188 12.2348 2.37188C13.6134 2.37188 14.9346 2.85001 16.0565 3.75313C16.5997 4.19064 17.0802 4.71564 17.4869 5.31251C17.8991 5.91564 18.2267 6.58439 18.4614 7.29377L18.5 7.41065C18.712 8.05247 19.2231 8.55098 19.87 8.7469C21.3495 9.20315 22.3841 10.7438 22.3841 12.5C22.3841 13.5344 22.032 14.5094 21.3932 15.2407C21.0799 15.6014 20.7073 15.8874 20.2968 16.0821C19.8864 16.2768 19.4462 16.3764 19.0019 16.375H17.9073C17.7872 16.375 17.6889 16.4875 17.6889 16.625V18.5C17.6889 18.6375 17.7872 18.75 17.9073 18.75H19.0019C22.0156 18.75 24.4587 15.9532 24.4587 12.5C24.4587 10.4231 23.5733 8.58233 22.212 7.44638Z" fill="black"/>
</svg>
