<svg width="16" height="16" viewBox="0 0 16 16" fill="none" xmlns="http://www.w3.org/2000/svg">
<g clip-path="url(#clip0_1_15542)">
<path d="M7.88598 7.70726C8.94482 7.70726 9.86156 7.3275 10.6108 6.57824C11.3598 5.82909 11.7397 4.91247 11.7397 3.85351C11.7397 2.79492 11.36 1.87817 10.6107 1.12878C9.86144 0.37976 8.94469 0 7.88598 0C6.82702 0 5.9104 0.37976 5.16125 1.1289C4.41211 1.87805 4.03223 2.79479 4.03223 3.85351C4.03223 4.91247 4.41211 5.82921 5.16125 6.57836C5.91064 7.32738 6.82739 7.70726 7.88598 7.70726ZM5.82434 1.79187C6.39917 1.21704 7.07348 0.93762 7.88598 0.93762C8.69836 0.93762 9.37279 1.21704 9.94774 1.79187C10.5226 2.36682 10.8021 3.04125 10.8021 3.85351C10.8021 4.66601 10.5226 5.34032 9.94774 5.91527C9.37279 6.49022 8.69836 6.76964 7.88598 6.76964C7.07372 6.76964 6.39941 6.4901 5.82434 5.91527C5.24939 5.34044 4.96985 4.66601 4.96985 3.85351C4.96985 3.04125 5.24939 2.36682 5.82434 1.79187Z" fill="#C19444"/>
<path d="M14.629 12.305C14.6074 11.9933 14.5637 11.6532 14.4994 11.2941C14.4344 10.9322 14.3508 10.5902 14.2507 10.2776C14.1472 9.95446 14.0067 9.63537 13.8327 9.32959C13.6524 9.0122 13.4405 8.73584 13.2027 8.50842C12.9541 8.27051 12.6496 8.07922 12.2976 7.9397C11.9468 7.8009 11.558 7.73059 11.1421 7.73059C10.9787 7.73059 10.8208 7.79761 10.5157 7.99622C10.328 8.11865 10.1084 8.26025 9.86327 8.41687C9.65367 8.55041 9.36974 8.67554 9.01903 8.78882C8.67687 8.89953 8.32945 8.95569 7.98644 8.95569C7.64366 8.95569 7.29625 8.89953 6.95385 8.78882C6.60351 8.67566 6.31945 8.55054 6.11022 8.41699C5.86742 8.26184 5.6477 8.12024 5.45715 7.99609C5.15234 7.79749 4.99438 7.73047 4.83105 7.73047C4.41503 7.73047 4.02636 7.8009 3.67565 7.93982C3.32385 8.0791 3.01928 8.27038 2.77038 8.50854C2.53259 8.73608 2.32068 9.01233 2.1405 9.32959C1.9668 9.63537 1.82617 9.95434 1.72266 10.2777C1.62268 10.5903 1.53906 10.9322 1.47412 11.2941C1.40967 11.6527 1.36609 11.9929 1.34448 12.3054C1.32324 12.611 1.3125 12.9289 1.3125 13.2502C1.3125 14.0854 1.578 14.7616 2.10156 15.2602C2.61865 15.7523 3.30273 16.0018 4.13488 16.0018H11.839C12.6709 16.0018 13.355 15.7523 13.8722 15.2602C14.3958 14.7619 14.6614 14.0856 14.6614 13.2501C14.6612 12.9277 14.6504 12.6097 14.629 12.305ZM13.2257 14.5809C12.884 14.9061 12.4304 15.0642 11.8388 15.0642H4.13488C3.54321 15.0642 3.0896 14.9061 2.74804 14.581C2.41296 14.2621 2.25012 13.8266 2.25012 13.2502C2.25012 12.9504 2.26001 12.6544 2.27978 12.3702C2.29907 12.0914 2.3385 11.7851 2.39697 11.4597C2.45471 11.1383 2.5282 10.8367 2.6156 10.5636C2.69946 10.3018 2.81384 10.0425 2.95569 9.79272C3.09106 9.55468 3.24682 9.35046 3.4187 9.18591C3.57946 9.03198 3.7821 8.906 4.02087 8.81152C4.24169 8.72412 4.48986 8.67627 4.75927 8.66907C4.79211 8.68652 4.85058 8.71985 4.94531 8.78161C5.13805 8.90722 5.36022 9.05053 5.60583 9.20739C5.88268 9.38391 6.23937 9.54333 6.66552 9.6809C7.10119 9.82177 7.54552 9.89331 7.98656 9.89331C8.4276 9.89331 8.87206 9.82177 9.30748 9.68103C9.73399 9.54321 10.0906 9.38391 10.3678 9.20715C10.6191 9.04651 10.8351 8.90735 11.0278 8.78161C11.1225 8.71997 11.181 8.68652 11.2138 8.66907C11.4834 8.67627 11.7315 8.72412 11.9525 8.81152C12.1911 8.906 12.3938 9.0321 12.5545 9.18591C12.7264 9.35034 12.8822 9.55456 13.0176 9.79284C13.1595 10.0425 13.274 10.3019 13.3578 10.5635C13.4453 10.8369 13.5189 11.1384 13.5765 11.4596C13.6349 11.7856 13.6744 12.092 13.6937 12.3704V12.3706C13.7136 12.6537 13.7236 12.9496 13.7237 13.2502C13.7236 13.8268 13.5608 14.2621 13.2257 14.5809Z" fill="#C19444"/>
</g>
<defs>
<clipPath id="clip0_1_15542">
<rect width="16" height="16" fill="white"/>
</clipPath>
</defs>
</svg>
