<svg width="16" height="18" viewBox="0 0 16 18" fill="none" xmlns="http://www.w3.org/2000/svg">
<path d="M13.5897 9.12418C13.5224 9.05851 13.442 9.00628 13.3534 8.97054C13.2647 8.9348 13.1695 8.91627 13.0732 8.91602C12.977 8.91577 12.8816 8.93381 12.7927 8.96909C12.7039 9.00436 12.6232 9.05617 12.5556 9.12149C12.4879 9.18682 12.4345 9.26435 12.3985 9.34956C12.3625 9.43478 12.3447 9.52598 12.346 9.61784C12.3473 9.70971 12.3678 9.8004 12.4062 9.88464C12.4446 9.96888 12.5002 10.045 12.5698 10.1085C13.1851 10.6865 13.6733 11.3759 14.0057 12.1364C14.3381 12.8969 14.508 13.7131 14.5055 14.5372C14.5055 15.3839 11.9627 16.6141 7.97802 16.6141C3.99331 16.6141 1.45058 15.3833 1.45058 14.5358C1.44814 13.7174 1.61577 12.9067 1.94379 12.1506C2.2718 11.3945 2.75368 10.708 3.36152 10.1309C3.43027 10.0669 3.48503 9.9905 3.52261 9.90617C3.5602 9.82183 3.57987 9.7312 3.58048 9.63955C3.58108 9.5479 3.56262 9.45705 3.52616 9.37226C3.48969 9.28747 3.43596 9.21044 3.36806 9.14563C3.30017 9.08082 3.21947 9.02953 3.13064 8.99472C3.04182 8.95992 2.94664 8.9423 2.85062 8.94288C2.75461 8.94346 2.65967 8.96223 2.57131 8.99811C2.48296 9.03398 2.40295 9.08625 2.33592 9.15188C1.59282 9.85747 1.00374 10.6968 0.602781 11.6211C0.201823 12.5455 -0.00304677 13.5367 3.42412e-05 14.5372C3.42412e-05 16.7855 4.11015 17.9987 7.97802 17.9987C11.8459 17.9987 15.956 16.7855 15.956 14.5372C15.9592 13.5299 15.7516 12.5322 15.3452 11.6027C14.9388 10.6731 14.342 9.83047 13.5897 9.12418Z" fill="#C19444"/>
<path d="M7.97781 9.69225C8.98193 9.69225 9.96349 9.40803 10.7984 8.87553C11.6333 8.34303 12.284 7.58617 12.6683 6.70066C13.0525 5.81515 13.1531 4.84075 12.9572 3.90069C12.7613 2.96064 12.2777 2.09714 11.5677 1.4194C10.8577 0.741656 9.95309 0.280108 8.96827 0.0931191C7.98344 -0.0938697 6.96265 0.00209974 6.03496 0.368891C5.10728 0.735683 4.31438 1.35682 3.75652 2.15376C3.19866 2.95071 2.90091 3.88765 2.90091 4.84613C2.90246 6.13094 3.43785 7.36271 4.38962 8.27122C5.34138 9.17972 6.63181 9.69077 7.97781 9.69225ZM7.97781 1.38461C8.69504 1.38461 9.39616 1.58762 9.99251 1.96798C10.5889 2.34834 11.0537 2.88895 11.3281 3.52146C11.6026 4.15397 11.6744 4.84997 11.5345 5.52144C11.3946 6.1929 11.0492 6.80969 10.542 7.29379C10.0349 7.77789 9.38872 8.10757 8.68528 8.24113C7.98183 8.3747 7.25269 8.30615 6.59006 8.04415C5.92743 7.78216 5.36107 7.33849 4.9626 6.76924C4.56414 6.2 4.35145 5.53075 4.35145 4.84613C4.35259 3.92841 4.73501 3.04858 5.41484 2.39966C6.09467 1.75073 7.01639 1.38569 7.97781 1.38461Z" fill="#C19444"/>
</svg>
