<svg width="26" height="27" viewBox="0 0 26 27" fill="none" xmlns="http://www.w3.org/2000/svg">
<path d="M25.417 4.51476L22.2309 1.32865C21.9571 1.06754 21.5932 0.921875 21.2148 0.921875C20.8364 0.921875 20.4726 1.06754 20.1987 1.32865L17.3657 4.17031H2.16705C1.71028 4.17031 1.27223 4.35176 0.949251 4.67474C0.626272 4.99772 0.444824 5.43577 0.444824 5.89254V24.837C0.444824 25.2937 0.626272 25.7318 0.949251 26.0548C1.27223 26.3778 1.71028 26.5592 2.16705 26.5592H21.1115C21.5683 26.5592 22.0063 26.3778 22.3293 26.0548C22.6523 25.7318 22.8337 25.2937 22.8337 24.837V9.13031L25.417 6.54698C25.6863 6.27735 25.8375 5.9119 25.8375 5.53087C25.8375 5.14984 25.6863 4.78439 25.417 4.51476ZM13.2151 16.3378L9.60705 17.1386L10.4682 13.565L18.6918 5.3242L21.4732 8.10559L13.2151 16.3378ZM22.4032 7.12393L19.6218 4.34254L21.2148 2.74948L23.9962 5.53087L22.4032 7.12393Z" fill="#C19444"/>
</svg>
